<?xml version="1.0" encoding="utf-8"?>
<!-- Generator: Adobe Illustrator 16.0.0, SVG Export Plug-In . SVG Version: 6.00 Build 0)  -->
<!DOCTYPE svg PUBLIC "-//W3C//DTD SVG 1.1//EN" "http://www.w3.org/Graphics/SVG/1.1/DTD/svg11.dtd">
<svg version="1.1" id="Layer_1" xmlns="http://www.w3.org/2000/svg" xmlns:xlink="http://www.w3.org/1999/xlink" x="0px" y="0px"
	 width="1050px" height="480px" viewBox="0 0 1050 480" enable-background="new 0 0 1050 480" xml:space="preserve">
<path fill="#EB00FF" d="M208.283,323.931c0-10.144,1.013-20.051,2.933-29.63c-52.257-15.925-92.41-59.605-103.283-113.871
	C46.451,199.167,1.717,256.321,1.717,323.931c0,82.852,67.157,150.01,150,150.01c40.024,0,76.386-15.679,103.283-41.227
	C226.226,405.385,208.283,366.749,208.283,323.931z"/>
<path fill="#FFFF00" d="M402.068,180.431c-10.873,54.266-51.025,97.946-103.283,113.871c1.919,9.579,2.933,19.485,2.933,29.629
	c0,42.818-17.943,81.454-46.717,108.784c26.897,25.548,63.258,41.227,103.283,41.227c82.844,0,150-67.158,150-150.01
	C508.283,256.321,463.55,199.167,402.068,180.431z"/>
<path fill="#FF0000" d="M301.717,323.931c0-10.144-1.013-20.05-2.933-29.629c-13.852,4.221-28.552,6.5-43.785,6.5
	s-29.933-2.278-43.785-6.5c-1.919,9.579-2.933,19.486-2.933,29.63c0,42.818,17.943,81.454,46.717,108.784
	C283.774,405.385,301.717,366.749,301.717,323.931z"/>
<path fill="#00FFFF" d="M255,215.157c26.897-25.548,63.258-41.226,103.283-41.226c15.233,0,29.933,2.278,43.785,6.5
	c1.92-9.579,2.933-19.485,2.933-29.629c0-82.843-67.156-150-150-150c-82.842,0-150,67.157-150,150
	c0,10.144,1.013,20.05,2.933,29.629c13.852-4.221,28.552-6.5,43.785-6.5C191.742,173.931,228.103,189.609,255,215.157z"/>
<path fill="#0000FF" d="M211.215,294.301c6.182-30.854,21.827-58.289,43.785-79.144c-26.897-25.548-63.258-41.226-103.283-41.226
	c-15.233,0-29.933,2.278-43.785,6.5C118.806,234.696,158.958,278.376,211.215,294.301z"/>
<path fill="#00FF00" d="M255,215.157c21.958,20.855,37.603,48.29,43.785,79.145c52.258-15.925,92.41-59.605,103.283-113.871
	c-13.853-4.221-28.552-6.5-43.785-6.5C318.258,173.931,281.897,189.609,255,215.157z"/>
<path d="M255,215.157c-21.958,20.855-37.603,48.29-43.785,79.144c13.852,4.222,28.552,6.5,43.785,6.5s29.933-2.278,43.785-6.5
	C292.603,263.447,276.958,236.013,255,215.157z"/>
<path fill="#EB008B" d="M743.478,323.931c0-10.144,1.013-20.051,2.933-29.63c-52.257-15.925-92.41-59.605-103.283-113.871
	c-61.481,18.736-106.215,75.891-106.215,143.5c0,82.852,67.157,150.01,150,150.01c40.024,0,76.386-15.679,103.283-41.227
	C761.42,405.385,743.478,366.749,743.478,323.931z"/>
<path fill="#FFF100" d="M937.263,180.431c-10.873,54.266-51.025,97.946-103.283,113.871c1.919,9.579,2.933,19.485,2.933,29.629
	c0,42.818-17.943,81.454-46.717,108.784c26.896,25.548,63.258,41.227,103.282,41.227c82.844,0,150-67.158,150-150.01
	C1043.478,256.321,998.746,199.167,937.263,180.431z"/>
<path fill="#EC1C24" d="M836.913,323.931c0-10.144-1.014-20.05-2.933-29.629c-13.853,4.221-28.552,6.5-43.784,6.5
	c-15.233,0-29.934-2.278-43.785-6.5c-1.92,9.579-2.933,19.486-2.933,29.63c0,42.818,17.942,81.454,46.718,108.784
	C818.969,405.385,836.913,366.749,836.913,323.931z"/>
<path fill="#00ADEE" d="M790.196,215.157c26.896-25.548,63.258-41.226,103.282-41.226c15.233,0,29.933,2.278,43.785,6.5
	c1.92-9.579,2.933-19.485,2.933-29.629c0-82.843-67.156-150-150-150c-82.842,0-150,67.157-150,150
	c0,10.144,1.013,20.05,2.932,29.629c13.853-4.221,28.553-6.5,43.785-6.5C726.937,173.931,763.298,189.609,790.196,215.157z"/>
<path fill="#2E3191" d="M746.411,294.301c6.182-30.854,21.827-58.289,43.785-79.144c-26.897-25.548-63.259-41.226-103.283-41.226
	c-15.232,0-29.933,2.278-43.785,6.5C654,234.696,694.154,278.376,746.411,294.301z"/>
<path fill="#00A551" d="M790.196,215.157c21.957,20.855,37.602,48.29,43.784,79.145c52.258-15.925,92.41-59.605,103.283-113.871
	c-13.853-4.221-28.552-6.5-43.785-6.5C853.454,173.931,817.092,189.609,790.196,215.157z"/>
<path fill="#363639" d="M790.196,215.157c-21.958,20.855-37.604,48.29-43.785,79.144c13.852,4.222,28.552,6.5,43.785,6.5
	c15.232,0,29.932-2.278,43.784-6.5C827.797,263.447,812.153,236.013,790.196,215.157z"/>
</svg>
