<?xml version="1.0" encoding="utf-8"?>
<!DOCTYPE svg PUBLIC "-//W3C//DTD SVG 1.1//EN" "http://www.w3.org/Graphics/SVG/1.1/DTD/svg11.dtd">
<svg version="1.1" xmlns="http://www.w3.org/2000/svg" xmlns:xlink="http://www.w3.org/1999/xlink" width="170.218px"
	 height="170.277px" viewBox="0 0 170.218 170.277" enable-background="new 0 0 170.218 170.277" xml:space="preserve" fill="white">
<circle id="circle53_1_" cx="85.314" cy="85.462" r="31.236"/>
<path opacity="0.8" d="M47.111,8.936c-12.343,6.134-23.002,15.161-31.081,26.292l-0.046-0.048l-1.523,2.285l34.284,59.426
	c-2.54-8.547-2-17.714,1.523-25.904l-0.289-0.301c4.194-9.952,12.562-18.069,23.671-21.564c3.529-1.109,7.203-1.701,10.902-1.752
	l76.947-0.001C140.525,5.169,89.312-12.038,47.111,8.936z"/>
<path opacity="0.6" d="M92.171,122.033l-0.066,0.209c-10.768,2.073-22.345-0.495-31.465-8.02
	c-5.512-4.548-9.634-10.553-11.895-17.33L14.461,37.466C-11.78,76.61-1.32,129.614,37.824,155.855
	c11.699,7.843,25.153,12.652,39.154,14.031l-0.045,0.144h1.524l35.808-60.948C108.615,115.819,100.809,120.394,92.171,122.033z"/>
<path opacity="0.4" d="M162.621,49.756l0.402-0.101l-1.523-2.286H84.552c0.01,0,0.02,0.001,0.03,0.001h-0.03
	c0.105,0,0.208,0.008,0.313,0.009c0.586,0.008,1.172,0.024,1.755,0.058c0.199,0.012,0.396,0.033,0.594,0.048
	c0.503,0.038,1.006,0.078,1.505,0.135c0.177,0.02,0.352,0.047,0.527,0.07c0.527,0.068,1.054,0.142,1.576,0.232
	c0.142,0.024,0.282,0.052,0.424,0.078c0.562,0.103,1.123,0.216,1.679,0.344c0.103,0.023,0.204,0.048,0.307,0.072
	c0.604,0.145,1.204,0.302,1.8,0.476c0.056,0.016,0.112,0.032,0.169,0.049c3.332,0.988,6.51,2.428,9.447,4.274
	c0.115,0.073,0.229,0.149,0.344,0.223c0.439,0.283,0.874,0.575,1.302,0.876c0.164,0.116,0.327,0.233,0.489,0.352
	c0.374,0.272,0.742,0.553,1.107,0.838c0.18,0.142,0.36,0.283,0.538,0.427c0.352,0.287,0.696,0.583,1.037,0.882
	c0.168,0.146,0.338,0.29,0.502,0.439c0.424,0.384,0.839,0.781,1.246,1.186c0.067,0.066,0.139,0.13,0.205,0.197
	c0.471,0.475,0.929,0.964,1.376,1.465c0.119,0.134,0.233,0.274,0.352,0.41c0.33,0.381,0.657,0.767,0.974,1.163
	c5.257,6.565,8.392,14.9,8.35,23.966c-0.039,8.511-2.929,16.766-8.205,23.443L78.457,170.03
	c46.992,3.552,87.965-31.662,91.518-78.653C171.054,77.092,168.518,62.782,162.621,49.756z"/>
</svg>
