<?xml version="1.0" encoding="utf-8"?>
<svg version="1.0" xmlns="http://www.w3.org/2000/svg" width="136.515px" height="147.186px" viewBox="0 0 136.515 147.186">
	<path fill="#FFFFFF" d="M107.455,11.57C96.669,4.115,83.328,0,68.279,0C54.516,0,42.181,3.439,31.924,9.727
		C12.165,21.711,0,44.145,0,72.891c0,38.883,27.299,74.295,68.255,74.295c40.967,0,68.26-35.412,68.26-74.295
		C136.515,45.559,125.521,23.934,107.455,11.57z M68.277,13.002c21.972,0,26.441,30.66,26.441,58.5
		c0,25.789-2.486,60.314-26.171,60.314c-23.687,0-26.749-34.863-26.749-60.65C41.798,43.328,46.302,13.002,68.277,13.002z"/>
</svg>
