<?xml version="1.0" encoding="utf-8"?>
<svg version="1.1" id="Layer_1" xmlns="http://www.w3.org/2000/svg" width="226px" height="224px" viewBox="0 0 226 224">
<path fill="#FFFFFF" d="M211.635,69.494c10.826-24.712,11.577-45.55-0.827-57.953c-13.614-13.791-47.013-9.652-81.691,6.715
	c-1.462-0.062-2.918-0.103-4.38-0.103c-24.689,0-48.502,8.856-66.598,24.938c-15.21,13.516-25.846,31.544-30.76,51.757
	c3.457-4.209,22.843-27.024,44.739-39.302c0.433-0.244,5.976-3.126,6.427-3.239c-0.38,0.34-11.204,10.351-13.139,12.31
	c-48.559,49.037-76.888,124.055-55.088,146.411c14.344,14.345,40.623,10.761,71.043-5.59c13.022,6.021,27.685,9.155,43.378,9.155
	c20.577,0,40.033-5.714,56.259-16.524c16.998-11.327,29.833-28.013,37.188-48.309h-53.566c-6.89,13.136-22.992,22.255-39.393,22.255
	c-23.288,0-42.96-19.039-42.993-41.592l-0.087-0.874l-0.113-1.067h1.072h138.977c0.063-0.692,0.129-1.429,0.203-2.193
	c0.324-3.452,0.69-7.357,0.69-10.382C222.978,99.223,219.045,83.413,211.635,69.494z M25.576,206.924
	c-10.788-10.791-7.816-32.213,5.729-57.979c6.302,17.489,16.427,32.41,29.689,43.579c4.261,3.585,8.829,6.751,13.659,9.487
	C52.531,213.46,34.685,216.027,25.576,206.924z M77.396,203.483c0.2,0.106,0.395,0.215,0.598,0.319
	C77.789,203.698,77.596,203.589,77.396,203.483z M166.836,102.343H83.132h-1.025l0.054-1.019c1.109-21.5,21.45-39.664,44.432-39.664
	c22.038,0,40.142,17.425,41.207,39.667l0.049,1.017H166.836z M192.778,44.906c-9.499-8.877-20.8-15.771-32.997-20.341
	c22.146-10.071,40.288-11.424,49.93-1.783c8.019,8.013,6.984,22.799-1.178,41.307c0.009,0.012,0.014,0.022,0.019,0.033
	C204.213,57.113,198.931,50.661,192.778,44.906z M210.216,66.922c-0.046-0.09-0.1-0.177-0.15-0.266
	C210.116,66.745,210.168,66.832,210.216,66.922z"/>
<path fill="#FFFFFF" d="M197.718,208.233c0,1.79-0.619,3.295-1.859,4.516c-1.234,1.221-2.759,1.831-4.572,1.831
	c-1.834,0-3.352-0.595-4.56-1.782c-1.208-1.19-1.812-2.693-1.812-4.512c0-1.784,0.614-3.294,1.842-4.517
	c1.227-1.225,2.754-1.841,4.58-1.841c1.789,0,3.297,0.587,4.512,1.759C197.094,204.887,197.718,206.399,197.718,208.233z
	 M196.948,208.266c0-1.61-0.547-2.95-1.638-4.025c-1.094-1.076-2.425-1.614-3.993-1.614c-1.628,0-2.976,0.543-4.045,1.626
	c-1.073,1.082-1.608,2.421-1.608,4.014c0,1.62,0.552,2.974,1.662,4.061c1.084,1.066,2.416,1.603,3.991,1.603
	c1.561,0,2.887-0.541,3.984-1.625C196.397,211.221,196.948,209.877,196.948,208.266z M194.414,212.248h-1.38l-0.888-1.951
	c-0.448-0.981-0.934-1.467-1.45-1.467h-0.751v3.418h-1.144v-8.138h2.295c1.014,0,1.781,0.229,2.302,0.683
	c0.444,0.394,0.665,0.904,0.665,1.536c0,0.558-0.182,1.035-0.543,1.426c-0.358,0.393-0.866,0.655-1.521,0.79v0.036
	c0.453,0.104,0.903,0.604,1.346,1.499L194.414,212.248z M192.845,206.465c0-0.466-0.131-0.802-0.393-1.013
	c-0.297-0.238-0.797-0.358-1.501-0.358h-1.006v2.771h1.219C192.283,207.864,192.845,207.397,192.845,206.465z"/>
</svg>
