<svg xmlns="http://www.w3.org/2000/svg" viewBox="49.1 26.0 612.6 724.2"
     width="613" height="724"
     font-family="ui-sans-serif, system-ui, sans-serif" style="max-width:100%;height:auto">
  <defs>
    <style>
      .locus { fill:none; stroke:#222; stroke-width:0.0025; stroke-linejoin:round; }
      .gamut { fill:none; stroke-width:0.0035; stroke-linejoin:round; }
      .leg   { font-size:14px; fill:#222; }
      .lbl   { font-size:13px; fill:#444; }
    </style>
  </defs>

  <rect x="49.1" y="26.0" width="612.6" height="724.2" fill="#fff"/>

  <!-- xy space: +y up, raw chromaticity coords. A gamut = one closed <polygon> of the
       R,G,B primaries + three <circle>s (red/green/blue) at the same coords, e.g.
         <polygon class="gamut" stroke="#888" points="0.64 0.33 0.30 0.60 0.15 0.06"/>
         <circle cx="0.64" cy="0.33" r="0.0075" fill="#e53935"/>  (R)
         <circle cx="0.30" cy="0.60" r="0.0075" fill="#2e9e3a"/>  (G)
         <circle cx="0.15" cy="0.06" r="0.0075" fill="#1e88e5"/>  (B) -->
  <g transform="translate(60.0 740.0) scale(800.0 -800.0)">
      <path class="locus" d="M 0.1741,0.0050 Q 0.1740,0.0050 0.1739,0.0049 Q 0.1738,0.0049 0.1737,0.0049 Q 0.1736,0.0049 0.1734,0.0049 Q 0.1733,0.0048 0.1731,0.0048 Q 0.1730,0.0048 0.1728,0.0048 Q 0.1726,0.0048 0.1724,0.0048 Q 0.1721,0.0048 0.1718,0.0049 Q 0.1714,0.0051 0.1709,0.0054 Q 0.1703,0.0058 0.1696,0.0063 Q 0.1689,0.0069 0.1679,0.0077 Q 0.1669,0.0086 0.1656,0.0097 Q 0.1644,0.0109 0.1628,0.0123 Q 0.1611,0.0138 0.1588,0.0158 Q 0.1566,0.0177 0.1538,0.0202 Q 0.1510,0.0227 0.1475,0.0262 Q 0.1440,0.0297 0.1397,0.0348 Q 0.1355,0.0399 0.1298,0.0488 Q 0.1241,0.0578 0.1169,0.0723 Q 0.1096,0.0868 0.1005,0.1098 Q 0.0913,0.1327 0.0800,0.1667 Q 0.0687,0.2007 0.0571,0.2478 Q 0.0454,0.2950 0.0345,0.3538 Q 0.0235,0.4127 0.0158,0.4756 Q 0.0082,0.5384 0.0060,0.5966 Q 0.0039,0.6548 0.0089,0.7025 Q 0.0139,0.7502 0.0264,0.7811 Q 0.0389,0.8120 0.0566,0.8229 Q 0.0743,0.8338 0.0943,0.8300 Q 0.1142,0.8262 0.1345,0.8160 Q 0.1547,0.8059 0.1738,0.7937 Q 0.1929,0.7816 0.2112,0.7679 Q 0.2296,0.7543 0.2477,0.7393 Q 0.2658,0.7243 0.2837,0.7083 Q 0.3016,0.6923 0.3195,0.6756 Q 0.3374,0.6588 0.3552,0.6417 Q 0.3731,0.6245 0.3909,0.6071 Q 0.4087,0.5896 0.4264,0.5721 Q 0.4441,0.5547 0.4615,0.5374 Q 0.4788,0.5202 0.4956,0.5034 Q 0.5125,0.4866 0.5286,0.4705 Q 0.5448,0.4544 0.5600,0.4393 Q 0.5752,0.4242 0.5891,0.4103 Q 0.6029,0.3965 0.6149,0.3845 Q 0.6270,0.3725 0.6376,0.3619 Q 0.6482,0.3514 0.6570,0.3427 Q 0.6658,0.3340 0.6729,0.3268 Q 0.6801,0.3197 0.6858,0.3140 Q 0.6915,0.3083 0.6961,0.3038 Q 0.7006,0.2993 0.7043,0.2956 Q 0.7079,0.2920 0.7109,0.2889 Q 0.7140,0.2859 0.7165,0.2834 Q 0.7190,0.2809 0.7210,0.2789 Q 0.7230,0.2769 0.7245,0.2754 Q 0.7260,0.2740 0.7271,0.2729 Q 0.7283,0.2717 0.7291,0.2709 Q 0.7300,0.2700 0.7306,0.2694 Q 0.7311,0.2689 0.7315,0.2684 Q 0.7320,0.2680 0.7324,0.2676 Q 0.7327,0.2673 0.7330,0.2670 Q 0.7334,0.2666 0.7337,0.2663 Q 0.7340,0.2660 0.7342,0.2658 Q 0.7344,0.2656 0.7345,0.2655 Q 0.7346,0.2654 0.7347,0.2653 Q 0.7347,0.2653 0.7347,0.2653 Z"/>
      <circle cx="0.3127" cy="0.3290" r="0.006" fill="#000"/>
      <polygon class="gamut" points="0.708 0.292 0.17 0.797 0.131 0.046" stroke="#7e57c2"><title>Rec.2020</title></polygon>
      <circle cx="0.708" cy="0.292" r="0.0075" fill="#e53935"/>
      <circle cx="0.17" cy="0.797" r="0.0075" fill="#2e9e3a"/>
      <circle cx="0.131" cy="0.046" r="0.0075" fill="#1e88e5"/>
      <polygon class="gamut" points="0.68 0.32 0.265 0.69 0.15 0.06" stroke="#00897b"><title>Display P3</title></polygon>
      <circle cx="0.68" cy="0.32" r="0.0075" fill="#e53935"/>
      <circle cx="0.265" cy="0.69" r="0.0075" fill="#2e9e3a"/>
      <circle cx="0.15" cy="0.06" r="0.0075" fill="#1e88e5"/>
      <polygon class="gamut" points="0.64 0.33 0.3 0.6 0.15 0.06" stroke="#fb8c00"><title>sRGB</title></polygon>
      <circle cx="0.64" cy="0.33" r="0.0075" fill="#e53935"/>
      <circle cx="0.3" cy="0.6" r="0.0075" fill="#2e9e3a"/>
      <circle cx="0.15" cy="0.06" r="0.0075" fill="#1e88e5"/>
  </g>

  <text x="316.0" y="484.0" class="lbl">D65</text>
  <line x1="466.0" y1="48.0" x2="484.0" y2="48.0" stroke="#7e57c2" stroke-width="3"/>
  <text x="490.0" y="52.0" class="leg">Rec.2020</text>
  <line x1="466.0" y1="70.0" x2="484.0" y2="70.0" stroke="#00897b" stroke-width="3"/>
  <text x="490.0" y="74.0" class="leg">Display P3</text>
  <line x1="466.0" y1="92.0" x2="484.0" y2="92.0" stroke="#fb8c00" stroke-width="3"/>
  <text x="490.0" y="96.0" class="leg">sRGB</text>
</svg>
