<?xml version="1.0" encoding="utf-8"?>
<svg version="1.1" id="w3c" xmlns="http://www.w3.org/2000/svg" xmlns:xlink="http://www.w3.org/1999/xlink" viewBox="0 0 68 33" fill="white">
<path class="st0" d="M16.1,0.5l5.8,19.6l5.8-19.6h4.2h11.4v1.9l-5.9,10.1c2.1,0.7,3.6,1.9,4.7,3.6c1.1,1.7,1.6,3.8,1.6,6.2
	c0,2.9-0.8,5.4-2.3,7.3s-3.6,3-6,3c-1.9,0-3.5-0.6-4.8-1.8c-1.4-1.2-2.4-2.8-3.1-4.8l3.3-1.3c0.5,1.2,1.1,2.2,1.9,2.9
	c0.8,0.7,1.7,1.1,2.8,1.1c1.1,0,2.1-0.6,2.8-1.9c0.8-1.2,1.2-2.7,1.2-4.5c0-1.9-0.4-3.4-1.2-4.5c-1-1.2-2.5-1.9-4.5-1.9H32v-1.9
	l5.6-9.6h-6.7l-0.4,0.6l-8.2,27.5h-0.4l-6-19.9l-6,19.9H9.6L0,0.5h4.2L10,20.1l3.9-13.2l-1.9-6.4C11.9,0.5,16.1,0.5,16.1,0.5z"/>
<g>
	<path class="st0" d="M64.9,0.5c-0.8,0-1.6,0.3-2.1,0.9c-0.6,0.6-0.9,1.4-0.9,2.2s0.3,1.5,0.9,2.1c0.6,0.6,1.3,0.9,2.1,0.9
		c0.8,0,1.6-0.3,2.2-0.9C67.7,5.1,68,4.4,68,3.5c0-0.8-0.3-1.6-0.9-2.1C66.5,0.8,65.7,0.5,64.9,0.5z M67.6,3.6
		c0,0.7-0.3,1.4-0.8,1.8c-0.5,0.5-1.2,0.8-1.9,0.8c-0.7,0-1.3-0.3-1.8-0.8s-0.8-1.2-0.8-1.8s0.3-1.4,0.8-1.9
		c0.5-0.5,1.1-0.8,1.8-0.8c0.7,0,1.4,0.3,1.9,0.8C67.3,2.2,67.6,2.8,67.6,3.6z M65,1.8h-1.3v3.4h0.6V3.7H65l0.7,1.5h0.7l-0.8-1.6
		c0.5-0.1,0.8-0.4,0.8-0.9C66.4,2.1,66,1.8,65,1.8z M64.9,2.2c0.6,0,0.9,0.2,0.9,0.6c0,0.4-0.3,0.5-0.9,0.5h-0.5V2.2
		C64.4,2.2,64.9,2.2,64.9,2.2z"/>
	<path class="st0" d="M59.8,0.3l0.7,4.1L58.1,9c0,0-0.9-1.9-2.4-3c-1.3-0.9-2.1-1.1-3.4-0.8c-1.7,0.3-3.6,2.4-4.4,4.8
		c-1,3-1,4.4-1,5.7c-0.1,2.1,0.3,3.4,0.3,3.4s-1.5-2.7-1.4-6.6c0-2.8,0.5-5.4,1.8-7.9c1.1-2.2,2.8-3.5,4.3-3.7
		c1.6-0.2,2.8,0.6,3.7,1.4c1,0.9,2,2.7,2,2.7L59.8,0.3z"/>
	<path class="st0" d="M60.1,23.6c0,0-1.1,1.9-1.7,2.6c-0.7,0.7-1.8,2-3.3,2.7s-2.2,0.8-3.7,0.6c-1.4-0.1-2.8-1-3.2-1.3
		c-0.5-0.3-1.7-1.4-2.3-2.3S44.1,23,44.1,23s0.6,1.9,1,2.7c0.2,0.5,0.9,1.9,1.8,3.1c0.9,1.2,2.5,3.2,5.1,3.6c2.5,0.5,4.3-0.7,4.7-1
		s1.3-1,1.9-1.7c0.6-0.6,1.2-1.5,1.5-2c0.2-0.4,0.6-1.1,0.6-1.1L60.1,23.6z"/>
</g>
</svg>
