<svg xmlns="http://www.w3.org/2000/svg" viewBox="0 0 262 39"><title>wolfram-alpha-with-tagline-new copy</title><path d="M258.487,12.98431a1.50728,1.50728,0,0,1-.40181-.053,1.46653,1.46653,0,0,1-.88879-.68548,1.51756,1.51756,0,0,1-.14947-.358,1.55723,1.55723,0,0,1-.05143-.39973,1.486,1.486,0,0,1,.053-.39973,1.45841,1.45841,0,0,1,.38252-.65739,1.46032,1.46032,0,0,1,.30216-.23037,1.51871,1.51871,0,0,1,1.514.00161,1.43424,1.43424,0,0,1,.30055.23277,1.48415,1.48415,0,0,1,.3777.65658,1.54626,1.54626,0,0,1,.05143.39652,1.532,1.532,0,0,1-.2009.76173,1.44645,1.44645,0,0,1-.23144.30261,1.48608,1.48608,0,0,1-.30055.232,1.434,1.434,0,0,1-.3568.14769A1.53713,1.53713,0,0,1,258.487,12.98431Zm0-.26328a1.19318,1.19318,0,0,0,.32787-.04415,1.24863,1.24863,0,0,0,.29251-.12441,1.1835,1.1835,0,0,0,.2459-.19264,1.291,1.291,0,0,0,.3118-.54421,1.2506,1.2506,0,0,0-.05143-.80427,1.21386,1.21386,0,0,0-1.12666-.74969,1.18313,1.18313,0,0,0-.47574.09632,1.23087,1.23087,0,0,0-.38734.26328,1.25744,1.25744,0,0,0-.26037.3901,1.18867,1.18867,0,0,0-.09483.47678,1.223,1.223,0,0,0,.0434.32669,1.23794,1.23794,0,0,0,.12215.29458,1.2534,1.2534,0,0,0,.18965.25043,1.19292,1.19292,0,0,0,.24751.19264,1.23672,1.23672,0,0,0,.29091.12441A1.17846,1.17846,0,0,0,258.487,12.721Zm-.55449-.47438V10.671h.54a1.27667,1.27667,0,0,1,.25233.02247.47911.47911,0,0,1,.19126.07706.36006.36006,0,0,1,.12215.14528.52159.52159,0,0,1,.04339.22635.5.5,0,0,1-.08036.301.43378.43378,0,0,1-.21376.15491l.43877.64856h-.38413l-.39538-.59478h-.19608v.59478Zm.31823-.86929h.21055a.733.733,0,0,0,.14626-.012.207.207,0,0,0,.08679-.03773.133.133,0,0,0,.04179-.06823.44.44,0,0,0,.01125-.10114.33864.33864,0,0,0-.01286-.09712.145.145,0,0,0-.04179-.06582.20165.20165,0,0,0-.08358-.03773.6.6,0,0,0-.1334-.012h-.225Z" style="fill:#ff943a"/><polygon points="71.442 6.031 67.7 6.031 63.088 26.036 58.446 6.196 58.407 6.031 54.256 6.031 49.647 25.881 45.11 6.031 41.313 6.031 47.34 31.78 47.38 31.945 51.676 31.945 56.285 12.266 60.839 31.78 60.878 31.945 65.246 31.945 71.378 6.297 71.442 6.031" style="fill:#d10"/><path d="M79.70516,11.64686a8.03811,8.03811,0,0,0-6.4277,2.61523c-1.48092,1.72662-2.23141,4.37009-2.23141,7.85636,0,3.425.74732,6.04024,2.22191,7.77272a8.01848,8.01848,0,0,0,6.4372,2.62482,7.89722,7.89722,0,0,0,6.41134-2.65412c1.45506-1.75059,2.19288-4.35571,2.19288-7.74342,0-3.42394-.73465-6.05036-2.18338-7.80735A7.87811,7.87811,0,0,0,79.70516,11.64686ZM83.40693,27.61a4.93744,4.93744,0,0,1-7.49327-.01545,9.982,9.982,0,0,1-1.19434-5.47606c0-2.55663.41641-4.43828,1.23762-5.59167a4.30394,4.30394,0,0,1,3.74822-1.70584,4.209,4.209,0,0,1,3.68541,1.69785c.82649,1.14806,1.24554,3.03184,1.24554,5.59966C84.63611,24.6021,84.22233,26.44965,83.40693,27.61Z" style="fill:#d10"/><rect x="91.86422" y="4.09736" width="3.56402" height="27.84807" style="fill:#d10"/><path d="M110.82147,4.26251a9.39624,9.39624,0,0,0-3.7878-.73572c-2.24724,0-3.84691.58122-4.75467,1.72875a8.50545,8.50545,0,0,0-1.35056,5.28108v1.66269H98.11912v3.08192h2.80931v16.6642h3.564V15.28123h4.25012V12.19932h-4.25012V10.53662a5.613,5.613,0,0,1,.57632-3.08245A2.42576,2.42576,0,0,1,107.1065,6.719a5.79562,5.79562,0,0,1,1.38962.196,6.02959,6.02959,0,0,1,1.28512.46136l.22483.11774.99221-3.15437Z" style="fill:#d10"/><path d="M120.51426,11.90471a5.62908,5.62908,0,0,0-3.34289,1.07987,21.051,21.051,0,0,0-2.42668,2.0436V12.19932h-3.564V31.94543h3.564V18.47023a12.18738,12.18738,0,0,1,2.91856-2.29985,5.79377,5.79377,0,0,1,2.614-.6313,3.6114,3.6114,0,0,1,1.37484.204l.23644.10229.76685-3.45111-.1425-.07725A4.20169,4.20169,0,0,0,120.51426,11.90471Z" style="fill:#d10"/><path d="M137.18363,13.20673c-1.226-1.03512-3.26056-1.55987-6.04718-1.55987a10.59452,10.59452,0,0,0-4.55148.87636,5.99909,5.99909,0,0,0-2.76815,2.54971l-.09869.1806,2.93281,1.80493.10978-.19019a4.34152,4.34152,0,0,1,1.43553-1.4,5.29817,5.29817,0,0,1,2.86684-.64728,5.96618,5.96618,0,0,1,3.28536.77567,3.19048,3.19048,0,0,1,1.13523,2.85763v.74211l-4.51823.40648a13.04339,13.04339,0,0,0-4.33193,1.11769,5.689,5.689,0,0,0-2.3301,2.1624,6.67187,6.67187,0,0,0-.80485,3.41541,6.52136,6.52136,0,0,0,1.54056,4.46119,5.56028,5.56028,0,0,0,4.38259,1.75645,6.839,6.839,0,0,0,3.44369-.87423,17.87088,17.87088,0,0,0,2.61826-1.85554v2.15921h3.5635V18.60129C139.04718,16.0665,138.42019,14.25144,137.18363,13.20673Zm-6.795,16.04355a3.61476,3.61476,0,0,1-2.432-.70216,2.9769,2.9769,0,0,1-.78426-2.32329,3.00778,3.00778,0,0,1,1.19012-2.59765,8.85188,8.85188,0,0,1,4.28971-1.18375l2.83148-.27223v4.37275q-.56445.4483-1.15159.92111a10.51843,10.51843,0,0,1-1.27826.88382,9.172,9.172,0,0,1-1.33684.64835A3.6889,3.6889,0,0,1,130.3886,29.25028Z" style="fill:#d10"/><path d="M167.979,14.69042a4.49,4.49,0,0,0-1.62975-2.25936,5.01026,5.01026,0,0,0-2.93123-.7842,6.107,6.107,0,0,0-3.5693,1.12462,19.46687,19.46687,0,0,0-2.803,2.42611,4.57438,4.57438,0,0,0-1.53264-2.60351,5.12236,5.12236,0,0,0-3.222-.94722,6.012,6.012,0,0,0-3.402,1.06708,15.52326,15.52326,0,0,0-2.44093,2.034V12.19932h-3.564V31.94543h3.564V18.17562a14.76857,14.76857,0,0,1,2.77765-2.2519,4.66038,4.66038,0,0,1,2.28049-.78952,2.56929,2.56929,0,0,1,1.5147.35374,2.05151,2.05151,0,0,1,.6671,1.2285,19.8648,19.8648,0,0,1,.21375,3.63437V31.94543h3.564V18.17989a17.97128,17.97128,0,0,1,2.99351-2.39255,4.19891,4.19891,0,0,1,2.02874-.65314,2.88559,2.88559,0,0,1,1.54372.32444,1.81224,1.81224,0,0,1,.675,1.14913,20.48138,20.48138,0,0,1,.21269,3.74305V31.94543h3.564V18.841A13.24924,13.24924,0,0,0,167.979,14.69042Z" style="fill:#d10"/><path d="M184.25936,6.03069h-4.6829l-8.77416,25.91474H174.703l2.15277-6.62892h9.97906l2.18919,6.62892h4.01L184.309,6.17612Zm1.37589,15.76226h-7.61676l3.80838-11.51524Z" style="fill:#ff7d00"/><rect x="195.41144" y="4.09736" width="3.56402" height="27.84807" style="fill:#ff7d00"/><path d="M212.19956,11.64686a7.71849,7.71849,0,0,0-3.33761.73838,10.03243,10.03243,0,0,0-2.2863,1.47463V12.19932h-3.564V39h3.564V30.604a8.10628,8.10628,0,0,0,5.1315,1.912,6.8405,6.8405,0,0,0,5.8176-2.89492,12.81461,12.81461,0,0,0,2.09313-7.68695c0-3.27211-.65179-5.82714-1.938-7.59425A6.42041,6.42041,0,0,0,212.19956,11.64686Zm3.745,10.36132c0,2.50549-.446,4.36316-1.32417,5.52188a3.9777,3.9777,0,0,1-3.33286,1.72023,7.38274,7.38274,0,0,1-4.71192-1.96635V17.25718a10.92071,10.92071,0,0,1,2.26044-1.63392,5.66835,5.66835,0,0,1,2.76129-.72879C214.52227,14.89446,215.94461,17.22148,215.94461,22.00818Z" style="fill:#ff7d00"/><path d="M232.69948,11.64686a7.20214,7.20214,0,0,0-3.66483,1.06921,15.68309,15.68309,0,0,0-2.77976,2.06385V4.09736h-3.564V31.94543h3.564V18.18415a18.55455,18.55455,0,0,1,2.993-2.15708,5.67491,5.67491,0,0,1,2.70376-.89288,3.06047,3.06047,0,0,1,1.70469.38677,2.1298,2.1298,0,0,1,.79957,1.21678,16.0776,16.0776,0,0,1,.256,3.61306V31.94543h3.564V18.841c0-2.56835-.45177-4.42656-1.34317-5.52295A5.15923,5.15923,0,0,0,232.69948,11.64686Z" style="fill:#ff7d00"/><path d="M255.07773,13.20673c-1.226-1.03512-3.26056-1.55987-6.04718-1.55987a10.59452,10.59452,0,0,0-4.55148.87636,5.99909,5.99909,0,0,0-2.76815,2.54971l-.09869.1806,2.93281,1.80493.10978-.19019a4.34152,4.34152,0,0,1,1.43553-1.4,5.29817,5.29817,0,0,1,2.86684-.64728,5.96618,5.96618,0,0,1,3.28536.77567,3.19048,3.19048,0,0,1,1.13523,2.85763v.74211l-4.51823.40648a13.04339,13.04339,0,0,0-4.33193,1.11769,5.689,5.689,0,0,0-2.3301,2.1624,6.67187,6.67187,0,0,0-.80485,3.41541,6.52136,6.52136,0,0,0,1.54056,4.46119,5.56028,5.56028,0,0,0,4.38259,1.75645,6.839,6.839,0,0,0,3.44369-.87423,17.87087,17.87087,0,0,0,2.61826-1.85554v2.15921h3.5635V18.60129C256.94128,16.0665,256.31429,14.25144,255.07773,13.20673Zm-6.795,16.04355a3.61476,3.61476,0,0,1-2.432-.70216,2.9769,2.9769,0,0,1-.78426-2.32329,3.00778,3.00778,0,0,1,1.19012-2.59765,8.85188,8.85188,0,0,1,4.28971-1.18375l2.83148-.27223v4.37275q-.56445.4483-1.15159.92111a10.51843,10.51843,0,0,1-1.27826.88382,9.172,9.172,0,0,1-1.33684.64835A3.6889,3.6889,0,0,1,248.2827,29.25028Z" style="fill:#ff7d00"/><polygon points="36.971 24.875 29.102 26.548 29.903 34.373 22.531 31.211 18.469 38 14.406 31.209 7.033 34.37 7.835 26.547 -0.033 24.87 5.326 19 -0.031 13.128 7.836 11.455 7.037 3.63 14.409 6.792 18.469 0.001 22.532 6.792 29.905 3.632 29.104 11.456 36.971 13.132 31.614 19.003 36.971 24.875" style="fill:#f16850"/><polygon points="18.469 11.861 14.409 6.79 7.037 3.627 11.425 9.414 18.469 11.861" style="fill:#fd694f"/><polygon points="7.836 11.452 -0.032 13.126 5.325 18.998 11.631 16.713 7.836 11.452" style="fill:#ff3413"/><polygon points="11.425 9.414 7.037 3.627 7.836 11.452 11.631 16.713 11.425 9.414" style="fill:#dc1d23"/><polygon points="22.532 6.79 18.469 0 14.409 6.79 18.469 11.861 22.532 6.79" style="fill:#ff9281"/><polygon points="31.613 19.001 36.971 13.13 29.104 11.455 25.307 16.713 31.613 19.001" style="fill:#ff8b79"/><polygon points="25.307 16.713 29.104 11.455 29.905 3.629 25.513 9.414 25.307 16.713" style="fill:#fd694f"/><polygon points="25.513 9.414 29.905 3.629 22.532 6.79 18.469 11.861 25.513 9.414" style="fill:#ef5240"/><polygon points="29.866 22.499 36.97 24.872 31.613 19.001 25.307 16.713 29.866 22.499" style="fill:#ff482c"/><polygon points="11.631 16.713 5.325 18.998 -0.033 24.868 7.072 22.499 11.631 16.713" style="fill:#ec2101"/><polygon points="18.469 30.586 18.469 37.998 22.53 31.209 22.695 24.564 18.469 30.586" style="fill:#d21c22"/><polygon points="29.866 22.499 22.695 24.564 29.102 26.546 36.97 24.872 29.866 22.499" style="fill:#c90901"/><polygon points="22.53 31.209 29.902 34.371 29.102 26.546 22.695 24.564 22.53 31.209" style="fill:#ec2101"/><polygon points="7.072 22.499 -0.033 24.868 7.835 26.544 14.243 24.564 7.072 22.499" style="fill:#b6171e"/><polygon points="14.243 24.564 14.406 31.208 18.469 37.998 18.469 30.586 14.243 24.564" style="fill:#b4151b"/><polygon points="7.835 26.544 7.033 34.368 14.406 31.208 14.243 24.564 7.835 26.544" style="fill:#d21c22"/><polygon points="25.307 16.713 25.513 9.414 18.469 11.861 18.469 18.963 25.307 16.713" style="fill:#e63320"/><polygon points="18.469 11.861 11.425 9.414 11.631 16.713 18.469 18.963 18.469 11.861" style="fill:#ff4527"/><polygon points="14.243 24.564 18.469 30.586 22.695 24.564 18.469 18.963 14.243 24.564" style="fill:#ff9281"/><polygon points="18.469 18.963 22.695 24.564 29.866 22.499 25.307 16.713 18.469 18.963" style="fill:#fd684d"/><polygon points="11.631 16.713 7.072 22.499 14.243 24.564 18.469 18.963 11.631 16.713" style="fill:#fd745c"/>
</svg>
