<?xml version="1.0" encoding="utf-8"?>
<!-- Generator: Adobe Illustrator 21.1.0, SVG Export Plug-In . SVG Version: 6.00 Build 0)  -->
<svg version="1.1" id="Layer_1" xmlns="http://www.w3.org/2000/svg" xmlns:xlink="http://www.w3.org/1999/xlink" x="0px" y="0px"
	 viewBox="0 0 588 400" style="enable-background:new 0 0 588 400;" xml:space="preserve">
<style type="text/css">
	.st0{fill:#D8E7EB;}
	.st1{fill:#747270;}
	.st2{fill:#CFDFE4;}
	.st3{fill:#878583;}
	.st4{fill:#0F0F0F;}
	.st5{fill:#181819;}
	.st6{fill:#0B0B0B;}
	.st7{fill:#E4E4E4;}
	.st8{fill:#FDFDFD;}
	.st9{fill:#DBC1C2;}
	.st10{fill:#897270;}
	.st11{fill:#D7D7D7;}
	.st12{fill:#75625F;}
	.st13{fill:#D6D6D6;}
	.st14{fill:#866F6D;}
	.st15{fill:#D2D1D2;}
	.st16{fill:#DDDDDD;}
	.st17{fill:#3B393A;}
	.st18{fill:#DEDDDE;}
	.st19{fill:#DEF7F9;}
</style>
<g id="_x37_IdM5D_1_">
	<g>
		<rect x="0.1" class="st0" width="588" height="400.1"/>
		<path class="st1" d="M390.2,383.2c0.1,5.7,0.8,11.3-1.1,16.9c-128.2,0-256.3,0-384.5,0c-1,0-2-0.1-3,0c-1.2,0.1-1.8-0.1-1.5-1.5
			c0.2-1,0-2,0-3c0-30.8,0-61.7,0-92.5c1.4-1.2,3.1-1.1,4.6-0.5c4.3,1.8,9.5,0.1,13.4,3.5c0.5,1.9,1.9,2.5,3.8,2.4
			c9.6-0.3,18.7,3.1,28.1,3.7c5.1,0.3,10.2,1.3,15.4,1.3c13.3,0.2,26.4,1.2,39.6,3.5c8.6,1.5,17.5,1.9,26.2,2.3
			c6.8,0.3,13.5,0.9,20.3,2.1c13.4,2.4,26.9,3.6,40.4,5.6c9.7,1.4,19.1,4.1,28.8,5.9c2.3,0.4,4.6,0.7,6.9,0.5c3.4-0.3,5,1.2,5,4.5
			c0,4.6,0.7,9.3,0.4,13.9c-0.2,0.8-0.6,1.6-0.8,2.4c-0.1,0.8-0.1,1.7-0.1,2.5c0,4.3,0,8.5,0,12.8c0,1.9,0,3.7,0,5.6
			c0.2,3.2-0.3,6.5,0.3,9.7c-0.6-2.9-0.2-5.9-0.3-8.8c0-0.3,0-0.7,0-1c0-2.5,0-4.9,0-7.4c0-3.8,0-7.6,0-11.4
			c1.5-7.9,1-15.9-0.4-23.8c0-0.9,0.5-1.6,1.1-2.3c8.1-4.8,17.1-7.1,25.8-10.5c10.8-4.3,22-7.5,33.3-10.4c9.3-2.4,18.4-5.5,27.5-8.7
			c3-1.1,6.1-1.5,9.2-2.2c14-3.1,27.2-8.5,40.5-13.4c5.8-2.1,11.4-4.2,16.9-6.9c3.5-1.7,5.3-0.4,5.4,3.8c0.2,12.8,2.4,25.5,0.1,38.3
			c-2.6,14.3-2.2,28.7-1,43.1C391.1,370.1,389.2,376.6,390.2,383.2z"/>
		<path class="st2" d="M588.1,86.1c-4.3-1.1-8.5-2.5-12.3-5.1c-3.3-2.2-7.2-3.4-10.8-5.1c-11.5-5.4-23.1-10.5-35.3-14.4
			c-7.3-2.4-14-6.9-21.5-9c-5.4-1.5-10.6-4-15.9-5.6c-12.6-3.8-24.8-9-38.2-10c-9.4-0.7-18.1-4.9-26.8-8.4c-7-2.8-14.4-3.6-21.6-5.4
			c-6.5-1.6-13.2-2.6-19.8-4.3c-6.4-1.7-13.2-3.4-19.9-3.7c-10.8-0.4-21.3-2.7-31.8-4.6c-2-0.4-4-0.5-5.9-0.5
			c-5.8,0.1-11.6,0.2-17.3-1.6c-1.2-0.4-2.2-0.2-3.4,0.2c-1.1,0.3-2.3,0.5-3.4,0.4C294.1,7.6,284,10,274,9
			c-5.4-0.6-10.7,0.6-16.2-0.8c-4.9-1.3-9.8,1.1-14.8,0.9c-7.8-0.3-15.5,0.9-23,2.8c-5.8,1.4-11.7,1.6-17.5,3
			c-6.6,1.6-13.3,2.4-19.8,4.2c-9.6,2.6-19.3,4.2-29.1,5.8c-6.4,1-12.3,3.8-18.6,4.5c-8.2,0.9-15.6,4-23.5,5.9
			c-6.9,1.6-14,2.3-20.8,4.5c-2.7,0.9-5.3,1.6-7.7,3.1c-3.9,2.5-8.3,4.1-12.4,6.1c-5.2,2.6-10.2,5.9-15.2,9.1
			c-1.8,1.2-3.7,2.2-5.8,2.9c-1.1,0.4-2.4,0.6-3.2,1.4c-6.3,6.4-14.9,8.3-22.4,12.3c-7.4,3.9-15.6,6.8-21,13.8
			c-0.7,0.9-1.7,1.6-3,1.5C0,60,0-0.1,0-0.1h588.1c0,0-0.1,11.1-0.1,17.6C588.1,40.4,588.1,63.3,588.1,86.1z"/>
		<path class="st3" d="M233.2,330.9c-0.2,0.6-0.6,1-1.2,1.2c-4.9,2.9-10.2,1.6-15,0.3c-14-3.9-28.3-5.5-42.6-7.5
			c-9.8-1.4-19.6-3-29.4-4.4c-10.5-1.5-21.2-1.4-31.7-2.4c-5.5-0.5-10.9-1-16.2-2.4c-7.6-2-15.5-1.6-23.2-1.9
			c-13.4-0.7-26.8-1-40-4.1c-3.3-0.8-6.6-0.6-9.9-0.8c-2.5-0.2-5-0.4-6.8-2.5c-5.8-0.6-11.4-2-17.1-3.3c0-22,0-44,0-66
			c10.2-0.1,20,1.9,29.9,3.8c5.4,1,10.8,1.7,16.3,1.4c4.7-0.3,9.3,0.3,13.8,1.7c1.4,0.4,2.9,1,4.4,0.9c6.7-0.2,13.2,1.3,19.7,2.1
			c11,1.3,22,2.2,32.9,4.1c6.4,1.1,12.9,2.1,19.1,4c1.3,0,2.6,0,4,0c2.6,1.1,2.8,3.6,3.3,5.8c1.5,7,3.6,13.8,5.3,20.7
			c0.8,3.3,2.2,6.3,6.4,6.5c1.6,0.1,2.9,1.1,3.1,2.8c0.5,3.7,3.1,4.1,5.9,3.6c9.2-1.7,18.1,0.1,27.2,0.7c8.9,0.7,18,2.7,26.7,2.1
			c18.7-1.4,37.1,1.5,55.7,1.4c3.2,0,6-0.9,9-2.1c5.6-2.3,11.5-4.2,17.2-6.3c10.3-3.6,20.7-7.1,30.8-11.4c7.1-3.1,14.7-5.2,22.1-7.7
			c2.5-0.8,4.9,0.2,7.4,0.5c7.7,0.9,15.6,1.1,23.2,3c1.3,0.3,3,0.3,3.4,1.7c0.5,1.9-1.5,2.3-2.7,2.9c-8.9,4.9-18.9,7.2-28.3,10.9
			c-11.1,4.4-23.2,6.2-34.3,10c-24.1,8.2-49,13.4-72.6,23.2c-4.3,1.8-8.7,3.3-13,5.1C234.7,329,233.8,329.6,233.2,330.9z"/>
		<path class="st4" d="M233.2,330.9c-1.4-1.9-0.8-2.8,1.3-3.5c5.8-2,11.5-4.2,17.3-6.3c7.5-2.7,14.9-5.6,22.5-8
			c5.9-1.9,12.1-3.3,18.1-5c9.3-2.8,18.8-5,27.8-9c3.6-1.6,7.7-1.8,11.6-2.6c9.3-1.9,18.1-5.3,27-8.3c5.9-2.1,11.5-5.1,17.7-6.4
			c3.2-0.7,6.1-2.6,8.9-4.3c0.4-0.2,1-0.6,1-0.9c0-0.6-0.7-0.4-1.1-0.4c-8.5-1.4-17.1-2.1-25.6-3.2c-5.9-0.8-10.6,1.1-15.6,2.7
			c-15.1,4.9-29.3,12-44.7,16.1c-1.6,0.4-3.1,1.3-4.5,2.1c-5.1,2.8-10.9,3.2-16.1,6c-3.1,1.7-7.8,0.3-11.8,0.3c-9.1,0-18-2-27.1-2.2
			c-3.2-0.1-6.3-0.2-9.5,0.5c-7.1,1.5-14.3,1.2-21.2-1c-4-1.3-7.9,0-11.9-0.4c-8.7-0.8-17.4-2.3-26.2-1.9c-2.7,0.1-5.2,0.8-7.8,1
			c-4.3,0.4-5.4-0.4-6.2-4.5c-0.3-1.5-0.4-2.8-2.3-2.3c-4.1,1.2-5.2-1.9-6.4-4.5c-1-2.4-1.6-5.1-2.3-7.6c-1.9-7.3-3.6-14.7-6-21.9
			c-1.3-6.5-2.8-12.9-4-19.4c-1.5-8.3-3-16.6-5.6-24.6c-2-6.1-4.3-12-5.8-18.3c-1-4.3-0.9-4.4,3.5-4.5c5.8-0.1,11.6-0.5,17.4-0.6
			c2.2-0.1,4.4,0,6.5,0.4c14.9,2.8,30,2.8,45.1,2.9c6.1,0.1,12.1,1.2,18.3,0.1c3.6-0.7,7.1,1.4,10.8,1c0.8-0.8,1.8-1.3,3-1.4
			c0.6,0,1.1-0.1,1.7-0.1c6-0.3,12,0.2,18-0.4c3.4-0.3,5.3,1.4,6.4,4.4c0.8,2.5,2,4.9,2.2,7.5c0.5,4.3,2.4,6.2,6.7,5.1
			c2.4,0.8,2.8,3,3.3,5.1c3.4,13.7,7,27.4,6,41.8c-0.2,3,1.2,4.6,4.2,5c3.9,0.6,8.1,2.7,11.7,1.4c4.1-1.4,3-6.6,3.8-10
			c2.6-11.5,10.5-19.4,17.4-28.1c1.6-2,4.1-2.8,6.3-3.9c12.7-6.1,22-15.8,29.9-27.2c0.6-0.8,1-1.8,1.7-2.5c0.9-0.8,1.8-1.6,3.1-1
			c1.3,0.6,1.3,1.9,1.2,3c-0.3,2.4-1.2,4.5-2.7,6.3c-8.4,10.2-17.5,19.2-29.3,25.9c-13.1,7.4-20.8,19.4-23.1,34.4
			c-0.5,3.4,0.2,6.6,2.2,9.5c1.7,2.1,3.4,1.7,5-0.2c2-2.3,4.2-4.5,5.2-7.3c3.7-11.1,12.9-16.7,22.3-21.7c12-6.4,24.4-12.1,34.7-21.5
			c2.6-2.4,3.1-6.3,6.5-7.9c3.6,0.7,2.6,3.3,1.9,5.4c-1.4,4.3-5,6.9-8.3,9.7c-7.4,6.4-15.8,11-24.5,15.1c-5.8,2.8-11.6,5.8-16.9,9.6
			c-3.7,2.6-6.9,5.7-8.9,9.9c-1.4,2.8-1.1,4.5,2.5,4.3c1-0.1,2,0,3-0.2c10.6-2.7,21.1-1.1,31.6,0.7c2.9,0.5,5.9,0.9,7.2,4.4
			c0.8,2.1,2.9,1.9,4.7,2c3.5,0.2,7-0.2,10.4,0.5c3,0.8,6.1,1.4,9.2,1.5c8.6,0.4,9.5,1.7,8,10.3c0,0.5-0.2,0.9-0.3,1.4
			c-0.1,0.5-1,0.9-0.2,1.6c-0.5-0.5-0.1-0.9,0.1-1.2c0.3-0.6,0.4-1.2,0.5-1.8c3.4-14.5,5.8-29,4.9-43.9c-0.9-14.8-3.9-29-11.4-41.9
			c-0.9-1.6-1.8-3.2-3.3-4.4c-6.4-8.5-14.6-15-23.6-20.6c-2.4-1.2-4.1-0.3-5.4,1.8c-2,3.3-4.9,5.9-7.5,8.7
			c-5.1,5.5-11.5,8.4-18.8,10.7c-10.4,3.2-20.7,4.5-31.4,4.3c-1,0-2,0.1-3,0.1c-0.5,0-1,0-1.5,0c-10.8-0.9-20.9-4.4-30.4-9.3
			c-5.9-3.1-10.3-8.3-13.7-14.2c-0.5-0.9-0.1-2-0.4-3c-6.2-5.5-9.4-12.7-11.1-20.5c-3.3-15.3-0.1-29.5,7.6-42.8
			c2.7-4.6,6.9-8.1,10.7-11.7c4.8-4.5,10-8.6,16.2-11.3c1.7-0.7,3.4-1.4,5.2-1.7c9.4-1.3,18.9-2.9,28.3-3.9c8.7-0.9,17,0.5,25,4.6
			c8.4,4.4,15,10.8,21,18c2.7,3.2,4.7,6.9,5.9,10.9c1.6,5.2,3.3,10.4,5.7,15.3c2.1,4.3,1.7,8.7,1.1,13.1c-0.2,1.2-0.3,2.3-0.4,3.5
			c-0.6,5.4-0.6,5.4,5,4.8c0.8-0.1,1.7-0.1,2.5-0.1c3.7,0.4,6.2-0.6,8.3-4.3c3.8-6.4,10.8-6.8,15.2-0.8c5.1,7,12.3,8.1,20,8.9
			c8.6,0.9,17.5,0.4,25.6,4.9c4.5,2.5,6.9,6,7.4,11c1.1,11.4-2,21.9-6.9,32c-1.9,3.8-4.1,7.5-6.1,11.3c-2.6,5-6.9,6.4-11.7,6.8
			c-3.9,0.3-7.9,0.4-11.9-0.6c-1.6-0.4-3.3-0.3-5-0.2c-5.1,0.4-5.4,0.9-4.5,6c1.7,9,2.3,18.1,2,27.3c-0.3,6.8-1.8,13.5-3.2,20.1
			c-1.2,5.8-1.3,5.6,3.7,8.5c6.8,4,12.6,9.5,17.3,15.6c4.5,5.8,5.4,13.6-1.5,19.6c-7.3,6.3-15.2,11.2-24.8,13
			c-2,0.4-3.4,1.2-3.3,3.9c0.3,7.8-0.4,15.6,0.2,23.4c0.3,3.9,0.4,7.9,0.7,11.8c0.5,5.1-1.9,10.1-0.7,15.3c0.1,0.4-0.8,1-1.2,1.5
			c-1.8-2.1-1.8-4.7-1.5-7c0.9-7.7,0.3-15.3-0.1-22.9c-0.2-5.6-0.4-11.3,0.3-16.9c0.3-2.7,1.1-5.6-0.9-8.1c-0.3-0.4-0.7-0.9-0.3-1.3
			c4.2-4.2,2.7-9.9,3.3-14.9c1.2-10.6-1.2-21.1-0.9-31.8c0.1-1.6-0.4-2.1-2-1.4c-1.5,0.7-3.1,1.1-4.6,1.9c-3.6,2.1-7.1,4.1-11.4,4.5
			c-3,0.3-5.6,2.6-8.7,3.6c-8.2,2.7-16.3,5.6-24.4,8.5c-2.7,1-5.4,1.6-8.2,2c-11.2,1.9-21.4,6.9-32.3,9.6c-15.9,4-31.5,9-46.9,14.6
			C245.4,325.9,239.3,328.5,233.2,330.9z"/>
		<path class="st5" d="M229.1,192.1c-1,0-1.9,0-2.9,0.1c0.7-5.5,3.7-9.5,7.9-12.8c2.7-2.2,5.5-4.2,8.3-6.3c1.9-1.4,4.4-1.1,5.9-3
			c0.8,0.4,0.8,1.1,0.8,1.9c-0.4,2.5-2.7,3.2-4.4,4.4c-5.7,3.8-10.8,8.2-13.9,14.5C230.3,191.4,229.6,191.6,229.1,192.1z"/>
		<path class="st5" d="M136.2,255.1c-2.6,0.7-5,0.6-7.5-0.7s-5.3-1.4-8.1-1.3c-1.5,0.1-3.5,0.6-3.6-2c3.6-0.2,7.1-0.1,10.6,0.8
			c2.2,0.5,4.3,1.6,6.7,1.4C135.6,253.2,136.2,253.9,136.2,255.1z"/>
		<path class="st6" d="M234.9,388.6c-2.4-3.9-1.5-8.3-1.9-12.5c0,0-0.1,0-0.1-0.1c0-2.6,0-5.2,0-7.8c0,0-0.1,0.1-0.1,0.1
			c0,0,0.1-0.1,0.1-0.1c0-3.9,0-7.8,0-11.7c0.1-0.1,0.1-0.1,0.2-0.2c1.6-6.6,0.9-13.2,1.1-19.8c0-2-0.8-3.1-2-4.2
			c-4.6-0.3-9.4,0.7-13.9-0.6c-5.8-1.7-11.5-3.1-17.4-4.1c-7-1.2-14.1-2.3-21.1-3.2c-10-1.3-20-3.2-30-4.5
			c-4.4-0.6-8.9-1.6-13.3-1.5c-8.2,0.2-16.2-1.7-24.4-1.2c-0.8,0.1-1.6-0.3-2.4-0.4c-6.3-0.7-12.4-2.9-18.6-3.2
			c-9.8-0.5-19.6-0.9-29.4-1.5c-6.3-0.4-12.6-0.6-18.8-1.6c-3.8-0.6-7.3-2.4-11.1-2.3c-5,0.1-9.8-0.6-14.6-1.8
			c-0.5,2.4,0.2,3.7,3.2,4c4.7,0,9.3-0.2,13.9,0.9c11.2,2.8,22.6,3.6,34,3.9c7.8,0.2,15.5,1.7,23.3,1.2c0.7-0.1,1.4,0,2,0.2
			c8.5,2.8,17.3,3.1,26,3.5c14.5,0.6,28.8,2.1,43,4.6c8.8,1.5,17.7,2.2,26.5,3.6c9.1,1.5,18.1,3.5,27.1,5.6c4.3,1,8.7,2.1,13.2,1.2
			c1.1-0.2,1.9-0.6,1.8,1c-0.2,5.6,1.3,11.2,0.8,16.8c0.1,0.6-0.3,0.9-0.5,1.4c0,0.6,0,1.2,0,1.8c-0.1,0-0.1,0-0.2,0
			c-0.4,4.6-0.2,9.3-0.1,14c0.1,2,0.1,4,0.1,6c0,0,0.1,0,0.1,0c-0.1,2.5-0.3,4.9-0.2,7.4c0,2.1,0.6,4.2,2,5.9
			c0.3,0.3,0.9,0.3,1.3,0.5C234.7,389.5,235.1,388.9,234.9,388.6z"/>
		<path class="st5" d="M231.9,352.7c0.1,0.6,0,1.1-0.5,1.4C231.2,353.5,231.4,353,231.9,352.7z"/>
		<path class="st7" d="M169.3,286c-4.5,0.1-8.6,0-12.7,0.5c-3.7,0.4-5.6-0.7-6.4-4.3c-3.8-15.7-9.1-31.1-11.9-47.1
			c-2.3-13-5.7-25.7-10.1-38.2c-1.9-5.4-1.8-5.3,3.6-6c9.5-1.2,18.7-0.9,28.2,0.9c9.6,1.8,19.5,1.5,29.3,1.4c2.7,0,5.3,0.4,7.9,0.5
			c5.4,0.2,10.9,1.4,16.3-0.5c0.9-0.3,2.1-0.3,3,0c5,2.1,10.1,1.6,15.2,1c4.7-0.6,9.4,1.4,14.3,0.2c3.2-0.8,5.8,1.7,6.8,5.2
			c2.9,10.1,5.4,20.4,8.6,30.4c3.5,11.1,5.2,22.5,7.4,33.8c1.6,8.4,3.4,16.8,5.4,25.2c0.3,1.4,0.2,2.1-1.5,2.1
			c-3.4,0-6.9,0.9-10.3,0c-4.1-1.1-8.2-1.2-12.4-0.9c-6.7,0.6-13.2-0.9-19.9-1.3c-10.4-0.6-20.9-0.9-31.3-0.8
			c-6,0-11.8-0.8-17.7-1.9C177,285.5,173,286.2,169.3,286z"/>
		<path class="st8" d="M229.8,190.6c0.2-3.8,2.7-6.2,5.3-8.6c4.2-3.9,9-7.2,13.9-10.1c3.4,4.4,7,8.6,11.3,12.2
			c1,0.8,1.9,1.6,3.2,2.2c9.5,4.1,19.1,7.8,29.5,8.9c0.3,0.2,0.7,0.3,1,0.1c1,0.1,1.9,0.3,2.9,0.4c18.7,1.3,36.3-1.8,51.7-13.2
			c4.8-3.6,7.5-9.2,12.5-12.7c2.9,0.8,5.3,2.3,7.3,4.8c1.2,1.5,3,2.6,4.6,3.7c4.4,3.2,8.2,7,11.2,11.6c7.2,10.5,5.1,22.2,4.1,33.7
			c-0.9,9.9-2.2,19.7-3.8,29.5c-1.1,7-3.1,13.6-8.5,18.5c-3.4-1.1-6.9-0.5-10.3-0.7c-1.7-0.1-3.3-0.3-4.9-0.5
			c-1.3-0.2-1.9-0.5-1.3-1.8c1.3-2.7-0.4-2.9-2.4-3.5c-4.5-1.2-9.3-0.6-13.6-2.2c-6.5-2.5-12.7,0.2-19,0.6c-3.1,0.2-6.2,0.4-9.3,0.6
			c-1.5,0.1-2.1-0.2-1.5-2.3c1.9-6.9,6.4-11.4,11.9-15.3c8-5.7,17.1-9.1,25.7-13.7c8.1-4.3,15.1-10,21.4-16.6
			c1.5-1.6,2.1-3.7,2.4-5.8c0.2-1.6-0.6-2.1-2.1-1.7c-6.6,1.7-12.3,4.9-17.2,9.7c-6.2,6.1-14.3,9-21.7,13.1c-2.7,1.5-5.1,3-6.9,5.6
			c-0.9,1.2-1.8,2.5-3.1,3.2c-8.7,5.4-14.6,12.8-17.7,22.6c-1,3.2-3.9,4.8-7.3,5.2c-3.8-3.5-3.8-8.1-2.7-12.4
			c1.3-4.9,2.3-9.9,4.7-14.5c2.8-5.3,6.7-9.5,10.9-13.4c3.8-3.5,8-6.4,12.6-8.9c7.9-4.2,14.1-10.3,19.6-17.3
			c2.6-3.4,6.5-5.8,7.1-10.5c0.1-1,1.7-2.1-0.1-2.8c-0.9-0.3-1.8,0.6-2.2,1.6c-3.8,9.2-11.6,15.2-18.5,21.9
			c-4.4,4.3-10.2,6.6-15.7,9.3c-2.2,1.1-4.3,2.3-5,5.1c-0.5,1.9-2.5,3-3.9,4.4c-8.2,7.9-10.9,18.3-12.6,28.9
			c-0.6,3.4-0.2,3.2-3.9,2.7c-4.6-0.7-9.2-1-13.8-1.4c-2.1-0.2-3-0.6-3.2-3.4c-0.5-6.6-0.1-13.2-0.9-19.9c-0.9-7.8-3.4-15.1-5-22.7
			c-0.5-2.3,0-5.1-2.3-6.8c-1.2-1-2.4-2-2.6-3.5c-0.5-4.5-3.3-6.9-7.1-8.5c-0.4-1.1-0.8-2.2-1.3-3.2c-0.7-1.4-1.2-3-3.4-1.2
			c-1.1,0.9-3.5,0.4-5.2,0.3c-4.8,0-9.5-0.1-14.3-0.2C229.8,191.5,229.7,191.1,229.8,190.6z"/>
		<path class="st8" d="M248.4,166.7c-8.5-10.3-11.9-21.7-9.5-35.1c1.2-6.9,3.2-13.4,6-19.8c2.8-6.3,7.8-10.7,12.4-15.3
			c3.5-3.5,7.7-6.5,12.3-9c5.5-3,11.3-3.1,17-4.5c5.1-1.2,10.3-0.9,15.5-1.8c13.2-2.3,24.9,1.4,35.3,9.6c4.8,3.8,8.7,8.5,12.6,13.2
			c0.4,0.2,0.6,0.6,0.7,1c0.1,0.3,0.3,0.6,0.4,0.9c1.5,4.6,2.7,9.2,2.5,14.1c-0.4,15.7-1,31.3-7.5,46c-3.3,7.5-8,13.9-14.8,18.5
			c-2.8,1.9-5.9,4.1-9.6,1.4c3.2-3.6,8-5,11.2-9c5.2-6.5,7.9-14,10-21.8c0.6-2.2,0.6-4.5,1-6.8s-0.7-3.2-2.7-2.7
			c-2.8,0.6-5.5,0.3-8.2-0.6c-3.1-1-6.1,1.5-9.3,0.8c-7.4-1.5-14.6-0.4-21.8,0.9c-3.7,0.7-7.6,0-11.4-0.2c-4.7-0.3-9.4-0.1-14.2-0.6
			c-9.5-1.1-19,0.8-28.6,0.8c-2.7,0-2.8,1.7-2.3,3.8c0.9,4.5,1.3,9.2,3.4,13.4c0.3,0.6,0.2,1.3,0.3,2
			C249.3,166.7,249,166.9,248.4,166.7z"/>
		<path class="st9" d="M258.1,149.2c2.1-0.1,3.8-0.1,5.4-0.3c5-0.7,9.9-0.2,14.8,0.2c7.4,0.5,14.9,0.4,22.3,0.9
			c2.5,0.2,4.8-1,7.3-1.5c3.8-0.8,7.7-0.7,11.7-0.3c6.2,0.6,12.5-0.5,18.8,0.7c2.2,0.4,2.9,1.1,2.5,3.2c-1.4,7.7-3.7,15.2-8.5,21.4
			c-5,6.5-11.7,11-19.9,12.8c-8.6,2-17.3,4-26.1,2c-11.9-2.7-23.4-6.4-31.1-16.9c-4.2-5.8-5.9-12.5-7.1-19.3
			c-0.3-1.9,0.4-2.8,2.4-2.8C253.3,149.2,255.9,148.5,258.1,149.2z"/>
		<path class="st10" d="M394.8,201.2c-5.1-11.9-14-20.7-24-28.6c-3.4-2.7-6.7-5.3-10.8-6.8c-1.9-0.7-1.8-1.4-1.3-3.3
			c0.8-2.9,2.3-5.5,2.5-8.5c0.2-2.8,2.7-2.6,4.5-2.7c5.6-0.2,11.2-0.2,16.9-0.2c3.2,0,6.3-0.6,9.5-0.1c1.6,0.3,3.8-0.7,4.1,2.3
			c0.1,1,1.3,0.9,1.8,0c1.4-2.5,3.8-1.5,5.3-0.8c6.6,2.9,13.6,2.4,20.6,2.8c5.5,0.3,10.7,1.8,15.3,4.9c1.8,14.3-2.3,27-10.8,38.3
			c-2.6,3.5-6.6,5.4-10.9,5c-6.1-0.5-12.3-0.7-18.4-0.8C397.5,202.6,396.1,202.1,394.8,201.2z"/>
		<path class="st11" d="M376,271.7c-0.1-1.8,0.6-3.4,1.7-4.5c4.1-4.1,4.8-9.4,5.2-14.6c0.5-5.7,2.2-11.2,2.7-17
			c0.3-4.2,0.7-8.5,1.1-12.7c1-10.2,3-20.7-2.4-30.5c-0.4-0.6-0.1-1.6-0.1-2.4c2.1,0.9,3,3,4,4.8c4.7,8.9,9.2,17.7,10.1,28.1
			c0.4,5.5,1.7,11,2.1,16.7c0.6,10.5-0.8,20.7-2.6,30.9c-0.8,4.4-2.1,8.6-3.7,12.7c-0.4,0.4-0.8,0.4-1.2,0c0.1-3,1.5-6.7-0.3-8.6
			c-1.7-1.7-5.4-0.9-8.3-1C381.5,273.5,378.8,272.4,376,271.7z"/>
		<path class="st12" d="M394.8,201.2c7.1,0.1,14.1-0.6,21.3,0.7c5,0.9,9-1.4,12.1-5.8c3.7-5.2,6.3-10.9,8.1-16.9
			c1.3-4.4,1.8-9,1.8-13.6c0-1.9-0.9-4,1.1-5.5c3.8,2,4.7,5.4,5.2,9.5c1.8,15.6-5.5,28.4-12.7,41.2c-1.2,2.2-3.3,3.7-5.5,4
			c-4,0.5-7.9,2.1-12.2,0.7c-3.5-1.1-7.3-0.5-10.9-0.4c-2.5,0.1-3.7-0.3-4.3-3.2C398.1,208.2,396.2,204.8,394.8,201.2z"/>
		<path class="st13" d="M321.8,186c4.9,0.5,8.6-1.9,11.9-5c8.8-8.2,13.3-18.5,15.5-30.2c2.1-10.9,2.8-21.9,2.9-32.9
			c0-4-1.7-7.8-1-11.8c2.5,1.4,2.3,4.2,3.2,6.4c2.3,5.8,4.5,11.6,6.6,17.5c1.1,3.1,0.3,6.2,0.1,9.3c-1,12.1-3.6,23.9-11.1,33.8
			c-5.6,7.4-12.1,13.4-22.1,15.4c-9.4,1.9-18.6,4.1-28.2,4.6c-0.8,0-1.7-0.1-2.5-0.1c-0.3-0.2-0.4-0.4-0.3-0.6
			c0-0.2,0.1-0.3,0.2-0.3c2.7-1.4,5.8-1.3,8.6-1.8C311.2,189.3,316.6,188.1,321.8,186z"/>
		<path class="st14" d="M393.2,312.6c0.8-3.7,0.5-8-0.2-12.2c-1.2-7.2,2.4-13.1,4-19.6c0.3-1.2,0.8-1,1.7-0.8
			c3.3,0.6,5.8,2.6,8.1,4.6c3.9,3.4,7.4,7.2,11.2,10.7c1.7,1.6,2,2.9,0.7,5.1c-3.3,5.7-7.6,9.9-14,11.9c-2.8,0.9-5.7,1.7-8.4,3.2
			C393.3,317.3,393.1,317.1,393.2,312.6z"/>
		<path class="st13" d="M299.1,268.2c1.1-2.9,5.3-1.9,6.2-5.2c0.7-2.7,1.6-5.4,2.9-7.9c2.9-5.6,6.8-10.6,12.5-13.7
			c2-1.1,3.8-2.5,4.8-4.2c3.1-5.6,8.9-7.3,14-9.8c6.4-3.2,12.4-6.8,17.6-11.7c3.6-3.3,7.7-5.7,12.3-7.2c1.3-0.4,2.6-0.8,3.7,0.3
			c-0.4,5.2-4.2,7.9-7.7,11c-9.6,8.6-21.4,13.5-32.6,19.4c-8,4.3-16.4,8.7-20,18.1c-1.6,4.3-4.4,7.7-7.1,11.2
			C303.4,271.4,301.9,271.2,299.1,268.2z"/>
		<path class="st15" d="M361.1,169.8c0,2.9-2.7,4-4.2,5.9c-2.4,3-4.6,6-7.7,8.3c-12,8.9-25.7,12.3-40.3,13c-3,0.1-6,0-9,0
			c-1.2,0-2.4,0.2-2.9-1.3c7.1,0.2,32.9-4.9,38-6.8c7.4-2.9,12.2-8.9,17.2-14.6c0.6-0.7,1.1-1.6,1.7-2.5c1-1.5,1.9-3,2.8-4.6
			C357.9,168.5,359.6,169.1,361.1,169.8z"/>
		<path class="st12" d="M421.1,304.3c0.3,2.6-0.4,4.2-1.6,5.6c-4.8,5.6-10.5,9.9-17.5,12.4c-1.7,0.6-3.3,1.6-5,2.2
			c-1.5,0.5-3.9,1.2-4.3-0.4c-0.4-1.4-0.5-3.9,1.8-5.1c3.6-2,7.4-3.8,11.3-4.9c5.8-1.6,9.7-5.4,13.3-9.9c0.5-0.6,0.6-1.8,1.6-1.5
			C421,302.9,421.1,304.2,421.1,304.3z"/>
		<path class="st16" d="M269.6,247.5c-0.2,1.6,0.7,3.3,0.1,4.9c-2.2-1.1-1.2-3.2-1.5-4.9c-1.7-8.2-4-16.3-6.3-24.4
			c-0.8-2.8-1.7-5.7-2.6-8.5c-0.6-1.9,0.8-2.2,2.1-2.7c1.8-0.8,1.9,0.6,2.2,1.7c1.6,5.5,3.7,11,4.4,16.7S270.1,241.7,269.6,247.5z"
			/>
		<path class="st13" d="M254.4,196.1c6.2,0.2,6.5,0.4,7.8,6.4c0.4,1.9,1.3,3.7,2,5.6c-0.3,0-0.7,0-1,0.1c-1.5,0.5-3.1,1.1-4.6,1.7
			c-0.6-1.7-1.2-3.4-1.7-5.2C255.9,201.8,255.2,198.9,254.4,196.1z"/>
		<path class="st17" d="M392.7,148.4c-3.6-0.7-7.3-0.2-10.9-0.2c-2.6,0-2.4-1.2-1.4-2.7c1.8-2.7,4.5-3.6,7.8-3.4
			c3.4,0.2,4.6,3,6.2,5.2C395.2,148.5,393.8,148.7,392.7,148.4z"/>
		<path class="st5" d="M306.4,283.2c-2.6,1.5-5.6,1.6-8.4,2.2c-5.4,1.2-10.7,2.8-15.6,5.3c-1.6,0.8-3.3,1.6-4.6-0.7
			c8.7-4.2,17.7-6.9,27.3-7.8C305.5,282.6,306,282.9,306.4,283.2z"/>
		<path class="st5" d="M272.2,271.8c2.7,1.6,3.8-2.3,6.2-1.8c0.5,0.1,1.3-0.7,1.6,0.2c0.3,1-0.8,0.7-1.2,1c-1.9,1.1-3.4,3.4-6.1,1.8
			C272.2,272.8,272.1,272.3,272.2,271.8z"/>
		<path class="st18" d="M346.6,266c-0.2,0-0.3,0.1-0.5,0.1c0,0.1,0,0.1,0.1,0.2c0-0.1-0.1-0.1-0.2-0.2c-4.5-1.2-8.9-2.4-13.9-1.5
			c-5.6,1.1-11.3,2.3-17,2.1c-3.6-0.2-5.2,0.8-7.2,3.4c-2.6,3.5-7,5.2-11.2,0.2c-1-1.2-1.6-2.5-2.3-3.8c-0.4-0.7-0.5-1.5-1.6-1.6
			c-5.6-0.6-11.3-1.4-17-1.8c-4.5-0.3-4.6,0-3.9,4.7c0.2,1.3,0.2,2.7,0.3,4c0.1,0.3,0.3,0.5,0.6,0.6c1.7,0.5,3-0.6,4.4-1.1
			c-1.3,0.9-2.9,1.2-4.4,1.6c1.2,5.9,2.3,11.7,4.6,17.2c0.5,0.4,1,0.5,1.5,0.5c6.8-1.6,12.9-5.4,20-6c2.3-0.2,4.7-0.1,6.3-2.3
			c3.7-1.2,7.3-2.7,11.1-3.7c3.9-1.1,8-2.5,11.8-4.6c5.5-3,11.1-6.4,17.9-6.1c1.9,0.5,3.5,0,4.9-1.6
			C349.5,265.7,348,266.2,346.6,266z"/>
		<path class="st11" d="M290,191.4c1.5-0.1,2.9-0.7,4.4,0c0.5,0.2,0.5,0.4,0,0.6c-1.5,0.5-2.9,0-4.4-0.1V191.4z"/>
		<path class="st8" d="M290,191.4v0.4c-1.2,0.3-2.5,0.6-3.6-0.2C287.6,190.8,288.8,191.1,290,191.4z"/>
		<path class="st3" d="M392.9,283.1c0.4,0,0.8,0,1.2,0c0,0.2,0,0.3,0,0.5c-0.4,0.8-0.6,2.2-1.7,2
			C391.9,285.4,392.2,283.9,392.9,283.1z"/>
		<path class="st16" d="M355.3,268.5c0,0.1,0,0.1,0,0.2C355.2,268.6,355.2,268.6,355.3,268.5c-1,0.5-2,0.3-3,0.4
			c-6.9,0.8-13.6,1.4-19.8,5.2c-8,4.9-17,7.4-26.2,9.1c-7.9,1.3-16.1,1.8-23.2,6.1c-1.7,1.1-3.5,0.8-5.3,0.8h-0.4
			c-0.1,4.3-3.5,3.8-6.2,3.9c-9.9,0.3-19.8-1.8-29.8-1c-0.3,0-0.7,0-1-0.1c-8.9-1.8-18-2.1-27.1-2.1c-11.6,0-23.1-0.2-34.6-2.4
			c-5.6-1.1-11.5-0.6-17.3,0.3c-0.9,0.1-2.6-0.7-2.5,1.3c0.1,1.5,0.7,3,2.6,3.1c1,0.1,2,0.1,3,0c3.5-0.3,7-0.7,10.4-0.6
			c8.3,0.2,16.5,1.4,24.7,1.8c3.8,0.2,7.6-0.2,11.3,0.8c6.3,1.7,12.8,2,19.1,0.7c5.5-1.1,11-1.2,16.3-0.4c8.8,1.3,17.7,1.8,26.6,1.8
			c2.6,0,5.6,1.2,7.9-0.5c5.3-3.9,12.5-2.9,17.5-7.3c13.8-3.7,26.8-9.7,40.3-14.4c5.4-1.8,10.6-4.3,16.3-5.1c0.1,0,0.1-0.1,0.1-0.1
			c0,0,0,0.1,0,0.1c0.8,0.1,1.7,0.1,1.6-1.1C356.6,268.2,356,267.8,355.3,268.5z"/>
		<path class="st8" d="M249.1,166.1c0.9,0.4,1.1,1,0.6,1.8c-0.4-0.4-0.9-0.8-1.3-1.2C248.7,166.5,248.9,166.3,249.1,166.1z"/>
		<path class="st0" d="M229.8,190.6c0.1,0.4,0.2,0.8,0.3,1.2c-0.3,0.1-0.7,0.1-1,0.2C228.8,191.3,229.3,191,229.8,190.6z"/>
		<path class="st13" d="M350.7,105.1c-0.5-0.1-0.7-0.5-0.7-1C350.5,104.3,350.9,104.6,350.7,105.1z"/>
		<path class="st15" d="M294.1,195.4c-0.4,0.6-0.7,0.3-1-0.1C293.4,195.3,293.8,195.3,294.1,195.4z"/>
		<path class="st3" d="M297,192.1c0,0.3,0.1,0.6,0.1,0.9c-0.4,0-1,0.1-0.9-0.5C296.3,192.3,296.8,192.2,297,192.1z"/>
		<path class="st5" d="M193.1,257.2c-7.7,0-10.8-4-10.7-11.3c0.1-6.8,2.6-11.5,9.3-12.9c2.8-0.6,6-1,8.8,0.7c2.9,1.8,3.1,3.2,0.1,5
			c-1.9,1.1-3.6,2.2-4.3,4.4c-1.2,3.6,1.1,6.2,4.8,5.4c1.2-0.3,2.3-0.8,3,0.6c0.6,1.2,0.1,2.2-0.8,3.1
			C200.3,255.4,197,257.6,193.1,257.2z"/>
		<path class="st5" d="M185.1,225.6c0.5-5.4,3.6-9.2,7.3-9c2.6,0.1,6.1,5.6,5.7,8.8c-0.3,3.1-4.7,5.9-8.8,5.7
			C186.7,231,184.8,228.6,185.1,225.6z"/>
		<path class="st6" d="M249.5,131.9c1.6-0.1,2.1,1.6,2.2,2.6c0.1,1.5-1.1,2.8-2.9,2.5c-1.4-0.2-2.2-1.4-2.1-2.9
			C246.8,132.5,247.8,131.8,249.5,131.9z"/>
		<path class="st5" d="M329.1,131.2c-0.7,1.1-1,2.8-2.9,2.7c-1.3-0.1-2.1-0.9-2-2.3c0.1-1.7,0.9-2.8,2.7-2.6
			C328.2,129.1,328.9,129.9,329.1,131.2z"/>
		<path class="st5" d="M277.4,279.3c-0.5-0.3-1.1-0.5-1.2-0.7c-0.1-0.4,0.3-1.1,0.6-1.2c4.4-1.4,8.7-2.8,13.1-4.1
			c0.3-0.1,0.6,0.2,0.9,0.3c-0.2,0.4-0.3,1-0.6,1.1C285.9,276.2,281.7,277.7,277.4,279.3z"/>
		<path class="st5" d="M285.1,268.1c-3.3,0.9-6.6-0.5-9.9-0.1c-0.9,0.1-2.3,0.4-2-1.2c0.2-1.1,1.3-1.6,2.3-1.4c3,0.7,6.2,0.8,9.2,2
			c0.2,0.1,0.2,0.5,0.3,0.8L285.1,268.1z"/>
		<path class="st5" d="M287.2,281.6c-2.2,0.8-4.3,1.6-6.5,2.4c-0.6,0.2-1.4,0.2-1.6-0.6c-0.2-0.7,0.2-1.3,0.9-1.5
			c2.3-0.8,4.5-2.1,7.1-1.5C287.6,280.7,287.7,281.1,287.2,281.6z"/>
		<path class="st5" d="M321,272c-1.9,0.9-3.8,1.9-5.7,2.8c-0.4,0.2-1,0.4-1.3-0.2c-0.2-0.4-0.1-0.9,0.3-1.3c1.9-1.7,4.3-2.1,6.7-2.6
			C321.5,271.1,321.5,271.6,321,272z"/>
		<path class="st5" d="M285,268.2c2.1-0.7,4.3-0.1,6.4,0c0.4,0,0.9,0.3,0.9,1c0,0.4,0,0.7-0.4,0.7c-2.4-0.2-5.3,1.7-6.8-1.8
			L285,268.2z"/>
		<path class="st17" d="M305.3,277.2c-0.6-0.1-1.7,0.7-1.8-0.5c-0.1-0.7,1-0.7,1.5-0.9c1.5-0.7,3.1-1.1,4.7-0.6
			c0.5,0.1,0.5,0.4,0.2,0.7C308.7,277.2,307,277.1,305.3,277.2z"/>
		<path class="st4" d="M287.2,281.6c0-0.4-0.1-0.9-0.1-1.3c1.7,0,3.1-1.7,4.9-1.1c0.4,0.2,0.5,0.4,0.4,0.5c-0.1,0.2-0.2,0.3-0.4,0.3
			C290.7,281.5,288.8,280.8,287.2,281.6z"/>
		<path class="st5" d="M299.9,278.3c-0.5-0.2-1.3-0.3-1.3-0.5c-0.1-1,0.8-0.6,1.3-0.7c0.7-0.1,1.3,0,1.8,0.5
			C301,277.8,300.4,278,299.9,278.3z"/>
		<path class="st12" d="M292,280c0.2-0.3,0.2-0.5,0-0.8c0.6,0.1,1.6-1.1,1.7,0.1C293.9,280.4,292.8,280,292,280z"/>
		<path class="st12" d="M321,272c0-0.4,0-0.9,0.1-1.3c0.3-0.8,1.2-0.8,1.4-0.3C322.9,271.5,321.9,271.7,321,272z"/>
		<path class="st19" d="M184.1,245.1c-0.1-5.6,1.6-7.8,7.1-8.9c1.8-0.3,3.4-1.5,5.3-1.2c0.9,0.1,1.6,0.3,2.1,1.1
			c0.7,1.1-0.5,1.4-1,1.9c-3.5,3.7-4.2,7.5-2.1,11.2c0.5,0.9,0.9,1.7,2,2.1c0.7,0.2,2.2-0.7,2.1,0.9c-0.1,0.9-1.2,1.6-2.1,2
			C190.6,256.5,183.8,253.9,184.1,245.1z"/>
		<path class="st19" d="M189.8,228.6c-1.3-0.1-2.7-1.2-2.8-3.5c-0.2-2.2,2.4-4.5,6.1-4.4c1.7,0.1,2.5,2.5,2.7,4.3
			C196.1,227,193.8,228.5,189.8,228.6z"/>
	</g>
</g>
</svg>
