<?xml version="1.0" encoding="utf-8"?>
<!-- Generator: Adobe Illustrator 21.1.0, SVG Export Plug-In . SVG Version: 6.00 Build 0)  -->
<svg version="1.1" id="Layer_1" xmlns="http://www.w3.org/2000/svg" xmlns:xlink="http://www.w3.org/1999/xlink" x="0px" y="0px"
	 viewBox="0 0 588 400" style="enable-background:new 0 0 588 400;" xml:space="preserve">
<style type="text/css">
	.st0{fill:#D8E7EB;}
	.st1{fill:#CFDFE4;}
	.st2{fill:#757371;}
	.st3{fill:#898684;}
	.st4{fill:#E5E5E5;}
	.st5{fill:#FDFDFD;}
	.st6{fill:#8D7471;}
	.st7{fill:#796260;}
	.st8{fill:#101010;}
	.st9{fill:#0A0A0A;}
	.st10{fill:#E0DFE0;}
	.st11{fill:#F3F2F2;}
	.st12{fill:#0E0D0E;}
	.st13{fill:#121212;}
	.st14{fill:#D8D7D8;}
	.st15{fill:#151516;}
	.st16{fill:#2A2928;}
	.st17{fill:#ACA8AD;}
	.st18{fill:#FBFBFB;}
	.st19{fill:#D8D8D8;}
	.st20{fill:#F8F8F8;}
	.st21{fill:#D5D5D5;}
	.st22{fill:#DFDEDE;}
	.st23{fill:#D6EFF3;}
	.st24{fill:#D3EBEF;}
	.st25{fill:#3A3939;}
	.st26{fill:#3B393A;}
	.st27{fill:#0B0B0B;}
	.st28{fill:#8B7370;}
	.st29{fill:#78615F;}
</style>
<g id="_x37_IdM5D_1_">
	<g>
		<rect x="0.1" class="st0" width="588" height="400.1"/>
		<path class="st1" d="M588.1,86.1c-4.3-1.1-8.5-2.5-12.3-5.1c-3.3-2.2-7.2-3.4-10.8-5.1c-11.5-5.4-23.1-10.5-35.3-14.4
			c-7.3-2.4-14-6.9-21.5-9c-5.4-1.5-10.6-4-15.9-5.6c-12.6-3.8-24.8-9-38.2-10c-9.4-0.7-18.1-4.9-26.8-8.4c-7-2.8-14.4-3.6-21.6-5.4
			c-6.5-1.6-13.2-2.6-19.8-4.3c-6.4-1.7-13.2-3.4-19.9-3.7c-10.8-0.4-21.3-2.7-31.8-4.6c-2-0.4-4-0.5-5.9-0.5
			c-5.8,0.1-11.6,0.2-17.3-1.6c-1.2-0.4-2.2-0.2-3.4,0.2c-1.1,0.3-2.3,0.5-3.4,0.4C294.1,7.6,284,10,274,9
			c-5.4-0.6-10.7,0.6-16.2-0.8c-4.9-1.3-9.8,1.1-14.8,0.9c-7.8-0.3-15.5,0.9-23,2.8c-5.8,1.4-11.7,1.6-17.5,3
			c-6.6,1.6-13.3,2.4-19.8,4.2c-9.6,2.6-19.3,4.2-29.1,5.8c-6.4,1-12.3,3.8-18.6,4.5c-8.2,0.9-15.6,4-23.5,5.9
			c-6.9,1.6-14,2.3-20.8,4.5c-2.7,0.9-5.3,1.6-7.7,3.1c-3.9,2.5-8.3,4.1-12.4,6.1c-5.2,2.6-10.2,5.9-15.2,9.1
			c-1.8,1.2-3.7,2.2-5.8,2.9c-1.1,0.4-2.4,0.6-3.2,1.4c-6.3,6.4-14.9,8.3-22.4,12.3c-7.4,3.9-15.6,6.8-21,13.8
			c-0.7,0.9-1.7,1.6-3,1.5C0,60,0-0.1,0-0.1h588.1c0,0-0.1,11.1-0.1,17.6C588.1,40.4,588.1,63.3,588.1,86.1z"/>
	</g>
</g>
<g>
	<path class="st2" d="M401.3,400c-132.3,0-264.7,0-397,0C0,400,0,400,0,395.7c0-21.6,0-70.3,0-91.9c2.3-2.9,5.5-2.7,8.8-2.4
		c5.9,0.6,11.4,2.5,17.1,3.8c13.8,3.3,28,4.4,42,6.5c21.7,3.4,43.8,3.7,65.5,7.2c14.2,2.2,28.2,5.1,42.5,7.2
		c18.6,2.7,37.3,4.6,55.9,7.3c4.1,0.6,7.2-1.4,10.3-3.4c3.3-2.1,32.4-12.4,42.2-15.6c8.6-2.8,16.9-6.2,24.8-10.6
		c12.5-6.8,25.8-11.5,38.9-16.7c15-5.9,30.2-11.1,44.6-18.5c1.9-1,3.7-2.1,5.8-2.7c4.1-1.3,5.7-0.2,5.7,4c0,14.5,0.6,29.1-0.2,43.6
		c-0.9,15-0.7,57-0.8,72c0,2.3,0.1,4.6,0.6,6.8C404.1,395.2,404.4,398.2,401.3,400z"/>
	<path class="st3" d="M253.3,327.2c-3.6-0.4-6.6,1.3-9.2,3.5c-5.1,4.2-10.4,6.2-17.1,3.7c-4.5-1.7-9.4-1.4-14.1-1.6
		c-9.4-0.4-18.5-2.5-27.7-3.7c-6.9-1-14-1.4-20.9-2.8c-8.9-1.9-17.8-4.2-26.9-5c-11.4-0.9-22.5-4.5-34.1-3.6
		c-3.9,0.3-7.7-1-11.5-1.3c-8.6-0.6-17.2-1.5-25.6-3.3c-5.6-1.2-11.2-0.6-16.8-1.6c-10.9-1.9-21.7-4.1-32.5-6.7
		c-5.6-1.4-11.2-3.2-17.1-1c0-25.9,0-51.8,0-77.7c8.2,0.7,16.3,2.3,24.4,3.6c4.5,0.7,9.1,1.4,13.6,1.6c13.7,0.5,27.3,2.8,40.9,4.5
		c2.6,1.1,26.7,4.5,31.2,4l0,0.2c0.8-0.3,1.6-0.6,2.5-0.5c2.9,1.9,3,5.2,3.8,8.1c0,1.3,0.5,2.6,0.8,3.8c0.2,1.7,1,3.4,0.5,5.2
		c-0.7,0.8-0.7,1.4,0.3,1.9c0.2,0.3,0.4,0.6,0.5,0.9c1.2,8.7,5.5,15.9,11.2,22.3c0.6,0.4,1.3,0.6,2,0.6c6.4-0.3,12.7-0.6,19.1,0.1
		c0.9,0.4,1.8,0.8,2.8,0.4c2-0.3,4,0.6,6,0.1c0.8-0.3,1.6-0.5,2.4-0.6c10.3-0.6,20.6-0.3,30.9,0.1c1.4,0.3,2.8,0.9,4.3,0.8
		c9.7,0.5,19.2,2.5,28.9,2.5c0.9,0.1,1.7,0.5,2.6,0.6c13.4-0.2,26.9,0.9,40.3-0.4c0.7-0.1,1.5-0.1,2.1,0.2
		c6.9,3.2,12.6-0.1,18.3-3.4c0.6-0.5,1.4-0.7,2.2-0.8c1.8,0.3,3.1-0.4,4.2-1.7c0.5-0.2,0.9-0.3,1.4-0.3c9.4-1.3,17.9-5.2,26.4-8.9
		c4.1-1.8,9.2-1.7,12.4-5.5c0.6-0.8,1.4-1.3,2.4-1.5c1.1-0.1,2.2,0.1,3.2-0.2c0.6-0.1,1.2-0.3,1.9-0.3c0.4-0.1,0.8-0.1,1.3-0.2
		c0.9-0.2,1.6-0.6,2.4-1c1.8-1,3.6-1.9,5.1-3.5c1.3-1.4,2.9-2.6,5-1.1c3.2,3.7,7.8,3,11.8,3.2c8.3,0.4,16.6,0.8,24.9,1.3
		c1.9,0.1,4.6-0.3,5,2c0.4,2.2-2.3,2.8-3.9,3.7c-11.6,6.1-23.8,10.9-36,15.5c-19.8,7.5-39.6,15-58.3,25c-6.3,3.4-13.2,6-20.3,7.8
		C270.8,318.4,261.4,321.3,253.3,327.2z"/>
	<path class="st4" d="M117.6,162.4c9.3,0.3,18.7-0.9,28-1.1c18.5-0.4,36.9,3,55.4,2.6c5.4-0.1,10.7-0.6,16.1-0.3
		c3.8,0.2,7.7,0.7,11.5,0.6c7.2-0.1,15.6-2.5,22.2,1.5c1.2,0.7,1.7,1.9,3.3,2.1c1.9,0.3,2.8,1.8,2.8,3.8c-1.5,2.7,0,5,1,7.4
		c2.6,7.5,2.6,15.5,4.3,23.1c0.1,1.8-0.2,3.7,0.5,5.5c0.4,1.9,0.9,3.9,1,5.9c-0.1,1.1-0.2,2.3,0.2,3.4c0.9,2.4,0.4,4.9,0.5,7.4
		c0.1,0.7,0.3,1.3,0.4,2c0.2,0.7,0.3,1.4,0.4,2.1c0.1,1.2,0.5,2.4,0.9,3.6c3.6,12,5,24.4,7.7,36.5c-0.1,1.5,0.7,2.8,0.8,4.2
		c-0.6,3.2-3.2,2.8-5.3,2.8c-5.9,0.1-11.9,0-17.8-0.1c-0.9,0-1.9-0.1-2.8-0.3c-16.6-1.4-33.4-2.3-50.1-2
		c-12.2,0.2-24.4,0.9-36.6,1.5c-5.7,0.3-11.5,0.9-17.1,0.3c-6-0.7-12.1-1.9-18.1-0.6c-4.6,1-5.9-1-6.8-7.7c-0.1-1.4-0.5-2.7-0.9-4.1
		c-4.3-13.9-7.4-28-10.4-42.2c-1.5-7-2.9-14-4.5-21c-0.8-3.5-1.6-7-2.4-10.4c-0.3-1.2-0.5-2.4-0.9-3.6c-0.7-2.1-0.6-3.8-0.6-5.9
		c0-1.8-0.5-3.5-1.1-5.1c-0.5-1.4-1.4-2.8-1.7-4.4c-0.4-2.3,0.7-5.3,2.9-6.4c4.7-2.5,11.3-1.2,16.3-1
		C117.1,162.4,117.4,162.4,117.6,162.4z"/>
	<path class="st5" d="M309.3,66.5c0.9,0.8,2,0.7,3,1c2.6,1.6,5.6,2,8.4,3.1c1.5,0.6,9.9,4.2,10.5,5.3c0.5,1.2,1.1,2.2,2.1,3
		c10.3,9.2,11.8,21.1,10.5,33.9c-0.9,9-2.7,17.8-5.4,26.5c-4.5,14.7-16.2,20.7-29.3,25.1c-1.3,0.5-2.8,0.3-4.1-0.4
		c-0.8-0.4-1.3-1.1-1.7-1.8c-0.4-0.7-0.7-1.5-0.9-2.2c-0.6-4.2-1.1-8.4-2.9-12.3c-0.7-1.6-1.5-4.1-3.9-3.8c-2.1,0.3-3.9,1.5-4.8,3.7
		c-0.7,1.8-1.3,3.7-2.2,5.4c-0.9,1.3-0.8,2.9-1.1,4.3c-0.3,1.1-0.8,2-2,2.3c-0.6,0.1-1.1-0.1-1.6-0.4c-0.6-0.6-0.9-1.3-1-2.1
		c-0.2-2.6-0.7-5.2-1.6-7.7c-0.7-2-0.6-4.8-3.9-4.7c-2.9,0.1-5.1,1.5-6,4.2c-1.2,3.3-2,6.7-3.1,10c-0.5,1.2-0.8,2.4-1.4,3.6
		c-2.9,2.6-5.3,0.2-7.6-0.9c-7.1-3.4-10.3-10.3-14.3-16.5l0,0c-1.8-2.1-2.9-4.7-4.1-7.1c-0.5-1.7-1.5-3.3-1.8-5.1
		c-1.4-4.2-2-8.6-1.7-13c0.1-1.5-0.5-3-0.8-4.4c-0.1-0.8-0.1-1.5,0-2.3c0.3-1.2,0.4-2.5,0.5-3.8c1.6-9.6,5.9-18,11.6-25.8
		c3.6-4.6,9.2-7,13.4-10.9l-0.2,0.1c2.8-0.1,5.5-0.6,8-1.9c7.5-4.3,15.6-5.6,24.1-4.3c0.7,0.6,1.4,1,2.2,0.2
		c2.7-0.6,5.5-0.6,8.2-0.4c0.8,0.2,1.5,0.5,2.3,0.4c0.4,0,0.8,0,1.1,0.1C308.3,67,308.7,66.6,309.3,66.5z"/>
	<path class="st6" d="M344.8,152.6c1.6-2.2,4.2-1.6,6.4-2c0.8,2.4,2.1,1.4,3.3,0.5c0.8-0.3,1.6-0.4,2.5-0.4
		c13.3-1.3,26.7-1.8,40.1-2.1c1.2,0.1,2.4,0.5,3.6,0.5c2.5-0.1,4.9,0.1,7.3-0.4c7.6-1.4,14.4,1.9,21.5,3.7c1,0.3,1.7,1.2,2.1,2.2
		c1.2,7-1,13.7-1.6,20.5c-0.3,4-1.1,8-1.6,12.1c-1.1,8.6-6,14.1-14.5,16.2c-4,1-8,1.1-12.1,1.2c-7.8,0.1-15.5-0.6-23.3,0.7
		c-9,1.5-23.5-10.2-24.9-15.4c-3.1-11.8-8-14.2-8.5-24.6C343.4,163.3,345.5,155.6,344.8,152.6z"/>
	<path class="st7" d="M373.8,203.8c11.2-1.6,22.5-0.8,33.7-1.2c7.8-0.3,15-2.6,18.3-10.8c0.3-0.8,0.8-1.6,0.9-2.5
		c0.9-10.5,2.4-20.8,4.1-31.2c0.2-1.1-1.5-2.2,0.1-3.3c0.8-0.7,1.6-0.7,2.5-0.3l0,0c0.8,1.6,1.3,3.4,3,4.3l0,0.1
		c0.9,2.3,0.8,4.7,1.1,7.1c0.3,1.5,0.6,3,0.8,4.5c0,2.5,0.3,5-0.9,7.3c0.3,0.2,0.4,0.5,0.2,0.8c-0.3,10-4.5,18.7-9.5,27
		c-2.1,3.5-6.1,4.2-9.7,4.7c-5.6,0.9-11.2,1.8-16.9,1.3c-6.8-0.6-13.3,1.1-20,1.6c-0.9,0.2-1.8,0.3-2.7,0.3
		c-3.8-0.7-7.7-1.3-7.5-6.6c0.2-1.1,0.7-2.1,1.6-2.9C373.3,204,373.5,203.9,373.8,203.8z"/>
	<path d="M244.9,145.2c3.8,1.1,4.8,4.9,6.8,7.6c3.4,4.8,7.6,7.9,13,9.8c0.8,0.3,1.2,0.4,1.6-0.3c0.6-1.1,0.6-2.7,0.8-3.9
		c0.1-0.7,0.3-1.5,0.4-2.2c0.5-2.3,1.2-4.5,2-6.7c0.7-2.1,1.6-3.8,3.5-5c1.7-1.1,3.8-1.5,5.7-1.3c2.4,0.3,3.2,2.9,3.8,4.9
		c0.8,3,1.6,5.9,1.2,9.1c-0.1,0.8-0.3,1.6,0.2,2.4c0.7,0.7,0.8-0.1,1.1-0.4c0.2-0.8,0.3-1.6,0.5-2.4c0.6-0.3,1.2-0.3,1.8,0
		c2.8,3.8,0.3,7.6,0.2,11.5c-0.4,1.7-1,3.3-0.7,5.1c0,2.6,0.1,5.2-0.4,7.7c-0.2,1.1-0.5,2.2-0.5,3.3c-0.2,3.3-0.2,6.6,0.1,9.9
		c0.1,0.8,0.3,1.6,0.4,2.4c0.8,9.2,4,17.8,7.1,26.4c1.2,3.1,2.3,6.4,5.5,8.1c1.6,0.7,3.2,1.2,4.9,0.8c0.7-0.2,1.5-0.3,2.2-0.5
		c10.4-2.9,20.7-6,29.8-11.9c1.5-0.9,5-4,6.9-3.1c1.2,2.3-2.3,5.7-3.8,7c-3.4,2.9-6.9,5.6-11.3,6.8c-5,1.3-9.9,2.8-14.6,5
		c-2.9,1.3-6,2-9.3,2.1c-8.5,0.2-11.8-2-15.1-9.8c-1.7-4.1-3.1-8.3-5-12.2c-0.3,0.5-0.3,1-0.5,1.6c-0.6,2-1.1,4-3.6,4.5
		c-0.6,0-1-0.3-1.4-0.7c-0.7-5.3,2.1-10,2.4-15.1c0.5-1.5,0.5-3,0-4.5c-0.4-2.4-0.2-4.9-1.1-7.3c-0.7-4-0.3-8,0.4-12
		c0.8-4.7,1.1-9.4,1.1-14.1c0.7-0.9,0.9-1.7,0-2.6c-1-3.5-1.6-7-1.8-10.6c0.1-1.3,0-2.6-0.5-3.8c-1.8-4.1-3.9-2.2-5.3,0
		c-2.2,3.3-3.1,7.2-3.1,11.1c0,3.1-0.4,6-1.1,8.9c-0.1,0.8-0.3,1.6-0.4,2.3c-0.7,2.4,0.8,6-3.4,6.6c-2.4-1.3-1.8-3.7-1.7-5.7
		c0.3-4.3-1-7.5-5.2-9.4c-3.9-1.8-7.4-4.2-9.5-8.2c-1.2-2.4-2.8-1.3-4.5-0.8c-2.2,0.6-8.8,3.7-6.7,1c0-0.5,0-1.1,0.1-1.6
		c0.2-0.2,0.5-0.5,0.7-0.7C242.1,152.1,244.8,148,244.9,145.2z"/>
	<path class="st8" d="M408,212.4c1.3-0.1,2.5-0.1,3.8-0.2C410.6,213.1,409.3,212.7,408,212.4z"/>
	<path class="st8" d="M111.9,236.8c1.3,1.1,0.9,2.5,0.5,3.8c-0.8-0.2-1.4-1.1-2.4-0.6C112.1,239.7,112.5,238.5,111.9,236.8z"/>
	<path class="st8" d="M391.7,213.2c0.8-1.2,2.1-0.9,3.2-0.9C393.9,212.8,392.9,213.4,391.7,213.2z"/>
	<path class="st8" d="M370.2,145.6c0.1,0.9,0.2,1.9,0.2,2.8c-0.9-0.2-1.5-0.7-1.9-1.5C368.9,146.2,369.3,145.5,370.2,145.6z"/>
	<path class="st9" d="M110.1,239.8c-0.1-0.1-1.4-0.1-1.6-0.1c-0.8-0.1-1.5-0.1-2.3-0.2c-1.6-0.1-3.3-0.3-4.9-0.5
		c-3.4-0.4-6.9-0.7-10.3-1.1c-0.7-0.1-1.4-0.1-2.1-0.2c-0.3,0-0.7-0.1-1-0.2c-0.4-0.1-0.8-0.3-1.1-0.4c-1.3-0.5-2.7-0.8-4.1-1
		c-0.7-0.1-1.4-0.2-2.1-0.2c-0.2,0-1.7,0-1.7-0.1c0.8,1.7,3,2.4,4.7,2.9c2.4,0.7,5,1,7.5,1.5c0.7,0.1,1.4,0.3,2.2,0.4
		c1.6,0.3,3.2,0.4,4.8,0.5c3.7,0.2,7.4,0.2,11,0.7C110.2,242.1,110.8,241.1,110.1,239.8z"/>
	<path class="st10" d="M249.6,274c0.3-0.1,0.7-0.1,1,0c1.7,1.5,3.9,1,5.9,1.3c0.8,0.2,1.6,0.4,2.4,0.4c10.6,0.5,21-0.3,31.1-3.7
		c0.8-0.3,1.7-0.4,2.6-0.4c8.1-2.7,16.9-2.9,24.7-6.7c2.4-1.2,4.9-1.9,7.6-1.9c0.5,0,1.1,0,1.6,0c5.5-1.9,11.2-3.1,16.5-5.6
		c2-0.9,4.4-1.4,6.7-0.7c0.5,0.3,0.8,0.7,0.9,1.3c0.1,0.6-0.6,1.6-1,2c-0.4,0.6-1,1.1-1.6,1.5c-1.5,1.1-3.2,1.9-4.8,2.7
		c-0.1,0-0.2,0.1-0.2,0.1c-0.1,0-0.2-0.1-0.3-0.1c-0.4-0.2-0.9,0.1-1.4,0.2c-1.1,0.3-4.4,1.1-4.8,1.7c-1.9,2.4-4.9,2.3-7.6,3
		c-1.3,0.4-2.7,0.8-4,1.2c-2.8,1-5.6,2.2-8.4,3.4c-5.1,2.3-10.2,4.6-15.7,5.7c-1.5,0.3-3,1.1-4.6,0.9l-0.4,0c-1.1,1-1.9,2.5-3.8,2
		c-0.4-0.4-0.9-0.4-1.2,0.1c-3.8,2.8-8.4,3.4-12.6,5.3c-0.5,0.2-1.1,0.4-1.6,0.2c-8.2-3.7-17,0.6-25.3-1.6c-0.6,0-1.2,0-1.8,0
		c-3,0-6.1,0-9.1,0c-0.6,0-1.2,0-1.9,0c-12.6,0-25-1.3-37.5-2.7c-13.5-1.6-27.1-2-40.6-0.9c-5.1,0.4-10.2-0.5-15.3-0.2
		c-1-0.4-2.1-0.6-3.1-0.1c-2.3,0.2-4.6,0.2-6.9,0.1c-0.9-0.1-1.8-0.4-2.7-0.4c-2.4-0.3-4.8-0.8-4.7-3.8c0.2-3.2,2.5-4.3,5.4-4.6
		c2.5-0.2,4.9,0.4,7.3,0.5c0.9,0,1.8,0.4,2.8,0.5c7.1,0.7,14.1,1.3,21.1-0.5c0.6,0,1.3,0,1.9,0c11.9-0.7,23.9-0.3,35.9-1
		c7.9-0.5,15.7,1.4,23.6,0.5c0.6,0,1.2,0,1.9,0c5.6,0.8,11.2,0.4,16.8,0.5c1,0,2,0.1,2.9,0.1C248.3,274,248.9,273.9,249.6,274z"/>
	<g>
		<path d="M356.5,257L356.5,257C356.5,257,356.5,257,356.5,257C356.5,257,356.5,257,356.5,257z"/>
		<path d="M351,248.2c-0.6-0.1-1.1-0.1-1.7-0.1c-1.1,0-2.2-0.2-3.3-0.4c-0.8-0.2-1.6-0.4-2.5-0.6c-9.4-2.2-19.1-0.8-28.5-2.5
			c-1.1,0-2.3-0.2-3.4-0.4c-1.7-0.3-3.3-0.5-5-0.5c-0.6,0-1.1,0-1.7,0c-3.5,0.1-7,0-10.4-0.2c-1.5,0.1-3.1,0.2-4.6-0.2
			c-4.9-0.7-9.9-0.2-14.7-1.3c-2.1-0.5-4.4-0.4-4.9-3.2c-0.4-2.5,1.6-3.2,3.2-4.3c3.4-2.2,6.1-4.9,5.5-9.4c-0.6-0.6-1.3-0.8-2.1-0.7
			c-1.8,0.5-2.8,1.9-4,3.1c-3.3,3.2-3.6,3.1-4.8-1.6c-2-7.8-3.3-15.7-4.5-23.6c-0.6-4-1.1-8.1-1.7-12.1c-0.3-2-0.6-3.9-0.9-5.9
			c-0.2-1.4,0-3.6-0.9-4.8c-1-1.3-3.9-3-3.8-1.3c0.9,16.3,5.4,37.7,9,56.3c1.1,5.6,2.3,11,3.3,16.7c0.6,3.1,1.2,6.3,1.9,9.4
			c0.5,2.3,0.8,6.1,2.1,8.1c0.6,0.9-0.2,2.2,0.9,3c0.5,1.4,1,2.5-1.5,2.4c-7.2-0.2-14.3-0.1-21.5-0.1c-0.6,1.1-0.6,2,0.8,2.1
			c1.5,0.1,2.9,0.9,4.4,0.3c0.6-0.1,1.1,0.4,1.6,0.5c5.2,0.8,10.6,0.6,15.8,0.2c3.7-0.3,7.4-0.7,11.1-1.6c1.7-0.4,3.4-0.9,5-1.6
			c1.6-0.7,3.4-0.6,5-0.8c2-0.3,3.9-1.2,5.9-1.9c4.9-1.6,10.2-1.4,15-3.3c1.9-0.8,3.6-1.8,5.5-2.5c2.2-0.8,4.5-1,6.8-1.4
			c2.3-0.4,4.5-1.1,6.7-1.8c4.7-1.5,9.2-3.3,13.9-4.6c0.7-0.2,1.3-0.4,2-0.5c1,0.3,0.1,0.8,0,1.1c-1.6,1.5-3.2,2.8-5.4,3.3
			c-1.4,0.3-2.5,1.2-1.7,3c0,0.1,3.7-0.7,4-0.8c0.3-0.1,0.6-0.2,0.9-0.3c1.6-0.6,3.2-1.5,4.4-2.6c0.7-0.6,1.4-1.3,2-1.9
			c0.3-0.3,0.7-0.6,1-0.9c0.2-0.1,1-0.6,1-0.8C357.5,252.4,356.2,250.4,351,248.2z M347.3,253.2c0,0-0.2,0.1-0.5,0.2
			c-14.9,4.7-29.7,10.1-45.2,12.8c-4.2,0.7-14.5,4.6-16.9,4.8c-6.2,0.5-7.9-0.7-9.2-6.7c-0.4-1.9-0.3-3.8-0.2-5.8
			c0-0.5-0.1-1-0.2-1.5c-0.8-1.7-2.2-3.3-2.1-5.3c0.1-1.9-1.3-4.4,2.1-4.9c1.4-0.1,2.6,0.7,3.9,0.8c18.5,1.3,37.1,2.1,55.6,3.6
			c0.8,0.1,1.6,0.1,2.5,0.2c2.2,0.2,4.4-0.4,6.5,0.4c0.9,0.2,1.8,0.5,2.8,0.6C346.5,252.9,347.7,252,347.3,253.2z"/>
	</g>
	<path class="st9" d="M292.2,282.3c1-1.2,2.4-1.5,3.8-2c1.6,1.6,0.3,2.6-0.9,3.1C294.2,283.7,292.4,284.6,292.2,282.3z"/>
	<path class="st11" d="M259.4,179.3c-0.5-0.8-1.2-1.5-1.6-2.4c-0.9-2-0.3-4.3-1-6.4c-0.3-0.7-0.6-1.3-1-1.9c-2-1.3-4.5-1.6-6.2-3.3
		l0.1,0.1c-3.6-1.3-7.4-1-11.1-2c-1.3-0.4-2.8-0.1-3.4,1.6c-0.3,0.2-0.7,0.3-1,0.5c-2.3-4,1.2-5.4,3.3-7.5c0.3-0.1,0.6-0.3,0.9-0.3
		c1.5-0.9,6.6-6.6,7.6-6.6c1.6-0.1,3.3,3.3,4.9,5.6c2.9,4.3,7.4,6.5,11.8,8.5c2.2,0.9,2.5,1.7,2.7,4.1c0.3,3.9-0.8,7.7-0.3,11.5
		c0.3,0.4,0.4,0.8,0.5,1.3c-0.1,2.7-0.6,5.5,1.1,7.9c0.2,0.7,0.2,1.4,0,2.1c-1.2,2-2.4,4-2.1,6.5c-0.1,0.5-0.3,0.9-0.6,1.3
		c-0.5,0.2-0.9,0.3-1.3-0.1c-1-3.2-1.4-6.5-1.8-9.8C260.6,189.3,259.6,182.3,259.4,179.3z"/>
	<path class="st12" d="M191.6,231.4c-2.7,4.3-6.7,6.7-11.6,6.3c-5.8-0.4-10.9-2.8-13.6-8.4c-2-4.2,0.5-11.6,4.5-14.5
		c5.4-3.8,11.2-4.4,17.4-2.4c1.3,0.4,1.9,1.5,0.8,2.3c-1.3,0.9-1.6,2.8-3.8,3.1c-3.7,0.6-5,3.2-4.4,7c0.5,3.1,2.2,4.3,6,4.6
		c1.6,0.1,3.6-1.2,4.6,1.2C191.9,230.7,191.7,231.4,191.6,231.4z"/>
	<path class="st13" d="M168.1,201.3c0.3-4.2,5-7.3,10.2-6.9c3.7,0.3,6.4,3.5,6,7.3c-0.4,4.1-5.3,7.7-9.9,7.4
		C170.9,208.8,167.8,204.9,168.1,201.3z"/>
	<path class="st14" d="M329.2,74.8c3,0.6,5.9,3.6,8.5,4.9c1.3,1.6,6.1,6.6,7.4,6.8c8,9,8,20.1,6.8,31.2c-1,8.8-4,17-7.1,25.1
		c-0.3,0.2-0.6,0.4-0.9,0.7c-0.6,0.4-0.6,1.1-0.7,1.8c-1.8,3.5-4.2,6.6-6.7,9.6c-0.3,0.5-0.5,1-0.8,1.4c-0.2,0.5-0.6,0.9-1,1.3
		c-0.4,0.4-0.9,0.8-1.3,1.1c-0.3,0.2-0.7,0.4-1,0.6c-0.5,0.3-1.1,0.6-1.6,1c-2.1,1.4-4.3,2.6-6.5,3.9c-0.4,0.3-0.9,0.5-1.3,0.7
		c-5.8,2-11.3,5.3-17.8,4.7c-1-0.5-1.6-1.3-2-2.3c-0.2-0.5-0.2-1-0.2-1.5c0.1-0.8,0.5-1.4,1-2c0.2-0.1,0.4-0.2,0.6-0.4
		c7.7,0.2,13.8-4,19.9-7.7c7.5-4.5,11.2-11.6,13.4-20c2.8-10.2,5-20.5,4.8-31.1c-0.2-8.9-2.1-17.5-9.5-23.7
		C331.6,79.5,329.1,77,329.2,74.8z"/>
	<path class="st9" d="M305,168.6c5.6-1.2,11.3-2.1,16.3-5.2c0.6-0.3,1.4-1.1,2.2-0.1c1.3,2.3-0.6,2.9-2,3.8c-2,1.3-4.3,2-6.3,3.3
		c-2.8,1.1-5.7,1.5-8.6,1.9c-0.9,0.4-1,1.1-0.9,2c0.3,2.4,0.2,4.9,0.3,7.3c0,0.7,0,1.5,0.1,2.2c0.3,1.2,0.6,2.5,1.1,3.7
		c0.3,0.8,0.5,1.6,0.6,2.4c0.7,5.9,0.7,11.8,0.3,17.8c-0.1,1.5-0.4,3.3-2.2,3.7c-1.7,0.4-2.6-0.7-3-2.2c0.3-1,0.5-1.9-0.3-2.8
		c-1.3-6.5,0.4-13.1-0.7-19.6c0.1-1.5-0.6-2.7-1.1-4c-2.2-7.4-0.8-15-1.2-22.5c0-1.1-0.1-2.1-0.3-3.2c-1-3.1-0.2-8-3.5-8.8
		c-3.4-0.9-4,4.1-6,6.4c-0.6,0.7-1.1,1.4-2.1,1.2c-1.2-1.1-0.8-2.4-0.4-3.7c1.3-3.6,2.1-7.3,5.9-9.4c2.8-1.6,4.7-1.3,6.1,1.3
		c2.6,4.8,4.4,9.9,4.2,15.5c0.2,0.5,0.3,0.9,0.5,1.4c0.2,0.7,0.3,1.5,0.5,2.2l-0.2-0.1l-0.2,0.1c0,0.8-0.1,1.6-0.5,2.4
		c0.1,0.2,0.1,0.5,0,0.7C304,167.1,303.7,168.4,305,168.6z"/>
	<path class="st13" d="M319.7,123c-0.2,1.5-1,2.3-2.5,2c-1.3-0.3-2.3-1.1-2.1-2.5c0.2-1.5,1.3-2.5,3-2.2
		C319.5,120.5,320,121.5,319.7,123z"/>
	<path class="st13" d="M248.8,123.7c0-1.2,0.4-2.1,1.8-2c1.2,0.1,2.6,0.7,2.5,2c0,1.1-0.8,2.3-2.3,2.3
		C249.1,126.1,248.8,125.1,248.8,123.7z"/>
	<path class="st15" d="M252.5,117.5c2,0.5,3.4-2.7,7,0.7c0,2.2-4.9,0-7.4,0.5c-0.5,0.1-1.1,0.1-1.5,0c-2.3-0.6-6.1,2.4-6.5-0.3
		c-0.3-1.7,4.6-0.6,7.1-0.9C251.5,117.4,251.8,117.5,252.5,117.5z"/>
	<path class="st16" d="M272.5,116.6c3-0.4,8.9-1.1,8.9,0.3c-0.1,1.7-5.9,0.8-8.9,0.6c-0.4-0.2-0.5-0.4-0.4-0.6
		C272.3,116.7,272.4,116.6,272.5,116.6z"/>
	<path class="st15" d="M313.2,116.1c-0.3-1.7-2.4-2.1-4.3-1.4c-0.1,0-0.2,0.3-0.3,0.4c-1.8,0.2-3.5,0.3-5.3,0.5
		c-0.5,0.1-1.5-0.2-1.5,0.4c0,0.5,0.9,0.4,1.4,0.5c1.8,0.1,3.5,0,5.3,0.1l0,0c0.4,0,0.7,0.2,1,0.1
		C310.9,116.1,313.4,117,313.2,116.1z"/>
	<path class="st15" d="M322.9,116.5c-1-0.1-2.4,0.2-2.4-0.6c0-0.7,1.5-0.5,2.3-0.5c0.8,0,2.3-0.4,2.3,0.3
		C325,117.1,323.5,116.1,322.9,116.5z"/>
	<path d="M316.8,114.5c0.8-0.2,1.2,0.2,1.2,0.7c0,0.9-0.8,1.1-1.5,1.2c-0.5,0-1.2,0.1-1.4-0.3C314.6,115.2,316.2,114.8,316.8,114.5z
		"/>
	<path d="M272.5,116.6c-0.2,0.3-0.2,0.6,0,0.9c-0.9-0.1-2.4,1.2-2.5-0.2C269.9,116,271.5,116.6,272.5,116.6z"/>
	<path class="st8" d="M287.3,152.4c0.2,1.2-0.2,2.6,1,3.5c0.6,0.6,0.2,1-0.4,1.2c-0.8-0.2-1.5-0.3-2.3-0.5
		C286.4,155.3,285.9,153.5,287.3,152.4z"/>
	<path d="M264.1,118.4c-0.2-0.2-0.7-0.4-0.7-0.5c0.3-0.7,0.8-1.1,1.5-1.2c0.2,0,0.7,0.4,0.7,0.4
		C265.4,117.8,264.8,118.2,264.1,118.4z"/>
	<path class="st12" d="M301.2,116c0,0.8-2.2,0.5-2.7,0.5c-0.5,0-2.3,0-2.3-0.5c0-0.5,1.9-0.5,2.4-0.5
		C298.9,115.4,301.2,115.2,301.2,116z"/>
	<path class="st9" d="M292.7,115.4c-0.3-0.1-0.6,0.1-1,0.1c-0.3,0-0.7,0.2-1,0.2c-0.3,0.1-0.7,0.2-1,0.3c-0.7,0.2-1.3,0.3-2,0.5
		c-0.5,0.1-0.9-0.1-1.3-0.2c-0.7-0.1-1.8,0-1.8,0.6c0,0.6,1.1,0.6,1.8,0.6c0.3,0,0.7-0.2,1-0.2c0,0,0.1,0,0.1,0
		c1.5,0.3,3.2,0.5,4.6-0.4c0.2-0.1,0.4-0.3,0.6-0.4c0,0,0.1-0.1,0.1-0.1c0.1,0,0.1,0,0.2,0c0.5,0,1.1,0.1,1.6,0c0.3,0,0.8,0,0.8-0.4
		C295.5,114.9,293.3,115.6,292.7,115.4z"/>
	<path class="st17" d="M285.1,159c0,0.3,0.1,0.7,0.1,1c0,0.5-0.1,1-0.2,1.6c-0.9-0.1-0.6-1-1-1.5c-0.3-0.5-0.3-0.8,0.3-1.1
		C284.6,159.1,284.8,159.1,285.1,159z"/>
	<path class="st8" d="M303.9,161.1c-0.4-0.4-0.6-0.8-0.5-1.4C304,160.1,304.2,160.5,303.9,161.1z"/>
	<path class="st18" d="M372.5,194.9c-0.5-4.3-1.6-8.6-2.8-12.7c-0.7-2.6-1.5-5.3-3-7.6c-0.7-1.1-3.4-4.5-5.3-4.7
		c-0.2-1.6-0.5-2.8-0.8-3l-0.1-0.2c-0.6-3.2-6.2-7-6.6-7.4c-0.7-0.5-1.3-1.1-2.2-1.1c-0.1,0.2-0.3,0.3-0.4,0.5
		c-1.7,0.9-2.7-1.1-4.2-1c-4.1,1.1-8,2.7-11.8,4.5c-6.5,3-13.2,5.6-20.3,7.3c-3.5,0.2-6.7,2.1-10.3,1.4c-0.9,0.4-0.8,1.2-0.7,2
		c0.1,1.6,0.2,3.2,0.2,4.7c0.1,2.4,0.2,4.7,0.8,7.1c0.9,4.2,1.8,8.2,1.7,12.6c-0.1,3.8-0.5,7.5-0.3,11.3c0,0.9,0.5,2.6-1,2.5
		c-1.4-0.1-2.5-1.3-1.5-3c-0.2-0.3-0.1-0.6,0.2-0.9c0.1-0.1-0.3-2.3-0.3-2.6c-0.1-1-0.1-1.9-0.2-2.9c-0.2-4.7,0.4-9.5-0.4-14.1
		c-0.4-2.7-1.3-5.3-1.7-8.1c-0.5-2.8-0.2-5.6-0.2-8.4c0-4,0-8,0-12c-0.6-0.6-0.6-1.3-0.7-2c-0.6-2.5-1-5.1-1.7-7.5
		c-0.5-1.6-1.1-3.8-3-3.9c-2-0.1-3.2,1.7-4.2,3.4c-1.3,2.2-1.8,4.9-3.4,7c0.1,0.5,0.1,0.9-0.4,1.2c-0.7,4.8-1.6,9.7-2.2,14.5
		c-0.3,2.3-0.1,4.5-0.4,6.8c-0.3,2.4-0.9,4.8-1,7.2c-0.1,2.1,0.2,4.3,0,6.4c-0.1,0.8-0.2,1.7,0,2.5c0.1,0.5,0.3,1.1,0.5,1.6
		c0.7,2.2,0.6,4.5,1.1,6.7c0.5,2.4,1.1,4.8,1.7,7.2c1.4,4.8,3.1,9.4,4.9,14c0.1,0.2,0.2,0.5,0.3,0.7c0.4,1.1,0.8,2.2,1.3,3.2
		c0.8,2.1,2.3,4.3,5.1,4.5c21-5.6,37.7-17.2,49.6-35.5c1.7-2.5,3.9-3.6,6.8-1.9c2.4,2.2-0.7,4.1-0.3,6.2c-0.1,1.1-0.2,2.2-0.9,3.2
		c-1.3,1.7-2.3,3.6-3.7,5.3c-0.3,0.3-0.6,0.6-1,0.9c-0.3,0.2-0.6,0.4-1,0.7c-0.7,0.2-1.6-0.3-2.2,0.4c-0.3,0.3-0.5,0.7-0.7,1
		c-0.3,0.6-0.6,1.1-1.1,1.6c-1,1.1-2.6,0.9-3.7,1.8c-0.5,0.6-1.2,1.2-0.4,1.9c0.2,0.2,0.7-0.6,0.9-1c0.7,0.7,0.9,1.6,0.2,2.3
		c-3.7,3.5-7.4,7.3-12.2,8.9c-5.6,1.9-11.3,3.5-16.8,5.6c-3.5,1.4-7,1.8-10.7,2.1c-6.3,0.5-9.6-2.9-11.7-8.3
		c-1.9-5.1-3.9-10.1-5.5-15.3c-0.2-0.6-0.8-1.1-1.3-1.6c-0.2,0.6-0.4,1.2-0.5,1.8c-0.2,0.7-0.3,1.4-0.5,2c0,0.4-0.1,0.8-0.4,1.1
		c-0.1,1.9-0.7,3.7-1.5,5.4c-0.4,0-0.8,0.2-1.1,0.5c-0.4,0.5-0.6,1.1-0.7,1.7c-0.1,0.6,0,1.2,0.1,1.8c-0.8,4.6-3.5,7.5-7.7,9.2
		c-1.6,0.7-3.8,0.9-2.6,3.4c1,2.1-0.2,5.3,4.5,5.7c5.9,0.5,12,0.1,17.8,1.8c0.8-0.7,1.9-0.3,2.8-0.5c3.9,0.2,7.9,0.4,11.8,0.6
		c0.4-0.7,0.9-0.2,1.4-0.2c1.7-0.6,3.3-0.4,4.9,0.3c0.8,0.4,1.7,0.4,2.4,0.8c6-0.4,11.7,1.7,17.7,1.3c2.3-0.2,4.6,0,6.9,0.3
		c2,0.3,4,0.6,6,1.2c0.4,0.1,0.8,0.2,1.2,0.2c0.8,0,1.4-0.3,2.2-0.1c0.2,0,0.8-0.3,0.7-0.3c0.4,0.3,0.8,0.5,1.3,0.7
		c5.6-0.4,4.9,4.4,6.1,7.6c1.2-0.1,2.4,1.9,3.4-1.1c1.5-4.7,3.2-9.2,4.1-14.1C367,226.5,374.2,210.8,372.5,194.9z"/>
	<path class="st19" d="M356.5,257c-1.2-3.2-0.5-7.9-6.1-7.6c-0.8-0.4-1.7-0.7-2-1.6c-0.7-2.5,0.5-4.5,1.5-6.5
		c4.6-9.5,7.4-19.5,8.3-30c0.3-3,0.8-6,1.6-8.9c2.1-8.2,2.5-16.4,0.8-24.7c-0.3-1.6-2-6.8,0.1-7.8c1.8-0.9,5.2,3.4,6,4.6
		c1.5,2.3,2.3,5,3,7.6c1.2,4.2,2.3,8.4,2.8,12.7c1.8,15.9-5.5,31.5-8.4,46.9c-0.9,4.9-2.6,9.4-4.1,14.1
		C358.9,258.9,357.7,256.9,356.5,257z"/>
	<path class="st8" d="M354.5,152.2c0.4-0.2,0.7-0.4,1.1-0.5C355.3,151.8,354.9,152,354.5,152.2z"/>
	<path class="st8" d="M371.6,188.3c0-0.6-0.1-1.2-0.1-1.8C372.1,187.1,372.3,187.7,371.6,188.3z"/>
	<path class="st8" d="M439.8,172.6c-0.1-5.9-1.4-11.9-4.4-17c-1-1.8-2.4-3.5-4.2-4.4c-1-0.5-1.8-0.4-2.8-0.5
		c-1.2-0.2-2.5-0.7-3.6-1.1c-2.7-0.9-5.4-1.9-8.2-2.3c-1.6-0.2-3.2-0.2-4.8,0c-3.4,0.6-33-0.3-41.6,0.1c-0.7,0.2-1.2,0.1-1.6-0.5
		c-1.8,1.7-3.7,2.4-6.4,2.2c-3.7-0.3-7.4,0.1-11,1.5c-0.8,4.4,1.6,2.3,3.3,1.6c0.4-0.1,0.8-0.3,1.1-0.5c0,0,0.3,0,0.3,0
		c0.1,0,0.3,0,0.4,0c0.2,0,0.5,0,0.7-0.1c0.5,0,1-0.1,1.5-0.1c1-0.1,1.9-0.1,2.9-0.2c1.9-0.1,3.9-0.2,5.8-0.3
		c1.9-0.1,3.9-0.1,5.8-0.2c1.9-0.1,3.9-0.1,5.8-0.2c1.9-0.1,3.9-0.1,5.8-0.2c1.9-0.1,3.9-0.2,5.8-0.3c1.3-0.1,2.7-0.1,4.1-0.3
		c1.3-0.2,2.4-0.3,3.7-0.1c1.2,0.2,7.6,0.6,9.6,0.2c3.2-0.6,6.3-0.7,9.5,0c3.2,0.7,6.3,1.9,9.4,3.1c0.4,0.2,0.9,0.4,1.3,0.5
		c0.9,0.4,1.9,0.8,2.8,1.2c0.4,0.2,0.7,1,1,1.3c0.7,1.1,1.3,2.2,1.9,3.4c0.7,1.3,1.4,2.6,2,3.9c0.6,1.4,0.8,2.9,1,4.4
		c0.2,1,0.3,2,0.4,3.1c0.4,4.3-0.3,8.9-1.2,13.1c-1,4.7-2.6,9.2-4.6,13.6c0,0.1-0.1,0.2-0.1,0.3c-0.5,1.1-1,2.1-1.6,3.1
		c-1.3,2.3-2.7,4.6-4.9,6.1c-2.4,1.7-5.4,2.2-8.4,2.5c-11.8,1.2-24-0.3-35.5,2.7c0.1,1.2,1.2,2.1,2.4,2.3c1.2,0.2,2.4-0.1,3.5-0.3
		c3.8-0.9,7.7-1.3,11.7-1.5c5.1-0.1,10.2,0.4,15.3,0c5.1-0.4,10.3-1.7,14.2-5c3.7-3.2,5.8-7.8,7.5-12.5c2.4-6.4,4.1-13.1,4.4-19.9
		C439.8,174.4,439.8,173.5,439.8,172.6z"/>
	<path class="st20" d="M263,199.4c0.5-0.1,0.7,0,1.2,0c0.6-0.7,0.6-1.5,0.4-2.3c-0.3-2.1,0.3-3.9,1.5-5.6c0-0.3,0-0.7,0-1
		c-1.9-3-0.8-6.5-1.1-9.7l0-0.1c0.9,0,2-0.1,1.9-1.1c0-1.7,0.6-3.4,0.6-5.1c0-1.6,0.1-2.8,0.5-4.4c0.2-0.9,0.3-1.9,0.4-2.9
		c0.3-2.9,0.5-5.8,1.1-8.6c0.5-2.6,1.4-5.2,2.2-7.8c0.7-2.2,2-4,4.2-4.8c1-0.4,2.3-0.4,3,0.4c0.3,0.4,0.4,0.9,0.6,1.4
		c0.2,0.8,0.4,1.7,0.6,2.5c0.3,1.2,0.6,2.4,0.7,3.7c0.1,0.7,0.1,1.4,0.1,2.1c0.2,3,0.8,5.9,1.3,8.8c0.5,3,0.6,6,0.4,9.1
		c-0.5,6.7-1.8,13.3-1.5,20.1c0.6,9.3-0.8,18.3-5.2,26.6c-1.7,3.2-3.4,7.4-8.7,5.3c-1.2-0.5-1.1-3.5-1.3-4.5c-0.3-2-0.8-4-1.2-6
		C264.6,214.3,262.3,199.5,263,199.4z"/>
	<path class="st19" d="M349.1,212.9c-1.8,1.5-1.4-0.9-2.1-1.2c0.1,0.7-0.5,1.2-0.8,1.8c-0.4,0.5-0.9,1-1.2,1.5
		c-0.8,0.8-1.9,1.2-2.8,1.7l-0.3,0.3l-0.2,0c-10.6,8.8-23.5,12.4-36.3,16.3c-0.4-0.1-0.8,0-1.1,0.3c-1.8-0.2-3.7,0.2-5.2-1.1
		c0.2-2.8,2.8-2.4,4.4-2.9c4.3-1.3,8.4-3.4,12.7-4.7c5-1.6,8.1-5.4,11.9-8.5c6.3-5.1,13.9-9,17.6-17c0.5-1.1,1-2.2,1.6-3.3
		c2-3.9,5.4-4.5,9.3-1.9c1.1,4-1.1,7.4-2.7,10.6c-1,2.1-2.4,4.3-3.6,6.4l0,0C349.7,211.6,349.2,212.2,349.1,212.9z"/>
	<path class="st21" d="M267.3,226.1c4,0,6-2.7,7.3-5.8c3-7.3,6.3-14.6,5.4-22.8c-0.1-1.2-0.2-2.5,1.1-3.3c1.6,2.3,0.4,5,1.1,7.5
		c0.5,1.1,0.5,2.1,0,3.2c-0.8,5.4-1.8,10.8-3.5,16c0.4,0.2,0.6,0.5,0.5,1c-0.2,0.6-0.4,1.1-0.8,1.6c-0.5,0.6-1.2,1.1-1.7,1.7
		c-1.8,1.8-2.7,4.3-4.9,5.8c-3.3,2.2-4.3,1.8-4.7-2.2C267.1,227.8,267.2,226.9,267.3,226.1z"/>
	<path class="st8" d="M304.3,233.5c0.3-0.4,0.6-0.7,1.1-0.3C305,233.3,304.6,233.4,304.3,233.5z"/>
	<path class="st8" d="M278,221.6c0.2-0.3,0.4-0.6,0.7-0.8c0.6,0.1,1.2,0.2,1.9,0.2c-0.2,0.3-0.4,0.6-0.5,0.8
		C279.3,222.3,278.7,222.2,278,221.6z"/>
	<path class="st8" d="M370.4,218.7c0-0.9,0-1.7,0.9-2.2C371.4,217.5,371.2,218.2,370.4,218.7z"/>
	<path class="st8" d="M381.1,138.7c0.4-0.3,0.7-0.6,1.1-0.8C381.8,138.1,381.4,138.4,381.1,138.7z"/>
	<path class="st21" d="M347,157.7c-0.3,1.1-1,1.9-2.1,2.2c-9.1,3.1-17.7,7.7-26.9,10.3c-1.3,0.4-2.4,0.7-3.1-0.8
		c2.2-1.7,4.9-2.5,7.4-3.7c0.9-0.4,2.7-0.8,1.2-2.5l0,0c3.3-1.1,6.6-2.3,9.3-4.6c1.1-0.6,2-1.8,3.5-0.9c2-0.8,3.2-4.4,4.4-3.8
		C342.8,155,345.3,155.9,347,157.7z"/>
	<path class="st22" d="M337.3,250c2,0.9,4.1,0.3,6.2,0.7c0.8,0.3,1.6,0.4,2.4,0.6c1.8,0.9,3.9-0.3,5.7,0.8c-1.5,1.4-3.5,2.2-5.3,2.8
		c-7.2,2.5-14.2,5.9-22.1,6.5c-2,0.1-4,1.3-5.9,2.2c-5,2.3-10.4,3.4-15.8,3.9c-4,0.4-7.3,2.3-10.6,4.1c-0.3,0.1-4.9,0.4-7.1,0.7
		c-9.3,1.3-6.9,2.8-9.9-6.8c-0.6-2-2.8-4.8,0.6-6.7c-0.6-1.1,0.4-1.2,1-1.5c0.7-0.1,1.4,0,2.1,0.1c3.6,0.7,4.8,2.2,2.1,5.3
		c-0.2,0.9-0.8,1.9,0.7,2.4c1.2,0.8,2.5,0.6,3.8,0.4c4.9-1.3,9.9-2.6,14.9-3.7c1.4-0.1,2.7-0.7,4-1c-1.4,0.3-2.8,0.9-4.3,1
		c-5.4,0.9-10.6,3.1-16.1,3.4c-1.3-0.5-2.5-1.1-2.7-2.7c2.1-3.4,5.4-4.3,9-4.5c0.5,0,1.4,0,1.5-0.2c0.3-0.6,0.3,0.5-0.1-0.1
		c-0.1-0.1-0.2,0-0.5,0.1c-2.1,1.4-9.2,0.5-10.8-1.5c-0.2-0.2,0.1-0.6,0.3-0.9c8.9-5.3,18.4-3.9,27.9-2.5c0.5,0.1,1,0.3,1.4,0.8
		c-0.1-0.6-0.6-0.7-1.1-0.8c-10-2.2-20.6,0.3-30.3-3.9c-0.6-0.3-1.3-0.5-1.9-0.9c-0.5-0.4-0.7-0.9-0.6-1.5c0.7-0.8,1.5-0.7,2.4-0.4
		c8.8,0.9,17.6,1.7,26.3,1.2c5.5-0.3,10.9,0.8,16.2,1.5c5.3,0.7,10.5,1.2,15.8,0.7C336.5,249.9,336.9,250,337.3,250z"/>
	<path class="st21" d="M350.2,257c0.6-1.2,2.2-1.5,2.4-0.7c0.3,1.1-1.7,1-2.4,1.9C350.2,257.7,350.2,257.3,350.2,257z"/>
	<path class="st8" d="M255.9,276.3c0.6-0.1,1.2,0,1.6,0.5C257,276.7,256.4,276.5,255.9,276.3z"/>
	<path class="st8" d="M276.7,257.9c-0.5,0.3-1,0.6-1.5,0.9c-0.2-0.4-0.4-0.9-0.7-1.3c0.6-3.2,3.4-3.6,5.8-4.6
		c0.8-0.3,1.8-0.2,2.7,0.1c-0.9-0.7-2-0.5-3-0.6c-2.2-0.4-4.6-0.6-6.4-2.1c-1.4-1.3-2.6-2.8,0.5-3.6c0.5,0.1,1,0.3,1.5,0.6
		c3.2,0.2,6.2,1.2,9.2,2.2c6.5,2.1,13.3,0.3,19.8,2.1c2.3,0.7,4.8,0.8,7.2,1.3c0.6,0.1,1.6,0.1,1.4,1c-0.2,1.1-1.2,0.9-2.1,0.8
		c-3.8-0.6-7.6-1.2-11.4-1.8c-6.8-1-13.1,1.7-19.6,3.2C279.4,257.2,278.2,257.8,276.7,257.9z"/>
	<path class="st8" d="M337.3,250c-0.4-0.1-0.8-0.2-1.2-0.4C336.5,249.8,336.9,249.9,337.3,250z"/>
	<path class="st8" d="M264,198.4c0.5,0,1,0,1.4,0c0,0.8-0.7,0.7-1.2,1C264.1,199.1,264.1,198.8,264,198.4z"/>
	<path class="st23" d="M180.8,235c-7-0.3-12.4-6.1-11.6-11c0.6-3.9,6.3-10.3,10-10.4c0.8,0,1.9,0.4,2.3,1c0.8,1.1-0.8,1.1-1.2,1.7
		c-2.3,2.9-3.3,5.9-2.6,9.7c0.6,3.3,2.6,5,5.4,6.3c0.8,0.4,2.5-0.3,2.4,1.1c0,1-1.5,1.3-2.6,1.5C182.2,234.9,181.5,234.9,180.8,235z
		"/>
	<path class="st24" d="M175.3,205.4c-2-0.2-4-0.9-4.3-3.4c-0.3-2.5,1.5-3.8,3.6-4.3c0.8-0.2,1.8,0.2,2.6,0c2.8-0.6,4.1,1.4,4.4,3.4
		c0.2,1.9-1.2,3.6-3.4,3.9C177.3,205.1,176.5,205.2,175.3,205.4z"/>
	<path class="st8" d="M305,168.6c-1.4-0.1-1.7-1-1.6-2.2C303.9,167.2,304,168.2,305,168.6z"/>
	<path class="st8" d="M303.4,165.7c-0.1-0.8-0.1-1.7,0.5-2.4C304.2,164.2,304.4,165.1,303.4,165.7z"/>
	<path class="st8" d="M304.7,170.9c-0.2,0.7-0.5,1.3-0.7,2C303.1,171.8,303.4,171.1,304.7,170.9z"/>
	<path class="st8" d="M301.2,159c-0.4-0.6-0.8-1.2-0.7-2C301.2,157.5,301.3,158.3,301.2,159z"/>
	<path class="st8" d="M303.8,208c-0.2-0.3-0.1-0.6,0.2-0.9C304.3,207.5,304.2,207.7,303.8,208z"/>
	<path class="st9" d="M280,221.9c-0.7-0.1-1.3-0.1-2-0.2c-0.1,0.4-0.2,0.8-0.3,1.3c-0.8,0.5-1,1.3-1,2.1c0.7,0,1.4,0,2.2,0
		c0.4-0.2,0.8-0.6,0.6-1.1C279.7,223.2,279.9,222.6,280,221.9z"/>
	<path class="st9" d="M356.6,194.2c-1.8,4.4-2.7,9.2-5.7,13.1c-1.5,1.9-3.1,3.6-4.6,5.4c-0.1,0.2-0.3,0.3-0.4,0.4
		c-0.2,0.1-0.3,0.3-0.5,0.4c-1,0.7-1.9,1.5-2.8,2.4c-0.4,0.4-0.9,0.8-1.3,1.2c-0.1,0.1-0.9,1-1,1c2.6,0.5,4.9-0.8,6.5-2.7
		c1.8-2.2,4-3.8,5.9-6c1.5-1.8,2.7-3.8,3.5-6c0.4-1.1,0.5-2.2,0.9-3.3c0.4-1.1,1.1-2.1,1.5-3.3C359,195.2,358.6,194.1,356.6,194.2z"
		/>
	<path class="st15" d="M276.7,257.9c1-1.1,2.2-1.6,3.6-1.8c3.2,2.2,6.6,0.6,10,0.6c1,0,2-0.5,3.1-0.7c0.8-0.1,2.2-0.7,2.3,0.1
		c0.1,0.9-0.9,1.9-0.8,3.2c0.1,0.8-0.9,0.9-1.6,0.6c-4.7-2.3-8.3,0.9-12.2,2.5c-0.4,0.4-0.8,0.4-1.2,0
		C280.5,260.5,279.6,259.2,276.7,257.9z"/>
	<path class="st16" d="M283.1,265.3c4-1.2,8-2.3,12-3.5c1.7-0.5,3.4-0.9,5.1-0.2l0,0.4c-4.9,3.1-10.7,2.9-16.1,4.4
		c-0.3-0.2-0.6-0.4-0.9-0.6C283.2,265.6,283.2,265.4,283.1,265.3z"/>
	<path class="st15" d="M319.3,256.8c-3.4,1.1-6.9,2.3-10.3,3.3c-0.6,0.2-1.3-0.2-2-0.3c0.2-0.8,0.9-1,1.5-1.2c3.6-1.3,7-3,11-3
		c0.3,0.3,0.4,0.5,0.2,0.8C319.5,256.7,319.4,256.8,319.3,256.8z"/>
	<path class="st25" d="M283.1,265.3l0.1,0.4c-0.8,0.4-1.7,0.5-2.5-0.1c-0.3,0.1-0.7,0.2-1,0.3c-0.9,0.2-2,1.4-2.8,0.1
		c-0.9-1.6,0.9-1.4,1.6-1.9c0.6-0.4,1.2-0.7,1.2-1.6c0.4,0,0.8,0,1.2,0C281.2,263.7,283.7,263.4,283.1,265.3z"/>
	<path class="st9" d="M300.2,262l0-0.4c0.2,0,0.4,0,0.5-0.1c1.2-1.2,2.5-1.6,4.1-1.2c0.5,0.1,0.6,0.4,0.2,0.6
		c-1.2,0.7-2.4,1.1-3.8,1C300.9,261.9,300.5,262,300.2,262z"/>
	<path class="st9" d="M280.8,265.5c0.8,0,1.6,0.1,2.5,0.1c0.3,0.2,0.6,0.5,0.8,0.7C283,266.1,281,269.2,280.8,265.5z"/>
	<path class="st25" d="M319.9,255.4c0.1-0.1,0.3-0.2,0.4-0.3c1.3-0.5,2.5-0.3,3.7,0.3c-1.1,0.2-2.3,0.5-3.4,0.7
		C320,256.2,319.8,255.9,319.9,255.4z"/>
	<path class="st15" d="M298.8,255.1c0.3,0.2,0.6,0.3,0.9,0.5c-0.3,0.2-0.6,0.5-0.9,0.5c-0.2,0-0.5-0.3-0.8-0.4
		C298.3,255.4,298.5,255.2,298.8,255.1z"/>
	<path class="st25" d="M319.3,256.8c0-0.4,0.1-0.7,0.1-1.1c0.1-0.2,0.3-0.4,0.6-0.4c0.2,0.3,0.4,0.5,0.6,0.8
		C320.4,256.8,319.9,257,319.3,256.8z"/>
	<path class="st21" d="M283.7,251.7c-3.4-0.1-6.8-0.5-9.7-2.4c-1.9-1.2-0.7-1.8,0.6-2.2v0c0.4,0.1,0.7,0.1,1.1,0.2
		c0-0.3,0-0.6,0-0.9c-0.2,0-1-0.8-1.4-0.9c-2.2,0.3-3.7,0.9-2.9,3.7c0.6,2.2,0.8,4.5,1.1,6.7c0.2,1.3,0.9,1.8,2.1,1.6
		c2.4-2.9,6.1-2.9,9.1-4.5c0.4-0.2,1.1-0.2,1.1-0.8C284.9,252,284.1,251.7,283.7,251.7z"/>
	<g>
		<path class="st26" d="M375.1,149.5c-1.5,0-2.5-0.5-3-1.3c-0.8-1.4,0.1-3.1,0.5-3.8c1.9-3.3,5.1-5.1,9.6-5.1l0.1,0
			c3.8,0,5.8,2.5,7.4,4.6c0.3,0.4,0.6,0.8,0.9,1.2c0.9,1.2,0.7,2.1,0.5,2.6c-0.4,0.9-1.4,1.3-2.6,1.3c-0.3,0-0.6,0-1-0.1
			c-0.7-0.1-1.5-0.1-2.3-0.1c-1.9,0-3.9,0.2-5.8,0.5c-1.2,0.1-2.4,0.3-3.6,0.4C375.5,149.5,375.3,149.5,375.1,149.5z"/>
		<path d="M382.3,140.7c3.7,0,5.2,2.9,7.1,5.2c0.8,1,0,1.4-1,1.4c-0.2,0-0.5,0-0.7-0.1c-0.8-0.1-1.7-0.1-2.5-0.1
			c-3.2,0-6.3,0.6-9.5,0.8c-0.2,0-0.4,0-0.6,0c-2.3,0-2.1-1.3-1.2-2.9c1.8-3.1,4.6-4.3,8.3-4.4C382.2,140.7,382.2,140.7,382.3,140.7
			 M382.3,137.7l-0.2,0c-5,0.1-8.7,2.1-10.9,5.9c-0.4,0.8-1.7,3.1-0.5,5.3c0.6,1,1.8,2.1,4.3,2.1c0.2,0,0.5,0,0.8,0
			c1.2-0.1,2.4-0.2,3.6-0.4c2-0.2,3.8-0.4,5.6-0.4c0.7,0,1.4,0,2.1,0.1c0.4,0.1,0.8,0.1,1.2,0.1c1.9,0,3.3-0.8,4-2.2
			c0.3-0.6,0.8-2.3-0.6-4.1l0,0l0,0c-0.3-0.4-0.6-0.7-0.9-1.1C389.1,140.7,386.8,137.7,382.3,137.7L382.3,137.7z"/>
	</g>
	<path class="st27" d="M234.9,388.6c-2.4-3.9-1.5-8.3-1.9-12.5c0,0-0.1,0-0.1-0.1c0-2.6,0-5.2,0-7.8c0,0-0.1,0.1-0.1,0.1
		c0,0,0.1-0.1,0.1-0.1c0-3.9,0-7.8,0-11.7c0.1-0.1,0.1-0.1,0.2-0.2c1.6-6.6,0.9-13.2,1.1-19.8c0-2-0.8-3.1-2-4.2
		c-4.6-0.3-9.4,0.7-13.9-0.6c-5.8-1.7-11.5-3.1-17.4-4.1c-7-1.2-14.1-2.3-21.1-3.2c-10-1.3-20-3.2-30-4.5c-4.4-0.6-8.9-1.6-13.3-1.5
		c-8.2,0.2-16.2-1.7-24.4-1.2c-0.8,0.1-1.6-0.3-2.4-0.4c-6.3-0.7-12.4-2.9-18.6-3.2c-9.8-0.5-19.6-0.9-29.4-1.5
		c-6.3-0.4-12.6-0.6-18.8-1.6c-3.8-0.6-7.3-2.4-11.1-2.3c-5,0.1-9.8-0.6-14.6-1.8c-0.5,2.4,0.2,3.7,3.2,4c4.7,0,9.3-0.2,13.9,0.9
		c11.2,2.8,22.6,3.6,34,3.9c7.8,0.2,15.5,1.7,23.3,1.2c0.7-0.1,1.4,0,2,0.2c8.5,2.8,17.3,3.1,26,3.5c14.5,0.6,28.8,2.1,43,4.6
		c8.8,1.5,17.7,2.2,26.5,3.6c9.1,1.5,18.1,3.5,27.1,5.6c4.3,1,8.7,2.1,13.2,1.2c1.1-0.2,1.9-0.6,1.8,1c-0.2,5.6,1.3,11.2,0.8,16.8
		c0.1,0.6-0.3,0.9-0.5,1.4c0,0.6,0,1.2,0,1.8c-0.1,0-0.1,0-0.2,0c-0.4,4.6-0.2,9.3-0.1,14c0.1,2,0.1,4,0.1,6c0,0,0.1,0,0.1,0
		c-0.1,2.5-0.3,4.9-0.2,7.4c0,2.1,0.6,4.2,2,5.9c0.3,0.3,0.9,0.3,1.3,0.5C234.7,389.5,235.1,388.9,234.9,388.6z"/>
	<path class="st9" d="M266.8,177.5c-0.3-0.2-1.6-0.1-1.7,0.2c-0.1,0.1,0.1,0.3,0.1,0.4c0,0.7-0.2,1.5-0.4,2.3
		c-0.2,0.8-0.4,1.7-0.6,2.5c-0.4,1.8-0.3,3.5-0.1,5.3c0.2,1.7,0.1,3.5-0.6,5.1c-0.8,1.8-1.1,3.7,0.5,5.1c0.5,0.5,1,0.5,1.4,0
		c0.7-0.7,0.6-2.2,0.6-3.1c0-1.4,0-2.8,0-4.2c0-0.4,0-0.8,0-1.2c0-2.4,0-4.7,0.7-7.1c0.2-0.7,0.1-1.5,0.1-2.2c0-1,0-2-0.1-3
		C266.8,177.6,266.8,177.6,266.8,177.5z"/>
	<path class="st8" d="M309.2,66.6c-0.4-0.6-1.4-1-2.2-1.1c-2.9-0.3-5.8-0.3-8.6-0.3c-3.9,0-7.9,0-11.8,0c-1.9,0-3.8,0-5.6,0.3
		c-3.1,0.5-5.9,1.7-8.8,2.9c-2.5,1.1-5,2.1-7.5,3.2c-2.8,1.2-5.6,2.4-8.2,4c-2.1,1.3-4.1,2.9-5.9,4.6
		c-11.4,10.8-16.9,27.4-14.7,42.9c0.4,2.7,0.9,5.3,1.5,8c0.6,2.4,1.1,4.6,2.1,6.9c0.8,1.7,1.5,3.4,2.6,5c1,1.5,2.1,2.9,2.9,4.5
		c0.6,1.1,1.8,1.1,2.1-0.2c0.3-1.2-2.9-5.1-3.4-6.1c-1.3-2.7-2.4-5.5-3.3-8.3c-1.8-5.7-2.7-11.7-2.7-17.6c0-1.2,0-2.4,0.2-3.5
		c0.3-2.5,1-5,1.8-7.4c3.4-10.4,9-20.6,18.1-26.5c3.4-2.2,7.1-3.7,10.8-5.2c3.8-1.6,7.7-3.1,11.7-4c5.3-1.1,10.8-1,16.3-0.9
		c2.5,0.1,5,0.1,7.5,0.2c1.1,0,4.7,1,5.3-0.1C309.4,67.2,309.4,66.9,309.2,66.6z"/>
	<path class="st25" d="M379.4,212.2c0.5,0,0.9-0.1,1.4-0.1c1.4,0.4,2.7,0.9,3.4,2.3c-0.1,2.1-0.1,4.3-0.2,6.4c-2,0-2.9,1.2-2.9,3
		c-0.1,6.6-2.6,12.7-3.4,19.1c-0.7,5-2.2,9.8-1.1,15c0.3,1.6-0.4,2.4-2.1,1.6c-2.2-0.9-4.5-0.4-6.8-0.5c-4.2-0.1-4.4-0.1-3.6-4.3
		c1.7-9.3,5.4-28.7,5.3-28.7c0-1,0.1-2.1,0.1-3.1c0.6-0.9-0.1-1.8-0.1-2.7c0-0.7,0.1-1.4,0.3-2.2c0.3-1,0.5-2,0.9-2.9
		C372.6,211.6,376.6,213.7,379.4,212.2z"/>
	<path class="st9" d="M426.9,314.5c-3.8-4.9-7.6-9.8-13.1-13.2c-2.7-1.7-7.3-1.3-8.2-4.9c-0.8-3.3-0.2-7-0.2-10.6
		c0.1-6-0.1-12,0.5-18c0.5-4.9,0.2-5.6-4.6-6.6c-6.3-1.3-12.7-1-19-1c-2.2,0-2.8-0.6-3.1-2.9c-0.7-5.4,0.4-10.6,1.2-15.8
		c1.2-6.9,3-13.6,3.5-20.6c-2,0-2.9,1.2-2.9,3c-0.1,6.6-2.6,12.7-3.4,19.1c-0.7,5-2.2,9.8-1.1,15c0.3,1.6-0.4,2.4-2.1,1.6
		c-2.2-0.9-4.5-0.4-6.8-0.5c-4.2-0.1-4.4-0.1-3.6-4.3c1.2-6.5,2.4-12.9,3.6-19.4c0.6-3.3,1.2-6.7,1.8-10c0.5-3.1,0.7-6.5,1.9-9.4
		c0.2-0.4,0.4-0.9,0.7-1.2c0.7-0.6,1.8-0.5,2.8-0.5c1.6-0.1,3.3-0.8,4.4-2c-1.3-0.3-2.7-0.4-4-0.9c-0.9-0.3-1.7-0.8-2.2-1.5
		c-0.3-0.4-0.5-0.8-0.6-1.3c-0.2-1,0.1-2,0.4-3c1.2-4.8,0.7-10.1-0.1-14.9c-0.8-5-2.3-9.8-4.5-14.3c-1.8-3.8-4-7.3-6.7-10.5
		c-1.8-2.1-3.7-4-5.8-5.7c-2-1.6-4.1-3.1-6.4-4.3c-0.9-0.5-1.8-0.9-2.5-1.5c-0.7-0.6-1.2-1.5-2.1-1.9c-1.3-0.6-2.8-1.1-1.4-2.9
		c0.9-1.3,1.5-2.9,2.3-4.3c0.4-0.7,0.8-1.5,1.2-2.2c6-11.3,8.4-24.3,7.9-37c0-0.1,0-0.3,0-0.4c-0.3-6.5-2.3-12.8-6.4-17.8
		c-0.7-0.9-1.4-1.7-2.2-2.5c-2-2.2-4-4.3-6.3-6.1c-1.1-0.9-2.3-1.7-3.5-2.4c-3.6-2.4-7.3-4.8-11.3-6.3c-3.9-1.4-8.4-3.2-12.7-3
		c-0.6,1.2-0.3,1.8,1,2.2c3,0.9,6,1.8,8.9,2.9c1.6,0.6,3.3,0.7,4.9,1.5c1.8,0.8,3.4,1.9,5.1,2.9c1.4,0.9,2.8,1.8,4.2,2.7
		c0.4,0.3,8.2,7.2,8.8,7.7c0.5,0.5,1,1,1.4,1.6c5.9,8.5,6.4,18.8,5.3,28.7c-0.5,4.7-1.7,9.3-3.1,13.8c-0.7,2.2-1.4,4.4-2.3,6.5
		c-0.4,1-0.6,2-1,2.9c-0.6,1.1-1.2,2.2-1.8,3.3c-0.4,0.6-0.7,1.3-1.1,1.9c-2.2,3.9-4.7,7.6-8.2,10.4c-2.3,1.9-4.9,3.2-7.6,4.5
		c-0.9,0.4-6,2.3-5.3,3.7c0.5,1,3.2-0.4,4.2-0.8c2.7-1.1,5.5-2.2,7.7-4.4c1.1-0.3,2.1-0.8,2.8-1.7c0.6-0.7,4.4-3.5,5.3-3.6
		c1.3-0.1,4.7,3.6,9.1,5c1.2,0.4,2.4,1.5,3.4,2.2c2.4,1.8,4.1,3.5,5.8,5.9c1.3,1.9,2.7,4.1,3.9,6.1c2.7,4.6,5.1,9.3,6.5,14.5
		c0.7,2.6,1.2,5.3,1.4,8c0.3,2.7,0,5.5-0.2,8.2c-0.5,6.6-2,13.2-3.4,19.6c-1.1,5.5-2.4,11-3.6,16.5c-1.2,5.2-3.1,10.3-4.4,15.5
		c-1,3-2.2,1-3.4,1.1c-0.5,2.3,0.5,4.1,2.8,4.1c3.7-0.1,7.2,1.2,11,1.2c8.5,0,16.9,0.5,25.4,0.9c0.9,0,2.3-0.5,2.6,0.8
		c0.1,0.8-1.1,1.3-1.9,1.6c-7.1,2.7-13.5,6.6-20.7,9.2c-7.7,2.8-15,7.2-22.8,9.3c-9.3,2.5-17.6,7.1-26.5,10.2
		c-5.3,1.9-10.6,3.8-15.4,6.8c-7.6,4.8-16,8-24.4,11.1c-8.9,3.3-31.5,11.3-40.1,15.4c-2.7,1.3-5.4,2.3-6.4,5.6
		c1.3,1.3,2.4,1,3.7-0.1c5.7-5.1,26.4-11.1,33.5-14.3c9.5-2.3,17.9-7.2,26.8-11c5.2-2.2,9.7-5.9,15-7.8c13-4.6,25.3-10.8,38.3-15.2
		c13-4.4,25.7-9.7,37.9-16c1.9-1,3.7-2.1,5.9-2.3c1.1-0.1,2.1-0.3,1.9,1.5c-0.9,7.6-0.4,15.2-0.4,22.8c0,15.7-0.8,31.3-1.2,47
		c-0.3,9.7-0.6,46.4,0.8,56.1c0.3,2,0.9,4.3-0.9,6.1c1.4,0,2.8,0,4.3,0c-0.7-6.5-1.2-40-1.1-46.5c0-2.2-0.3-3.5,3-3.7
		c6.3-0.3,11.3-3.6,14.3-9.4c1-2,2.3-4,3.7-5.8c2.7-3.4,3.2-7.6,3.4-11.5C428.9,320.3,428.7,316.8,426.9,314.5z"/>
	<path class="st28" d="M404.5,316.8c0.1-4.2,0.3-8.4,0.8-12.6c0.3-2.5,1.2-2.9,3.5-2c4.6,1.7,8.4,4.6,11.2,8.4
		c3.6,4.8,1.5,11.7-4.2,14.5c-2.7,1.3-5.6,2.1-8.4,3.1c-2.2,0.8-3.1-0.1-3-2.4C404.6,322.9,404.5,319.9,404.5,316.8z"/>
	<path class="st29" d="M403.7,343.3c0.3-2,0.7-4.4,0.3-6.9c-0.4-2.2,0.6-4.5,3.5-5.1c1.9-0.4,3.7-1.1,5.5-1.9c3.9-1.8,8.1-3.2,9.6-8
		c0.3-0.8,0.8-3.2,2.8-2.3c1.3,0.6,1.8,2.2,1.2,3.7c-2.3,5.4-3.2,11.2-6.8,16.3c-3.3,4.6-7.3,6.8-12.4,7.9
		C404.4,347.6,403.6,346.8,403.7,343.3z"/>
	<path class="st9" d="M337.3,264.9c-3.3,1.6-6.7,3.5-10.3,3.6c-3.2,0.1-5.9,0.9-8.4,2.6c-4.2,3-9.1,4.5-14,5.8
		c-2.9,0.8-5.6,1.9-8.1,3.4c0.3,2.4,1.9,1.3,3.1,1c8.8-2.7,17.5-5.7,25.9-9.5c2.6-1.2,5.5-1.7,8.1-2.8c1.6-0.6,3.2-1.4,4.7-2.2
		c0.4-0.2,4.3-2.1,3.9-2.7C341.1,262,337.4,265,337.3,264.9z"/>
	<path d="M291,282.4c-3.7-0.3-6.7,1.8-9.9,3c-3,1-5.4,2.4-8.1-0.3c-0.9-0.9-2.5-0.7-3.6-0.4c-6.1,1.5-12.2,0.3-18.3,0.3
		c-0.3,0.1-0.6,0.2-0.9,0.3c-2.5,0.8-7.3-0.2-10-0.2c-4,0-8-0.2-12.1-0.4c-7.9-0.5-15.7-1.3-23.5-2c-10.2-1-20.4-1.9-30.6-1.9
		c-9.9,0-19.7,0.8-29.7,0.6c-0.6-0.2-1.3-0.2-1.9,0.1c-2.2,0.2-4.4-1.1-6.7-0.2c-0.5,0.2-1-0.4-1.5,0c-0.5-0.1-1-0.3-1.5-0.4
		c-1.6-0.5-4.5,0.4-4-2.7c0.4-2.5,2.3-3.6,5-2.9c3.6,0.9,7.6,0.4,11.2,0.9c7.1,1,14.3,0.3,21.4-0.3c13.6-1,27.2-1.4,40.9-1.3
		c6.8,0.1,13.6,0.2,20.5,0.5c3.3,0.1,6.6,0.4,9.9,0.5c2.5,0,6.5-1,8.8-0.3c0.7,0.2,1.4,0.3,2.1,0.3c0.8-0.2,1.2-0.7,0.9-1.5
		c-0.3-0.4-0.4-1-1.1-1c-13.7-0.2-27.4-0.9-41.1-1.2c-3.6-0.1-7.2-0.2-10.8-0.1c-11.3,0.1-22.6,1.2-33.8,1.8
		c-5.7,0.3-11.6,0.7-17.2,0.1c-5-0.5-9.8-1.9-14.9-1.3c-8.6,1.1-7.5,2.9-9.5-6.8c-0.2-0.3-0.3-0.7-0.3-1.1c0-0.7,0.1-1.5-0.5-2
		c-4.3-20-9.1-40-13.7-59.9c-2.4-10.5-4.8-21.1-7.3-31.6c-0.3-1.4-0.6-3,0-4.4c1-1.9,3.5-2.4,5.6-2.6c9.6-0.7,19.2-0.2,28.8-0.9
		c4.6-0.4,9.2-1,13.8-1.1c5.5-0.1,11,0.7,16.5,1.3c14.6,1.6,29.3,1.8,44,2c8.7,0.1,17.5,0.3,26.2,0.4c0,0,0,0,0-0.1
		c1.8-1,4.7-1.2,6.5-0.4c1.2,0.5,2.5,0.8,3.8,1c0.6,0.1,1.3,0.1,1.9,0.1c0.6,0,1.3-0.3,1.8,0c0.3,0.1,0.5,0.3,0.7,0.5
		c1,0.9,2.2,1.6,3.5,2c0.5,0.2,1,0.3,1.4,0.5c0.4,0.3,0.7,0.7,0.9,1.1c1.3,2.2,1.1,5,1.8,7.4c0.1,0.5,0.3,1,0.6,1.3
		c0.4,0.4,0.9,0.5,1.4,0.3c0.1,0,0.1-0.1,0.2-0.2c0-0.1,0-0.2,0-0.2c0-1,0-2-0.1-2.9c-0.1-1.5-0.2-3-0.6-4.4
		c-0.2-0.7-0.5-1.3-0.8-1.8c-0.6-1-1.5-1.9-2.5-2.6c-1.6-1.1-3.2-2.1-4.8-3.1c-0.4-0.2-0.8-0.4-1.2-0.5c-0.4-0.1-0.9-0.1-1.3-0.1
		c-2.2,0-4.5-0.4-6.6-1c-2-0.5-4-0.9-5.9,0.2c-0.1,0.1-0.2,0.1-0.3,0.2c0.4-0.6,1-1.2,1.5-1.7c0.8-0.8,1.9-3.2,2.2-3.4
		c-0.1-0.9-0.2-1.7-0.3-2.6c-1,0.5-3.1,2.1-3.3,2.2c-2.6,1.1-3.5,3.6-4.5,6.1c-21.6-2.6-43.5,0.1-65-2.5c-5.7-0.7-11.4-1.7-17.1-1.5
		c-3.7,0.1-7.3,0.8-11,1.2c-4.8,0.5-9.6,0.6-14.4,0.7c-8,0.1-16.1,0.2-24.1,0.4c-0.8,0-1.7,0.1-2.3,0.6c-0.9,0.8-0.7,2.2-0.5,3.4
		c1.7,8,3.5,16,5.5,24c2,8.3,3.9,16.6,5.7,24.9c0.4,2,0.9,4,1.3,5.9c0.4,2,0.9,4,1.3,6c1,4.4,2,8.7,2.9,13.1
		c0.9,4.1,1.8,8.2,2.8,12.4c1.6,7.2,3.4,14.3,4.9,21.6c0.3,1.4,0.9,3.1,2.5,2.9c2.6-0.4,3,1.1,3.4,2.9c0.4,1.8,1.4,3.2,2.7,4.4
		c0.2,0.3,0.5,0.6,0.9,0.7c9.4-1.4,19.3-0.3,28.7-0.5c7.6-0.2,15.2-0.4,22.9-0.2c14.3,0.4,28.5,2.4,42.8,3.5
		c14.1,1.1,28.2,0.9,42.3,0.6c3.1-0.1,5.8-0.2,8.5,1.1c1.1,0.5,1.9,1.2,3.3,0.6c3.8-1.7,7.8-3.2,11.7-4.7
		C291.1,284.2,291.9,283.7,291,282.4z"/>
</g>
</svg>
