<?xml version="1.0" encoding="utf-8"?>
<!-- Generator: Adobe Illustrator 21.1.0, SVG Export Plug-In . SVG Version: 6.00 Build 0)  -->
<svg version="1.1" id="Layer_1" xmlns="http://www.w3.org/2000/svg" xmlns:xlink="http://www.w3.org/1999/xlink" x="0px" y="0px"
	 viewBox="0 0 588 400" style="enable-background:new 0 0 588 400;" xml:space="preserve">
<style type="text/css">
	.st0{fill:#D8E7EB;}
	.st1{fill:#CFDFE4;}
	.st2{fill:#0D0D0D;}
	.st3{fill:#D1E2E6;}
	.st4{fill:#646364;}
	.st5{fill:#2A2929;}
	.st6{fill:#BAB6B7;}
	.st7{fill:#EBECEC;}
	.st8{fill:#757371;}
	.st9{fill:#FDFDFD;}
	.st10{fill:#E0E0E0;}
	.st11{fill:#FCFCFC;}
	.st12{fill:#858281;}
	.st13{fill:#D8D8D8;}
	.st14{fill:#8C7471;}
	.st15{fill:#D9D9D9;}
	.st16{fill:#121111;}
	.st17{fill:#E1E1E1;}
	.st18{fill:#D7D7D7;}
	.st19{fill:#78625F;}
	.st20{fill:#393839;}
	.st21{fill:#89716E;}
	.st22{fill:#72706F;}
	.st23{fill:#807C7B;}
	.st24{fill:#E7C8C2;}
	.st25{fill:#91C0DE;}
	.st26{fill:#F45B5B;}
	.st27{fill:#FDE562;}
</style>
<g id="_x37_IdM5D_1_">
	<g>
		<rect x="0.1" class="st0" width="588" height="400.1"/>
		<path class="st1" d="M588.1,86.1c-4.3-1.1-8.5-2.5-12.3-5.1c-3.3-2.2-7.2-3.4-10.8-5.1c-11.5-5.4-23.1-10.5-35.3-14.4
			c-7.3-2.4-14-6.9-21.5-9c-5.4-1.5-10.6-4-15.9-5.6c-12.6-3.8-24.8-9-38.2-10c-9.4-0.7-18.1-4.9-26.8-8.4c-7-2.8-14.4-3.6-21.6-5.4
			c-6.5-1.6-13.2-2.6-19.8-4.3c-6.4-1.7-13.2-3.4-19.9-3.7c-10.8-0.4-21.3-2.7-31.8-4.6c-2-0.4-4-0.5-5.9-0.5
			c-5.8,0.1-11.6,0.2-17.3-1.6c-1.2-0.4-2.2-0.2-3.4,0.2c-1.1,0.3-2.3,0.5-3.4,0.4C294.1,7.6,284,10,274,9
			c-5.4-0.6-10.7,0.6-16.2-0.8c-4.9-1.3-9.8,1.1-14.8,0.9c-7.8-0.3-15.5,0.9-23,2.8c-5.8,1.4-11.7,1.6-17.5,3
			c-6.6,1.6-13.3,2.4-19.8,4.2c-9.6,2.6-19.3,4.2-29.1,5.8c-6.4,1-12.3,3.8-18.6,4.5c-8.2,0.9-15.6,4-23.5,5.9
			c-6.9,1.6-14,2.3-20.8,4.5c-2.7,0.9-5.3,1.6-7.7,3.1c-3.9,2.5-8.3,4.1-12.4,6.1c-5.2,2.6-10.2,5.9-15.2,9.1
			c-1.8,1.2-3.7,2.2-5.8,2.9c-1.1,0.4-2.4,0.6-3.2,1.4c-6.3,6.4-14.9,8.3-22.4,12.3c-7.4,3.9-15.6,6.8-21,13.8
			c-0.7,0.9-1.7,1.6-3,1.5C0,60,0-0.1,0-0.1h588.1c0,0-0.1,11.1-0.1,17.6C588.1,40.4,588.1,63.3,588.1,86.1z"/>
	</g>
</g>
<g id="_x35_Ay7Xm_1_">
	<g>
		<path class="st2" d="M346.8,354.3c0.6,3.2,0.9,6.5,1.8,9.6c0.6,2.1,0.6,4.1,0.5,6.1c-0.2,3.5-0.7,7.1-4.6,8.5s-7.3,0.1-10.4-2.3
			c-0.9-0.7-1.8-1.7-2.5-2.6c-1.5-1.9-2.5-2.3-2.3,0.8c0.1,1.4-0.9,1.8-2,1.9c-3.1,0.2-6.2,0.6-9.2,0.3c-3.4-0.3-3.7-3.1-3.4-5.9
			c2.7-1.6,4.2,1.9,6.7,1.6c1.2-0.2,2.8,0.4,3.1-1.1c0.2-1.3-1.4-1.1-2.3-1.6c-2.4-1.1-5-0.5-7.4-1c-0.3-1.9,0.3-3.1,1.7-4.5
			c2.3-2.2,2-8.9-0.1-10.7c-0.3-0.3-1-0.4-1.4-0.3c-5.1,2-10.3,0.6-15.3,0.1c-3.9-0.4-7.5,0.5-11.2,1.1c-1.4,0.2-2.7,0.6-4.1,0.7
			c-3.9,0.4-3.9,0.4-3.1,4.4c0.2,0.9,0.2,1.8-0.6,2.4c-3.5,2.4-7.2,4.4-11.6,3.5c-2.9-0.6-4.8-2.6-4.8-5.9c-0.9-2.1-0.4-3.7,1.9-4.4
			c1,0.5,1.4,1.5,1.5,2.5c0.3,3.3,2.6,3.7,5.2,3.4c1.2-0.1,2.9-0.1,3-1.5c0.1-1.5-1.6-1.5-2.7-1.6c-2.5-0.4-5.2-0.6-6.8-3.1
			c1.7-3.3,3.7-6.6,0.1-10.1c-0.6-0.6-0.3-2-0.4-3.1c-0.2-12,0.3-24-0.4-36c-0.1-1.3,1.1-3.3-0.4-3.7c-1.6-0.4-2.3,1.7-3.1,3
			c-7,12.1-7.2,24.4-1.4,37c0.9,2.1,2,4.1,2.8,6.2c1.5,4,1.6,7.8-1.1,11.4c-5.6,5.1-11.4,4.8-16.8-0.3c-3.8-3.6-7.2-7.5-10.3-11.7
			c-7.3-9.6-8.2-20.7-7-32.3c0.1-1,0.6-2.1,0.5-3.1c-0.8-11.3,4.5-20.2,11.8-27.6c3.8-3.8,7.4-8.9,13.5-9.9c0.8,2-0.5,3.4-1.7,4.6
			c-2.9,2.7-5,6.4-8.1,8.8c-9,6.8-10.4,16.8-11.8,26.8c-0.9,6.5-0.3,12.9,1.2,19.1c2.4,9.9,9,17,16.5,23.4c1.3,1.1,2.9,2,4.8,1.2
			c3.9-3.1,4.6-5,2-10.3c-3.4-7.1-5.5-14.5-6.4-22.4c-1.4-12.4,6.9-28.9,17.9-34.8c1.7-0.9,3.5-1.7,5.4-1.7
			c10.6-0.3,21.2-0.4,31.7-2.3c3.9-0.7,8-0.3,11.9,0.5c3.2,0.7,5.7,0.7,4.4-3.8c-0.3-1.2,0.3-2.4,0.5-3.6c1.2-15.4,8.7-27.3,21.2-36
			c7.8-5.5,13.1-12.9,18.3-20.5c3.2-4.8,2.6-10.7,2.6-16.3c0-2.3-0.3-4.5,0.2-6.8c0.3-1.5,1.1-2.6,2.8-2.6c1.7,0,2.6,1.2,2.7,2.7
			c0.8,10.6,1.8,21.3-5.8,30.3c-6.4,7.6-12.7,14.8-20.9,20.9c-9.2,6.8-15.1,16.8-14.7,29.2c0.1,2.1,0.1,4.2,1.4,6
			c2.8,1.7,4.2-0.3,5.5-2.2c1.5-2.3,2.7-4.9,3.8-7.4c4.1-10,11.6-16.8,21-21.7c11.2-5.7,18-15.1,24.2-25.7
			c7.5-12.7,7.2-25.7,4.7-39.2c-0.5-2.9-1.6-5.7-3.2-8.2c-4.5-8-10.5-14.4-18.6-18.8c-2-1.1-3.7-2.5-5.6-3.8
			c-0.6-0.4-1.2-0.7-1.9-0.9c-7.1-2.7-7-2.6-10.2,4c-5.5,11.1-14.9,18-25.8,22.9c-2.2,1-4.4,2-6.4,3.4c-8.3,3.1-16.6,6.5-25.8,4.7
			c-1.7-0.3-3,0.4-4.2,1.6c-3.5,3.7-6.9,7.3-10.7,10.7c-2.1,1.8-1.9,3.6-0.9,6c6.7,17.6,6.9,35.2-0.7,52.7c-0.3,0.6-0.5,1.4-1,1.8
			c-5.7,5.5-12.6,7.9-20.4,8.1c-1-1.9,0.8-2.5,1.7-2.9c1.5-0.5,2.8-1.5,4.2-1.8c6.2-1.2,7.3-4.8,6.9-10.6
			c-0.7-8.1-0.2-16.3-0.2-24.5c0-0.9,0-1.7,0-2.6c-0.3-5.1-0.9-5.8-5.8-4.6c-8.8,2.2-17.4,1.5-26.2,0.2c-3.6-0.5-7.3-0.3-10.9,0
			c-13.1,1-26.3,1.3-39.4,1.8c-2.5,0.1-5.1,0.8-7.6,1.2c-2.6,0.4-2.6,2.5-2.4,4.4c0.5,6.9-0.2,13.7-0.4,20.5
			c-0.3,12.6,0.6,25.3-1.1,37.8c-0.3,2.1,1.3,4,0.7,6.1c-0.9,0.7-1.7,0.6-2.5-0.3c-2.2-4.6-2.6-9.5-2-14.3
			c1.7-15.3,0.5-30.6,0.9-45.9c0-2.1-0.1-4.2,0.1-6.3c0.4-4.9,1.9-6.7,6.7-7c23.1-1.3,46.1-4,69.3-1.4c8.2,0.9,16.2-2.7,24.4-1.9
			c0.5,0,1.3-0.1,1.3-0.5c0-1.2-1.2-1.2-1.9-1.2c-9.2-0.4-18.4-1.9-27.6-0.7c-3.8,0.5-7.6,0.7-11.5,0.7c-17.4-0.4-34.8,1-52.2,1.7
			c-2.6,0.1-5.2-0.1-7.8-0.3c-3.8-0.3-5.7,1.5-5.3,5.2c1.2,11.3,0.5,22.6-0.3,33.9c-0.8,11.3,0.6,22.6,0.9,33.9
			c0.5,17.9-3,35.7-2.1,53.7c0,0.7-0.1,1.4-0.1,2.1c-0.1,2.4,0.1,5.1,3.1,5.1c3.5,0,2.6-3,2.4-5.1c-1.3-13.6,1-27.1,0.8-40.7
			c0-1,0.4-2.1,0.9-3c0.7-0.9,1.6-1,2.5-0.3c0.8,12.1,0.2,24.2,0.2,36.4c0,3,0,5.9,0.3,8.9c0.8,7.4-3.2,11.6-10.1,9.1
			c-10.3-3.8-20.8-1.5-31.2-2c-4.5-0.2-8.9,0.1-13.4-0.7c-5.1-0.8-10.4-0.7-15.6-0.6c-6.4,0.1-12.9,0.2-19.3,0
			c-5.9-0.2-11.5,0.9-17.3,1.9c-1.7,0.3-11.8-1.1-15-0.2c-5.1,1.3-10.1-0.6-15.1,0.5c-3.5,0.7-3.5,0.2-3.3-3.6
			c0.5-14,0.5-28.1,1.3-42.1c0.9-14.9,0.2-29.8,1.5-44.7c0.7-8,1.5-16.1,0.6-24.3c-0.8-7.8,0.2-15.8,0.6-23.7
			c0.1-2.3,0.9-3.4,1.4-6.2c0-0.2,1-0.3,1.7-0.3c4,0,7,0.6,10.7-0.2c3.5-0.7,7.2,0,10.9-0.1c10.1-0.2,20.1-0.5,30.1,1.4
			c1,0.2,2,0.3,3,0.3c0.6,0,1.5,0,1.8-0.7c0.4-0.9-0.5-1.1-1-1.5c-3.3-3.1-3.4-6.3-0.3-9.7c1.8-2,1.9-2.3-0.7-2.8
			c-2.4-0.4-2.9-1.9-3-3.6c-0.1-7.5-3.8-14.4-3.8-22c0.1-8.6-3.8-16.4-4.7-24.8c-0.9-8.3-2.3-16.4-4-24.6
			c-1.1-5.1-1.3-10.3-2.1-15.4c-0.3-2,0.4-2.2,2.2-2.2c8.8,0,17.5,0.5,26.3-0.2c3.3-0.2,6.6-0.2,9.9,0.6c4.9,1.2,10.1,0.6,15,0
			c7.1-0.9,14.2-0.5,21.2-0.1c2.8,0.2,5.5,0.6,8.3,0.5c6.3-0.4,12.4,0.7,18.5,1.9c4.8,0.9,9.7,0.3,14.6,0.2c0.3-0.3,0.6-0.3,1-0.1
			c4.9,0.2,9.6,1.5,14.4,2.3c1.2,0.2,2.4,0.3,1.8,2.2c-1.1,3.3-0.2,6.5,0.6,9.7c2.3,9.2,2.4,18.8,4.6,28c1.8,7.4,2.7,14.9,4,22.4
			c0.7,3.8,1.1,3.9,4.5,1.8c6.3-4,11.9-9,19-11.6c1.1-0.4,1.8-0.5,1.1-2c-2.6-5.5-3.4-11.5-4.7-17.4c-1.4-6.4,0.9-12.7,2.1-18.9
			c3.5-18,15.9-27.4,32.1-33.1c4.9-1.7,9.7-3.5,14.7-4.7c7.2-1.7,14.5-1.6,21.8-1.4c0.8,0,1.7,0.3,2.5,0.5
			c6.1,1.8,11.9,4.3,17.9,6.4c4.2,1.5,6.7,5.9,9.5,9.4c6.2,7.7,10,16.5,12,26.2c0.2,1,0.5,2,0.8,3c0.4,0.9,1.2,1.1,2.1,1.1
			s1.1-0.6,1.3-1.3c0-0.2,0.1-0.3,0.1-0.5c0.9-2.4,0.6-5.7,3.3-6.8c4-1.7,8.5-2.5,12.6-1c2,0.7,5.2-1.2,6.1,2.3
			c-2.6,3-6.1,1.6-9.2,1.8c-2.6,0.2-6.8-0.9-7,2.4c-0.2,3.5,4.1,1.4,6.3,2.1c0.8,0.3,1.7,0.3,2.6,0.4c5.6,0.9,5.6,0.9,6.5-4.9
			c0.1-0.7,0.5-1.3,1.2-1.6c3,0.5,3.5,2.9,3.7,5.2c0.2,3.5,1.9,4.5,5.2,4.6c6.2,0.3,12.1,2.1,17.7,5.1c5.3,2.8,8.1,6.9,7.8,12.9
			c-0.4,9,0.2,18-2.1,26.8c-1.9,7-4.7,13.4-12.6,15.6c-0.5,0.1-1.4,0.4-1.4,0.5c0.1,2.1,0.3,4.1,0.3,6.2c0,1.9,0,4.2,3,4.5
			c1.4,0.1,1.6,1.7,1.7,2.9c0.9,8.1-0.8,16.2-0.3,24.3c0.7,11.9-1.6,23.7-0.1,35.6c0.2,1.7,0.7,2.8,1.9,4c4.6,4.6,5,11.7,0.5,16.7
			c-2.2,2.4-2.9,4.8-2.7,7.9c0.4,6.3-1,12.4-1.6,18.6c-0.8,8.2-0.6,16.3,0.8,24.4c0.6,3.5-0.2,4.8-3.7,5.1c-2.7,0.3-5.4,1.1-8.1,0
			c-0.8-0.3-2-0.6-2.4,0.2c-0.3,0.5,0.3,1.6,0.7,2.3c0.9,1.5,2,2.9,2.8,4.4c1.2,2.3,1.5,4.3-1.6,5.4c-1.6,0.6-3.1,1.6-4.7,2.1
			c-3.2,0.9-5.3-0.2-6.3-3.5c-0.4-1.3-0.6-2.3-2-2.6c-5.6-1-10.7-3.8-16.5-3.9c-3.6-0.1-7.2-0.9-10.8-1.3
			C346.4,352.1,346.8,353.4,346.8,354.3z"/>
		<path class="st3" d="M266.4,354.8c-2.2,0.7-2,2.6-2.2,4.3c-0.6,0-1.2,0-1.7,0c2.1-5.8,0-10.9-2.5-15.8
			c-6.8-13.1-6.3-26.2,0.4-39.1c0.8-1.5,1.9-2.9,2.9-4.3c0.8-1,2.6-2.4,2.9-1.7c0.6,1.4,2.9,2.4,1.6,4.5c-1.4,2.1-0.6,4.3-0.5,6.5
			c0.6,11.1,0.6,22.3,0.3,33.4c-0.1,2.7,0.1,4.4,3.4,4c1.6-0.2,1.8,0.2,0.5,1.5C269.6,350.1,268.6,352.9,266.4,354.8L266.4,354.8z"
			/>
		<path class="st4" d="M314.8,368.5c1.8-1.4,3.6-3.3,5.9-0.6c0.6,0.7,1.7,1,2.4,0.6c3.3-2.1,3.1,0.9,3.7,2.5c0.8,2,0,2.8-2.1,2.9
			c-3.6,0.2-5.1-0.1-9.9-3.2C314.3,369.9,314.5,369.2,314.8,368.5z"/>
		<path class="st5" d="M173.3,306.9c-0.6,0-1.2,0-1.7,0c-2.2-2.5-2.2-5,0.1-7.4c0.5,0,1.1,0,1.6,0
			C171.8,301.9,174.2,304.4,173.3,306.9z"/>
		<path class="st6" d="M346.8,354.3c-0.8-0.6-1.1-1.5-0.4-2.1c0.5-0.4,1.2,0.3,1.7,0.7C347.7,353.3,347.2,353.8,346.8,354.3z"/>
		<path class="st7" d="M194.4,112l-0.5,0.2l-0.5-0.1C193.6,111.6,194,111.5,194.4,112z"/>
		<path class="st8" d="M161,261.9c0,10.6-0.4,21.3,0.1,31.9c0.7,14.3-1.7,28.4-1.3,42.6c0.1,5.4-0.8,10.9-0.9,16.4
			c-0.1,2.5-0.7,3.3-3.3,3.4c-8.2,0.2-16.5,0.5-24.7,0.4c-8.7-0.1-17.5-2.1-26.1-1c-10.5,1.3-21.1-1.1-31.6,1.4
			c-3.6,0.9-7.6,0.2-11.4,0c-7.9-0.4-15.8-0.4-23.6,1c-1.4,0.3-2.3,0.5-2.2-2c0.4-12-0.1-24,0.5-36c0.7-14,0.3-28.1,1.2-42
			c0.5-8.1,1.5-16.4,1.4-24.3c-0.1-8.8,1.3-17.6-0.3-26.4c-0.6-3.3,1-6.1,1.7-9.1c0.3-1.2,1.3-0.9,2.1-1c3.8-0.5,10.7-0.9,13.6-0.6
			c4.4,0.5,8.5,0.7,11.9,0.4c6.5-0.2,12.9,0.2,19.3,1.3c4.9,0.8,9.6,0.8,14.5,0.1c6.5-1,13.2-0.6,19.8-0.2
			c5.6,0.3,11.1-0.1,16.6-0.2c6.8-0.1,13.5,1.3,20.2,1.8c1.8,0.1,2.3,0.8,2.3,2.6c-0.1,13.2,0,26.3,0,39.5
			C160.9,261.9,160.9,261.9,161,261.9z"/>
		<path class="st9" d="M329.2,288.1c-4.4-5-3.1-10.9-1.4-16.2c2.7-8.7,7.6-16.1,14.4-22.3c2.2-2,5.1-1.8,7.1-4
			c3.8-4.2,7.8-8.3,11.3-12.8c1.5-1.9,3-3.8,4.4-5.8c5.8-8.4,3.8-18,3.9-27.2c0-1-0.7-1.8-1.5-1.8c-1.4,0-1.2,1.2-1.4,2.3
			c-0.5,4.5,0.3,8.9,0.2,13.4c-0.2,7.8-4.3,13.2-8.6,18.7c-4.6,5.9-10.1,10.8-16.3,15.1c-7.9,5.4-11.9,13.9-15.7,22.1
			c-1.3,2.8-1.3,6.7-1.7,10.2c-2,2-4.5,1.8-6.9,1.6c-14.5-0.8-28.8,1-43.2,2.2c-7.8,0.7-12.5,5.9-17.2,11.6
			c-10,12.3-10.4,26.4-8.7,41.1c0.9,7.1,2.6,14,6.3,20.3c0.6,1,1.2,2.2,0.8,3.5c-3.5,0.6-6-1.2-8.3-3.4c-4.4-4-7.6-9-11.1-13.7
			c-2.1-2.9-3.3-6.4-4-10c-1.3-7.4-1.8-14.8-0.3-22.1c0.8-4,1.7-8,2.8-11.9c0.9-3.5,2.7-6,5.4-8.5c5.4-4.8,9.9-10.5,14.6-16
			l-0.1,0.2c5.1-1.5,9.8-4.1,14.9-5.5c2.2-0.6,3.8-2.2,5-4.8c6.1-14,6.5-28.2,3.6-43c-0.8-4-2.2-7.5-3.8-10.9
			c-1.3-2.7-0.9-3.4,1.1-4.9c4.4-3.4,8.5-7.1,11.9-11.6c1.6-2.1,3.1-4,6.3-1.9c2.4,1.5,5.1,0.9,7.9,0.2c5.7-1.3,11.3-2.6,16.8-4.6
			c16-5.5,30.6-13.1,41.3-26.8c1-1.3,2-3,4.1-2.4c5.2,4.1,11.8,6.5,16.2,11.8c2.9,3.6,6.5,6.7,8.1,11.2c0.2,7,2.4,13.6,2.3,20.7
			c-0.2,14.5-6.1,26.6-14.5,37.8c-5.8,7.8-13.1,13.9-21.6,18.7c-7.7,4.4-12.7,11.2-16.1,19.2c-1.2,2.7-2.3,5.5-4.1,7.8
			C332.1,286.7,331.5,288.6,329.2,288.1z"/>
		<path class="st9" d="M296.3,180.2c1.9-5,3.6-10,1.8-15.6c-1.2-3.7-1.9-7.4-6.1-8.7c-3.7-1.1-9.4,1.6-11.9,5.6
			c-2.9,4.7-5.7,9.4-9.6,13.4c-2,1.5-3.6,0-5.3-0.6c-11.2-4.2-16.5-13.7-21.5-23.4c-0.7-1.4-1.2-2.9-1.9-4.2
			c-1.1-7.8,1.4-15.1,3.6-22.3c4.3-13.8,15-21.5,27.9-26.3c9.3-3.4,18.9-6.5,29-6.6c5.9,0,11.8-0.1,16.9,3.5c1.4,1,3.2,1.4,4.8,1.9
			c9.1,2.6,14.2,9.3,18.1,17.3c2.1,7,1.4,14.1,1.2,21.2c-0.2,5.4-1,10.7-1,16.1c0,3.9-1.9,7-4.3,9.8c-8.9,10.7-20.2,17.3-33.9,19.9
			C301.5,181.9,298.6,182.6,296.3,180.2z"/>
		<path class="st10" d="M159.4,206c4.4,0.4,8.8,1.5,13.2-0.4c2-0.8,4.5-0.3,6.7-0.3c4.2,0,8.3,0.3,12.4-0.8c2.5-0.7,5.2-0.2,7.7,0.5
			c2.9,0.7,5.9,0.4,8.8,0.1c0.9-0.1,1.7-0.5,1.6-1.6c-0.1-0.8-0.9-1-1.6-1.1c-0.2,0-0.4-0.1-0.5-0.1c-6,0.9-12-1.5-18,0
			c-5.3,1.4-10.8-0.5-16,0.9c-8.2,2.2-16.2-2-24.1-0.4c-8.8,1.8-17.6,1.4-26.4,1.2c-6-0.1-12,0.6-18-0.4c-4.1-0.7-6.6-3.6-10-5
			c-0.6-0.3-1.1-1.4-1.2-2.2c-0.9-11.5-4.1-22.6-5.7-33.9c-1.7-12.4-4.2-24.7-6.6-37c-0.7-3.4-0.4-6.9-1.2-10.3
			c-0.5-1.9,0.9-2.9,3.2-2.9c5.7,0.1,11.5,0.1,17.2-0.2c10.2-0.5,20.4,1.3,30.6,0.1c10.4-1.3,20.7,0.7,31.1,0.3
			c3.4-0.1,6.9,0.6,10.3,1.4c6.8,1.5,13.6,1.8,20.5,1.1c3.5-0.3,7.2,0.6,10.7,1c1.5,0.2,2.3,0.9,2.7,2.6c2.1,9.1,3.9,18.2,5,27.5
			c1.1,9.4,1.3,19,3.1,28.4c0.7,3.5-0.5,7.2,0.9,10.8c0.3,0.8-0.6,2.3-1.3,3.2c-1.1,1.3-1.9,2.9-2.7,4.4c-4.2-4.8-3.8-11.1-4.4-16.8
			c-1.4-12.6-3.3-25.1-4.9-37.6c-0.5-3.7-1.6-7.5-0.7-11.3c0.5-2.1-0.4-3.4-2.5-3.7c-1.7-0.2-3.3-1-5.1-1c-24-0.4-48-2-72-0.9
			c-9,0.4-18,1.1-27.1,0.6c-3.1-0.2-3.1,1.8-2.7,3.7c2.2,10.2,2.9,20.6,5.1,30.8c2.1,9.7,2.8,19.6,4,29.3c0.1,1,0,2.1,0.5,3.1
			c1.3,2.5,1.7,5.5,3.5,7.5c2.1,2.3,4.9,0.1,7.4,0.1c5.1-0.1,10,1.8,15,1.2c11.1-1.4,22.2-1.1,33.3-0.9c9.4,0.2,18.7,1.8,28.1,0.9
			c6.6-0.6,13.5-0.5,19.8-3.2c0.3-0.5,0.7-1,1.1-1.4c0.5-0.4,1-0.5,1.6-0.4c-0.2,5.6-1.1,11.3,1,16.9c0.5,1.4-0.6,1.8-1.8,1.7
			c-7.7-0.8-15.4-0.3-23.1-1.9c-4.1-0.9-8.8,0.3-13.2,0.4c-5.9,0.2-11.7-0.3-17.2-2.4C157.8,206.1,158.5,205.9,159.4,206z"/>
		<path class="st8" d="M321.1,318.5c-0.9,4.4-1.2,8.9-1.3,13.4c-0.1,2.6-1.6,4.7-4.3,5.9c-6.2,2.9-12.6,4.8-19.3,5.5
			c-3.5,0.4-6.8,1.3-10.2,1.7c-2.6,0.3-5.1,1.2-7.3-1c-1.1-1.1-2.2-0.1-3.3,0.2c-3.5,0.8-6-0.9-5.5-3.9c1.6-11.3-0.7-22.5-0.1-33.7
			c0.2-3.6,0.1-3.6,3.7-2.7c5.2,1.3,10.6,1.2,15.9,1.9c7.9,1.1,15.8-0.2,23.8,0c2.8,0.1,4.3,0.5,3.8,3.7c-0.3,1.8-0.1,3.3,2.4,3.8
			C322.3,313.9,320.1,316.8,321.1,318.5z"/>
		<path class="st11" d="M339.6,374.5c-3.9-0.4-6.2-3.1-7.9-6.1c-4-7.1-6-14.8-5.9-22.8c0.1-7.7-1.3-15.5,0.4-23.2
			c0.8-3.4-0.2-7.2,2.9-10c-2.2-3.4,3-5.7,1.4-9.2c-0.3-0.6,0.5-2,1.1-2.8c4.5-5.3,6.2-12.2,10.3-17.6c4.3-8.9,12-14.1,20.4-18.8
			c6.3-3.5,11.2-8.8,16.6-13.4c1.2-1,2.1-2.4,3.5-3.1c1.9-1,3-0.3,3.3,1.7s-0.6,3.7-1.5,5.5c-8.4,16.6-17.6,32.7-29.9,46.9
			c-5.5,6.4-9.1,14.4-13.7,21.6c-0.7,1.2-1.3,2.6-1.2,4c0.1,12-1.4,24,1,35.9C341.2,366.9,342.5,370.9,339.6,374.5z"/>
		<path class="st12" d="M171.6,299.5c0,2.5-0.1,4.9-0.1,7.4c-0.9,4.7,0.1,9.4-0.1,14c-0.4,8.1-0.9,16.2-0.9,24.3
			c0,3.2,0.8,6.2,0.9,9.3c0,1.8-0.2,3.3-2.1,3.5c-1.7,0.2-3,2-5.3-0.6c-2.1-2.3-2.6-3.9-2.3-6.8c0.5-4.1,0.4-8.3,0.3-12.5
			c-0.4-11.5,1.8-22.8,2-34.2c0.2-12.5-0.9-25-1-37.6c-0.1-8.9,1.5-17.7,1-26.6c-0.3-4.9-0.7-9.7-0.7-14.6c0-4.4,1-5.5,5.2-5.2
			c14.7,1,29.3-0.9,44-1c11.6-0.1,23.3-0.2,34.9-0.9c5.3-0.3,10.7-0.6,16.1,0.7c2.3,0.5,4.9,0.3,7.2-0.2c2.2-0.5,3-0.2,3.5,2.1
			c0.9,3.8,1.1,3.6-3,3.5c-3.8-0.1-7.6-0.4-11.4,0.8c-6.4,2-13.1,1.6-19.5,0.7c-10.2-1.3-20.4-0.5-30.6-0.2c-11,0.4-22,1.2-33,1.8
			c-5,0.3-5.1,0.3-5.2,5.5c-0.1,14.3-0.2,28.5-0.1,42.8c0,3.2-0.9,6.2-0.9,9.3C170.3,289.9,171.1,294.6,171.6,299.5z"/>
		<path class="st13" d="M339.6,374.5c0.4-4.2,0.6-8.4-0.9-12.4c-1.3-3.5-1-7.2-1-10.8c0-6.6,0.2-13.2-0.1-19.8
			c-0.3-5.6,1.7-10.1,5-14.4c1.1-1.4,2.3-2.7,3-4.2c3.2-7.2,8.4-13.1,13.1-19.2c5.9-7.6,11.6-15.5,16.4-23.9
			c0.3-0.5,0.5-0.9,0.7-1.4c1.3-4.5,3.3-8.7,6.2-12.4c1.1-1.3,1.6-3.1,2.3-4.6c0.5-1.1,1.1-2.6-0.1-3.2c-0.9-0.5-1.7,1-2.4,1.7
			c-7.2,7.8-15.5,14.1-24.8,19.3c-4.7,2.6-8.9,5.9-11.8,10.7c-0.7,1.2-1.2,3.1-3.2,3c2.1-6.2,4.3-12,10-16.3c4.3-3.2,8.6-6.1,13-9.1
			c9.8-6.6,18.3-14.5,23.2-25.8c2.1-4.9,3.8-9.9,5.8-14.8c0.2-0.6,0.1-1.4,0.8-1.8c0.3,0.6,0.9,1.2,0.9,1.8
			c0.6,8.3,1.2,16.6-0.2,24.9c-0.4,2.3,0,4.5-0.5,6.7c-0.8,4.1-2,8.1-4.2,11.6c-0.9,1.5-1.7,3-2.2,4.7
			c-3.6,12.6-11.5,22.3-21.5,30.4c-4.9,3.9-9,8.6-11.8,14.3c-0.3,0.6-0.5,1.4-1,1.8c-5.3,4.7-6.5,11.6-9.5,17.5
			c-0.2,0.2-0.3,0.4-0.3,0.6c0.1,0.2,0.1,0.3,0.2,0.3c-1.3,2.7,0.9,6.5-2.5,8.6c3.1,2.4,0.8,5.6,0.7,8.2c-0.2,7.1,3,13.6,3.1,20.6
			c0,2.1,0.2,4.1-0.6,6.1C344.3,376.7,343,376.9,339.6,374.5z"/>
		<path class="st11" d="M238.9,193.9c0.9,2.3,2.7,1.9,4.3,1.3c11.6-4.1,22.8-8.7,30.2-19.5c2.6-3.8,5.3-7.5,7.9-11.3
			c1-1.5,2.4-3.1,4-3.9c4.6-2.5,6.2-3.2,9,2.1c-1.4,1.9-1.9,4.1-2,6.4c-1.1,16.8-11.6,26.1-25.8,32.2c-14.2,6-29.2,5.5-44.2,4.7
			c-2.7-0.2-5.6-0.3-7.8-2.4c-1-10.7,3.8-18.3,12.6-23.6c4.5-2.8,8.4-6.6,13.4-8.6c0.5-0.2,0.9-0.6,1.3-0.8c4.5-1.8,4.8-1.8,7.6,2.4
			c1.7,2.5,3.9,4.3,5.9,6.5c-2.3,4.5-7.3,5.6-10.9,8.3C242.1,189.3,239.5,190.7,238.9,193.9z"/>
		<path class="st8" d="M390,316.4c0.2,6.7-0.8,12.5-1.6,18.4c-0.2,1.7-0.4,3.5-0.4,5.2c-0.1,6.1,0,6.2-6,6.5
			c-2.2,0.1-4.4-0.1-6.6-0.7c-8.8-2.5-17.6-5.1-26.6-6.5c-1.7-0.3-2.3-0.9-2-2.8c1.3-7.6,3.4-14.7,7.9-21.1c0.2-0.3,0.5-0.5,0.6-0.8
			c2.3-7.2,8.6-7.2,14.3-7.5c5.1-0.3,9.9-1.1,14.7-2.7c4.1-1.4,4.2-1.1,5.3,2.9C390.4,310.5,389.8,313.9,390,316.4z"/>
		<path class="st14" d="M392.1,183.4c-3.6-6.3-6.6-13.2-12.8-17.5c-7.5-5.2-14.4-11.4-23.8-13.2c-2.2-0.4-3.9-1.5-2.7-4.3
			c0.3-0.6,0.3-1.4,0.5-2c0.7-2.4-1.2-6,1.1-7.2c1.9-1.1,5.1,0,7.7,0.2c9.8,0.7,19.8,1,29.5,2.5c4.9,0.8,10.4,1.8,14.3,5.8
			c1.4,9.4,0.2,18.6-2.5,27.6C401.3,181.8,397.3,184.2,392.1,183.4z"/>
		<path class="st15" d="M255,359.9c-5.2-6-7.1-13.3-8.3-20.8c-1.4-8.6-1.7-17.2-0.1-25.8c0.5-3-0.1-6.1,2-8.9
			c5.9-7.7,9.5-17.5,19.6-21.4c1.4-0.6,2.8-1.2,4.4-1.3c17.1-1.3,34.2-2.7,51.3-2.1c0.4,2.1-0.9,4.3,0.2,6.2
			c2.6,4.1-0.5,3.1-2.6,3.3c-2.7,0.3-5-1.1-7.7-1.1c-5.7,0-11.4-0.5-16.9,1.8c-1.1,0.4-2.4,0.3-3.6,0.3c-6.3,0-12.7-0.2-19,0.1
			c-4.7,0.2-8.5,3.3-11.4,6.5c-7.5,8.1-11.2,17.7-10.5,29.2c0.5,8.4,3.4,15.7,7,23C262.3,354.5,260.5,358.5,255,359.9z"/>
		<path class="st16" d="M211.1,194c0.2,1.3,0.9,2.7-1.5,3c-11.8,1.3-23.6,3.5-35.5,2.1c-11.6-1.4-23.2-0.5-34.7-1
			c-3.8-0.2-7.5,1-11.4,1.2c-4.9,0.2-9.6-1.6-14.5-1.2c-1.9,0.2-3.7-0.2-5.6,0.7c-2,1-3.3,0.2-4.4-2c-3.5-7.6-4-15.6-4.7-23.7
			c-0.7-8.8-3-17.4-4.3-26.1c-1.2-7.7-2.6-15.3-3.8-23c-0.6-3.8,0.3-4.4,4.1-4c7.3,0.8,14.6,1,21.8,0.2c8.9-1,17.7-0.4,26.5-0.3
			c3.5,0.1,6.9,0,10.3-0.3c10.8-0.8,21.5,1.5,32.2,1.3c4.3-0.1,8.7-0.2,13,0.4c4,0.5,4.9,1.2,4.6,5.1c-0.5,8.4,1.5,16.5,2.5,24.7
			c0.9,7.2,2.3,14.4,2.8,21.6c0.4,6.8,2.3,13.2,3.2,19.9l0.1-0.1c-0.4-0.2-0.7-0.1-1,0.3c-3.2,1.2-3.4-1.5-3.9-3.3
			c-1.2-4.7-2.7-9.5-2.8-14.3c-0.2-12.6-3.1-24.9-4.8-37.2c-0.2-1.6-0.5-3.1-0.6-4.7c-0.6-7.7-0.6-7.8-8.6-7.7
			c-5.7,0-11.5-0.1-17.2-0.9c-7.9-1.1-15.9-1.6-23.9-0.3c-2.6,0.4-5.3,0.5-7.8,0.1c-13.4-2.2-26.7,0.4-40.1,0.1
			c-5.6-0.1-6,0.8-5.2,6.1c2.4,16.9,6.2,33.5,7.7,50.5c0.2,1.9,0.5,3.8,1.1,5.6c1.5,4.5,3.8,6.4,9.1,7c16.2,1.8,32.3-0.7,48.4-0.1
			c0.7,0,1.4-0.2,2.1,0c13.6,2.9,27,0.5,40.5-0.9C207.2,192.6,209.3,192.9,211.1,194z"/>
		<path class="st13" d="M296.3,180.2c8.4,0.6,15.9-2.3,23.3-6c8-3.9,14.2-9.7,19.3-16.8c1-1.4,1.9-2.9,1.8-4.8
			c-0.2-10.9,1.6-21.8,1.2-32.8c-0.1-1.8-2.5-3.9,0.2-5.6c3.5,3.3,4,7.8,5.5,12c2.9,8.6,3.9,17.3,1.5,26c-1.6,5.9-3.9,11.6-8.4,16.3
			c-11.7,12.2-26.3,18.4-42.7,21c-1.2,0.2-2.4,0.2-3.6-0.3c-1.4-0.7-2.9-1.1-1.5-3.2C294.3,184.2,295.2,182.2,296.3,180.2z"/>
		<path class="st17" d="M178.7,218.2c-9.5-2.2-19.4-0.2-29-2.3c-1.5-0.3-3.1-0.1-4.7-0.1c-14,0-28.1,0-42.1,0
			c-1.2,0-3.4,0.2-3.3-0.5c0.6-3.2-3.6-3.3-3.4-6c0.2-2.3,1.3-3.3,3.7-3.1c12.3,0.6,24.5,1.4,36.8,1.5c8,0.1,16.1,1,24.1,3.1
			c7.5,2,15.3,1.7,23,1.2c4.9-0.4,9.7-0.3,13.6,3.3c0.4,0.3,0.9,0.6,0.7,1.3c-0.2,0.6-0.8,0.5-1.2,0.4
			C190.8,216.5,184.8,218.5,178.7,218.2z"/>
		<path class="st18" d="M214.4,203.3c10.7,1.5,21.5,1,32.2,1.1c2.5,0,4.9-0.1,7.1-1.2c4.7-2.2,9.8-3.1,14.7-4.7
			c7.8-2.5,11.8-8.8,16.9-14c4.2-4.4,5.4-9.8,5.3-15.8c-0.1-2.8-0.3-5.8,3.7-6.3c4.1,11.4-1.1,20.2-8.2,28.2
			c-4.1,4.6-9,8.6-13.5,12.8c-0.5,0.5-1.1,0.8-1.8,1c-6.8,2.3-13.1,6.4-20.3,7.6c-8.7,1.4-17.5,2-26.3,1.4
			C219.9,213.3,214.9,209.7,214.4,203.3z"/>
		<path class="st18" d="M329.2,288.1c2.5-2.8,4.4-6,6-9.5c2.5-5.5,4.8-11.4,9.4-15.5c3.6-3.1,7.4-6.1,11.6-8.4
			c5.8-3.3,10.5-7.7,14.9-12.7c4.3-4.9,7.6-10.2,10.7-15.8c6.7-12.2,7.6-24.9,4.7-38.2c-0.5-2.3-1.8-4.7,0.7-6.6
			c2.5,3.5,3.9,7.2,3.9,11.8c0,5.7,1.7,11.2,2.1,16.9c0.1,1.6,0,3.1-0.5,4.4c-2.5,6-4.8,12.2-7.8,17.9
			c-5.5,10.7-13.4,19.2-24.4,24.6c-7.1,3.5-13,8.5-17.1,15.3c-2.6,4.4-4.5,9.3-6.9,13.9C334.7,289.7,333.8,289.9,329.2,288.1z"/>
		<path class="st19" d="M392.1,183.4c8.3-1.7,10-6.9,11.5-16.8c0.8-5,1.2-10,1-15c-0.1-1.5,0.6-2.7,1.2-3.9c3.9,2.5,5.3,6,5.1,10.6
			c-0.3,8.1-0.5,16.2-2.2,24.2c-0.9,3.9-3.1,7.3-5.2,10.6c-1.2,1.9-3.1,2.9-5.3,2.8c-2.6-0.1-2.5-2.4-3.1-4.2
			C394,189,393,186.2,392.1,183.4z"/>
		<path class="st20" d="M323,329.8c0.9,10,0,20.1,2,30c0.2,1.1-0.1,2-0.6,3c-0.6,1.1-0.9,2.5-2.4,2.3c-1.8-0.2-2-1.7-2-3.2
			c0-4,0-8,0-12c0-1.3,0.4-3.2-1.3-3.6c-1.6-0.5-1.3,1.8-2.1,2.3c-2.6,1.8-5.5,2.4-8.7,2c-5.9-0.8-11.9-1.7-17.7,0.8
			c-1.4,0.6-3.1,0.4-4.6,0.4c-3.5,0-6.9,0-10.3,0.9c-0.9,0.3-2.3,0.4-2.9-0.6c-0.6-1.2,0.3-2.4,1.3-3.1c1.2-1,2.7-1.6,4.3-1.4
			c8.2,0.8,16-2,23.9-3c5.2-0.7,10.2-3.1,15.2-4.7c4.4-1.4,5.4-5.7,5.1-10.1C322.4,329.3,322.7,329.3,323,329.8z"/>
		<path class="st19" d="M329.4,299.7c-0.5,3-2.1,4.2-5.3,4.1c-8.1-0.2-16.3,0.1-24.5-0.1c-7.4-0.2-14.9-0.4-22.2-1.8
			c-1.9-0.4-3.6-1.3-5.3-2c-2.2-0.8-2.8-2.4-2.2-4.6c8.5-1.6,17,0.4,25.5,0.5c10.1,0.2,20.2,0.7,30.2,1.6
			C327.1,297.6,329.3,296.9,329.4,299.7z"/>
		<path class="st21" d="M368.9,297.4c2.3-2.5,4.4-5.1,7.7-6.7c2.5-1.2,5-0.8,7.4-1.5c1.8-0.5,3.7-0.9,5.1-2.2c0.3-0.3,0.5-1,0.4-1.3
			c-0.2-0.6-0.8-0.5-1.3-0.3s-0.8,0.7-1.3,0.9c-1.8,0.9-4.3,1.3-5.4,0.2c-1.2-1.3,1-2.9,1.8-4.3c1.9-3.3,4.4-6.2,5.5-10
			c0.1-0.5,0.4-0.9,0.6-1.3c0.3,0.4,0.8,0.8,0.9,1.3c0.2,2.9,2.4,2.8,4.3,3.1c4.5,0.8,7.3,3.5,9.3,7.4c-1.9,4.7-6.1,7-10,9.4
			c-6.3,3.9-13.5,5.3-20.7,6.5C371.7,298.9,370.1,298.8,368.9,297.4z"/>
		<path class="st12" d="M390.7,335.2c1.5-10,1.8-20,1.4-30c-0.1-2.5,4.2-6.3,6.5-6c1.2,0.1,0.6,1,0.7,1.5c0.5,5.2-0.6,10.4-1.2,15.5
			c-1,9-1.1,18,0.1,26.9c0.3,2.2,0.7,4.2-2.6,4.4c-3.6,0.3-4,0-4.6-3.6C390.5,341.1,390.5,338.1,390.7,335.2z"/>
		<path class="st18" d="M362.9,158.3c-2,0.5-2.4,2.4-3.3,3.8c-6.7,10.1-17.3,15-27.2,20.8c-4.6,2.6-9.2,5.6-15,4.6
			c1.4-1.7,3.4-2.1,5.3-3c10.2-4.6,19.3-10.5,24.9-20.7c0.2-0.5,0.5-0.9,0.7-1.4c0.9-2,2.4-4.2,2.6-6.1c0.7-5,2.9-0.6,4-0.7
			c2.1-0.2,4.2,1,6.4,1.6C362,157.4,362.6,157.5,362.9,158.3z"/>
		<path class="st19" d="M368.9,297.4c12.2-1.1,23.7-3.7,32.5-13c0.7-0.7,1.4-1.5,2.5-1.7c1.4,2.8-0.1,5.4-0.8,8
			c-0.1,0.5-0.8,1.5-1.5,1c-3.7-3-3.4-0.4-3.1,2.2c0.1,1.4-0.6,2.1-1.8,2.8c-8.4,5-17.5,7.2-27.2,6.9c-0.7,0-1.3-0.5-1.9-0.6
			c-2.6-0.6-3.2-1.8-1.2-3.9C367.2,298.2,367.7,297.4,368.9,297.4z"/>
		<path class="st20" d="M346.1,344.4c-0.4-2,0.3-2.7,2.8-2.1c7.3,1.8,14.9,2.6,22.1,5.1c3.3,1.1,6.6,2,10,2.9
			c1.6,0.4,2.7,1.1,3.2,2.9c0.7,2.8-0.2,4.1-3,3.4c-3.5-0.9-7.1-1.2-10.5-2.7c-5.6-2.6-11.8-2.2-17.8-3.2
			C347.8,349.9,346,348.5,346.1,344.4z"/>
		<path class="st22" d="M268.7,244.1c0-4.7,0-9.4,0-14.1c0-1.4-0.1-3.3,2-2.7c1.8,0.5,5.1-1.4,5.3,2.4c0.4,11.3,0.9,22.6-4.6,33.1
			c-0.3,0.6-0.4,1.6-1.2,1.6c-0.9,0-0.5-1-0.6-1.6C268.8,256.5,268.7,250.3,268.7,244.1z"/>
		<path class="st18" d="M241.8,146.8c2,0.3,2,2.1,2.7,3.4c6.1,11,12.7,21.4,26,24.8c-6,8.1-3.8,6.3-11.3,2.8
			c-4.8-2.3-8.1-6.2-10.2-10.8C246.3,160.4,242.9,154,241.8,146.8z"/>
		<path class="st21" d="M329.4,299.7c-0.7-1.3-2-1.2-3.2-1.2c-12.6,0.2-25.2-1.7-37.9-1.1c-6.2,0.3-12.3-0.8-18.4-2.1
			c3.9-4.2,9.1-2.4,13.7-2.8c3.9-0.4,7.9,1,11.8,0.2c1.6-0.3,2.2,1.2,3.6,1.5c4.2,0.9,8.5,1.3,12.8,1c6.2-0.3,12.3,1.1,18.6,1.1
			c0.3,0.2,0.4,0.5,0.3,0.7c-0.1,0.3-0.2,0.4-0.3,0.4C330.3,298.3,330.5,299.3,329.4,299.7z"/>
		<path class="st20" d="M378.9,128.8c-0.8,2,0.8,3.6,0.7,5.5c-0.1,2.6-0.9,3.9-3.7,3.4c-4.2-0.7-8.4-1.7-12.8-1.4
			c-1.5,0.1-3.5,0.3-3.3-2c0.2-2.1,0.1-4.7,3.1-5.2c2.7-0.4,5.4-0.6,8.2-0.2c2.5,0.3,5.2,0.6,7.7-0.3L378.9,128.8z"/>
		<path class="st18" d="M238.9,193.9c-1.5-3.1,0.2-4.8,2.6-6.2c4.7-2.8,9.3-5.7,13.9-8.5c0.9,0,1.6,0.5,2.3,1c1.4,0.9,4.2,2,4.1,2.7
			c-0.3,2.1-2.8,2.8-4.5,3.7C251.4,189.6,245,191.4,238.9,193.9z"/>
		<path class="st23" d="M400.3,246.1c-1.2,8.6-1.3,16.9-0.9,25.2c0.1,1.2,0.7,3.2-1.5,3.1c-1.7-0.1-4.2-0.2-4.7-2.2
			c-1-4-1.8-7.9,0.8-11.9c3.3-5.2,4.4-11.2,4.4-17.3c0-0.7,0.2-1.4,0.3-2c1.1,0.3,0.8,1.3,0.9,2C399.9,244,400.1,245.2,400.3,246.1z
			"/>
		<path class="st10" d="M259.9,215.9c-2.6,0-5.1,0.1-7.7,0c-0.9,0-2.5,0.5-2.5-0.5c-0.1-1,1.7-0.8,2.6-1c4.6-1.5,9.2-2.9,13.5-5.1
			c1.4-0.7,2.5-1,3.5,0.6c1,1.8,2.6,3.3,2.4,5.5c-0.1,0.6-1.2,0.5-1.8,0.5C266.5,215.9,263.2,215.9,259.9,215.9L259.9,215.9z"/>
		<path class="st4" d="M266.5,354.8c2.9,0.2,5.5,1.6,8.6,1c2.1-0.4,3,1.7,3.4,3.3c0.5,2-1.6,1.7-2.7,2.4c-1.6,0.9-3.3,1-5.1,0.8
			c-4.2-0.3-5.2-1.7-4.2-6C266.7,355.9,266.5,355.3,266.5,354.8L266.5,354.8z"/>
		<path class="st17" d="M220.3,216.5c-4.8,0.1-9.6,0.3-14.4,0.4c-1,0-2.2,0.2-3.1-0.1c-1.3-0.5-2-2-1.8-3.2c0.1-1.2,1.7-1.1,2.6-0.8
			c3.6,1.1,7.3,0.7,11,0.8c2.4,0,4.1,1.2,5.9,2.4c0.4,0.3,0.5,0.4,0.3,0.5C220.7,216.5,220.6,216.5,220.3,216.5z"/>
		<path class="st21" d="M320.6,292.6c-5.2,1.2-10.5-0.6-15.7,0c-0.8,0.1-2.7,0.3-2.7-1.2c0-0.8,1.5-1.1,2.6-1.2
			c5.5-0.2,10.9,0.7,16.3,1.8C320.9,292.2,320.8,292.4,320.6,292.6z"/>
		<path class="st20" d="M321.6,309.9c-0.7-0.1-2.5,0.6-2.3-1.4c0.2-2.3,1.9-3,4.1-2.7c1.3,0.2,3.4-0.3,3.1,1.7
			C326.1,309.7,324,310.2,321.6,309.9z"/>
		<path class="st19" d="M330.4,297.5c0-0.4,0-0.8,0-1.1c0.3-2.4-1.9-2.4-3.2-3.2c0-0.2,0-0.4,0-0.7c0.2,0,0.3,0,0.5,0
			c1.7-0.1,4.3-0.9,4.9,0.3C333.5,294.2,331.6,296,330.4,297.5z"/>
		<path class="st20" d="M400.4,231.3c0,0.7,0.1,1.4,0,2.1c0,0.5-0.3,1-0.4,1.5c-0.2-0.4-0.5-0.8-0.6-1.3c-0.1-1.2-0.1-2.4-0.1-3.6
			c0-1.3-2.1-3.3-0.1-3.7c1.5-0.2,1,2.5,1.1,4C400.4,230.6,400.4,231,400.4,231.3L400.4,231.3z"/>
		<path class="st4" d="M382.7,361.4c-1.1-0.2-2.7,0.4-2.7-1.3c0-1,1.3-0.8,2.1-0.8c1.1,0,2.8-0.2,3,1.1
			C385.2,361.7,383.6,361.2,382.7,361.4z"/>
		<path class="st6" d="M159.4,206c-0.5,0.4-1,0.8-1.5,1.3c-2.7-1-5.6-0.5-8.4-0.9c-0.4-0.2-0.6-0.3-0.5-0.6s0.2-0.4,0.3-0.4
			C152.7,205.2,156.1,204.7,159.4,206z"/>
		<path class="st5" d="M323,315.8c0.1-0.9-0.2-2.2,1.3-2.3c0.5,0,0.6,0.7,0.4,1.2c-0.4,1.3-0.8,2.5-1.2,3.7
			C322.6,317.7,323.2,316.7,323,315.8z"/>
		<path class="st12" d="M220.3,216.5l-0.1-0.3l0.3-0.2c1.5,0,3-0.1,4.5,0c0.8,0,1.6-0.2,2.2,0.6c-0.7,0.1-1.3,0.4-2,0.4
			C223.6,216.9,222,217.1,220.3,216.5z"/>
		<path class="st23" d="M323,329.8l-0.4,0.1l-0.4-0.1c0.1-1.9-0.5-3.8,0.5-5.6C323.5,326,323,327.9,323,329.8z"/>
		<path class="st21" d="M327.2,292.4c0,0.2,0,0.4,0,0.7c-2.2,0-4.5,0.7-6.6-0.5c0.2-0.2,0.3-0.4,0.5-0.5
			C323.1,292.1,325.2,292.3,327.2,292.4z"/>
		<path class="st8" d="M233,216.9c-0.9,0-1.8,0.1-2.5-0.5c0.9-0.7,2-0.5,3-0.5c0.7,0,2-0.4,1.9,0.6
			C235.2,217.2,233.8,216.8,233,216.9z"/>
		<path class="st20" d="M399.7,219c0.7,0.8,1.3,2.2,0.2,2.5c-1.5,0.3-1.5-1.3-1.5-2.5C398.9,218.4,399.3,218.4,399.7,219z"/>
		<path class="st12" d="M399.7,219c-0.5,0-0.9,0-1.4-0.1c0.1-1.3-0.6-2.7,0.5-3.8C399.9,216.3,399.3,217.7,399.7,219z"/>
		<path class="st4" d="M149.4,205.3c0.1,0.3,0.1,0.7,0.2,1c-0.3,0-0.7,0.1-1,0c-0.6-0.1-1.2-0.2-1.9-0.3c0.4-0.6,1-0.7,1.7-0.7
			C148.7,205.3,149,205.3,149.4,205.3z"/>
		<path class="st11" d="M344.8,329.8c-0.9-0.4-0.7-0.7,0.1-1C345,329.2,345,329.5,344.8,329.8z"/>
		<path class="st24" d="M211.1,194c-4.7-0.1-9.5,0.5-13.9,1.4c-10.4,2-20.6,0.6-30.9,0.5c-11.9-0.2-23.8-1-35.7,0.7
			c-2.4,0.3-4.8,0.3-7.2-0.1c-4.8-0.8-9.6-1.6-14.4-0.6c-0.9,0.2-2.1,0.3-2.8-0.3c-0.6-0.5-0.6-1.6-0.8-2.3
			c-0.4-1.2-0.9-2.3-1.3-3.4c-0.2-0.5-0.4-1-0.7-1.5c-0.2-0.3-0.4-0.7-0.5-1c-0.3-0.8-0.3-1.6-0.3-2.4c0-0.8-0.1-1.6-0.3-2.5
			c-0.4-1.7-0.7-3.6-0.7-5.4c-0.3-11-3.6-21.5-4.8-32.3c-0.7-6.7-2-13.2-3.2-19.8c-0.3-1.9,0.6-2.2,1.8-2.2c2.1-0.1,4.2,0.2,6.3,0.1
			c6.6-0.3,13.1,0.2,19.7-0.9c8.3-1.4,16.6,1,25,0.6c4.3-0.2,8.7-0.5,13-0.5c13,0.1,25.9,2.7,38.9,1.8c2.2-0.2,2.6,0.8,2.6,2.7
			c0,12.7,3.8,24.9,4.8,37.4c0.7,9,1.8,17.8,3.6,26.6c0.3,1.3,0.4,2.4,2.1,2.3C211.1,193.2,211.1,193.6,211.1,194z"/>
		<path class="st2" d="M396.1,283.8c-0.3,1.3-1.2,1.9-2.5,2.1c-0.6,0.1-1.6,0-1.4-1c0.2-1.2,1.3-1.5,2.3-1.8
			C395.1,282.8,395.8,282.8,396.1,283.8z"/>
		<path class="st5" d="M130.6,131.3c9-0.2,18.1-0.7,27.1,0.7c3.8,0.6,7.6-0.9,11.4-1c2.5-0.1,3.8,0.7,4.6,3.1
			c2.3,6.7,3.8,13.7,4.9,20.6c0.9,5.7,2.5,11.1,3.7,16.7c0.8,3.8,0.6,7.6,0.7,11.4c0.1,3.6-1.7,5.6-5.4,5.7
			c-7.7,0.1-15.4,0.6-23-0.1c-11.1-1.1-22.2-1-33.4-1c-5.6,0-5.2-0.1-6.2-5.7c-2.2-12.4-2.4-25.1-6.7-37.2
			c-1.1-3.2-0.9-6.9-1.9-10.2c-0.8-2.7,0.2-3,2.4-3c6.3,0,12.5,0,18.8,0C128.5,131.3,129.6,131.3,130.6,131.3z"/>
		<path class="st6" d="M168.3,157.3c-0.5,2.5,0.6,3.5,3.1,3.3c3.2-0.3,4.4,1.2,4.2,4.3c-0.2,3.7,2.3,6.8,2.8,10.4
			c0.7,4.3,0.5,4.8-4,4.8c-8.5-0.1-16.9,1.4-25.4,1.3c-2.6,0-4.1-0.2-3.7-3.2c0.1-1-0.2-2.1-0.7-3c-0.9-1.5,0.5-3.9-1.3-4.7
			c-1.2-0.6-3,0.2-4.6,0.2c-2,0.1-4,0.1-3.9-2.8c0.1-4-1.2-7.8-1.8-11.7c-0.6-3.8,2.6-7.8,6.2-7c2.9,0.7,6.1-0.5,8.8,1.3
			c0.6,0.4,1.7,0.3,2.5,0.4c-0.8,3.5-3.7,2.2-5.8,2.6c-2.5,0.5-5.6-0.9-7.3,2.3c-0.4,2.8,0.1,5.7,1.2,8.1c1.3,2.8,1.7,0.3,2.1-0.9
			c0.4-1.6,1.3-2.8,2.8-3.6c1-0.5,2-0.9,3-1.2c2.1-0.5,4.2-0.5,6.3-0.1c1.2,0.2,2.3,0.8,3.5,0.7c1.8-0.1,3.6-0.2,5.4,0.1
			c0.8,0.1,1.6,0.2,2.2,0.6c-0.1,0,0.2,0,0.2,0s-0.1-0.3-0.2-0.4c-0.5-1.1-0.9-2.2-1.5-3.2c-0.8-1.7-2.6-1.2-3.9-1.7
			c-1.6-0.6-3.2-1.3-2.3-3.5l0.1,0.1c1.5-0.7,2.9-1,4.3,0.1c0.3,0,0.7,0,1,0c4.5-1,4.9-0.7,5.4,3.8
			C167.7,155.6,168.4,156.3,168.3,157.3z"/>
		<path class="st25" d="M135.9,156.2c-0.3-3.2,1.4-4,4.3-4.2c3.5-0.2,7.1,1.2,10.4-1c0.2-0.1,0.5-0.1,0.7,0.1c0.3-0.3,0.6-0.5,1-0.6
			c0.8,0,1.7,0,2.5,0c0.4,0.1,0.8,0.3,1,0.7c0.2-0.1,0.3-0.2,0.5-0.2c0.3,2.3,2,2.4,3.8,2.3c2.1-0.1,3.7,0.5,3.8,3
			c-0.6,0.9-1.6,1.4-2.6,1.5c-7.6,0.3-15.3,0.3-22.9,0C137.5,157.6,136.6,156.9,135.9,156.2z"/>
		<path class="st7" d="M153.7,139c-1.9-0.5-3.6,1.1-5.5,0.5c-1-0.3-2.2-0.1-1.9-1.7c0.2-1,0.9-1.1,2-0.8c1.8,0.5,3.6,0.6,5.4,0.9
			C153.9,138.3,153.9,138.6,153.7,139z"/>
		<path class="st11" d="M153.7,139c0-0.4,0-0.7,0-1.1c2.4-0.8,4.8-1.2,7.1,0.2c0.1,0.1,0,0.8-0.2,0.9
			C158.3,139.7,156,139.7,153.7,139z"/>
		<path class="st11" d="M132.4,136.4c1.3,0.2,3-0.6,3.2,0.9c0.3,1.8-1.6,1.5-2.5,1.3c-1.1-0.3-3.2,1-3.3-1.1
			C129.8,135.7,131.7,136.9,132.4,136.4z"/>
		<path class="st26" d="M121.6,142.7c0.8,0.1,2-0.1,2,0.9c0,1.5-1.4,1.2-2.3,1.2c-0.8,0-2,0.2-2-1
			C119.4,142.3,120.7,142.8,121.6,142.7z"/>
		<path class="st26" d="M115.6,142.7c0.8,0.1,2.1-0.2,2.1,0.8c0,1.9-1.7,1.2-2.7,1.3c-0.8,0.1-2,0.1-1.9-1.1
			C113.3,142.3,114.6,142.8,115.6,142.7z"/>
		<path class="st7" d="M168.3,157.3c-1-0.6-1.1-1.5-1-2.5c0.3,0,0.7-0.1,1,0c1.4,0.2,3.9-1.1,3.8,1.5
			C172,158.1,169.6,157,168.3,157.3z"/>
		<path class="st7" d="M165.1,137.8c0.3-0.1,0.7-0.1,1-0.2c1.3-0.5,3-0.9,3,1c-0.1,1.5-1.8,0.9-2.9,0.7c-0.3-0.1-0.7-0.1-1-0.2
			C164.8,138.6,164.8,138.2,165.1,137.8z"/>
		<path class="st7" d="M127.4,137.4c-0.1,1.2-1.1,1.1-1.9,1.1c-0.9,0-1.9-0.1-1.9-1.2c0-1,1-1.3,1.9-1.2
			C126.4,136.1,127.3,136.2,127.4,137.4z"/>
		<path class="st15" d="M161.9,144.2c-0.3,1-0.9,1.3-1.6,1.3c-1,0-1.6-0.6-1.4-1.7c0.1-0.8,0.7-1.3,1.4-1.2
			C161.2,142.8,161.8,143.4,161.9,144.2z"/>
		<path class="st26" d="M119.2,136.2c0.7,0.1,1.6,0.1,1.6,0.9c0,1.5-1.3,1.3-2.3,1.3c-0.7,0-1.5-0.2-1.3-1.1
			C117.4,136.1,118.4,136.3,119.2,136.2z"/>
		<path class="st26" d="M112,138.4c-0.8-0.1-1.9,0.1-2-1.1c-0.1-1.2,1.1-1.1,1.9-1.1c0.8,0,1.9,0.1,1.7,1.3
			C113.6,138.4,112.8,138.5,112,138.4z"/>
		<path class="st13" d="M134.7,142.1c0.9,0,1.4,0.6,1.4,1.3c0.1,1-0.7,1.5-1.6,1.4s-1.8-0.4-1.7-1.4
			C133,142.3,134,142.2,134.7,142.1z"/>
		<path class="st9" d="M155.9,151.1c-0.4,0-0.8,0.1-1.2,0.1c-0.7,0.4-1.5,0.4-2.2,0c-0.4,0-0.8-0.1-1.2-0.1c0.1-1.3,0.4-2.2,2-2.2
			C155,148.9,155.9,149.3,155.9,151.1z"/>
		<path class="st10" d="M145.2,142.1c0.1,1.7-0.4,2.3-1.4,2.3c-0.6,0-1.4-0.3-1.5-1.1c-0.1-1,0.7-1.5,1.5-1.6
			C144.6,141.5,145.2,141.9,145.2,142.1z"/>
		<path class="st26" d="M154.6,144.9c-0.6-0.1-1.6,0.1-1.8-1c-0.1-0.9,0.6-1.1,1.3-1.1c1,0,2.2-0.2,2.2,1.3
			C156.3,144.8,155.4,144.8,154.6,144.9z"/>
		<path class="st18" d="M139,141.6c1,0.1,1.7,0.8,1.6,1.6s-0.8,1.4-1.9,1.3c-0.8-0.1-1.4-0.7-1.4-1.3
			C137.4,142.3,138,141.7,139,141.6z"/>
		<path class="st9" d="M165.1,137.8c0,0.4,0,0.9,0,1.3c-0.9,0.4-1.9,0.8-2.8-0.1c-0.4-0.4-0.4-0.9,0-1.3
			C163.3,136.9,164.2,137.2,165.1,137.8z"/>
		<path class="st17" d="M129.7,142.7c0,0.8-0.2,1.5-0.9,1.7c-0.8,0.2-1.2-0.5-1.3-1.2s0-1.4,0.9-1.5
			C129.2,141.5,129.6,142.1,129.7,142.7z"/>
		<path class="st18" d="M149,143.1c-0.3,1.1-0.8,1.6-1.6,1.5c-0.9-0.1-1.1-0.9-1-1.5c0.1-0.4,0.8-0.9,1.2-0.8
			C148.3,142.3,149.1,142.6,149,143.1z"/>
		<path class="st26" d="M168.1,145.1c-0.1,0.7-0.4,1-0.9,1.1c-0.9,0.1-1-0.6-1-1.3c0-0.6,0.4-0.9,0.9-0.9
			C168,143.9,168.1,144.5,168.1,145.1z"/>
		<path class="st18" d="M160.8,151c-1.4,0-2.9-0.1-4.3-0.1C158.1,148.7,159.5,148.6,160.8,151z"/>
		<path class="st18" d="M171.1,150.1c1.1,0.3,1.4,0.8,1.3,1.6c-0.1,0.9-0.8,1.2-1.5,1c-0.3-0.1-0.7-0.9-0.7-1.3
			C170.2,150.8,170.3,149.9,171.1,150.1z"/>
		<path class="st18" d="M141.8,136.8c0.4,0.4,1.3,0.4,1.2,1.4c-0.1,0.8-0.7,1.2-1.4,1.1c-0.7-0.1-1.3-0.5-1.2-1.3
			C140.5,137.2,141.2,137,141.8,136.8z"/>
		<path class="st7" d="M173.5,166.6c-0.1,2.7,1.3,5,1.9,7.4c0.4,1.7,0,2.8-2.2,3.2c-7.2,1.2-14.4,0.9-21.7,1
			c-2.4,0.1-3.6-1.1-4.1-3.1c-0.8-3.2-2.1-6.2-2.2-9.5c4.2-1.9,8.6-1.8,13-1.4c3.2,0.3,6.5,0.5,9.7,1.1c0.5,0.2,1,0.4,1.4,0.8
			c0.7,0.6-0.1,1.6,0.5,2.1c0.2,0.1,0.6-0.7,0.8-1.2c0.3-0.4,0.6-0.7,1-1C172.2,166,172.9,166.1,173.5,166.6z"/>
		<path class="st7" d="M135.9,156.2c9.4,0,18.8-0.1,28.3-0.1c1.5,1.2,1,2.8,1,4.3l0,0c-1.2-0.1-2.5-0.1-3.7-0.2
			c-1.5-2.1-2.9-2.8-4.3,0c-1.3,0-2.8,0.7-3.6-1c-2.3-1.5-4.6-1.2-7-0.2c-0.4,1.2-1.3,1.4-2.4,1.4c-1-0.6-2-1.5-3-0.3
			c-1,1.4-0.1,2.5,0.9,3.4c-0.2,1.5,1,3.7-1.6,4.1c-2.5,0.4-3.3-1.7-3.4-3.5C136.9,161.5,135.5,159,135.9,156.2z"/>
		<path class="st25" d="M169.1,166.8c-8,0.2-15.8-1.9-23.9-1.1c-1.1-0.9-1-2,0.4-2.1c6.6-0.3,13.2-2.4,19.9-0.3
			c2.1,0.6,4.5,0.1,6.7,0.2c2.8,0.1,2,1.6,1.2,3.1c-0.8,0-1.5,0-2.3,0C170.5,167.3,169.9,167.3,169.1,166.8z"/>
		<path class="st27" d="M142.1,163.6c-2.1,0.3-3.3-0.4-3.2-2.7c0.1-1.5,0.4-2.8,2-3.2c2.1-0.5,3.2,0.6,3.3,2.8
			C142.8,161,142.1,162.1,142.1,163.6z"/>
		<path class="st16" d="M157.1,160.3c-0.5-0.8-1.9-1.3-1.2-2.5c0.5-0.8,1.9-0.9,2.2-0.5c1,1.2,4.6-0.7,3.3,2.9
			C160,160.2,158.6,159.2,157.1,160.3z"/>
		<path class="st2" d="M146.6,159c2.6-2.6,5.6-2.5,7,0.2C151.2,159.4,148.9,159.6,146.6,159z"/>
		<path class="st7" d="M165.1,160.4c0.2,0.2,0.3,0.3,0.5,0.5c-0.1,0-0.3,0-0.3-0.1C165.2,160.7,165.2,160.6,165.1,160.4L165.1,160.4
			z"/>
		<path class="st6" d="M152.5,151.2c0.7,0,1.5,0,2.2,0C154,152.2,153.3,152.2,152.5,151.2z"/>
		<path class="st6" d="M164.9,176.1c-0.7,0-1.4,0-2,0c-0.9,0-1.7-0.3-1.8-1.4c-0.1-1,0.5-1.6,1.5-1.7c0.8-0.1,1.7-0.3,2.5-0.1
			c1.4,0.2,3.7-0.9,3.8,1.2C169,176.4,166.5,175.9,164.9,176.1z"/>
		<path class="st5" d="M162,167.6c0.8,0.1,1.7,0.2,2.5,0.5c0.5,0.2,0.6,0.8,0.4,1.3c-0.8,1.5-2.4,1-3.6,1.3c-1,0.2-2,0.4-2.7-0.7
			c-0.5-0.8,0.1-1.2,0.5-1.7C159.9,167.4,161,167.9,162,167.6z"/>
		<path class="st16" d="M171.3,167.9c0.2,1.3-0.4,1.8-1.7,2c-1.3,0.2-3.1,1-3.3-1c-0.2-1.7,1.9-0.9,2.8-1.4
			C170,167.2,170.8,167,171.3,167.9z"/>
		<path class="st27" d="M150.5,173.9c-2.1-0.6-2.6-2.4-2-4c0.7-1.9,2-3.2,3.9-0.9C152,170.7,152,172.6,150.5,173.9z"/>
		<path class="st16" d="M150.5,173.9c0.5-1.7-2.8-4.9,1.9-4.9v-0.1c1.5,1.7,1.4,3.3,0.1,5.1C151.9,173.9,151.2,173.9,150.5,173.9z"
			/>
		<path class="st27" d="M152.6,173.9c0-1.7-0.1-3.4-0.1-5.1c1.8-0.1,2.3,0.9,2.2,2.5C154.7,172.8,154.5,174.1,152.6,173.9z"/>
		<path class="st6" d="M171.3,167.9c-0.7-0.1-1.4-0.3-2.1-0.4c0-0.2-0.1-0.5-0.1-0.7c0.7-0.1,1.3-0.1,2-0.2
			C171.2,167.1,171.3,167.5,171.3,167.9z"/>
	</g>
</g>
</svg>
