<svg id="Layer_1" data-name="Layer 1" xmlns="http://www.w3.org/2000/svg" xmlns:xlink="http://www.w3.org/1999/xlink" viewBox="0 0 900 337.48">
  <defs>
    <style>
      .cls-1 {
        fill: #819096;
      }

      .cls-2 {
        fill: #ed4c5c;
      }

      .cls-3 {
        fill: #cad5dd;
      }

      .cls-4, .cls-52 {
        fill: #333;
      }

      .cls-4, .cls-41, .cls-42, .cls-45 {
        opacity: 0.5;
      }

      .cls-31, .cls-32, .cls-4, .cls-41, .cls-42 {
        isolation: isolate;
      }

      .cls-5 {
        fill: #d9e3e8;
      }

      .cls-6 {
        fill: #c7d3d8;
      }

      .cls-7 {
        fill: #93a2aa;
      }

      .cls-8 {
        fill: #69787c;
      }

      .cls-9 {
        fill: #e8edef;
      }

      .cls-10, .cls-32 {
        fill: #fff;
      }

      .cls-11 {
        fill: #f7f2df;
      }

      .cls-12 {
        fill: #e8e1d6;
      }

      .cls-13 {
        fill: #3f4237;
      }

      .cls-14 {
        fill: #8cc63e;
      }

      .cls-15 {
        fill: #ffeee2;
      }

      .cls-16 {
        fill: #f55;
      }

      .cls-17 {
        fill: #ec6430;
      }

      .cls-18 {
        fill: #e8491f;
      }

      .cls-19 {
        fill: #f3813b;
      }

      .cls-20 {
        fill: #f4a24e;
      }

      .cls-21 {
        fill: #3e4347;
      }

      .cls-22 {
        fill: #6f7980;
      }

      .cls-23 {
        fill: #fbbf67;
      }

      .cls-24 {
        fill: #d33b23;
      }

      .cls-25 {
        fill: #ff8736;
      }

      .cls-26 {
        fill: #89664c;
      }

      .cls-27 {
        fill: #699635;
      }

      .cls-28 {
        opacity: 0.6;
      }

      .cls-29 {
        fill: #a6aeb0;
      }

      .cls-30 {
        fill: #ddd;
      }

      .cls-31 {
        opacity: 0.15;
      }

      .cls-32 {
        opacity: 0.4;
      }

      .cls-33 {
        fill: #a8693f;
      }

      .cls-34 {
        fill: #c28d69;
      }

      .cls-35 {
        fill: #f29a2e;
      }

      .cls-36 {
        fill: #b2c1c0;
      }

      .cls-37 {
        fill: #f9f3d9;
      }

      .cls-38 {
        fill: #fed0ac;
      }

      .cls-39 {
        fill: #f15744;
      }

      .cls-40 {
        fill: #d3976e;
      }

      .cls-41 {
        fill: #62727a;
      }

      .cls-42, .cls-43 {
        fill: #e8e8e8;
      }

      .cls-44 {
        fill: #1b2326;
      }

      .cls-46, .cls-47, .cls-48, .cls-49, .cls-50, .cls-51, .cls-53, .cls-54, .cls-55, .cls-56, .cls-57, .cls-58, .cls-59 {
        fill: none;
        stroke: #fff;
        stroke-linecap: round;
        stroke-miterlimit: 10;
      }

      .cls-46, .cls-47, .cls-48, .cls-49, .cls-50, .cls-51 {
        stroke-width: 1.1px;
      }

      .cls-47, .cls-54 {
        stroke-dasharray: 2.2 2.2;
      }

      .cls-48, .cls-56 {
        stroke-dasharray: 2.2 2.2;
      }

      .cls-49 {
        stroke-dasharray: 2.27 2.27;
      }

      .cls-50 {
        stroke-dasharray: 2.21 2.21;
      }

      .cls-51 {
        stroke-dasharray: 2.16 2.16;
      }

      .cls-53, .cls-54, .cls-55, .cls-56, .cls-57, .cls-58, .cls-59 {
        stroke-width: 1.1px;
      }

      .cls-55 {
        stroke-dasharray: 2.14 2.14;
      }

      .cls-57 {
        stroke-dasharray: 2.21 2.21;
      }

      .cls-58 {
        stroke-dasharray: 2.14 2.14;
      }

      .cls-59 {
        stroke-dasharray: 2.16 2.16;
      }
    </style>
    <symbol id="New_Symbol" data-name="New Symbol" viewBox="0 0 60 56">
      <g>
        <path class="cls-1" d="M0,30.2H3.56v5.89H0ZM56.27,14.45h3.56v5.89H56.27Z"/>
        <path class="cls-1" d="M57.65,17.75,25.29,6.35a3.72,3.72,0,0,0-4,.94l-8.9,11.62L.68,34.23a2.58,2.58,0,0,0,.91,4.15L40.85,55.65A3.82,3.82,0,0,0,46,53.78L53.82,35l5.86-14C60.19,19.77,59.28,18.32,57.65,17.75Z"/>
      </g>
      <path class="cls-2" d="M59.68,15.1c.52-1.23-.4-2.68-2-3.25L25.29.45a3.72,3.72,0,0,0-4,.95L12.41,13,53.82,29.1Z"/>
      <path class="cls-3" d="M12.41,13,.68,28.33a2.58,2.58,0,0,0,.91,4.15L40.85,49.75A3.83,3.83,0,0,0,46,47.88L53.82,29.1Z"/>
      <path class="cls-4" d="M2.21,26.34c-1.18,1.54.33,3.84,1.48,4.9,4.7,4.31,23,12.29,23,12.29Z"/>
      <path class="cls-5" d="M12.41,13s-3.77,5.32-7,6.78c-2.36,1.07-3.84,0-4.35,1.75C-2,32.18,40.61,50,40.61,50a3.83,3.83,0,0,0,5.12-1.88L53.82,29.1Z"/>
      <path class="cls-6" d="M59.81,14.19c.3-1,.54-1.83-1.77-2.46L25.29.45c-2.05-.79-2.83-.6-4,.95L18.59,4.61,58.16,18.73Z"/>
      <path class="cls-7" d="M58.16,18.73v5.9l1.66-4L60,13.33Z"/>
      <ellipse class="cls-8" cx="31.49" cy="5.78" rx="1.58" ry="1.35"/>
      <ellipse class="cls-8" cx="46.25" cy="11.11" rx="1.58" ry="1.35"/>
      <path class="cls-9" d="M33,5.46,45.45,10s.46.29.22,2.41c-.51-.1-.91-.82-.91-.82L32.28,6.94S32.12,6.64,33,5.46Z"/>
      <path class="cls-7" d="M32.65,5.94l12.43,4.5a3,3,0,0,1,.29,1.79,1.81,1.81,0,0,1-.61-.69L32.28,6.94S32.12,6.71,32.65,5.94Z"/>
      <path class="cls-8" d="M18.59,4.94V4.61L58.16,18.73v6.19H58V19Z"/>
      <path class="cls-10" d="M26.29,13.9l-.08.15a3.47,3.47,0,0,0-.44,1.15c0,.25.13.43.45.56a.76.76,0,0,0,.82-.09,2.34,2.34,0,0,0,.48-.66l2.61-4.71,1.48.53L29,15.55a3.46,3.46,0,0,1-1.06,1.25,2.34,2.34,0,0,1-2.28.12c-.86-.35-1.3-.81-1.35-1.37a3.74,3.74,0,0,1,.58-2l.08-.15Zm6.92-2.5,1.57.56L32.41,16.2a2.63,2.63,0,0,0-.4,1.1q0,.69.89,1.06a1.5,1.5,0,0,0,1.55-.1,3,3,0,0,0,.78-1L37.64,13l1.65.59-2.45,4.35a4.52,4.52,0,0,1-1.36,1.6,3.42,3.42,0,0,1-3.27.08c-1.26-.51-1.9-1.23-1.93-2.15a3.79,3.79,0,0,1,.59-1.83Zm7.67,2.73,1.69.6-3.35,5.91,4.06,1.6-.75,1.32-5.68-2.3Z"/>
    </symbol>
    <symbol id="New_Symbol_1" data-name="New Symbol 1" viewBox="0 0 60 52.04">
      <path class="cls-11" d="M48,39C54,30.78,2.5,28.86,2.5,28.86s-1.2,1.71-.27,3c.56.79,1.07,1.23.77,2.13s.83,2,1,3c.28,1.65-.63,2.38,1.3,3.25.7.32,4.36,1.58,4.6,0a6.91,6.91,0,0,0,3.21,3.29,19.4,19.4,0,0,0,4.51,1.08c.69,1.58,1.66.9,2.82,1.75a6.52,6.52,0,0,0,4.49,1.42c1.32-.23,1.17-.94,2.61.18C27.42,49.64,29,49,30,49.28s5.25.25,5.77.5-.52,1.62.42,2.14c1.49.82,3.27-2.81,4-3.44-.12.61-.4,3.28,1,2.87,1.76-.53,1.31-3.06,2.79-3.64a4.74,4.74,0,0,0,3.2-3.49,7.13,7.13,0,0,0,.15-2C48.45,41.91,48.59,39.63,48,39Z"/>
      <path class="cls-12" d="M25.73,45.5C24.06,44.6,22.4,44.39,22,45s.67,1.91,2.35,2.81,3.34,1.11,3.72.46S27.41,46.4,25.73,45.5ZM10,39.48c-1.71-.83-3.38-1-3.73-.3S7,41.06,8.75,41.89s3.39,1,3.73.31S11.73,40.31,10,39.48Zm6.58,3.09c-1.71-.83-3.38-1-3.73-.3s.76,1.88,2.47,2.71,3.38,1,3.73.3S18.31,43.41,16.59,42.57ZM36.7,46.5c.24-.48.3-.9.08-1.17-.48-.59-2.1-.17-3.59.94s-2.32,2.49-1.83,3.09c.22.27.68.32,1.25.2-.38.67-.48,1.26-.18,1.57.53.56,2.1,0,3.5-1.21s2.1-2.67,1.57-3.22A1,1,0,0,0,36.7,46.5Zm-5.36-2.43a.6.6,0,0,0,.1.22c.49.6,2.1.17,3.59-.94s2.32-2.5,1.84-3.09-2.1-.17-3.59.94l-.32.26a.7.7,0,0,0-.17-.5c-.35-.36-1.13-.25-2,.2a8.5,8.5,0,0,0-1-.1c-1.91-.06-3.47.5-3.49,1.24,0,.51.72,1,1.8,1.24-.52.78-.68,1.49-.34,1.85.53.56,2.1,0,3.5-1.21Zm11.18-2c-.71-.31-1.92.78-2.7,2.44-.47,1-.81,3.53-.11,3.57s1.92-.78,2.7-2.44S43.23,42.36,42.51,42.05Zm5-6c-.71-.31-1.92.78-2.7,2.44s-.82,3.26-.1,3.57,1.92-.78,2.69-2.44S48.24,36.37,47.52,36.05ZM12,38.56c-.35.67.76,1.88,2.47,2.71s3.38,1,3.73.3-.76-1.88-2.47-2.71S12.38,37.9,12,38.56ZM8,35.21c-.11-1.82-.84-3.28-1.62-3.24S5,33.51,5.15,35.33,6,38.61,6.77,38.58,8.09,37,8,35.21Zm5.46,1.37c1.11-1.47,1.5-3,.86-3.46s-2.05.39-3.17,1.85-1.5,3-.87,3.46S12.33,38.05,13.44,36.58ZM26.9,40.47c0-.75-1.52-1.4-3.43-1.47S20,39.5,20,40.25s1.52,1.4,3.43,1.46S26.89,41.22,26.9,40.47Z"/>
      <path class="cls-13" d="M11.39,7.7h25.4v9.88H11.39Z"/>
      <path class="cls-13" d="M36.16,15.15c2.48,4.75-2.43,10.32-12.06,10.32S9.55,19.9,12,15.15c1.75-3.37,7-5.45,12.06-5.45S34.4,11.78,36.16,15.15Z"/>
      <path class="cls-14" d="M36.16,5.45c2.48,4.75-2.43,10.32-12.06,10.32S9.55,10.2,12,5.45C13.78,2.09,19,0,24.09,0S34.4,2.09,36.16,5.45Z"/>
      <path class="cls-15" d="M35.06,5.45c2,4.24-2.55,9-11,9s-13-4.78-11-9c1.47-3.1,6.24-5.07,11-5.07S33.59,2.35,35.06,5.45Z"/>
      <path class="cls-16" d="M29.58,5.93c.46,1.94-2,3.77-5.48,3.77s-5.94-1.83-5.48-3.77c.39-1.66,2.83-2.84,5.48-2.84S29.18,4.26,29.58,5.93Z"/>
      <g>
        <path class="cls-13" d="M34.6,15.4H60v9.88H34.6Z"/>
        <path class="cls-13" d="M59.36,22.86c2.48,4.75-2.43,10.32-12.06,10.32S32.76,27.6,35.23,22.86c1.76-3.37,7-5.45,12.06-5.45S57.61,19.49,59.36,22.86Z"/>
        <path class="cls-14" d="M59.36,13.16c2.48,4.75-2.43,10.32-12.07,10.32S32.76,17.9,35.23,13.16C37,9.79,42.21,7.7,47.3,7.7S57.61,9.79,59.36,13.16Z"/>
        <path class="cls-15" d="M58.27,13.16c2,4.24-2.55,9-11,9s-13-4.77-11-9c1.47-3.1,6.24-5.07,11-5.07S56.8,10.05,58.27,13.16Z"/>
        <path class="cls-16" d="M52.78,13.63c.46,1.94-2,3.77-5.49,3.77s-5.94-1.83-5.48-3.77c.4-1.66,2.83-2.84,5.48-2.84S52.39,12,52.78,13.63Z"/>
      </g>
      <g>
        <path class="cls-17" d="M0,25.25a8.19,8.19,0,0,0,3.78,6.52C6,33.2,40.23,46.23,42,44.35S35.23,31.68,30.51,29.63C18,24.22,0,25.25,0,25.25Z"/>
        <path class="cls-18" d="M41.48,40.38c-.14,1.1.13,4.22.48,4,2.19-1.55,8.3-9.42,5.49-15.68Z"/>
        <path class="cls-19" d="M0,25.25s5.65-7,7.7-7.77c5.92-2.13,6.08-2,10.54-1s24.62,6,29.21,12.15c1.2,1.6-4.71,12.25-6,13s-8.18-1.39-17.64-7.47C13.08,27.27,2.27,25.8,0,25.25Z"/>
        <path class="cls-20" d="M36.31,39.55c-.54-.28-1.08-.59-1.61-.89-.31-3.27.9-7.12.74-10.43-.65,3-2.35,6-3.21,9l-.72-.43Q28.62,35,25.68,33.32c1.3-3.89,2.1-8.3.19-12.08.94,3.81-.56,7.54-2.49,10.79l-1.58-.86q-2.57-1.35-5.25-2.49c-.75-3.38,2.19-7.63-.89-10.46,1.83,2.87-.65,6.31-1.54,9.5q-1.4-.51-2.82-.94A32.81,32.81,0,0,0,0,25.25,82.08,82.08,0,0,1,10.49,29c3.36,1.48,6.64,3.13,9.92,4.85s6.56,3.49,10,5a42.47,42.47,0,0,0,5.34,2,15.33,15.33,0,0,0,5.68.72A22.59,22.59,0,0,1,36.31,39.55Z"/>
      </g>
    </symbol>
    <symbol id="New_Symbol_2" data-name="New Symbol 2" viewBox="0 0 60 60">
      <path class="cls-21" d="M30.5,42.31c-13.19,0-24.2-4.07-26.74-9.48C8.4,46.88,5.63,60,30.5,60S52.6,46.89,57.24,32.83C54.7,38.24,43.69,42.31,30.5,42.31Z"/>
      <path class="cls-22" d="M18.15,18.47c14.13-3.89,46.5,2,39.44,15.41,3.86,4.38,5.3,9.06-13.33,8.81C15.67,49.44-7.92,35.46,2.52,25,0,19.9,5.51,17.28,18.15,18.47Z"/>
      <path class="cls-21" d="M30.5,41.67c12.49,0,22.91-3.85,25.31-9,.16-.48.31-1,.46-1.47a4.82,4.82,0,0,0,.06-.79c0-6.2-11.56-11.23-25.83-11.23s-25.83,5-25.83,11.23a4.82,4.82,0,0,0,.06.79c.15.49.3,1,.46,1.47C7.59,37.82,18,41.67,30.5,41.67Z"/>
      <path class="cls-23" d="M30.5,41.67c12.49,0,22.91-3.85,25.31-9l.15-.46c-2.09-5.29-12.69-9.32-25.46-9.32S7.13,26.94,5,32.23l.15.46C7.59,37.82,18,41.67,30.5,41.67Z"/>
      <path class="cls-24" d="M34,28.42c-5-.12-11.08,3.9-15.17,3.63-6.77-.46.16,2.79,5,2.79,3.23,0,5.39-2.92,7.08-4.07C33.28,29.17,39.21,28.55,34,28.42Z"/>
      <path class="cls-25" d="M19.22,25.12c-1.25-3.56-8.84,2.34-2.35,3.59C17.79,28.88,20.33,28.27,19.22,25.12ZM33.73,36.38c-1.55-4.4-10.94,2.89-2.91,4.44C32,41,35.1,40.27,33.73,36.38Zm1.64-12.59c-1.53-3.56-10.79,2.34-2.87,3.59C33.63,27.55,36.73,26.93,35.38,23.79Zm15.31,3.92c-.56-3.93-12.5-1.66-4.25,2.38C47.6,30.66,51.17,31.18,50.68,27.71Z"/>
      <path class="cls-26" d="M13.05,31.18C12,29.64,10.38,27.69,9.72,28.7,8.83,30.09,8.55,32.89,9.2,33,14.29,34,13.93,32.43,13.05,31.18ZM40.58,28.4c-1.84.75-2.91.24-3.72,1.38-1.9,2.67,4.56,3.56,5.81,2C43.59,30.66,41.76,27.92,40.58,28.4Zm1.52,6.66c-1.32-.58-1,1.37-3-.2-1.4-1.12-4.41,1.71-2.42,3.63,2.21,2.14,2.8.11,3.72.28C42.32,39.12,45.57,36.59,42.1,35.06Zm-22,.67c-1.2-1.18-3.11,2.16-2.38,3.12,1.53,2,6.88,1.56,8.32.07C27.79,37.11,23,38.53,20.12,35.73Z"/>
      <path class="cls-27" d="M15.48,34.66a14.2,14.2,0,0,0,.26,1.74c-1.3-.46-1.34-2.78-1.34-2.78A1.64,1.64,0,0,0,13.61,35,2.66,2.66,0,0,0,11,34.41s1.81,1,2.06,1.71a2,2,0,0,0-2,1.25s2-1,3.5-.26c-.59.48-.3,1.68-.3,1.68,2.38-2.52,3.94-.25,5-.88A3.47,3.47,0,0,0,17,36.56,4.43,4.43,0,0,0,15.48,34.66ZM26.33,24.9a4.43,4.43,0,0,0-2.44.37,14.41,14.41,0,0,0,1.63.67c-1.06.88-3.07-.28-3.07-.28a1.64,1.64,0,0,0,.8,1.4,2.66,2.66,0,0,0-1.89,2s1.81-1,2.52-.89A2,2,0,0,0,24,30.45s.21-2.22,1.57-3.14c.11.75,1.29,1.11,1.29,1.11-.94-3.34,1.81-3.51,1.8-4.71A3.48,3.48,0,0,0,26.33,24.9Zm23.23,9c.5-.54,2.56-.78,2.56-.78a2.66,2.66,0,0,0-2.68-.45,1.64,1.64,0,0,0-.19-1.6s-.93,2.13-2.3,2.05a14.38,14.38,0,0,0,.91-1.51,4.44,4.44,0,0,0-2.18,1.15,3.47,3.47,0,0,0-2.54.41c.7,1,3-.53,4.24,2.72,0,0,.73-1,.37-1.66,1.64-.07,3.13,1.59,3.13,1.58A2,2,0,0,0,49.56,33.92Z"/>
      <g class="cls-28">
        <path class="cls-29" d="M31.34,9.41C27.65,5.58,30.1,0,30.1,0s-7.75,7.37-2.86,12.46C32.91,18.34,30.1,22,30.1,22S37.13,15.42,31.34,9.41ZM20.29,12.84C17.52,10.06,19.36,6,19.36,6s-5.81,5.36-2.14,9.06C21.47,19.34,19.36,22,19.36,22S24.62,17.21,20.29,12.84Zm22,0C39.52,10.06,41.36,6,41.36,6s-5.81,5.36-2.14,9.06C43.47,19.34,41.36,22,41.36,22S46.62,17.21,42.29,12.84Z"/>
      </g>
    </symbol>
    <symbol id="New_Symbol_4" data-name="New Symbol 4" viewBox="0 0 60 60">
      <path class="cls-30" d="M26.36,33.63c-4.51-4.51-10.49,7-15.06,7.6-2.09.26-6.23-2.2-9.56,1.13a6,6,0,0,0,6,9.9,6,6,0,0,0,9.9,6c3.33-3.33.87-7.47,1.13-9.56C19.33,44.13,30.88,38.15,26.36,33.63Z"/>
      <path class="cls-31" d="M20.92,44.94l1-1.11,1.94-6.66L16.21,38,15,39.15l2.88.72a43.71,43.71,0,0,0-3,4.25,32.82,32.82,0,0,0,5.57-.35Z"/>
      <path class="cls-32" d="M9.53,56.75a7.74,7.74,0,0,1,2.78-7.58l-.18,0a4.72,4.72,0,0,0-3.64,5.59A4.91,4.91,0,0,0,9.6,57C9.58,56.94,9.55,56.85,9.53,56.75ZM1.85,47.82a5.59,5.59,0,0,1,2-5.47H3.72a3.41,3.41,0,0,0-2.63,4A3.53,3.53,0,0,0,1.9,48C1.88,48,1.86,47.89,1.85,47.82Z"/>
      <path class="cls-33" d="M52.46,33.44C73,12.86,47.14-13,26.56,7.54c-8.23,8.23-6.7,18.17-8.31,26a9.91,9.91,0,0,1-3,4.83,23.85,23.85,0,0,0,3.65,1,39,39,0,0,0-2.68,3.74A17.9,17.9,0,0,0,21,42.76c.31,1.17.64,2,.64,2a9.9,9.9,0,0,1,4.83-3C34.29,40.13,44.23,41.66,52.46,33.44Z"/>
      <g>
        <path class="cls-34" d="M39.43,17.56l-1-1,1.05-1,1,1Zm3.27-5.93,1-1,1,1.05-1,1Zm-7.35,10.5-1-1,1-1,1,1ZM30.48,27l-1-1,1-1,1,1Z"/>
        <path class="cls-34" d="M32.1,8.79l-1-1.05,1-1,1,1.05Zm-4.31,4.74-1-1,1-1,1,1Zm-3.25,5.79-1-1,1-1,1,1ZM36.31,4l1-1.05,1,1.05L37.36,5Z"/>
        <path class="cls-34" d="M33.51,15.37l-1-1,1-1.05,1,1.05Zm5.91-4.8L37.93,9.09,39.42,7.6,40.9,9.09ZM24.2,25.72l-1-1,1-1,1,1Zm5.44-4-1.48-1.49,1.49-1.48,1.48,1.48ZM43.34,4.49l1.05-1.05,1,1.05L44.39,5.54Z"/>
      </g>
    </symbol>
    <symbol id="New_Symbol_5" data-name="New Symbol 5" viewBox="0 0 60 60">
      <path class="cls-21" d="M58.26,2,58,1.74a5.92,5.92,0,0,0-8.37,0h0L39.61,11.83a26.07,26.07,0,1,0,8.56,8.67l10.1-10.13A6,6,0,0,0,58.26,2Zm-4.65,8.18a3.73,3.73,0,1,1,3.72-3.73A3.73,3.73,0,0,1,53.61,10.14Z"/>
      <path class="cls-10" d="M10.21,28.05C6.11,37.16,9,47.38,16.76,50.88S34,49.82,38.14,40.71s1.16-19.33-6.55-22.82S14.3,18.94,10.21,28.05Z"/>
      <circle class="cls-35" cx="20.95" cy="33.96" r="8"/>
    </symbol>
    <symbol id="New_Symbol_6" data-name="New Symbol 6" viewBox="0 0 64 64">
      <path class="cls-36" d="M56,48H8L0,64H64Z"/>
      <path class="cls-37" d="M8,40H56v8H8Zm5-16H51v8H13ZM18,8H46v8H18Z"/>
      <path class="cls-24" d="M18,16c0,2.21-4.7,4-8,4a12.13,12.13,0,0,1-5-1c0,2.21,2.91,5,6.5,5H32V16ZM13,32c0,2.21-4.7,4-8,4a12.13,12.13,0,0,1-5-1c0,2.21,2.91,5,6.5,5H32V32Zm38,0c0,2.21,4.7,4,8,4a12.13,12.13,0,0,0,5-1c0,2.21-2.91,5-6.5,5H32V32ZM46,16c0,2.21,4.7,4,8,4a12.13,12.13,0,0,0,5-1c0,2.21-2.91,5-6.5,5H32V16ZM41,0c0,2.21,4.7,4,8,4a12.13,12.13,0,0,0,5-1c0,2.21-2.91,5-6.5,5H32V0ZM23,0c0,2.21-4.7,4-8,4a12.13,12.13,0,0,1-5-1c0,2.21,2.91,5,6.5,5H32V0Z"/>
      <path class="cls-21" d="M24,26h1v4H24Zm3,0h1v4H27Zm9,0h1v4H36Zm-6,0h1v4H30Zm3,0h1v4H33ZM25.5,42h1v4h-1Zm-6,0h1v4h-1Zm3,0h1v4h-1Zm6,0h1v4h-1ZM26,10h2v4H26Zm10,0h2v4H36Zm-5,0h2v4H31Z"/>
      <path class="cls-38" d="M8,40h8v8H8Zm40,0h8v8H48ZM13,24h8v8H13Zm30,0h8v8H43Z"/>
      <path class="cls-21" d="M51,42h2v4H51ZM11,42h2v4H11Z"/>
      <path class="cls-39" d="M32,16,21,24H43Z"/>
      <path class="cls-40" d="M18,8H46v2H18Zm3,16H43v2H21Z"/>
      <path class="cls-21" d="M46,26h2v4H46ZM16,26h2v4H16Z"/>
      <path class="cls-40" d="M16,40H48v2H16Z"/>
      <path class="cls-26" d="M8,40h8v2H8Zm40,0h8v2H48ZM13,24h8v2H13Zm30,0h8v2H43Z"/>
      <path class="cls-38" d="M40.11,24,32,18.1,23.89,24Z"/>
      <path class="cls-21" d="M26.5,24h11L32,20Zm11,18h1v4h-1Zm-6,0h1v4h-1Zm3,0h1v4h-1Zm6,0h1v4h-1Zm3,0h1v4h-1Z"/>
      <path class="cls-39" d="M41,36c-2.66-1.68-3.18-4-9-4s-6.56,2.41-9,4a24.71,24.71,0,0,1-13,4H54A25.14,25.14,0,0,1,41,36Z"/>
      <path class="cls-38" d="M39.11,37c-1.93-1.26-2.88-3-7.11-3s-5.34,1.81-7.11,3A16.26,16.26,0,0,1,16,40H48A16.57,16.57,0,0,1,39.11,37Z"/>
      <path class="cls-21" d="M37.26,38a8,8,0,0,0-10.6,0c-2.79,2-4.31,2-4.68,2H42C41.65,40,40.14,40,37.26,38ZM39,26h1v4H39Z"/>
      <path class="cls-39" d="M37.73,5C36,3.74,35.7,2,32,2s-4.18,1.8-5.73,3A14,14,0,0,1,18,8H46A14.2,14.2,0,0,1,37.73,5Z"/>
      <path class="cls-38" d="M36.52,5.75C35.29,4.8,34.69,3.5,32,3.5s-3.4,1.35-4.52,2.25A9.26,9.26,0,0,1,21.82,8H42.18A9.44,9.44,0,0,1,36.52,5.75Z"/>
      <path class="cls-21" d="M35.34,6.5a4.32,4.32,0,0,0-2-1.27A1.17,1.17,0,0,0,32,6.5a1.19,1.19,0,0,0-1.42-1.26,4.29,4.29,0,0,0-2,1.26C26.82,8,25.86,8,25.62,8H38.38C38.15,8,37.18,8,35.34,6.5Z"/>
      <path class="cls-41" d="M28.5,51.5h-7l-2-3.5h7Zm-11,4H10.79l-1-3H16.5Zm10,4.58h-4L20.5,56h10ZM47,56H41l-2-4.08H49ZM8.12,64H17l2.1-3.92h-8.9ZM43,64H34.91L33,60.08h8.09Zm11-3.92h8L60,56H52Z"/>
      <path class="cls-42" d="M57.14,64H49.26l1.58-4h8.42ZM16,60H5.5L8,56h6Zm20,0H27.5L30,56h8Zm7-8H34.5L37,48h8Z"/>
      <path class="cls-43" d="M53.23,59.5H46.38l-1.61-3h6.86Zm-32.46-3,1.61,3h-6l-1.61-3Zm1,0h7.47l-1.61,3H23.38Zm8.47,0h7l-1.61,3h-7Zm8,0h5.53l1.61,3H36.62Zm16.55-4,1.72,3h-9l1.72-3Zm-6.57,0-1.72,3h-5l-1.72-3Zm-9.43,0,1.72,3h-6l-1.71-3Zm-7,0,1.71,3h-10l1.72-3Zm-7.57,0-1.72,3h-4l-1.72-3Zm-14.43,0h6l1.71,3h-6Zm-1.55,4h5.53l1.61,3H6.62Zm54,4-.5-1H54.23l-1.61-3h7.63l-.5-1H57.5l-1.72-3h2.47l-.5-1H53.5l-2-3.5h-1l2,3.5h-9l2-3.5h-1l-2,3.5h-7l2-3.5h-1l-2,3.5h-5l-2-3.5h-1l2,3.5h-7l-2-3.5h-1l2,3.5h-9l2-3.5h-1l-2,3.5H6.25l-.5,1h3l1.71,3H4.25l-.5,1H7.23l-1.61,3H2.25l-.5,1H9.38L7.5,64h1l1.88-3.5h8L16.5,64h1l1.88-3.5h5.25L26.5,64h1l-1.87-3.5h7L34.5,64h1l-1.87-3.5h7L42.5,64h1l-1.87-3.5h8.75L48.5,64h1l1.88-3.5h7L56.5,64h1l1.88-3.5Z"/>
    </symbol>
  </defs>
  <title>insideout</title>
  <g id="Arrow_6" data-name="Arrow 6">
    <g>
      <polygon class="cls-10" points="471.19 20.53 471.19 42.77 423.77 42.77 423.77 104.56 469.87 104.56 469.87 126.79 523.67 74.32 471.19 20.53"/>
      <path class="cls-44" d="M460.52,57.51a16.35,16.35,0,0,1,3.41-5.43,15.36,15.36,0,0,1,5.29-3.58,17.88,17.88,0,0,1,6.92-1.29,21.81,21.81,0,0,1,8.24,1.36,16,16,0,0,1,5.32,3.37,12.22,12.22,0,0,1,2.89,4.35,12.51,12.51,0,0,1,.87,4.35,14.85,14.85,0,0,1-.87,5.49,13.56,13.56,0,0,1-2.16,3.69,14.38,14.38,0,0,1-2.85,2.61q-1.57,1.08-3,2.16a13.83,13.83,0,0,0-2.47,2.47,7.09,7.09,0,0,0-1.36,3.48v2.64h-9.39V80a13.57,13.57,0,0,1,3.34-8.45,17.49,17.49,0,0,1,2.64-2.47q1.39-1,2.57-2.09a9.37,9.37,0,0,0,1.91-2.3,5.7,5.7,0,0,0,.66-3.13A6.36,6.36,0,0,0,481,56.88a6,6,0,0,0-4.35-1.53,6.72,6.72,0,0,0-3.23.73A6.44,6.44,0,0,0,471.16,58a8.42,8.42,0,0,0-1.29,2.85,14.15,14.15,0,0,0-.42,3.51H459.23A19.87,19.87,0,0,1,460.52,57.51Zm20.83,29.84V98.06H470.43V87.35Z"/>
    </g>
  </g>
  <g>
    <g class="cls-45">
      <g>
        <line class="cls-46" x1="86.58" y1="195.56" x2="87.5" y2="194.95"/>
        <line class="cls-47" x1="89.33" y1="193.72" x2="194.47" y2="122.98"/>
        <line class="cls-46" x1="195.38" y1="122.36" x2="196.3" y2="121.74"/>
      </g>
    </g>
    <g class="cls-45">
      <g>
        <line class="cls-46" x1="361.98" y1="195.56" x2="361.06" y2="194.95"/>
        <line class="cls-47" x1="359.23" y1="193.72" x2="254.09" y2="122.98"/>
        <line class="cls-46" x1="253.18" y1="122.36" x2="252.26" y2="121.74"/>
      </g>
    </g>
    <g class="cls-45">
      <g>
        <line class="cls-46" x1="100.21" y1="287.61" x2="99.81" y2="286.58"/>
        <line class="cls-48" x1="99.02" y1="284.53" x2="78.91" y2="232.23"/>
        <line class="cls-46" x1="78.51" y1="231.2" x2="78.12" y2="230.17"/>
      </g>
    </g>
    <g class="cls-45">
      <g>
        <line class="cls-46" x1="37.25" y1="287.61" x2="37.64" y2="286.58"/>
        <line class="cls-48" x1="38.43" y1="284.53" x2="58.55" y2="232.23"/>
        <line class="cls-46" x1="58.94" y1="231.2" x2="59.34" y2="230.17"/>
      </g>
    </g>
    <g class="cls-45">
      <g>
        <line class="cls-46" x1="408.37" y1="287.61" x2="407.97" y2="286.58"/>
        <line class="cls-48" x1="407.18" y1="284.53" x2="387.07" y2="232.23"/>
        <line class="cls-46" x1="386.68" y1="231.2" x2="386.28" y2="230.17"/>
      </g>
    </g>
    <g class="cls-45">
      <g>
        <line class="cls-46" x1="345.41" y1="287.61" x2="345.81" y2="286.58"/>
        <line class="cls-48" x1="346.6" y1="284.53" x2="366.71" y2="232.23"/>
        <line class="cls-46" x1="367.11" y1="231.2" x2="367.5" y2="230.17"/>
      </g>
    </g>
    <g class="cls-45">
      <g>
        <line class="cls-46" x1="281.72" y1="287.61" x2="281.04" y2="286.73"/>
        <line class="cls-49" x1="279.66" y1="284.94" x2="238.9" y2="231.95"/>
        <line class="cls-46" x1="238.21" y1="231.05" x2="237.54" y2="230.17"/>
      </g>
    </g>
    <g class="cls-45">
      <g>
        <line class="cls-46" x1="226.86" y1="287.61" x2="226.84" y2="286.5"/>
        <line class="cls-50" x1="226.82" y1="284.29" x2="226.15" y2="232.38"/>
        <line class="cls-46" x1="226.14" y1="231.28" x2="226.12" y2="230.17"/>
      </g>
    </g>
    <g class="cls-45">
      <g>
        <line class="cls-46" x1="226.12" y1="193.17" x2="226.12" y2="192.07"/>
        <line class="cls-51" x1="226.12" y1="189.91" x2="226.12" y2="121.9"/>
        <line class="cls-46" x1="226.12" y1="120.82" x2="226.12" y2="119.72"/>
      </g>
    </g>
    <g class="cls-45">
      <g>
        <line class="cls-46" x1="171.26" y1="287.61" x2="171.94" y2="286.73"/>
        <line class="cls-49" x1="173.32" y1="284.94" x2="214.08" y2="231.95"/>
        <line class="cls-46" x1="214.77" y1="231.05" x2="215.45" y2="230.17"/>
      </g>
    </g>
    <g>
      <use width="60" height="56" transform="translate(39.46 185.07) scale(1.1)" xlink:href="#New_Symbol"/>
      <g>
        <path class="cls-52" d="M59.92,224.53l4.71-10.11-4.79-1.82,1.11-2.38a12.46,12.46,0,0,0,2.06.62,6.76,6.76,0,0,0,2,.13,5.06,5.06,0,0,0,1.78-.49,4.11,4.11,0,0,0,1.47-1.23l3.11,1.17L63.4,226Z"/>
        <path class="cls-52" d="M73.49,215.52A7.66,7.66,0,0,1,75.88,214a7.48,7.48,0,0,1,2.88-.5,8.73,8.73,0,0,1,3.16.67A7.12,7.12,0,0,1,84,215.47a4.86,4.86,0,0,1,1.26,1.75,4.12,4.12,0,0,1,.25,2.08,5.32,5.32,0,0,1-.89,2.25,6.8,6.8,0,0,1-1.71,1.85,7.7,7.7,0,0,1-2,1,11.73,11.73,0,0,1-2.19.53l-2.27.32q-1.13.15-2.27.4a9.09,9.09,0,0,0-2.17.78l7.42,3.42-1.64,2.72-11.47-5.32a7,7,0,0,1,1.6-2.18,7.57,7.57,0,0,1,2.07-1.3,12.1,12.1,0,0,1,2.48-.73q1.34-.25,2.81-.47l1.59-.22a10.09,10.09,0,0,0,1.61-.32,6.22,6.22,0,0,0,1.46-.63,3.32,3.32,0,0,0,1.13-1.12A2.18,2.18,0,0,0,80,216.83a2.89,2.89,0,0,0-1.51-.22,3.54,3.54,0,0,0-1.37.49,5,5,0,0,0-1.14,1,7.5,7.5,0,0,0-.86,1.2l-3.41-1.41A8.18,8.18,0,0,1,73.49,215.52Z"/>
      </g>
    </g>
    <g>
      <use width="60" height="56" transform="translate(337.68 187.28) scale(1.1)" xlink:href="#New_Symbol"/>
      <g>
        <path class="cls-52" d="M357.84,226.74l4.9-10.11L358,214.81l1.15-2.38a12.2,12.2,0,0,0,2,.62,6.75,6.75,0,0,0,2,.13,5.13,5.13,0,0,0,1.79-.49,4.26,4.26,0,0,0,1.5-1.23l3.07,1.17-8.31,15.58Z"/>
        <path class="cls-52" d="M379.23,223.38a25,25,0,0,0-3.76,2.58,28.74,28.74,0,0,0-3.17,3.11,23,23,0,0,0-2.33,3.19l-3.3-1.57a24.32,24.32,0,0,1,5.49-6,32,32,0,0,1,7.54-4.25L371.54,217l1.77-2.94L385.21,219l-1.93,2.72A16.66,16.66,0,0,0,379.23,223.38Z"/>
      </g>
    </g>
    <use width="60" height="52.04" transform="translate(13.5 273.22) scale(0.74)" xlink:href="#New_Symbol_1"/>
    <use width="60" height="52.04" transform="translate(203.48 275.98) scale(0.74)" xlink:href="#New_Symbol_1"/>
    <use width="60" height="60" transform="translate(81.6 272.31) scale(0.64)" xlink:href="#New_Symbol_2"/>
    <use width="60" height="60" transform="translate(324.97 272.31) scale(0.64)" xlink:href="#New_Symbol_2"/>
    <use width="60" height="60" transform="translate(257.06 278.4) scale(0.64)" xlink:href="#New_Symbol_4"/>
    <use width="60" height="60" transform="translate(384.08 278.4) scale(0.64)" xlink:href="#New_Symbol_4"/>
    <use width="60" height="60" transform="translate(153.72 275.11) scale(0.64)" xlink:href="#New_Symbol_5"/>
    <g>
      <use width="60" height="56" transform="translate(195.2 187.28) scale(1.1)" xlink:href="#New_Symbol"/>
      <g>
        <path class="cls-52" d="M215.48,226.74l4.82-10.11-4.76-1.82,1.13-2.38a12.4,12.4,0,0,0,2,.62,6.77,6.77,0,0,0,2,.13,5.1,5.1,0,0,0,1.78-.49,4.21,4.21,0,0,0,1.49-1.23l3.09,1.17-8.16,15.58Z"/>
        <path class="cls-52" d="M233.67,218.48l-2.84,3.25,0,.07a5.58,5.58,0,0,1,2.06-.28,5.92,5.92,0,0,1,2,.5,4.78,4.78,0,0,1,1.89,1.38,4,4,0,0,1,.81,1.83,5,5,0,0,1-.17,2.12,8.15,8.15,0,0,1-1,2.21,7.68,7.68,0,0,1-1.88,2,7.84,7.84,0,0,1-2.3,1.21,6.59,6.59,0,0,1-2.44.32,6,6,0,0,1-2.37-.65,8.15,8.15,0,0,1-2-1.31,5.79,5.79,0,0,1-1.36-1.78,4.87,4.87,0,0,1-.52-2.14,5,5,0,0,1,.6-2.38l3.36,1.47a2.71,2.71,0,0,0-.13,2.08,2.55,2.55,0,0,0,1.42,1.45,2.72,2.72,0,0,0,1.27.27,3.39,3.39,0,0,0,1.23-.27,4.14,4.14,0,0,0,1.11-.71,4.59,4.59,0,0,0,.88-1,4.27,4.27,0,0,0,.53-1.22,2.68,2.68,0,0,0,0-1.18,2.32,2.32,0,0,0-.49-1,2.83,2.83,0,0,0-1.05-.75,3.52,3.52,0,0,0-1.65-.34,4.44,4.44,0,0,0-1.62.48l-3.09-1.32,6.76-7.9,9.76,4-1.8,2.6Z"/>
      </g>
    </g>
    <use width="64" height="64" transform="translate(182.31 37.06) scale(1.36)" xlink:href="#New_Symbol_6"/>
  </g>
  <g>
    <g class="cls-45">
      <g>
        <line class="cls-53" x1="570.66" y1="195.56" x2="571.57" y2="194.95"/>
        <line class="cls-54" x1="573.4" y1="193.72" x2="678.54" y2="122.98"/>
        <line class="cls-53" x1="679.46" y1="122.36" x2="680.37" y2="121.74"/>
      </g>
    </g>
    <g class="cls-45">
      <g>
        <line class="cls-53" x1="844.95" y1="195.56" x2="844.03" y2="194.95"/>
        <line class="cls-54" x1="842.2" y1="193.72" x2="737.06" y2="122.98"/>
        <line class="cls-53" x1="736.15" y1="122.36" x2="735.23" y2="121.74"/>
      </g>
    </g>
    <g class="cls-45">
      <g>
        <line class="cls-53" x1="579.86" y1="287.61" x2="579.54" y2="286.55"/>
        <line class="cls-55" x1="578.91" y1="284.5" x2="562.83" y2="232.25"/>
        <line class="cls-53" x1="562.51" y1="231.23" x2="562.19" y2="230.17"/>
      </g>
    </g>
    <g class="cls-45">
      <g>
        <line class="cls-53" x1="521.32" y1="287.61" x2="521.72" y2="286.58"/>
        <line class="cls-56" x1="522.51" y1="284.53" x2="542.62" y2="232.23"/>
        <line class="cls-53" x1="543.02" y1="231.2" x2="543.41" y2="230.17"/>
      </g>
    </g>
    <g class="cls-45">
      <g>
        <line class="cls-53" x1="847.16" y1="287.61" x2="847.16" y2="286.5"/>
        <line class="cls-57" x1="847.16" y1="284.29" x2="847.16" y2="232.38"/>
        <line class="cls-53" x1="847.16" y1="231.28" x2="847.16" y2="230.17"/>
      </g>
    </g>
    <g class="cls-45">
      <g>
        <line class="cls-53" x1="788.62" y1="287.61" x2="788.2" y2="286.59"/>
        <line class="cls-58" x1="787.39" y1="284.6" x2="765.14" y2="229.98"/>
        <line class="cls-53" x1="764.73" y1="228.99" x2="764.32" y2="227.96"/>
      </g>
    </g>
    <g class="cls-45">
      <g>
        <line class="cls-53" x1="724.56" y1="287.61" x2="724.95" y2="286.58"/>
        <line class="cls-56" x1="725.74" y1="284.53" x2="745.85" y2="232.23"/>
        <line class="cls-53" x1="746.25" y1="231.2" x2="746.65" y2="230.17"/>
      </g>
    </g>
    <g class="cls-45">
      <g>
        <line class="cls-53" x1="688.11" y1="287.61" x2="687.71" y2="286.58"/>
        <line class="cls-56" x1="686.92" y1="284.53" x2="666.81" y2="232.23"/>
        <line class="cls-53" x1="666.41" y1="231.2" x2="666.01" y2="230.17"/>
      </g>
    </g>
    <g class="cls-45">
      <g>
        <line class="cls-53" x1="625.15" y1="287.61" x2="625.54" y2="286.58"/>
        <line class="cls-56" x1="626.33" y1="284.53" x2="646.45" y2="232.23"/>
        <line class="cls-53" x1="646.84" y1="231.2" x2="647.24" y2="230.17"/>
      </g>
    </g>
    <g class="cls-45">
      <g>
        <line class="cls-53" x1="660.07" y1="203.19" x2="660.52" y2="202.18"/>
        <line class="cls-59" x1="661.39" y1="200.2" x2="695.89" y2="122.09"/>
        <line class="cls-53" x1="696.32" y1="121.1" x2="696.77" y2="120.09"/>
      </g>
    </g>
    <g class="cls-45">
      <g>
        <line class="cls-53" x1="753.1" y1="203.19" x2="752.65" y2="202.18"/>
        <line class="cls-59" x1="751.78" y1="200.2" x2="717.29" y2="122.09"/>
        <line class="cls-53" x1="716.85" y1="121.1" x2="716.4" y2="120.09"/>
      </g>
    </g>
    <g>
      <use width="60" height="56" transform="translate(496.52 278.4) scale(0.69)" xlink:href="#New_Symbol"/>
      <g>
        <path class="cls-52" d="M509.31,303.06l2.94-6.32-3-1.14.69-1.49a7.78,7.78,0,0,0,1.29.38,4.28,4.28,0,0,0,1.23.08,3.12,3.12,0,0,0,1.11-.31,2.59,2.59,0,0,0,.92-.77l1.94.73-5,9.74Z"/>
        <path class="cls-52" d="M517.79,297.44a4.81,4.81,0,0,1,1.5-.94,4.67,4.67,0,0,1,1.8-.31,5.45,5.45,0,0,1,2,.42,4.43,4.43,0,0,1,1.31.8,3,3,0,0,1,.79,1.09,2.57,2.57,0,0,1,.16,1.3,3.32,3.32,0,0,1-.56,1.41,4.22,4.22,0,0,1-1.06,1.16,4.81,4.81,0,0,1-1.24.65,7.44,7.44,0,0,1-1.37.33l-1.42.2q-.71.09-1.41.25a5.65,5.65,0,0,0-1.35.49l4.64,2.14-1,1.7-7.17-3.32a4.4,4.4,0,0,1,1-1.36,4.73,4.73,0,0,1,1.29-.81,7.51,7.51,0,0,1,1.55-.46q.84-.16,1.76-.3l1-.13a6.27,6.27,0,0,0,1-.2,3.85,3.85,0,0,0,.91-.39,2.06,2.06,0,0,0,.71-.7,1.49,1.49,0,0,0,.25-1.3,1.51,1.51,0,0,0-.92-.88,1.8,1.8,0,0,0-.94-.14,2.2,2.2,0,0,0-.86.31,3.11,3.11,0,0,0-.71.6,4.7,4.7,0,0,0-.54.75l-2.13-.88A5.1,5.1,0,0,1,517.79,297.44Z"/>
      </g>
    </g>
    <g>
      <use width="60" height="56" transform="translate(607.61 278.4) scale(0.69)" xlink:href="#New_Symbol"/>
      <g>
        <path class="cls-52" d="M620.41,303.06l2.94-6.32-3-1.14.69-1.49a7.83,7.83,0,0,0,1.29.38,4.23,4.23,0,0,0,1.23.08,3.14,3.14,0,0,0,1.11-.3,2.57,2.57,0,0,0,.92-.77l1.94.73-5,9.74Z"/>
        <path class="cls-52" d="M628.89,297.44a4.81,4.81,0,0,1,1.5-.94,4.68,4.68,0,0,1,1.8-.31,5.46,5.46,0,0,1,2,.42,4.48,4.48,0,0,1,1.31.8,3.06,3.06,0,0,1,.79,1.09,2.59,2.59,0,0,1,.16,1.3,3.34,3.34,0,0,1-.55,1.41,4.25,4.25,0,0,1-1.07,1.16,4.81,4.81,0,0,1-1.24.65,7.35,7.35,0,0,1-1.37.33l-1.42.2q-.71.09-1.42.25a5.6,5.6,0,0,0-1.36.49l4.64,2.14-1,1.7-7.17-3.32a4.42,4.42,0,0,1,1-1.36,4.73,4.73,0,0,1,1.29-.81,7.55,7.55,0,0,1,1.55-.46l1.76-.3,1-.14a6.25,6.25,0,0,0,1-.2,3.9,3.9,0,0,0,.92-.39,2.07,2.07,0,0,0,.71-.7,1.36,1.36,0,0,0-.67-2.18,1.81,1.81,0,0,0-.94-.14,2.21,2.21,0,0,0-.86.31,3.09,3.09,0,0,0-.71.6,4.69,4.69,0,0,0-.54.75l-2.13-.88A5.14,5.14,0,0,1,628.89,297.44Z"/>
      </g>
    </g>
    <g>
      <use width="60" height="56" transform="translate(663.16 278.4) scale(0.69)" xlink:href="#New_Symbol"/>
      <g>
        <path class="cls-52" d="M675.76,303.06l3.06-6.32-3-1.14.72-1.49a7.67,7.67,0,0,0,1.28.38,4.21,4.21,0,0,0,1.23.08,3.18,3.18,0,0,0,1.12-.31,2.67,2.67,0,0,0,.94-.77l1.92.73L677.87,304Z"/>
        <path class="cls-52" d="M689.13,301a15.65,15.65,0,0,0-2.35,1.61,17.94,17.94,0,0,0-2,1.94,14.49,14.49,0,0,0-1.46,2l-2.06-1a15.23,15.23,0,0,1,3.43-3.73,20.06,20.06,0,0,1,4.72-2.66L684.32,297l1.11-1.84,7.43,3.09-1.21,1.7A10.41,10.41,0,0,0,689.13,301Z"/>
      </g>
    </g>
    <use width="60" height="52.04" transform="translate(528.16 187.11) scale(1.02)" xlink:href="#New_Symbol_1"/>
    <use width="60" height="60" transform="translate(629.47 186.2) scale(0.88)" xlink:href="#New_Symbol_2"/>
    <use width="60" height="60" transform="translate(727.6 192.23) scale(0.89)" xlink:href="#New_Symbol_4"/>
    <use width="60" height="60" transform="translate(823.75 187.44) scale(0.89)" xlink:href="#New_Symbol_5"/>
    <g>
      <use width="60" height="56" transform="translate(552.07 278.4) scale(0.69)" xlink:href="#New_Symbol"/>
      <g>
        <path class="cls-52" d="M564.74,303.06l3-6.32-3-1.14.71-1.49a7.71,7.71,0,0,0,1.28.38,4.21,4.21,0,0,0,1.23.08,3.15,3.15,0,0,0,1.11-.3,2.64,2.64,0,0,0,.93-.77l1.93.73-5.1,9.74Z"/>
        <path class="cls-52" d="M576.12,297.91l-1.78,2v0a3.51,3.51,0,0,1,1.29-.18,3.67,3.67,0,0,1,1.23.31A3,3,0,0,1,578,301a2.47,2.47,0,0,1,.5,1.15,3.08,3.08,0,0,1-.1,1.32,5.07,5.07,0,0,1-.64,1.38,4.8,4.8,0,0,1-1.17,1.26,4.9,4.9,0,0,1-1.44.75,4.1,4.1,0,0,1-1.53.2,3.74,3.74,0,0,1-1.48-.4,5.06,5.06,0,0,1-1.23-.82,3.63,3.63,0,0,1-.85-1.11,3,3,0,0,1-.32-1.34,3.15,3.15,0,0,1,.37-1.49l2.1.92a1.69,1.69,0,0,0-.08,1.3,1.59,1.59,0,0,0,.89.91,1.72,1.72,0,0,0,.79.17,2.14,2.14,0,0,0,.77-.17,2.6,2.6,0,0,0,.69-.44,2.85,2.85,0,0,0,.55-.65,2.66,2.66,0,0,0,.33-.76,1.67,1.67,0,0,0,0-.74,1.45,1.45,0,0,0-.3-.64,1.79,1.79,0,0,0-.66-.47,2.18,2.18,0,0,0-1-.21,2.74,2.74,0,0,0-1,.3l-1.93-.83,4.22-4.94,6.1,2.53-1.13,1.63Z"/>
      </g>
    </g>
    <g>
      <use width="60" height="56" transform="translate(829.8 278.4) scale(0.69)" xlink:href="#New_Symbol"/>
      <g>
        <path class="cls-52" d="M842.4,303.06l3.06-6.32-3-1.14.72-1.49a7.56,7.56,0,0,0,1.28.39,4.2,4.2,0,0,0,1.23.08,3.19,3.19,0,0,0,1.12-.31,2.68,2.68,0,0,0,.94-.77l1.92.73L844.51,304Z"/>
        <path class="cls-52" d="M855.77,301a15.59,15.59,0,0,0-2.35,1.61,17.8,17.8,0,0,0-2,1.94,14.35,14.35,0,0,0-1.46,2l-2.06-1a15.22,15.22,0,0,1,3.43-3.73,20,20,0,0,1,4.72-2.66L851,297l1.11-1.84,7.43,3.09L858.3,300A10.42,10.42,0,0,0,855.77,301Z"/>
      </g>
    </g>
    <g>
      <use width="60" height="56" transform="translate(774.26 278.4) scale(0.69)" xlink:href="#New_Symbol"/>
      <g>
        <path class="cls-52" d="M786.85,303.06l3.06-6.32-3-1.14.72-1.49a7.56,7.56,0,0,0,1.28.39,4.2,4.2,0,0,0,1.23.08,3.19,3.19,0,0,0,1.12-.31,2.68,2.68,0,0,0,.94-.77l1.92.73L789,304Z"/>
        <path class="cls-52" d="M800.23,301a15.59,15.59,0,0,0-2.35,1.61,17.8,17.8,0,0,0-2,1.94,14.35,14.35,0,0,0-1.46,2l-2.06-1a15.22,15.22,0,0,1,3.43-3.73,20,20,0,0,1,4.72-2.66L795.42,297l1.11-1.84,7.43,3.09-1.21,1.7A10.42,10.42,0,0,0,800.23,301Z"/>
      </g>
    </g>
    <g>
      <use width="60" height="56" transform="translate(718.71 278.4) scale(0.69)" xlink:href="#New_Symbol"/>
      <g>
        <path class="cls-52" d="M731.39,303.06l3-6.32-3-1.14.71-1.49a7.73,7.73,0,0,0,1.28.38,4.22,4.22,0,0,0,1.23.08,3.17,3.17,0,0,0,1.11-.31,2.62,2.62,0,0,0,.93-.77l1.93.73-5.1,9.74Z"/>
        <path class="cls-52" d="M742.76,297.91l-1.78,2v0a3.5,3.5,0,0,1,1.29-.18,3.69,3.69,0,0,1,1.23.31,3,3,0,0,1,1.18.86,2.47,2.47,0,0,1,.5,1.15,3.1,3.1,0,0,1-.1,1.32,5.09,5.09,0,0,1-.64,1.38,4.79,4.79,0,0,1-1.17,1.26,5,5,0,0,1-1.44.75,4.11,4.11,0,0,1-1.53.2,3.72,3.72,0,0,1-1.48-.4,5.07,5.07,0,0,1-1.23-.82,3.62,3.62,0,0,1-.85-1.11,3.06,3.06,0,0,1-.32-1.34,3.15,3.15,0,0,1,.37-1.49l2.1.92a1.69,1.69,0,0,0-.08,1.3,1.59,1.59,0,0,0,.89.91,1.7,1.7,0,0,0,.79.17,2.14,2.14,0,0,0,.77-.17,2.6,2.6,0,0,0,.69-.44,2.87,2.87,0,0,0,.55-.65,2.66,2.66,0,0,0,.33-.76,1.67,1.67,0,0,0,0-.74,1.45,1.45,0,0,0-.3-.64,1.78,1.78,0,0,0-.66-.47,2.18,2.18,0,0,0-1-.21,2.76,2.76,0,0,0-1,.3l-1.93-.83,4.22-4.94,6.1,2.53-1.13,1.63Z"/>
      </g>
    </g>
    <use width="64" height="64" transform="translate(666.38 37.06) scale(1.36)" xlink:href="#New_Symbol_6"/>
  </g>
</svg>
