<svg version="1.1" id="Layer_1" xmlns="http://www.w3.org/2000/svg" xmlns:xlink="http://www.w3.org/1999/xlink" x="0px" y="0px"
	 viewBox="0 0 610 435">
<circle fill="red" cx="579.39" cy="397.49" r="6.31"/>
<g id="points">
	<polygon fill="red" points="610.4,66 610.4,66 610.4,66 610.4,66 	"/>
	<polygon fill="red" points="610.4,66 610.4,66 610.4,66 610.4,66 	"/>
	<polygon fill="red" points="610.4,66 610.4,66 610.4,66 610.4,66 	"/>
	<polygon fill="red" points="610.4,66 610.4,66 610.4,66 610.4,66 	"/>
	<line opacity="0.1" fill="none" stroke="#0000FF" enable-background="new    " x1="1" y1="66" x2="610.4" y2="452.52"/>
</g>
<path fill="none" stroke="#0000FF" stroke-width="3" d="M-8-30c232,367,440,566,781,347"/>
<circle fill="red" cx="246.39" cy="309.49" r="6.31"/>
<circle fill="red" cx="116.83" cy="120.18" r="6.31"/>
<circle fill="red" cx="26.97" cy="34.58" r="6.31"/>
<line fill="none" stroke="#0000FF" stroke-width="3" x1="-2.33" y1="61.33" x2="645.67" y2="471.33"/>
</svg>
