<?xml version="1.0" encoding="utf-8"?>
<!-- Generator: Adobe Illustrator 22.0.1, SVG Export Plug-In . SVG Version: 6.00 Build 0)  -->
<svg version="1.1" id="Layer_1" xmlns="http://www.w3.org/2000/svg" xmlns:xlink="http://www.w3.org/1999/xlink" x="0px" y="0px"
	 viewBox="0 0 78.5 76" style="enable-background:new 0 0 78.5 76;" xml:space="preserve">
<style type="text/css">
	.st0{fill:#F7DF1E;}
	.st1{fill:#FFFFFF;}
</style>
<g>
	<path class="st0" d="M23.4,73.5c-4.1-0.9-7.5-2-10.4-3.8C2.5,63.3-0.3,53.6,5.3,43c6.3-11.6,16.2-17.3,30.4-17.3
		c0.9,0,1.9,0,2.9,0.1c0.4,0,0.8,0,1.2,0c3.5,0,6.1-1.2,8.2-3.7c1.1-1.3,2.3-2.6,3.5-3.9c0.9-1,1.9-2,2.8-3c1.8-1.9,2.5-4.1,2.4-6.8
		c-0.1-4.3,1.8-5.3,3.8-5.7c0.5-0.1,1-0.2,1.4-0.2c2.1,0,3.8,1.3,4.9,3.8c1,2.3,2.4,3,4,3.6c2.2,0.8,5.7,2.4,5.1,5.2
		c-0.4,1.9-1.3,3.7-5.6,3.7c-0.3,0-0.6,0-0.9,0c-0.2,0-0.4,0-0.6,0c-2.4,0-4.1,0.8-5.8,2.8l-0.1,0.1C58,28,54.3,33.9,52.9,41.7
		c-2.5,13-8.7,22.9-18.3,29.2C31,72.6,27.4,73.5,23.4,73.5z"/>
	<path d="M61.9,5c0.4,0,1.6,0,2.6,2.3c1.3,3,3.4,4.2,5.4,4.9l0.1,0l0.1,0c2.4,0.8,3.5,1.8,3.4,2.3c-0.2,0.8-0.3,1.7-3.2,1.7
		c-0.2,0-0.5,0-0.8,0c-0.2,0-0.4,0-0.7,0c-4.1,0-6.3,2.1-7.7,3.7L61.2,20L61.1,20c-5.3,6.7-9.2,12.9-10.7,21.2
		c-2.4,12.3-8.1,21.6-17.1,27.5c-3.1,1.5-6.3,2.3-9.7,2.3c-3.7-0.9-6.8-1.8-9.4-3.4l0,0l0,0c-9.3-5.7-11.7-14-6.7-23.4
		c5.8-10.7,15-16,28.2-16c0.9,0,1.8,0,2.7,0.1c0.5,0,0.9,0,1.4,0c4.3,0,7.5-1.5,10.2-4.6c1.1-1.3,2.2-2.5,3.4-3.8c0.9-1,1.8-2,2.8-3
		c2.2-2.4,3.2-5.2,3.1-8.5c-0.1-2.8,0.8-3,1.8-3.3C61.4,5,61.6,5,61.9,5 M61.9,0c-0.6,0-1.3,0.1-2,0.2c-4.4,1-5.8,4.3-5.7,8.3
		c0.1,2.1-0.5,3.6-1.8,5c-2.1,2.4-4.3,4.6-6.3,7c-1.8,2.1-3.7,2.8-6.3,2.8c-0.3,0-0.7,0-1.1,0c-1-0.1-2-0.1-3-0.1
		c-14,0-25.5,5.4-32.6,18.6c-6.3,11.8-2.9,23,8.5,30c3.5,2.2,7.5,3.3,11.5,4.2c4.5,0,8.7-1,12.7-3C47,65.7,52.9,54.6,55.3,42.1
		c1.4-7.6,5.2-13.3,9.7-19c1.1-1.3,2.1-1.9,3.9-1.9c0.1,0,0.3,0,0.4,0c0.3,0,0.7,0,1,0c4.7,0,7.3-2,8.1-5.7c0.7-3.4-1.7-6.3-6.7-8
		c-1.3-0.5-2-0.9-2.6-2.3C67.6,1.8,65,0,61.9,0L61.9,0z"/>
</g>
<g>
	<path class="st1" d="M51.8,33.9c0,0-3.6-3.3-6.8-5.4l-2.1-1.3l3.2-3.2c3.1-3.1,6.3-6.3,9-9.9c1.5-2,2.2-3.1,1.8-4.8
		c-0.5-1.9-0.2-3.7,0.8-4.9c0.6-0.8,1.7-1.7,3.8-1.7l0.3,0c1.8,0.1,3.2,0.7,4,1.7c0.9,1.1,1.2,2.6,1,4.5c-0.1,0.6,0,1,0.2,1.2
		c0,0,0.1,0.2,0.5,0.2c0.2,0,0.4,0,0.6-0.1c0.6-0.1,1.2-0.2,1.8-0.2c0.8,0,1.6,0.1,2.2,0.3c2.6,0.8,3.9,2.6,3.6,4.9
		c-0.3,2.3-2.1,4-4.1,4c-0.5,0-0.9-0.1-1.4-0.3c-1-0.4-1.8-0.6-2.6-0.6c-2.2,0-3.5,1.7-5.3,4.4c-0.7,1-1.4,2.1-2.3,3
		c-0.4,0.5-3,4.4-5.3,7.8l-1.3,1.9L51.8,33.9z"/>
	<path d="M61.4,4.6c0.1,0,0.1,0,0.2,0c2.1,0.1,3.5,1,3.1,3.9c-0.3,1.7,0.5,3.6,2.7,3.6c0.3,0,0.7,0,1.1-0.1c0.4-0.1,0.8-0.1,1.3-0.1
		c0.5,0,1.1,0.1,1.6,0.2c1.3,0.4,2.5,1.2,2.3,2.7c-0.2,1.3-1.1,2.2-2.1,2.2c-0.2,0-0.4,0-0.6-0.1c-1.3-0.5-2.4-0.7-3.4-0.7
		c-4.7,0-6.3,5-9.1,8.1c-0.3,0.3-5.4,8-5.4,8S49.4,29,46,26.8c3.7-3.7,7.5-7.3,10.7-11.6c1.5-1.9,2.8-3.7,2.1-6.5
		C58.3,6.8,58.8,4.6,61.4,4.6 M61.4,0.6c-2.2,0-4.1,0.9-5.4,2.5c-1.4,1.7-1.7,4.1-1.1,6.6c0.2,0.8,0.1,1.2-1.4,3.1l0,0l0,0
		c-2.6,3.5-5.6,6.5-8.8,9.7c-0.5,0.5-1,1-1.5,1.5l-3.5,3.5l4.1,2.7c3.1,2,6.6,5.1,6.6,5.2l3.4,3.1l2.6-3.9c2.2-3.3,4.6-7,5.2-7.7
		c0.9-1,1.6-2.1,2.4-3.2c1.8-2.6,2.6-3.5,3.7-3.5c0.5,0,1.2,0.2,1.9,0.4c0.7,0.3,1.4,0.4,2.1,0.4c3,0,5.6-2.4,6.1-5.7
		c0.3-2.5-0.8-5.7-5-7c-0.9-0.3-1.8-0.4-2.8-0.4c-0.3,0-0.7,0-1,0.1c0.1-1.9-0.4-3.6-1.5-4.9c-1.2-1.5-3.1-2.3-5.5-2.4
		C61.7,0.6,61.6,0.6,61.4,0.6L61.4,0.6z"/>
</g>
<path d="M32.4,56.2c0.8,1.2,1.8,2.2,3.5,2.2c1.5,0,2.4-0.7,2.4-1.8c0-1.2-1-1.7-2.6-2.4l-0.9-0.4c-2.6-1.1-4.3-2.5-4.3-5.4
	c0-2.7,2-4.7,5.2-4.7c2.3,0,3.9,0.8,5.1,2.9l-2.8,1.8c-0.6-1.1-1.3-1.5-2.3-1.5c-1,0-1.7,0.7-1.7,1.5c0,1.1,0.7,1.5,2.2,2.2l0.9,0.4
	c3,1.3,4.7,2.6,4.7,5.6c0,3.2-2.5,5-5.9,5c-3.3,0-5.4-1.6-6.5-3.6L32.4,56.2z M19.8,56.5c0.6,1,1.1,1.8,2.3,1.8
	c1.2,0,1.9-0.5,1.9-2.2V44h3.6v12.2c0,3.7-2.2,5.4-5.3,5.4c-2.9,0-4.5-1.5-5.3-3.3L19.8,56.5z"/>
</svg>
