<?xml version="1.0" encoding="UTF-8" standalone="no"?>
<!DOCTYPE svg PUBLIC "-//W3C//DTD SVG 1.1//EN"
"http://www.w3.org/Graphics/SVG/1.1/DTD/svg11.dtd">


<!-- Page 1 -->
<svg x="0" y="0" width="643" height="572" viewBox="0 0 643 572" version="1.1" xmlns="http://www.w3.org/2000/svg" xmlns:xlink="http://www.w3.org/1999/xlink"
style="display: block;margin-left: auto;margin-right: auto;">
<defs>

<style type="text/css"><![CDATA[
:root {
	font-family: Consolas;
	font-weight: bold;
}

.g1_1{
fill: #FFFFFF;
}
.g2_1{
fill: #94B6D2;
}
.g3_1{
fill: none;
stroke: #DD8047;
stroke-width: 0.39265656;
stroke-linecap: butt;
stroke-linejoin: round;
}
.g4_1{
fill: #DD8047;
}
.g5_1{
fill: none;
stroke: #A5AB81;
stroke-width: 0.96416146;
stroke-linecap: butt;
stroke-linejoin: round;
}
.g6_1{
fill: #A5AB81;
}
.g7_1{
fill: none;
stroke: #A5AB81;
stroke-width: 1.8608688;
stroke-linecap: butt;
stroke-linejoin: round;
}
.g8_1{
fill: none;
stroke: #DD8047;
stroke-width: 3.0555556;
stroke-linecap: butt;
stroke-linejoin: round;
}

.s1_1{
font-size: 24.44px;
fill: #FFFFFF;
}
.s2_1{
font-size: 21.39px;
fill: #FFFFFF;
}

]]></style>

</defs>

<path d="M1.5,262.6c0,-3.3,2.7,-5.9,6,-5.9l119.5,0c3.2,0,5.9,2.6,5.9,5.9l0,47.7c0,3.3,-2.7,6,-5.9,6l-119.5,0c-3.3,0,-6,-2.7,-6,-6Z" class="g2_1" />
<text x="26" y="293" dx="0,0.3,0.3,0.3,0.3,0.3" class="s1_1">border</text>

<path d="M133.5,286.4L162.2,120.8" class="g3_1" />
<path d="M161.9,98.8c0,-3.1,2.6,-5.6,5.7,-5.6l190.4,0c3.1,0,5.6,2.5,5.6,5.6l0,45.3c0,3.1,-2.5,5.6,-5.6,5.6l-190.4,0c-3.1,0,-5.7,-2.5,-5.7,-5.6Z" class="g4_1" />
<text x="181" y="128" dx="0,0.3,0.3,0.3,0.3,0.3,0.3,-1.2,0.3,0.3,0.3,0.3" class="s1_1">border-width</text>

<path d="M364.1,120.8l28.8,-62" class="g5_1" />
<path d="M392.6,44.8c0,-2,1.6,-3.5,3.6,-3.5l243.5,0c1.9,0,3.5,1.5,3.5,3.5l0,28.1c0,1.9,-1.6,3.5,-3.5,3.5l-243.5,0c-2,0,-3.6,-1.6,-3.6,-3.5Z" class="g6_1" />
<text x="424" y="64" dx="0,0.5,0.5,0.5,-1.1,0.5,0.5,0.5,-1.1,0.4,0.5,-1.1,0.5,0.5,-1.1,0.5" class="s2_1">border-top-width</text>

<path d="M364.1,120.8l28.8,-20.6" class="g7_1" />
<path d="M392.6,86c0,-1.9,1.6,-3.5,3.6,-3.5l243.5,0c1.9,0,3.5,1.6,3.5,3.5l0,28.1c0,2,-1.6,3.5,-3.5,3.5l-243.5,0c-2,0,-3.6,-1.5,-3.6,-3.5Z" class="g6_1" />
<text x="411" y="105" dx="0,0.5,0.5,0.5,-1.1,0.5,0.5,0.5,-1.1,0.4,0.4,-1.1,0.5,0.5,-1.1,0.4,0.4,0.4" class="s2_1">border-right-width</text>

<path d="M364.1,120.8l28.8,20.7" class="g7_1" />
<path d="M392.6,127.3c0,-2,1.6,-3.5,3.6,-3.5l243.5,0c1.9,0,3.5,1.5,3.5,3.5l0,28.1c0,1.9,-1.6,3.5,-3.5,3.5l-243.5,0c-2,0,-3.6,-1.6,-3.6,-3.5Z" class="g6_1" />
<text x="405" y="146" dx="0,0.5,0.5,0.5,-1.1,0.5,0.5,0.5,-1.1,0.4,0.4,-1.1,0.4,0.5,-1.1,0.5,0.5,0.5,-1.1" class="s2_1">border-bottom-width</text>

<path d="M364.1,120.8l28.8,62.1" class="g5_1" />
<path d="M392.6,168.7c0,-2.1,1.7,-3.7,3.7,-3.7l243.2,0c2.1,0,3.7,1.6,3.7,3.7l0,29.3c0,2,-1.6,3.7,-3.7,3.7l-243.2,0c-2,0,-3.7,-1.7,-3.7,-3.7Z" class="g6_1" />
<text x="417" y="187" dx="0,0.5,0.5,0.5,-1.1,0.5,0.5,0.5,-1.1,0.4,0.4,-1.1,0.5,0.5,-1.1,0.5,0.5" class="s2_1">border-left-width</text>

<path d="M132.9,286.4l28.8,0" class="g8_1" />
<path d="M161.9,263.8c0,-3.1,2.6,-5.6,5.7,-5.6l190.4,0c3.1,0,5.6,2.5,5.6,5.6l0,45.3c0,3.1,-2.5,5.6,-5.6,5.6l-190.4,0c-3.1,0,-5.7,-2.5,-5.7,-5.6Z" class="g4_1" />
<text x="181" y="293" dx="0,0.3,0.3,0.3,0.3,0.3,0.3,-1.2,0.3,0.3,0.3,0.3" class="s1_1">border-style</text>

<path d="M364.1,286.4l28.8,-62.1" class="g5_1" />
<path d="M392.6,209.9c0,-2,1.7,-3.6,3.7,-3.6l243.2,0c2.1,0,3.7,1.6,3.7,3.6l0,29.4c0,2,-1.6,3.6,-3.7,3.6l-243.2,0c-2,0,-3.7,-1.6,-3.7,-3.6Z" class="g6_1" />
<text x="424" y="229" dx="0,0.5,0.5,0.5,-1.1,0.5,0.5,0.5,-1.1,0.4,0.5,-1.1,0.5,0.5,-1.1,0.5" class="s2_1">border-top-style</text>

<path d="M364.1,286.4l28.8,-20.7" class="g7_1" />
<path d="M392.6,251.2c0,-2.1,1.7,-3.7,3.7,-3.7l243.2,0c2.1,0,3.7,1.6,3.7,3.7l0,29.3c0,2,-1.6,3.7,-3.7,3.7l-243.2,0c-2,0,-3.7,-1.7,-3.7,-3.7Z" class="g6_1" />
<text x="411" y="271" dx="0,0.5,0.5,0.5,-1.1,0.5,0.5,0.5,-1.1,0.4,0.4,-1.1,0.5,0.5,-1.1,0.4,0.4,0.4" class="s2_1">border-right-style</text>

<path d="M364.1,286.4l28.8,20.7" class="g7_1" />
<path d="M392.6,292.4c0,-2,1.7,-3.6,3.7,-3.6l243.2,0c2.1,0,3.7,1.6,3.7,3.6l0,29.4c0,2,-1.6,3.6,-3.7,3.6l-243.2,0c-2,0,-3.7,-1.6,-3.7,-3.6Z" class="g6_1" />
<text x="405" y="313" dx="0,0.5,0.5,0.5,-1.1,0.5,0.5,0.5,-1.1,0.4,0.4,-1.1,0.4,0.5,-1.1,0.5,0.5,0.5,-1.1" class="s2_1">border-bottom-style</text>

<path d="M364.1,286.4l28.8,62" class="g5_1" />
<path d="M392.6,333.7c0,-2.1,1.7,-3.7,3.7,-3.7l243.2,0c2.1,0,3.7,1.6,3.7,3.7l0,29.3c0,2,-1.6,3.7,-3.7,3.7l-243.2,0c-2,0,-3.7,-1.7,-3.7,-3.7Z" class="g6_1" />
<text x="417" y="354" dx="0,0.5,0.5,0.5,-1.1,0.5,0.5,0.5,-1.1,0.4,0.4,-1.1,0.5,0.5,-1.1,0.5,0.5" class="s2_1">border-left-style</text>

<path d="M133.5,286.4l28.7,165.5" class="g3_1" />
<path d="M161.9,428.8c0,-3.1,2.6,-5.6,5.7,-5.6l190.4,0c3.1,0,5.6,2.5,5.6,5.6l0,45.3c0,3.1,-2.5,5.6,-5.6,5.6l-190.4,0c-3.1,0,-5.7,-2.5,-5.7,-5.6Z" class="g4_1" />
<text x="181" y="458" dx="0,0.3,0.3,0.3,0.3,0.3,0.3,-1.2,0.3,0.3,0.3,0.3" class="s1_1">border-color</text>

<path d="M364.1,451.9l28.8,-62.1" class="g5_1" />
<path d="M392.6,374.9c0,-2,1.7,-3.6,3.7,-3.6l243.2,0c2.1,0,3.7,1.6,3.7,3.6l0,29.4c0,2,-1.6,3.6,-3.7,3.6l-243.2,0c-2,0,-3.7,-1.6,-3.7,-3.6Z" class="g6_1" />
<text x="424" y="395" dx="0,0.5,0.5,0.5,-1.1,0.5,0.5,0.5,-1.1,0.4,0.5,-1.1,0.5,0.5,-1.1,0.5" class="s2_1">border-top-color</text>

<path d="M364.1,451.9l28.8,-20.7" class="g7_1" />
<path d="M392.6,416.2c0,-2.1,1.7,-3.7,3.7,-3.7l243.2,0c2.1,0,3.7,1.6,3.7,3.7l0,29.3c0,2,-1.6,3.7,-3.7,3.7l-243.2,0c-2,0,-3.7,-1.7,-3.7,-3.7Z" class="g6_1" />
<text x="411" y="436" dx="0,0.5,0.5,0.5,-1.1,0.5,0.5,0.5,-1.1,0.4,0.4,-1.1,0.5,0.5,-1.1,0.4,0.4,0.4" class="s2_1">border-right-color</text>

<path d="M364.1,451.9l28.8,20.7" class="g7_1" />
<path d="M392.6,458.8c0,-1.9,1.6,-3.5,3.6,-3.5l243.5,0c1.9,0,3.5,1.6,3.5,3.5l0,28.1c0,1.9,-1.6,3.5,-3.5,3.5l-243.5,0c-2,0,-3.6,-1.6,-3.6,-3.5Z" class="g6_1" />
<text x="405" y="478" dx="0,0.5,0.5,0.5,-1.1,0.5,0.5,0.5,-1.1,0.4,0.4,-1.1,0.4,0.5,-1.1,0.5,0.5,0.5,-1.1" class="s2_1">border-bottom-color</text>

<path d="M364.1,451.9l28.8,62" class="g5_1" />
<path d="M392.6,500c0,-1.9,1.6,-3.5,3.6,-3.5l243.5,0c1.9,0,3.5,1.6,3.5,3.5l0,28.2c0,1.9,-1.6,3.5,-3.5,3.5l-243.5,0c-2,0,-3.6,-1.6,-3.6,-3.5Z" class="g6_1" />
<text x="417" y="519" dx="0,0.5,0.5,0.5,-1.1,0.5,0.5,0.5,-1.1,0.4,0.4,-1.1,0.5,0.5,-1.1,0.5,0.5" class="s2_1">border-left-color</text>

</svg>
