<svg xmlns="http://www.w3.org/2000/svg" viewBox="0 90 370 200">
  <path d="M2123 1417a717 717 0 1 0-1434 0 717 717 0 0 0 1434 0" style="fill:#ed1c24;fill-opacity:1;fill-rule:nonzero;stroke:none" transform="matrix(.133 0 0 -.133 0 378)"/>
  <path d="M1846 1511h-9l-10 2c-1 19 3 50 25 102l-11-48a21 21 0 0 1 17-25l-1-5c-2-8 1-16 7-20l3-2c-7-3-14-4-21-4zm-663-70-2 3c-5 4-12 6-19 5l-69-15 122 151-32-144zm-629 23a60 60 0 0 1-17 17c17 18 30 35 42 51zm1986 113c1 3 91 302 187 446a21 21 0 0 1-12 31l-3 1a20 20 0 0 1-13 29l-167 41c-11 3-22-4-25-14l-102-380c22 163 53 308 54 310 1 7-1 14-7 19-3 3-7 5-11 5l2 6a21 21 0 0 1-27 24l-219-69c-7-2-11-7-14-13l-88-248c-5 3-12 4-18 2l-161-49c22 27 45 49 65 54h3c6 0 8-2 9-7a21 21 0 0 1 35-7l87 99c3 4 5 9 5 15-1 19-8 47-24 69-12 32-38 66-88 66-10 0-21-2-33-5a396 396 0 0 1-185-119l9 31c2 8 0 16-5 21-4 3-8 5-12 5l1 5a21 21 0 0 1-26 25l-124-46c-6-2-11-7-13-14l-15-61 2 48c0 7-3 13-9 18l-8 3 1 9a21 21 0 0 1-27 21l-118-40c-1 3-2 6-5 8-6 5-14 7-21 4l-131-51-7-4c-5 5-12 7-19 5l-299-70c-9-2-15-10-16-19l-5-145a21 21 0 0 1 16-21v-9a21 21 0 0 1 25-21l7 2-105-127 37 319a21 21 0 0 1-17 23l1 7a21 21 0 0 1-26 22l-207-59c-7-1-12-6-14-13l-27-76c0 13-1 21-2 24-1 13-6 26-17 38-7 29-31 59-105 59-104 0-255-58-261-61-7-3-12-9-13-16-38-243-116-599-117-602-1-6 0-13 4-18 4-4 8-6 14-7l-2-6a21 21 0 0 1 20-25h17c140 0 233 49 294 108 4-3 7-4 12-5l-1-3a21 21 0 0 1 23-27l147 28c8 1 14 7 16 15l4 18 5-5c2-2 5-3 7-3v-11a21 21 0 0 1 27-19l129 44h1c2-3 6-4 9-5v-9a21 21 0 0 1 24-21l299 58 10 5a20 20 0 0 1 16 0l83 35c1-6 5-10 10-13 2-2 5-3 7-3l-1-5a21 21 0 0 1 34-20c21 18 89 48 114 58 7 2 11 8 13 15 5 32 12 65 19 94l21-61c2-5 5-9 9-11l7-19a21 21 0 0 1 31-10c8 5 65 31 115 54 6 3 11 9 12 16l6 38c4-9 8-18 14-26 6-14 13-28 23-39 19-24 45-37 77-40h3c15 0 96 4 180 96l3-6c4-4 8-6 13-6l-1-3a21 21 0 0 1 24-27l138 34c7 2 12 7 15 14l2 8 4-4c3-3 6-4 10-5l-1-5a21 21 0 0 1 29-23l124 60 1-1 3-4c2-10 6-19 13-27 13-15 33-24 56-24 29 0 61 13 88 35 23 19 40 43 47 68 9 28 5 54-10 72l-3 3-2 8c8 0 15 6 17 14" style="fill:#231f20;fill-opacity:1;fill-rule:nonzero;stroke:none" transform="matrix(.133 0 0 -.133 0 378)"/>
  <path d="m104 945 579 190-64-75 406 133-78-92 376 123-55-89 515 169-81-80 549 151-45-74 458 90-975-405 122 115-475-125 163 115-538-176 138 132-480-169 129 128-461-128 114 105-297-38" style="fill:#231f20;fill-opacity:1;fill-rule:nonzero;stroke:none" transform="matrix(.133 0 0 -.133 0 378)"/>
  <path d="M439 1377c-9-52-134-95-134-95l18 95c122 32 116 0 116 0zm-62 227c175 45-30-120-30-120Zm69-129c168 132 145 259 145 259-14 116-340-10-340-10-38-246-117-604-117-604a373 373 0 0 1 406 305c3 66-94 50-94 50M705 1415l-39-11 78 288zm-30 338-200-560 147 27 16 74 40 7 1-86 140 48 63 549-207-59M1243 1707l21 143-299-70-6-145 117 27-224-271-8-167 299 58 19 147-175-38 256 316M1636 1905l-76-299c-6 34 6 322 6 322l-126-42c-49-167-148-610-148-610 28 25 120 62 120 62 15 85 41 183 41 183 9-44 55-177 55-177 14 9 118 56 118 56 21 158 133 550 133 550l-123-45M1292 1850l-127-564 117 49c3 77 141 566 141 566l-131-51" style="fill:#fff200;fill-opacity:1;fill-rule:nonzero;stroke:none" transform="matrix(.133 0 0 -.133 0 378)"/>
  <path d="m1886 1688-29-126s78 33 107 42c0 0-49-122-130-114 0 0-92-6-20 165 0 0 74 152 142 167 0 0 29 7 37-21l86 100s-6 107-103 81c0 0-278-69-304-445 0 0-19-176 96-187 0 0 212-12 311 398l-193-60M2501 1613s90 303 189 451l-167 41-132-492h110M2377 1556c-42-35-57-84-35-111 23-27 74-21 116 13 41 35 56 84 34 111-23 27-74 21-115-13M2218 1628h-44l93 307c-8-27-49-307-49-307zm128-68c10 227 72 515 72 515l-219-69-214-602 137 34 25 77 54 11-24-104 132 63c-1 22 5 50 37 75" style="fill:#fff200;fill-opacity:1;fill-rule:nonzero;stroke:none" transform="matrix(.133 0 0 -.133 0 378)"/>
</svg>