<svg version="1.1" xmlns="http://www.w3.org/2000/svg" viewBox="0 0 743.6185269778618 413.1770812748093" width="1487.2370539557237" height="826.3541625496186">
	<!-- svg-source:excalidraw -->

	<defs>
		<style>
			@font-face {
				font-family: "Virgil";
				src: url("https://excalidraw.com/FG_Virgil.woff2");
			}
			@font-face {
				font-family: "Cascadia";
				src: url("https://excalidraw.com/Cascadia.woff2");
			}
		</style>
	</defs>
	<g>
		<g transform="translate(52.554340180896816 13.45386698909499) rotate(359.7521051975352 0.14026968288959552 191.76810899754523)">
			<path
				d="M-1.0421271577477456 -0.5200316414237022 C-1.3390260472893716 63.193072336415455, -0.8817951455712318 318.66353333940106, -0.8473631635308265 382.4491394534707 M0.6116173550952224 1.8213478014897557 C0.6108252597320823 65.73551356902036, 1.2516435340512546 320.4520373964341, 1.4197257119882853 384.0562496365141"
				stroke="#fff"
				stroke-width="2"
				fill="none"></path>
		</g>
	</g>
	<g>
		<g transform="translate(37.960590180896816 378.281991989095) rotate(0 347.6592758590588 -3.5152400031685715)">
			<path
				d="M-0.3393850788474083 -0.05714104324579239 C115.29066174974044 -1.339725154141585, 577.6869279081623 -5.868179473777612, 693.2900139823556 -6.973338963091374 M1.6832990254182367 -1.132744036288932 C117.75088430645255 -2.2666901040791227, 580.5778719722448 -4.107262143663442, 695.657936796965 -5.39115494874306"
				stroke="#fff"
				stroke-width="2"
				fill="none"></path>
		</g>
	</g>
	<g transform="translate(565.2345857166113 378.1770812748093) rotate(0 83 12.5)">
		<text x="0" y="18" font-family="Virgil, Segoe UI Emoji" font-size="20px" fill="#fff" text-anchor="start" style="white-space: pre;" direction="ltr">Expressive Power</text>
	</g>
	<g transform="translate(-38.5 67.91515180819852) rotate(270 61.5 13)">
		<text x="0" y="18" font-family="Virgil, Segoe UI Emoji" font-size="20.364176432291664px" fill="#fff" text-anchor="start" style="white-space: pre;" direction="ltr">Ease of use</text>
	</g>
	<g>
		<g transform="translate(70.26470853984688 21.708052256952158) rotate(0 325.6733687935865 136.8949706351011)">
			<path
				d="M-0.9491493981331587 -0.3905972857028246 C44.71762524726089 27.4386667874421, 165.52381036899743 120.21393618315255, 274.39798309957064 165.9443369165601 C383.27215583014384 211.67473764996765, 589.0310814136883 256.17389256951964, 652.2958869853062 273.99180711474247 M0.7534084385074675 -1.641264806035906 C46.21675687361729 26.421402636893372, 164.96787351021305 120.93582580102404, 273.38610910139437 167.1145709480697 C381.8043446925757 213.2933160951154, 588.2948256885317 257.7037835393437, 651.2628219855953 275.4312060762381"
				stroke="#5c940d"
				stroke-width="4"
				fill="none"></path>
		</g>
	</g>
	<g>
		<g transform="translate(66.62553405507833 21.4758559353823) rotate(0 326.45278138860937 161.92639964500634)">
			<path
				d="M-0.3007898233830929 0.5744354747235776 C24.34952244884511 47.12917642306013, 38.07817867890476 225.31996449032852, 146.99603574956893 279.2279567672743 C255.91389282023312 333.13594904422007, 568.8379502343788 316.5734831532862, 653.2063526006019 324.0223891363983 M1.7421567900013177 -0.1695898463856429 C26.834003621658212 46.03986928433588, 40.69052151094668 223.67080998509243, 149.1697604863917 277.4147279391589 C257.64899946183675 331.1586458932254, 568.5408279838349 314.8753271483377, 652.6175906426715 322.29391787801325"
				stroke="#e67700"
				stroke-width="2"
				fill="none"></path>
		</g>
	</g>
	<g>
		<g transform="translate(84.52731976936411 20.00543182823958) rotate(0 65.98495022478767 11.3871253821994)">
			<path
				d="M-0.49457366243004797 -0.7652591608464718 C21.571873914112874 2.813806215957584, 110.58934657330428 17.98893033780546, 132.4644741120054 21.958449053232563 M1.4466364354547112 1.4473758343700318 C23.43462280931657 5.195726593504505, 110.05851019756672 20.22623710991272, 132.0283282078574 23.539509925245312"
				stroke="#c92a2a"
				stroke-width="2"
				fill="none"></path>
		</g>
	</g>
	<g>
		<g transform="translate(513.041742811582 313.42062410276435) rotate(0 102.79584518239562 8.857437809359567)">
			<path
				d="M0.8494808770716189 -1.1085828758776188 C35.21249847765766 2.0108590927233534, 171.83495645801236 14.267405114824692, 205.75537075659645 17.682856147146367 M-0.16368039180524652 0.9238071689475329 C34.11295508882716 4.27193685576111, 170.52996437227054 16.05443427081108, 205.01522451148753 18.8234584945967"
				stroke="#c92a2a"
				stroke-width="2"
				fill="none"></path>
		</g>
	</g>
	<g>
		<g transform="translate(215.99938866834793 42.80305709597633) rotate(0 -0.3661336518824214 160.02292059239556)">
			<path d="M0.4202162526547908 -0.5412681005895138 C0.28272576555609696 52.80890602776345, -0.9258702971041203 267.28227283402964, -1.152483556419611 320.5871092853806" stroke="#c92a2a" stroke-width="2.5" fill="none" stroke-dasharray="12 8"></path>
		</g>
	</g>
	<g>
		<g transform="translate(507.17051362730604 322.1070609307851) rotate(358.6280958491557 -0.8525107126193916 19.96794717194092)">
			<path d="M-0.7134363390505314 -0.6855223082005978 C-1.0202223319397186 5.885333611671956, -0.9500708523322221 33.917480440461794, -0.9915850861882063 40.621416652082395" stroke="#c92a2a" stroke-width="2.5" fill="none" stroke-dasharray="12 8"></path>
		</g>
	</g>
	<g>
		<g transform="translate(78.12051173364989 11.187909506810826) rotate(0 319.6438161347795 131.52294123748496)">
			<path
				d="M-0.8246461294591427 -0.09331512227654448 C55.05406965199988 11.749857556784532, 228.91394630907303 26.75053499056623, 335.73676706381923 70.80505284124244 C442.55958781856543 114.85957069191866, 589.4225084238617 232.2271415819323, 640.112278399018 264.23379198178077 M0.9432759232353418 -1.1879095068108292 C56.657080684594256 10.315411919515586, 228.54823120945338 24.996961247954893, 334.9912312093735 68.9438228894603 C441.4342312092936 112.8906845309657, 588.7243788321713 230.01362109577303, 639.6012759227561 262.49326034222156"
				stroke="#5c940d"
				stroke-width="4"
				fill="none"></path>
		</g>
	</g>
</svg>
