<?xml version="1.0" encoding="utf-8"?>
<svg version="1.1" id="Layer_1" xmlns="http://www.w3.org/2000/svg" xmlns:xlink="http://www.w3.org/1999/xlink" x="0px" y="0px"
	 width="100%" height="100%" viewBox="0 0 1024 1024" enable-background="new 0 0 1024 1024" xml:space="preserve">
<radialGradient id="SVGID_1_" cx="512.0005" cy="512.0005" r="512" gradientUnits="userSpaceOnUse">
	<stop  offset="0" style="stop-color:#FFFFFF"/>
	<stop  offset="1" style="stop-color:#FFFFFF;stop-opacity:0"/>
</radialGradient>
<path fill="url(#SVGID_1_)" d="M1024,561.5v-99L550.82,508.247c-0.419-4.39-1.571-8.564-3.324-12.407l432.659-196.972
	l-49.499-85.736L543.738,489.343c-2.506-3.504-5.576-6.575-9.081-9.081L810.868,93.345l-85.735-49.5L528.161,476.504
	c-3.844-1.753-8.018-2.905-12.408-3.324L561.5,0H462.5l45.747,473.181c-4.391,0.419-8.564,1.571-12.408,3.324L298.868,43.845
	l-85.735,49.5l276.211,386.918c-3.505,2.506-6.575,5.577-9.082,9.082L93.345,213.132l-49.5,85.736L476.504,495.84
	c-1.752,3.843-2.904,8.017-3.323,12.407L0.001,462.5L0,561.5l473.181-45.747c0.419,4.39,1.571,8.562,3.323,12.406L43.846,725.131
	l49.499,85.737l386.917-276.212c2.506,3.505,5.576,6.574,9.081,9.081L213.132,930.655l85.736,49.501l196.972-432.659
	c3.843,1.752,8.016,2.904,12.406,3.323L462.5,1024l99,0.001L515.753,550.82c4.39-0.419,8.562-1.571,12.406-3.323l196.972,432.658
	l85.737-49.499L534.657,543.738c3.505-2.506,6.574-5.576,9.081-9.08l386.917,276.211l49.501-85.736l-432.66-196.972
	c1.753-3.844,2.905-8.018,3.324-12.408L1024,561.5z"/>
</svg>
