<svg version="1.1" xmlns="http://www.w3.org/2000/svg" viewBox="0 0 932.2566478177904 616.0069623693826" width="1864.5132956355808" height="1232.0139247387651">
  <!-- svg-source:excalidraw -->

  <defs>
    <style class="style-fonts">
      @font-face {
        font-family: "Virgil";
        src: url("../css/fonts/Virgil.woff2");
      }
      @font-face {
        font-family: "Cascadia";
        src: url("https://excalidraw.com/Cascadia.woff2");
      }
      @font-face {
        font-family: "Assistant";
        src: url("https://app.excalidraw.com//dist/excalidraw-assets/Assistant-Regular.woff2");
      }
    </style>

  </defs>
  <g stroke-linecap="round"><g transform="translate(54.12828826904297 10.663425992429268) rotate(0 -0.15267868530509077 288.6000491265208)"><path d="M-0.22 -0.66 C0.16 177.93, -2.53 353.1, -1.25 577.21 M-0.14 0.31 C1.72 136.06, 1.49 272.49, 0.74 577.86" stroke="#1e1e1e" stroke-width="1" fill="none"></path></g></g><mask></mask><g stroke-linecap="round"><g transform="translate(20.96758270263672 562.0758100256323) rotate(0 450.4521531607955 -0.0043791993890067715)"><path d="M1.36 0.96 C183.51 2.15, 368.41 2.23, 900.03 0.73 M-0.38 0.11 C354.79 -2.2, 711.54 -2.89, 901.29 0.29" stroke="#1e1e1e" stroke-width="1" fill="none"></path></g></g><mask></mask><g transform="translate(632.2835006713868 571.0069623693826) rotate(0 138.17994689941406 17.5)"><text x="276.3598937988281" y="24.528" font-family="Virgil, Segoe UI Emoji" font-size="28px" fill="#1e1e1e" text-anchor="end" style="white-space: pre;" direction="ltr" dominant-baseline="alphabetic">Use case complexity</text></g><g transform="translate(-64.42395782470703 86.70315987914802) rotate(270 91.92395782470703 17.5)"><text x="183.84791564941406" y="24.528" font-family="Virgil, Segoe UI Emoji" font-size="28px" fill="#1e1e1e" text-anchor="end" style="white-space: pre;" direction="ltr" dominant-baseline="alphabetic">UI complexity</text></g><g stroke-linecap="round" transform="translate(821.0981979370118 12.825565885007393) rotate(0 7.94970703125 7.94970703125)"><path d="M11.09 0.95 C12.43 1.49, 13.58 3.88, 14.4 5.19 C15.21 6.5, 16.15 7.14, 15.99 8.81 C15.83 10.48, 14.92 14.19, 13.42 15.21 C11.92 16.24, 8.7 15.28, 6.99 14.97 C5.28 14.66, 4.26 14.49, 3.16 13.33 C2.06 12.17, 0.57 9.7, 0.41 8.01 C0.25 6.32, 1.36 4.53, 2.19 3.19 C3.03 1.85, 3.75 0.1, 5.42 -0.03 C7.08 -0.17, 10.88 1.95, 12.17 2.37 C13.46 2.8, 13.08 2.58, 13.17 2.54 M6.85 0.8 C8.4 0.16, 9 -1.05, 10.39 -0.15 C11.78 0.76, 14.46 4.29, 15.2 6.21 C15.94 8.13, 15.4 9.75, 14.83 11.36 C14.26 12.97, 12.95 15.16, 11.77 15.86 C10.58 16.56, 9.08 16.03, 7.71 15.58 C6.34 15.14, 4.77 14.21, 3.55 13.18 C2.32 12.16, 0.61 10.93, 0.39 9.45 C0.17 7.97, 1.35 5.59, 2.24 4.29 C3.13 3, 5.3 2.3, 5.72 1.68 C6.13 1.06, 4.76 0.53, 4.74 0.58" stroke="none" stroke-width="0" fill="#9c36b5"></path><path d="M7.38 -0.73 C9.04 -0.74, 11.88 1.21, 13.24 2.35 C14.59 3.5, 15.12 4.8, 15.5 6.16 C15.88 7.51, 16.35 9.12, 15.52 10.49 C14.69 11.86, 12.2 13.51, 10.54 14.39 C8.89 15.26, 7.07 16.2, 5.59 15.75 C4.11 15.3, 2.5 13.13, 1.68 11.68 C0.85 10.22, 0.39 8.43, 0.65 7.02 C0.92 5.6, 1.85 4.43, 3.26 3.18 C4.66 1.94, 7.64 -0.06, 9.09 -0.44 C10.53 -0.82, 11.8 0.58, 11.92 0.93 M6.66 0.79 C8.34 0.63, 10.31 1.29, 11.67 2.17 C13.03 3.06, 14.32 4.6, 14.82 6.1 C15.31 7.6, 15.29 9.73, 14.64 11.16 C13.99 12.6, 12.2 13.73, 10.91 14.69 C9.63 15.66, 8.18 16.96, 6.96 16.97 C5.74 16.98, 4.71 16.32, 3.6 14.76 C2.48 13.21, 0.76 9.76, 0.25 7.63 C-0.27 5.5, -0.26 3.08, 0.53 1.98 C1.32 0.87, 3.95 1.05, 4.99 0.99 C6.03 0.94, 6.49 1.57, 6.77 1.64" stroke="transparent" stroke-width="1" fill="none"></path></g><g stroke-linecap="round" transform="translate(104.51970672607422 502.8853803381324) rotate(0 9.2408447265625 9.2408447265625)"><path d="M8.52 0.96 C10.24 0.52, 12.77 0.72, 14.26 1.78 C15.74 2.84, 16.79 5.65, 17.43 7.34 C18.06 9.02, 18.61 10.04, 18.07 11.87 C17.52 13.71, 16.07 17.45, 14.18 18.36 C12.28 19.27, 8.62 18, 6.68 17.34 C4.74 16.68, 3.58 15.99, 2.53 14.42 C1.48 12.84, 0.22 9.88, 0.36 7.9 C0.5 5.93, 1.81 3.93, 3.35 2.55 C4.88 1.17, 8.27 -0.18, 9.57 -0.37 C10.87 -0.56, 11.18 1.21, 11.14 1.42 M11.27 0.6 C13.17 1.34, 16.96 3.68, 17.94 5.22 C18.92 6.76, 17.65 7.76, 17.17 9.84 C16.7 11.92, 16.55 16.07, 15.11 17.69 C13.67 19.31, 10.57 19.59, 8.51 19.57 C6.46 19.55, 4.06 19.06, 2.78 17.56 C1.51 16.07, 0.89 12.77, 0.87 10.58 C0.84 8.39, 1.71 5.92, 2.65 4.43 C3.58 2.94, 4.73 2.1, 6.46 1.64 C8.2 1.18, 12.14 1.59, 13.05 1.68 C13.96 1.78, 12.31 2.21, 11.9 2.21" stroke="none" stroke-width="0" fill="#2f9e44"></path><path d="M11.71 -0.24 C13.44 -0.03, 15.51 1.1, 16.76 2.92 C18.01 4.73, 19.36 8.5, 19.21 10.65 C19.06 12.8, 17.28 14.67, 15.87 15.83 C14.45 16.99, 12.8 17.54, 10.72 17.61 C8.65 17.67, 5.2 17.15, 3.42 16.23 C1.65 15.3, 0.49 13.96, 0.08 12.06 C-0.32 10.15, 0.03 6.66, 0.97 4.78 C1.9 2.9, 3.7 1.35, 5.67 0.75 C7.65 0.16, 11.78 1.33, 12.83 1.23 C13.87 1.13, 12.1 0.16, 11.96 0.15 M10.79 -0.33 C12.58 0.2, 15.95 2.36, 17.27 4.27 C18.59 6.18, 18.98 9.02, 18.7 11.13 C18.41 13.24, 17.13 15.56, 15.57 16.95 C14.02 18.33, 11.52 19.4, 9.38 19.43 C7.23 19.46, 4.22 18.19, 2.7 17.12 C1.18 16.05, 0.33 14.73, 0.24 13.02 C0.14 11.32, 1.28 9.04, 2.12 6.89 C2.97 4.74, 3.94 1.45, 5.31 0.12 C6.68 -1.2, 9.54 -1.22, 10.36 -1.05 C11.19 -0.87, 10.02 0.61, 10.27 1.18" stroke="transparent" stroke-width="1" fill="none"></path></g><g stroke-linecap="round"><g stroke-opacity="0.7" fill-opacity="0.7" transform="translate(116.39376753717659 512.3584335375579) rotate(0 35.0320625085011 -32.82726265314966)"><path d="M0.98 -0.66 C5.4 -6.71, 16.01 -24.84, 27.84 -34.86 C39.68 -44.88, 64.91 -56.39, 71.99 -60.78 M-1.93 -3.48 C2.21 -9.33, 14.96 -21.84, 26.9 -32.1 C38.83 -42.35, 62.59 -59.32, 69.69 -65" stroke="#2f9e44" stroke-width="2" fill="none"></path></g></g><mask></mask><g stroke-linecap="round"><g stroke-opacity="0.7" fill-opacity="0.7" transform="translate(405.8293546621129 333.38256268549713) rotate(0 211.0736352724955 -154.0159278059006)"><path d="M2.07 -1.69 C32.51 -18.27, 112.59 -46.01, 182.64 -96.83 C252.69 -147.65, 382.25 -271.11, 422.39 -306.62 M-0.25 3.56 C29.94 -11.39, 111.07 -40.99, 181.1 -93.52 C251.13 -146.04, 379.43 -275.76, 419.92 -311.6" stroke="#9c36b5" stroke-width="2" fill="none"></path></g></g><mask></mask><g transform="translate(552.6701329909264 175.07959202453497) rotate(0 26.653748677447425 22.5)"><text x="0" y="31.536" font-family="Virgil, Segoe UI Emoji" font-size="36px" fill="#9c36b5" text-anchor="start" style="white-space: pre;" direction="ltr" dominant-baseline="alphabetic">v2</text></g><g transform="translate(145.30727786816658 472.45678929016) rotate(0 41.991761372759925 22.5)"><text x="0" y="31.536" font-family="Virgil, Segoe UI Emoji" font-size="36px" fill="#2f9e44" text-anchor="start" style="white-space: pre;" direction="ltr" dominant-baseline="alphabetic">MVP</text></g><g stroke-linecap="round"><g stroke-opacity="0.7" fill-opacity="0.7" transform="translate(187.10346354883166 449.05846600580975) rotate(0 107.32307669822126 -57.16821466330441)"><path d="M2.08 1.81 C21.74 -8.9, 81.81 -44.78, 117.28 -63.72 C152.74 -82.65, 198.89 -103.68, 214.87 -111.81 M-0.23 0.33 C19.14 -10.16, 79.75 -41.96, 115.21 -61.37 C150.66 -80.78, 196.33 -106.76, 212.52 -116.15" stroke="#c2255c" stroke-width="2" fill="none"></path></g></g><mask></mask><g stroke-linecap="round" transform="translate(178.2492345534265 439.62011936828486) rotate(0 9.2408447265625 9.2408447265625)"><path d="M14.21 1.78 C15.88 2.65, 16.81 3.92, 17.53 5.81 C18.26 7.71, 19.05 11.17, 18.54 13.15 C18.04 15.13, 16.22 16.67, 14.49 17.69 C12.76 18.7, 10.33 19.58, 8.15 19.25 C5.98 18.92, 2.89 17.37, 1.46 15.7 C0.03 14.02, -0.54 11.38, -0.41 9.22 C-0.29 7.07, 1.06 4.18, 2.2 2.75 C3.34 1.32, 4.28 0.89, 6.43 0.65 C8.58 0.42, 13.37 0.86, 15.12 1.36 C16.88 1.86, 16.95 3.47, 16.97 3.64 M10.19 1.12 C11.9 1.45, 15.49 2.77, 16.76 4.42 C18.02 6.08, 18 9.12, 17.76 11.04 C17.53 12.95, 16.86 14.6, 15.34 15.91 C13.83 17.23, 10.82 18.6, 8.68 18.93 C6.53 19.25, 3.71 19.15, 2.46 17.85 C1.21 16.56, 1.28 13.41, 1.18 11.14 C1.08 8.88, 0.93 5.83, 1.86 4.28 C2.78 2.72, 5.13 2.41, 6.75 1.83 C8.36 1.25, 10.73 1.04, 11.55 0.81 C12.38 0.57, 11.82 0.21, 11.7 0.41" stroke="none" stroke-width="0" fill="#2f9e44"></path><path d="M5.66 1.72 C7.02 0.82, 8.64 0.12, 10.39 0.29 C12.14 0.46, 14.71 1.26, 16.15 2.73 C17.6 4.19, 19.19 7.11, 19.04 9.11 C18.88 11.1, 16.75 13.17, 15.22 14.7 C13.69 16.24, 11.72 17.84, 9.85 18.34 C7.98 18.83, 5.66 18.58, 3.99 17.67 C2.33 16.76, 0.37 14.76, -0.16 12.88 C-0.69 11, -0.31 8.49, 0.83 6.36 C1.97 4.23, 5.37 0.97, 6.66 0.11 C7.96 -0.75, 8.74 0.95, 8.59 1.2 M3.88 1.49 C5.57 0.68, 9.83 -0.7, 12.23 -0.14 C14.64 0.41, 17.22 3.34, 18.32 4.8 C19.42 6.26, 19.42 7, 18.84 8.63 C18.26 10.25, 16.45 13.04, 14.85 14.56 C13.24 16.09, 10.93 17.23, 9.21 17.79 C7.48 18.35, 6.23 19.01, 4.5 17.91 C2.77 16.82, -0.6 13.45, -1.18 11.23 C-1.76 9, -0.16 6.46, 1.03 4.57 C2.21 2.68, 5.31 0.35, 5.95 -0.13 C6.59 -0.61, 4.76 1.3, 4.87 1.68" stroke="transparent" stroke-width="1" fill="none"></path></g><g stroke-linecap="round" transform="translate(393.2663854323325 326.39764622375384) rotate(0 9.2408447265625 9.2408447265625)"><path d="M9.76 0.25 C11.71 0.2, 13.31 0.56, 14.86 1.7 C16.4 2.84, 18.52 5.01, 19.02 7.09 C19.53 9.16, 19.02 12.23, 17.89 14.13 C16.77 16.02, 14.44 17.73, 12.27 18.44 C10.1 19.15, 6.71 19.06, 4.87 18.38 C3.03 17.7, 2.14 16.05, 1.24 14.37 C0.34 12.7, -0.85 10.52, -0.55 8.32 C-0.24 6.12, 1.09 2.7, 3.09 1.18 C5.08 -0.35, 9.91 -0.75, 11.41 -0.83 C12.9 -0.9, 12.03 0.53, 12.06 0.74 M9.47 -1.36 C11.55 -1.69, 14.93 -0.14, 16.16 1.36 C17.39 2.86, 16.5 5.61, 16.87 7.65 C17.23 9.69, 18.94 11.74, 18.33 13.6 C17.72 15.45, 15 18.18, 13.21 18.76 C11.42 19.34, 9.61 18.07, 7.61 17.09 C5.61 16.11, 2.71 14.5, 1.22 12.89 C-0.26 11.28, -1.39 9.39, -1.31 7.43 C-1.24 5.47, -0.1 2.41, 1.67 1.12 C3.44 -0.17, 8.08 0, 9.31 -0.31 C10.54 -0.62, 9.21 -1.09, 9.04 -0.72" stroke="none" stroke-width="0" fill="#c2255c"></path><path d="M12.55 0.14 C14.33 0.76, 16.55 3.67, 17.53 5.59 C18.52 7.51, 18.99 9.86, 18.45 11.66 C17.91 13.45, 15.99 15.09, 14.3 16.33 C12.6 17.57, 10.31 19.23, 8.3 19.1 C6.3 18.98, 3.77 17.03, 2.27 15.6 C0.76 14.16, -0.6 12.35, -0.75 10.49 C-0.91 8.63, 0.04 5.96, 1.33 4.44 C2.62 2.91, 5.07 1.97, 6.99 1.32 C8.92 0.68, 11.91 0.44, 12.88 0.58 C13.85 0.72, 12.86 2.12, 12.82 2.16 M9.85 -0.48 C11.51 -0.31, 13.6 0.62, 15.26 2.23 C16.92 3.84, 19.7 6.84, 19.8 9.19 C19.9 11.53, 17.48 14.64, 15.85 16.3 C14.22 17.96, 11.77 19.24, 10.03 19.15 C8.3 19.07, 7.19 16.75, 5.46 15.8 C3.73 14.86, 0.24 15.14, -0.35 13.48 C-0.94 11.83, 1.08 7.78, 1.94 5.86 C2.79 3.94, 3.17 3.05, 4.77 1.97 C6.37 0.89, 10.62 -0.45, 11.53 -0.6 C12.44 -0.75, 10.47 0.95, 10.23 1.09" stroke="transparent" stroke-width="1" fill="none"></path></g><g transform="translate(247.27053470410408 355.5133688800037) rotate(0 26.653748677447425 22.5)"><text x="0" y="31.536" font-family="Virgil, Segoe UI Emoji" font-size="36px" fill="#c2255c" text-anchor="start" style="white-space: pre;" direction="ltr" dominant-baseline="alphabetic">v1</text></g></svg>