<svg version="1.1" xmlns="http://www.w3.org/2000/svg"
	viewBox="0 0 932.2566478177904 616.0069623693826" width="1864.5132956355808"
	height="1232.0139247387651">
	<!-- svg-source:excalidraw -->

	<defs>
		<style class="style-fonts">
			@font-face {
			font-family: "Virgil";
			src: url("../css/fonts/Virgil.woff2");
			}

			/*
			#2f9e44 - MVP
			#9c36b5 - v1
			#0c8599 - v2
			*/

			@keyframes toggle {
				from, 33.3% {
					opacity: 1;
				}
				33.4%, to {
					opacity: 0;
				}
			}

			[fill="#2f9e44"], [stroke="#2f9e44"],
			[fill="#9c36b5"], [stroke="#9c36b5"],
			[fill="#0c8599"], [stroke="#0c8599"] {
				animation: toggle 3s infinite;
			}

			[fill="#9c36b5"], [stroke="#9c36b5"] {
				animation-delay: 1s;
				opacity: 0;
			}

			[fill="#0c8599"], [stroke="#0c8599"] {
				animation-delay: 2s;
				opacity: 0;
			}
		</style>

	</defs>
	<g stroke-linecap="round">
		<g
			transform="translate(54.12828826904297 10.663425992429268) rotate(0 -0.15267868530509077 288.6000491265208)">
			<path
				d="M-0.22 -0.66 C0.16 177.93, -2.53 353.1, -1.25 577.21 M-0.14 0.31 C1.72 136.06, 1.49 272.49, 0.74 577.86"
				stroke="#1e1e1e" stroke-width="1" fill="none"></path>
		</g>
	</g>
	<mask></mask>
	<g stroke-linecap="round">
		<g
			transform="translate(20.96758270263672 562.0758100256323) rotate(0 450.4521531607955 -0.0043791993890067715)">
			<path
				d="M1.36 0.96 C183.51 2.15, 368.41 2.23, 900.03 0.73 M-0.38 0.11 C354.79 -2.2, 711.54 -2.89, 901.29 0.29"
				stroke="#1e1e1e" stroke-width="1" fill="none"></path>
		</g>
	</g>
	<mask></mask>
	<g transform="translate(632.2835006713868 571.0069623693826) rotate(0 138.17994689941406 17.5)">
		<text x="276.3598937988281" y="24.528" font-family="Virgil, Segoe UI Emoji" font-size="28px"
			fill="#1e1e1e" text-anchor="end" style="white-space: pre;" direction="ltr"
			dominant-baseline="alphabetic">Use case complexity</text>
	</g>
	<g transform="translate(-64.42395782470703 86.70315987914802) rotate(270 91.92395782470703 17.5)">
		<text x="183.84791564941406" y="24.528" font-family="Virgil, Segoe UI Emoji" font-size="28px"
			fill="#1e1e1e" text-anchor="end" style="white-space: pre;" direction="ltr"
			dominant-baseline="alphabetic">UI complexity</text>
	</g>
	<g stroke-linecap="round">
		<g stroke-opacity="0.7" fill-opacity="0.7"
			transform="translate(96.98639811914416 253.67431073237213) rotate(0 361.0088532209396 -115.89385219686267)">
			<path
				d="M2.07 -1.69 C46.69 -11.32, 191.6 -20, 267.69 -55.09 C343.77 -90.18, 382.92 -182.45, 458.59 -212.24 C534.27 -242.02, 677.61 -230.71, 721.75 -233.8 M-0.25 3.56 C44.11 -4.43, 190.09 -14.98, 266.15 -51.77 C342.21 -88.57, 380.1 -187.1, 456.12 -217.21 C532.14 -247.32, 678.16 -230.38, 722.26 -232.42"
				stroke="#9c36b5" stroke-width="2" fill="none"></path>
		</g>
	</g>
	<mask></mask>
	<g transform="translate(96.73739261426033 30.964968001097475) rotate(0 41.991761372759925 22.5)">
		<text x="0" y="31.536" font-family="Virgil, Segoe UI Emoji" font-size="36px" fill="#2f9e44"
			text-anchor="start" style="white-space: pre;" direction="ltr" dominant-baseline="alphabetic">
			MVP</text>
	</g>
	<g transform="translate(94.03939568623889 263.39575413391) rotate(0 37.703797505572425 22.5)">
		<text x="0" y="31.536" font-family="Virgil, Segoe UI Emoji" font-size="36px" fill="#9c36b5"
			text-anchor="start" style="white-space: pre;" direction="ltr" dominant-baseline="alphabetic">
			v1.0</text>
	</g>
	<g stroke-linecap="round">
		<g
			transform="translate(827.3993200026451 21.446596419066225) rotate(0 -367.2206118148192 -1.6590218827425645)">
			<path
				d="M0.33 -0.43 C-121.9 -0.13, -609.8 0.89, -731.88 0.77 M-2.93 -3.13 C-125.78 -3.63, -612.8 -4.57, -734.77 -3.82"
				stroke="#2f9e44" stroke-width="2" fill="none"></path>
		</g>
	</g>
	<mask></mask>
	<g stroke-linecap="round">
		<g stroke-opacity="0.7" fill-opacity="0.7"
			transform="translate(79.01968497429027 537.9057462708652) rotate(0 372.19260856628415 -260.27157812860764)">
			<path
				d="M1.9 -2.37 C44.28 -47.79, 177.02 -189.45, 255.36 -271.42 C333.7 -353.38, 390.61 -453.89, 471.93 -494.15 C553.25 -534.41, 698.57 -509.2, 743.28 -512.99 M-0.52 2.51 C41.44 -42.64, 175.03 -184.92, 253.4 -268.54 C331.77 -352.15, 387.77 -457.62, 469.69 -499.16 C551.61 -540.7, 699.07 -514.83, 744.9 -517.77"
				stroke="#0c8599" stroke-width="2" fill="none"></path>
		</g>
	</g>
	<mask></mask>
	<g transform="translate(145.54549808301033 475.71411350891) rotate(0 41.35873524971305 22.5)">
		<text x="0" y="31.536" font-family="Virgil, Segoe UI Emoji" font-size="36px" fill="#0c8599"
			text-anchor="start" style="white-space: pre;" direction="ltr" dominant-baseline="alphabetic">
			v2.0</text>
	</g>
</svg>