<svg version="1.1" xmlns="http://www.w3.org/2000/svg" viewBox="0 0 931.8325790196657 615.8200068823994" width="1863.6651580393313" height="1231.6400137647988">
  <!-- svg-source:excalidraw -->
  
  <defs>
    <style class="style-fonts">
      @font-face {
        font-family: "Virgil";
        src: url("https://excalidraw.com/Virgil.woff2");
      }
      @font-face {
        font-family: "Cascadia";
        src: url("https://excalidraw.com/Cascadia.woff2");
      }
      @font-face {
        font-family: "Assistant";
        src: url("https://app.excalidraw.com//dist/excalidraw-assets/Assistant-Regular.woff2");
      }
    </style>
    
  </defs>
  <g stroke-linecap="round"><g transform="translate(54.12828826904297 10.476470505446173) rotate(0 -0.9115637885475678 288.74032288156445)"><path d="M0.1 -0.23 C-4.67 215.08, -2.95 426.78, 0.97 577.96 M-0.49 -0.48 C-1.19 159.8, -1.21 318.96, 0.45 577.25" stroke="#1e1e1e" stroke-width="1" fill="none"></path></g></g><mask></mask><g stroke-linecap="round"><g transform="translate(20.96758270263672 561.8888545386493) rotate(0 449.70694139227265 1.4572986150187148)"><path d="M-1.45 1.3 C356.05 0.25, 712.53 1.02, 900.67 -0.51 M0.29 0.71 C308.94 5.07, 617.78 3.58, 900.86 0.46" stroke="#1e1e1e" stroke-width="1" fill="none"></path></g></g><mask></mask><g transform="translate(632.2835006713867 570.8200068823994) rotate(0 138.17994689941406 17.5)"><text x="276.3598937988281" y="24.528" font-family="Virgil, Segoe UI Emoji" font-size="28px" fill="#1e1e1e" text-anchor="end" style="white-space: pre;" direction="ltr" dominant-baseline="alphabetic">Use case complexity</text></g><g transform="translate(-64.42395782470703 86.51620439216492) rotate(270 91.92395782470703 17.5)"><text x="183.84791564941406" y="24.528" font-family="Virgil, Segoe UI Emoji" font-size="28px" fill="#1e1e1e" text-anchor="end" style="white-space: pre;" direction="ltr" dominant-baseline="alphabetic">UI complexity</text></g><g stroke-linecap="round" transform="translate(64.51970672607422 522.6984248511493) rotate(0 9.2408447265625 9.2408447265625)"><path d="M8.79 -0.39 C10.72 -0.49, 13.43 1.06, 14.89 2.36 C16.36 3.67, 17.19 5.4, 17.57 7.44 C17.95 9.48, 17.93 12.73, 17.15 14.59 C16.38 16.46, 14.72 17.92, 12.92 18.63 C11.12 19.33, 8.41 19.44, 6.33 18.8 C4.26 18.15, 1.51 16.45, 0.48 14.75 C-0.56 13.04, -0.32 10.53, 0.13 8.56 C0.58 6.6, 1.31 4.38, 3.17 2.94 C5.03 1.5, 9.73 0.28, 11.29 -0.07 C12.85 -0.41, 12.65 0.6, 12.51 0.87 M11.51 -0.81 C13.58 -0.37, 15.39 1.83, 16.72 3.67 C18.05 5.51, 19.76 8.46, 19.49 10.24 C19.22 12.02, 16.74 12.99, 15.11 14.35 C13.47 15.7, 11.68 17.92, 9.67 18.38 C7.66 18.85, 4.71 18.35, 3.03 17.13 C1.34 15.9, 0.17 13.04, -0.43 11.05 C-1.02 9.06, -1.25 7.07, -0.53 5.17 C0.19 3.27, 2.03 0.58, 3.89 -0.34 C5.75 -1.27, 9.13 -0.35, 10.64 -0.38 C12.16 -0.42, 12.64 -0.96, 12.97 -0.56" stroke="none" stroke-width="0" fill="#2f9e44"></path><path d="M7.17 0.48 C9.08 0.23, 12.9 0.61, 14.86 1.65 C16.82 2.7, 18.59 4.99, 18.94 6.76 C19.3 8.53, 17.76 10.64, 16.99 12.27 C16.22 13.9, 15.92 15.38, 14.33 16.54 C12.74 17.7, 9.58 19.43, 7.47 19.24 C5.36 19.06, 3.08 17, 1.68 15.43 C0.28 13.86, -0.96 11.87, -0.92 9.81 C-0.88 7.74, 0.33 4.61, 1.93 3.04 C3.53 1.47, 7.41 0.75, 8.68 0.38 C9.96 0.01, 9.48 0.62, 9.6 0.84 M12.25 0.81 C14.25 1.32, 17.96 3.49, 18.97 5.61 C19.98 7.74, 19.16 11.7, 18.32 13.55 C17.49 15.4, 15.86 15.82, 13.95 16.72 C12.04 17.63, 8.83 19.24, 6.86 18.98 C4.89 18.71, 3.51 16.63, 2.14 15.15 C0.76 13.67, -1.23 12.25, -1.38 10.08 C-1.53 7.92, -0.41 3.72, 1.24 2.17 C2.9 0.61, 6.31 1.1, 8.55 0.75 C10.79 0.4, 14.05 -0.09, 14.67 0.04 C15.29 0.18, 12.69 1.23, 12.26 1.54" stroke="transparent" stroke-width="1" fill="none"></path></g><g transform="translate(92.29619598388672 487.84716752693055) rotate(0 64.49945068359375 20)"><text x="0" y="14.016" font-family="Virgil, Segoe UI Emoji" font-size="16px" fill="#1e1e1e" text-anchor="start" style="white-space: pre;" direction="ltr" dominant-baseline="alphabetic">“Simple things </text><text x="0" y="34.016" font-family="Virgil, Segoe UI Emoji" font-size="16px" fill="#1e1e1e" text-anchor="start" style="white-space: pre;" direction="ltr" dominant-baseline="alphabetic">should be easy”</text></g><g stroke-linecap="round"><g stroke-opacity="0.7" fill-opacity="0.7" transform="translate(828.4715141810477 36.280989161133675) rotate(0 -0.5422365368724513 260.21201149336997)"><path d="M-0.36 0.52 C-0.63 87, -0.84 433.19, -0.64 519.9" stroke="#2f9e44" stroke-width="4.5" fill="none" stroke-dasharray="8 12"></path></g></g><mask></mask><g stroke-linecap="round" transform="translate(821.0981979370117 92.6386103980243) rotate(0 7.94970703125 7.94970703125)"><path d="M7.78 0.29 C9.32 0.25, 11.01 0.62, 12.32 1.81 C13.62 3, 15.13 5.62, 15.62 7.43 C16.1 9.24, 16.02 11.21, 15.21 12.68 C14.41 14.15, 12.59 15.66, 10.78 16.24 C8.98 16.82, 6.01 16.77, 4.4 16.18 C2.78 15.59, 1.8 14.19, 1.08 12.71 C0.37 11.22, -0.3 9.09, 0.1 7.25 C0.51 5.41, 2.01 2.86, 3.51 1.69 C5.01 0.53, 8.14 0.41, 9.09 0.26 C10.05 0.12, 9.25 0.87, 9.25 0.82 M6.18 0 C7.92 -0.22, 11.24 0.59, 12.64 1.18 C14.03 1.77, 14.15 2.02, 14.55 3.53 C14.95 5.05, 15.62 8.38, 15.06 10.27 C14.51 12.17, 12.72 14.09, 11.24 14.91 C9.76 15.72, 7.91 15.46, 6.16 15.15 C4.41 14.85, 2 14.43, 0.75 13.08 C-0.5 11.73, -1.35 8.83, -1.35 7.06 C-1.35 5.29, -0.77 3.77, 0.74 2.45 C2.25 1.14, 6.56 -0.63, 7.69 -0.83 C8.82 -1.04, 7.71 0.99, 7.53 1.22" stroke="none" stroke-width="0" fill="#2f9e44"></path><path d="M6.43 0.72 C8.2 0.17, 10.66 0.61, 11.94 1.16 C13.22 1.7, 13.37 2.72, 14.1 4.01 C14.83 5.29, 16.52 7.02, 16.29 8.88 C16.07 10.74, 14.28 13.94, 12.77 15.16 C11.26 16.39, 9.08 16.35, 7.23 16.24 C5.38 16.13, 2.92 15.75, 1.68 14.52 C0.43 13.29, -0.15 10.59, -0.24 8.85 C-0.33 7.11, -0.02 5.42, 1.11 4.07 C2.24 2.72, 5.29 1.25, 6.53 0.72 C7.77 0.2, 8.34 0.94, 8.57 0.91 M12.77 0.71 C14.53 1.66, 15.16 4.79, 15.59 6.34 C16.02 7.88, 16.1 8.49, 15.36 9.97 C14.62 11.45, 12.59 14.3, 11.15 15.24 C9.7 16.17, 8.43 15.8, 6.69 15.57 C4.95 15.34, 1.94 15.3, 0.71 13.86 C-0.53 12.42, -1.07 8.63, -0.72 6.93 C-0.36 5.23, 1.51 4.97, 2.85 3.67 C4.19 2.37, 6.04 -0.44, 7.3 -0.86 C8.55 -1.27, 9.84 0.86, 10.37 1.18 C10.89 1.5, 10.46 0.76, 10.44 1.05" stroke="transparent" stroke-width="1" fill="none"></path></g><g transform="translate(663.7039108276367 103.6216426245868) rotate(0 76.40555838006549 19.896621704101562)"><text x="152.81111676013097" y="13.943552490234374" font-family="Virgil, Segoe UI Emoji" font-size="15.91729736328125px" fill="#1e1e1e" text-anchor="end" style="white-space: pre;" direction="ltr" dominant-baseline="alphabetic">“Complex things </text><text x="152.81111676013097" y="33.84017419433594" font-family="Virgil, Segoe UI Emoji" font-size="15.91729736328125px" fill="#1e1e1e" text-anchor="end" style="white-space: pre;" direction="ltr" dominant-baseline="alphabetic">should be possible”</text></g></svg>