<svg version="1.1" xmlns="http://www.w3.org/2000/svg" viewBox="0 0 932.5126159481705 626.4573364257814" width="1865.025231896341" height="1252.9146728515627">
  <!-- svg-source:excalidraw -->

  <defs>
    <style class="style-fonts">
      @font-face {
        font-family: "Virgil";
        src: url("../css/fonts/Virgil.woff2");
      }
      @font-face {
        font-family: "Cascadia";
        src: url("https://excalidraw.com/Cascadia.woff2");
      }
      @font-face {
        font-family: "Assistant";
        src: url("https://app.excalidraw.com//dist/excalidraw-assets/Assistant-Regular.woff2");
      }
    </style>

  </defs>
  <rect x="0" y="0" width="932.5126159481705" height="626.4573364257814" fill="#ffffff"></rect><g stroke-linecap="round"><g transform="translate(54.12828826904297 21.113800048828125) rotate(0 1.403022902874028 289.17047966085374)"><path d="M1 1.47 C4.86 132.08, 4.73 262.03, -0.85 578.13 M-0.2 0.21 C2.29 191.18, 2.23 380.7, -0.17 577.88" stroke="#1e1e1e" stroke-width="1" fill="none"></path></g></g><mask></mask><g stroke-linecap="round"><g transform="translate(20.96758270263672 572.5261840820312) rotate(0 450.57881506904965 -1.7733782913032883)"><path d="M1 1.09 C194.36 -6.57, 386.11 -6.46, 901.55 0.93 M-0.39 0.46 C201.53 -2.64, 403.77 -2, 900.67 0.56" stroke="#1e1e1e" stroke-width="1" fill="none"></path></g></g><mask></mask><g transform="translate(632.2835006713868 581.4573364257814) rotate(0 138.17994689941406 17.5)"><text x="276.3598937988281" y="24.528" font-family="Virgil, Segoe UI Emoji" font-size="28px" fill="#1e1e1e" text-anchor="end" style="white-space: pre;" direction="ltr" dominant-baseline="alphabetic">Use case complexity</text></g><g transform="translate(-64.42395782470703 97.15353393554688) rotate(270 91.92395782470703 17.5)"><text x="183.84791564941406" y="24.528" font-family="Virgil, Segoe UI Emoji" font-size="28px" fill="#1e1e1e" text-anchor="end" style="white-space: pre;" direction="ltr" dominant-baseline="alphabetic">UI complexity</text></g><g stroke-linecap="round" transform="translate(104.51970672607422 513.3357543945312) rotate(0 9.2408447265625 9.2408447265625)"><path d="M11.72 0.72 C13.8 0.83, 15.95 1.12, 17.15 2.5 C18.35 3.87, 19.23 6.88, 18.92 8.99 C18.61 11.09, 16.56 13.55, 15.29 15.15 C14.02 16.75, 13.23 18.3, 11.32 18.59 C9.4 18.89, 5.6 18.12, 3.82 16.92 C2.05 15.72, 1.16 13.09, 0.66 11.39 C0.15 9.7, 0.25 8.46, 0.8 6.76 C1.35 5.05, 2.07 2.04, 3.95 1.15 C5.84 0.26, 10.27 1.19, 12.11 1.42 C13.96 1.65, 15.05 2.63, 15 2.53 M13.01 -0.46 C15.16 0.25, 17.64 3.97, 18.75 6.04 C19.85 8.1, 20.12 10.15, 19.64 11.93 C19.16 13.72, 17.79 15.73, 15.86 16.73 C13.94 17.72, 10.53 18.31, 8.11 17.92 C5.68 17.52, 2.6 15.62, 1.32 14.35 C0.03 13.09, 0.37 11.85, 0.41 10.31 C0.44 8.76, 0.51 6.55, 1.55 5.08 C2.59 3.6, 4.7 2.21, 6.64 1.47 C8.58 0.72, 11.97 0.76, 13.19 0.62 C14.4 0.49, 13.78 0.52, 13.94 0.67" stroke="none" stroke-width="0" fill="#e03131"></path><path d="M12.14 -0.1 C14.2 0.27, 16.64 1.9, 17.53 3.6 C18.43 5.29, 17.86 8.11, 17.52 10.08 C17.18 12.06, 16.66 14.17, 15.49 15.45 C14.32 16.74, 12.39 17.63, 10.49 17.78 C8.59 17.93, 5.92 17.44, 4.09 16.38 C2.26 15.31, -0.12 13.22, -0.49 11.4 C-0.86 9.58, 0.82 7.11, 1.87 5.46 C2.91 3.82, 4 2.41, 5.79 1.53 C7.58 0.65, 11.26 0.02, 12.62 0.18 C13.99 0.34, 13.79 2.13, 13.98 2.48 M6.63 0.26 C8.2 -0.22, 11.53 0.81, 13.29 1.47 C15.05 2.12, 16.16 2.69, 17.18 4.18 C18.19 5.67, 19.9 8.25, 19.38 10.4 C18.87 12.56, 15.95 15.54, 14.07 17.09 C12.2 18.64, 10.07 19.7, 8.14 19.69 C6.21 19.69, 3.65 18.51, 2.5 17.04 C1.35 15.57, 1.42 13.22, 1.25 10.88 C1.09 8.55, 0.67 4.96, 1.53 3.03 C2.39 1.1, 5.49 -0.12, 6.4 -0.68 C7.32 -1.25, 7.09 -0.46, 7.03 -0.37" stroke="transparent" stroke-width="1" fill="none"></path></g><g stroke-linecap="round" transform="translate(821.0981979370118 23.27593994140625) rotate(0 7.94970703125 7.94970703125)"><path d="M8.1 -0.9 C9.66 -1.28, 11.93 -0.03, 13.03 1.1 C14.14 2.22, 14.27 4.09, 14.72 5.85 C15.17 7.6, 16.42 10.11, 15.73 11.63 C15.03 13.15, 12.18 14.43, 10.54 14.94 C8.91 15.46, 7.44 15.02, 5.94 14.73 C4.44 14.45, 2.68 14.5, 1.57 13.24 C0.45 11.97, -0.74 8.87, -0.76 7.14 C-0.77 5.41, -0.05 3.97, 1.46 2.86 C2.97 1.74, 7.22 1.03, 8.3 0.45 C9.39 -0.14, 7.84 -0.58, 7.95 -0.66 M10.59 0.87 C12.46 1.35, 14.47 2.07, 15.57 3.26 C16.67 4.45, 17.52 6.44, 17.19 8 C16.87 9.56, 15.17 11.55, 13.61 12.61 C12.04 13.67, 9.37 13.95, 7.81 14.35 C6.25 14.75, 5.49 15.45, 4.25 15 C3 14.56, 0.99 13.13, 0.34 11.67 C-0.31 10.22, -0.29 8.08, 0.34 6.27 C0.97 4.45, 2.48 1.86, 4.14 0.78 C5.81 -0.3, 9.22 -0.1, 10.34 -0.2 C11.46 -0.31, 11.07 0.04, 10.85 0.16" stroke="none" stroke-width="0" fill="#e03131"></path><path d="M7.53 -0.49 C8.93 -0.75, 10.03 0.12, 11.35 1.05 C12.67 1.98, 14.66 3.55, 15.44 5.1 C16.21 6.65, 16.56 8.73, 15.98 10.34 C15.4 11.95, 13.69 13.84, 11.94 14.73 C10.18 15.63, 7.03 15.98, 5.45 15.71 C3.88 15.44, 3.38 14.34, 2.51 13.11 C1.64 11.88, 0.43 10.23, 0.23 8.34 C0.04 6.44, 0.24 3.05, 1.33 1.74 C2.42 0.43, 5.53 0.67, 6.78 0.49 C8.03 0.3, 8.78 0.4, 8.82 0.62 M7.65 0.65 C9.21 0.28, 10.71 -0.26, 12.24 0.45 C13.78 1.16, 16.48 3.02, 16.87 4.91 C17.25 6.8, 15.56 9.86, 14.55 11.79 C13.53 13.71, 12.3 15.63, 10.78 16.47 C9.27 17.3, 6.83 17.35, 5.46 16.79 C4.09 16.23, 3.47 14.9, 2.55 13.12 C1.64 11.34, 0.03 8.1, -0.05 6.11 C-0.12 4.12, 0.8 2.35, 2.08 1.19 C3.36 0.03, 6.91 -0.47, 7.64 -0.86 C8.37 -1.25, 6.49 -1.65, 6.48 -1.16" stroke="transparent" stroke-width="1" fill="none"></path></g><g transform="translate(129.78868865966797 528.9280395507812) rotate(0 64.49945068359375 10)"><text x="0" y="14.016" font-family="Virgil, Segoe UI Emoji" font-size="16px" fill="#1e1e1e" text-anchor="start" style="white-space: pre;" direction="ltr" dominant-baseline="alphabetic">&lt;video controls&gt;</text></g><g transform="translate(622.0581588745118 10) rotate(0 95.70286062615924 9.948310852050781)"><text x="191.40572125231856" y="13.943552490234374" font-family="Virgil, Segoe UI Emoji" font-size="15.91729736328125px" fill="#1e1e1e" text-anchor="end" style="white-space: pre;" direction="ltr" dominant-baseline="alphabetic">Custom video controls</text></g><g stroke-linecap="round"><g transform="translate(114.46585005670784 522.1908876720817) rotate(0 59.80389737357385 -4.246579347923387)"><path d="M0.56 0.82 C20.68 -0.65, 100.56 -7.67, 120.21 -9.31 M-0.6 0.2 C19.46 -1.07, 99.36 -6.72, 119.58 -8.07" stroke="#e03131" stroke-width="2" fill="none"></path></g></g><mask></mask><g stroke-linecap="round"><g transform="translate(234.48110884577034 512.8214418713004) rotate(0 0.278580017387867 -223.48354680053887)"><path d="M-0.28 1.08 C-0.22 -73.41, -0.35 -373.38, -0.17 -448.04 M1.77 0.6 C1.71 -73.65, -0.99 -371.96, -1.21 -446.9" stroke="#e03131" stroke-width="2" fill="none"></path></g></g><mask></mask><g stroke-linecap="round"><g transform="translate(233.98074263483284 65.16745017208166) rotate(0 299.04077603023495 -16.641850501000874)"><path d="M-1.17 -0.96 C98.24 -6.5, 496.97 -27.28, 596.89 -32.68 M0.42 1.14 C100.18 -4.77, 499.64 -28.9, 599.25 -34.43" stroke="#e03131" stroke-width="2" fill="none"></path></g></g><mask></mask><g stroke-linecap="round"><g stroke-opacity="0.7" fill-opacity="0.7" transform="translate(372.9915458574891 287.71139548458166) rotate(0 -61.31229359023274 -0.7092154201824314)"><path d="M1.18 0.29 C-8.67 -1.63, -37.8 -12.18, -58.63 -10.81 C-79.46 -9.45, -112.95 5.29, -123.81 8.48 M0.35 -0.6 C-9.66 -2.47, -39.02 -11.56, -59.31 -9.87 C-79.59 -8.18, -110.59 6.36, -121.36 9.52" stroke="#1e1e1e" stroke-width="2" fill="none"></path></g><g stroke-opacity="0.7" fill-opacity="0.7" transform="translate(372.9915458574891 287.71139548458166) rotate(0 -61.31229359023274 -0.7092154201824314)"><path d="M-102.26 -6.61 C-108.19 -0.06, -117.08 3.17, -121.36 9.52 M-102.26 -6.61 C-106.68 -1.62, -112.85 1.07, -121.36 9.52" stroke="#1e1e1e" stroke-width="2" fill="none"></path></g><g stroke-opacity="0.7" fill-opacity="0.7" transform="translate(372.9915458574891 287.71139548458166) rotate(0 -61.31229359023274 -0.7092154201824314)"><path d="M-96.36 9.44 C-104.4 10.58, -115.3 8.33, -121.36 9.52 M-96.36 9.44 C-102.19 10.29, -109.87 8.87, -121.36 9.52" stroke="#1e1e1e" stroke-width="2" fill="none"></path></g></g><mask></mask><g stroke-opacity="0.7" fill-opacity="0.7" transform="translate(384.9447929278016 280.27157614864416) rotate(0 43.0371000574529 17.5)"><text x="0" y="24.528" font-family="Virgil, Segoe UI Emoji" font-size="28px" fill="#1e1e1e" text-anchor="start" style="white-space: pre;" direction="ltr" dominant-baseline="alphabetic">Cliff</text></g></svg>