<svg version="1.1" xmlns="http://www.w3.org/2000/svg"
	viewBox="0 0 979.9675573073326 616.0069623693826" width="1959.9351146146653"
	height="1232.0139247387651">
	<!-- svg-source:excalidraw -->

	<defs>
		<style class="style-fonts">
			@font-face {
			font-family: "Virgil";
			src: url("../css/fonts/Virgil.woff2");
			}
			@font-face {
			font-family: "Cascadia";
			src: url("https://excalidraw.com/Cascadia.woff2");
			}
			@font-face {
			font-family: "Assistant";
			src: url("https://app.excalidraw.com//dist/excalidraw-assets/Assistant-Regular.woff2");
			}
		</style>

	</defs>
	<rect x="0" y="0" width="979.9675573073326" height="616.0069623693826" fill="#ffffff"></rect>
	<g stroke-linecap="round">
		<g stroke-opacity="0.4" fill-opacity="0.4"
			transform="translate(713.9562047682704 553.49975804016) rotate(0 -0.510485615126754 -236.62961452864107)">
			<path d="M-1.36 -1.29 C-1.6 -80.03, 0.08 -393.25, 0.37 -471.97" stroke="#1e1e1e"
				stroke-width="2.5" fill="none" stroke-dasharray="8 10"></path>
		</g>
	</g>

	<g stroke-linecap="round"
		transform="translate(820.9777145385743 12.825565885007393) rotate(0 7.94970703125 7.94970703125)">
		<path
			d="M11.09 0.95 C12.43 1.49, 13.58 3.88, 14.4 5.19 C15.21 6.5, 16.15 7.14, 15.99 8.81 C15.83 10.48, 14.92 14.19, 13.42 15.21 C11.92 16.24, 8.7 15.28, 6.99 14.97 C5.28 14.66, 4.26 14.49, 3.16 13.33 C2.06 12.17, 0.57 9.7, 0.41 8.01 C0.25 6.32, 1.36 4.53, 2.19 3.19 C3.03 1.85, 3.75 0.1, 5.42 -0.03 C7.08 -0.17, 10.88 1.95, 12.17 2.37 C13.46 2.8, 13.08 2.58, 13.17 2.54 M6.85 0.8 C8.4 0.16, 9 -1.05, 10.39 -0.15 C11.78 0.76, 14.46 4.29, 15.2 6.21 C15.94 8.13, 15.4 9.75, 14.83 11.36 C14.26 12.97, 12.95 15.16, 11.77 15.86 C10.58 16.56, 9.08 16.03, 7.71 15.58 C6.34 15.14, 4.77 14.21, 3.55 13.18 C2.32 12.16, 0.61 10.93, 0.39 9.45 C0.17 7.97, 1.35 5.59, 2.24 4.29 C3.13 3, 5.3 2.3, 5.72 1.68 C6.13 1.06, 4.76 0.53, 4.74 0.58"
			stroke="none" stroke-width="0" fill="#15aabf"></path>
		<path
			d="M7.38 -0.73 C9.04 -0.74, 11.88 1.21, 13.24 2.35 C14.59 3.5, 15.12 4.8, 15.5 6.16 C15.88 7.51, 16.35 9.12, 15.52 10.49 C14.69 11.86, 12.2 13.51, 10.54 14.39 C8.89 15.26, 7.07 16.2, 5.59 15.75 C4.11 15.3, 2.5 13.13, 1.68 11.68 C0.85 10.22, 0.39 8.43, 0.65 7.02 C0.92 5.6, 1.85 4.43, 3.26 3.18 C4.66 1.94, 7.64 -0.06, 9.09 -0.44 C10.53 -0.82, 11.8 0.58, 11.92 0.93 M6.66 0.79 C8.34 0.63, 10.31 1.29, 11.67 2.17 C13.03 3.06, 14.32 4.6, 14.82 6.1 C15.31 7.6, 15.29 9.73, 14.64 11.16 C13.99 12.6, 12.2 13.73, 10.91 14.69 C9.63 15.66, 8.18 16.96, 6.96 16.97 C5.74 16.98, 4.71 16.32, 3.6 14.76 C2.48 13.21, 0.76 9.76, 0.25 7.63 C-0.27 5.5, -0.26 3.08, 0.53 1.98 C1.32 0.87, 3.95 1.05, 4.99 0.99 C6.03 0.94, 6.49 1.57, 6.77 1.64"
			stroke="transparent" stroke-width="1" fill="none"></path>
	</g>
	<g stroke-linecap="round">
		<g
			transform="translate(118.46139449030159 377.2977645922453) rotate(0 354.96146272007377 -178.2803128216416)">
			<path
				d="M0.98 -0.66 C119.4 -60.22, 593.92 -297.36, 711.85 -355.9 M-1.93 -3.48 C116.21 -62.84, 592.87 -294.37, 710.9 -353.14"
				stroke="#15aabf" stroke-width="2" fill="none"></path>
		</g>
	</g>

	<g stroke-linecap="round"
		transform="translate(104.28014373779297 366.76825387328864) rotate(0 9.2408447265625 9.2408447265625)">
		<path
			d="M8.52 0.96 C10.24 0.52, 12.77 0.72, 14.26 1.78 C15.74 2.84, 16.79 5.65, 17.43 7.34 C18.06 9.02, 18.61 10.04, 18.07 11.87 C17.52 13.71, 16.07 17.45, 14.18 18.36 C12.28 19.27, 8.62 18, 6.68 17.34 C4.74 16.68, 3.58 15.99, 2.53 14.42 C1.48 12.84, 0.22 9.88, 0.36 7.9 C0.5 5.93, 1.81 3.93, 3.35 2.55 C4.88 1.17, 8.27 -0.18, 9.57 -0.37 C10.87 -0.56, 11.18 1.21, 11.14 1.42 M11.27 0.6 C13.17 1.34, 16.96 3.68, 17.94 5.22 C18.92 6.76, 17.65 7.76, 17.17 9.84 C16.7 11.92, 16.55 16.07, 15.11 17.69 C13.67 19.31, 10.57 19.59, 8.51 19.57 C6.46 19.55, 4.06 19.06, 2.78 17.56 C1.51 16.07, 0.89 12.77, 0.87 10.58 C0.84 8.39, 1.71 5.92, 2.65 4.43 C3.58 2.94, 4.73 2.1, 6.46 1.64 C8.2 1.18, 12.14 1.59, 13.05 1.68 C13.96 1.78, 12.31 2.21, 11.9 2.21"
			stroke="none" stroke-width="0" fill="#15aabf"></path>
		<path
			d="M11.71 -0.24 C13.44 -0.03, 15.51 1.1, 16.76 2.92 C18.01 4.73, 19.36 8.5, 19.21 10.65 C19.06 12.8, 17.28 14.67, 15.87 15.83 C14.45 16.99, 12.8 17.54, 10.72 17.61 C8.65 17.67, 5.2 17.15, 3.42 16.23 C1.65 15.3, 0.49 13.96, 0.08 12.06 C-0.32 10.15, 0.03 6.66, 0.97 4.78 C1.9 2.9, 3.7 1.35, 5.67 0.75 C7.65 0.16, 11.78 1.33, 12.83 1.23 C13.87 1.13, 12.1 0.16, 11.96 0.15 M10.79 -0.33 C12.58 0.2, 15.95 2.36, 17.27 4.27 C18.59 6.18, 18.98 9.02, 18.7 11.13 C18.41 13.24, 17.13 15.56, 15.57 16.95 C14.02 18.33, 11.52 19.4, 9.38 19.43 C7.23 19.46, 4.22 18.19, 2.7 17.12 C1.18 16.05, 0.33 14.73, 0.24 13.02 C0.14 11.32, 1.28 9.04, 2.12 6.89 C2.97 4.74, 3.94 1.45, 5.31 0.12 C6.68 -1.2, 9.54 -1.22, 10.36 -1.05 C11.19 -0.87, 10.02 0.61, 10.27 1.18"
			stroke="transparent" stroke-width="1" fill="none"></path>
	</g>
	<g stroke-linecap="round">
		<g stroke-opacity="0.7" fill-opacity="0.7"
			transform="translate(117.70445884507137 511.7147022094578) rotate(0 297.80850447725504 -135.91310402415695)">
			<path
				d="M1.33 1.24 C40.4 -32.1, 137.13 -151.87, 236.41 -197.59 C335.69 -243.31, 536.59 -260.54, 597 -273.06 M-1.39 -0.56 C37.13 -33.46, 134.72 -156.51, 234.19 -201.52 C333.66 -246.54, 534.35 -259.13, 595.45 -270.65"
				stroke="#2f9e44" stroke-width="2" fill="none"></path>
		</g>
	</g>

	<g stroke-linecap="round">
		<g
			transform="translate(54.12828826904297 10.663425992429268) rotate(0 -0.15267868530509077 288.6000491265208)">
			<path
				d="M-0.22 -0.66 C0.16 177.93, -2.53 353.1, -1.25 577.21 M-0.14 0.31 C1.72 136.06, 1.49 272.49, 0.74 577.86"
				stroke="#1e1e1e" stroke-width="1" fill="none"></path>
		</g>
	</g>

	<g stroke-linecap="round">
		<g
			transform="translate(20.96758270263672 562.0758100256323) rotate(0 450.4521531607955 -0.0043791993890067715)">
			<path
				d="M1.36 0.96 C183.51 2.15, 368.41 2.23, 900.03 0.73 M-0.38 0.11 C354.79 -2.2, 711.54 -2.89, 901.29 0.29"
				stroke="#1e1e1e" stroke-width="1" fill="none"></path>
		</g>
	</g>

	<g transform="translate(632.2835006713868 571.0069623693826) rotate(0 138.17994689941406 17.5)">
		<text x="276.3598937988281" y="24.528" font-family="Virgil, Segoe UI Emoji" font-size="28px"
			fill="#1e1e1e" text-anchor="end" style="white-space: pre;" direction="ltr"
			dominant-baseline="alphabetic">Use case complexity</text>
	</g>
	<g
		transform="translate(-64.42395782470703 86.70315987914802) rotate(270 91.92395782470703 17.5)">
		<text x="183.84791564941406" y="24.528" font-family="Virgil, Segoe UI Emoji"
			font-size="28px" fill="#1e1e1e" text-anchor="end" style="white-space: pre;"
			direction="ltr" dominant-baseline="alphabetic">UI complexity</text>
	</g>
	<g stroke-linecap="round"
		transform="translate(704.4327672682699 232.14044407531622) rotate(0 7.94970703125 7.94970703125)">
		<path
			d="M5.11 -0.26 C6.53 -0.86, 9.16 0.66, 10.58 1.26 C12.01 1.86, 12.94 2.1, 13.66 3.36 C14.39 4.61, 14.86 7.09, 14.94 8.79 C15.01 10.49, 15.14 12.51, 14.12 13.57 C13.09 14.63, 10.58 15.16, 8.79 15.15 C6.99 15.14, 4.75 14.26, 3.35 13.51 C1.95 12.77, 0.77 12.2, 0.38 10.7 C0 9.19, 0.07 6.26, 1.02 4.47 C1.96 2.68, 4.87 0.61, 6.05 -0.04 C7.23 -0.69, 8.21 0.26, 8.12 0.59 M10.7 0.55 C12.29 0.66, 14.55 2.26, 15.48 3.46 C16.4 4.67, 16.39 6.35, 16.26 7.8 C16.13 9.25, 16.14 10.61, 14.69 12.19 C13.25 13.76, 9.29 16.71, 7.58 17.25 C5.87 17.79, 5.55 16.86, 4.45 15.41 C3.35 13.96, 1.41 10.21, 1.01 8.56 C0.6 6.91, 1.49 6.57, 2.03 5.51 C2.58 4.44, 3.19 3.23, 4.27 2.16 C5.35 1.08, 7.8 -0.55, 8.53 -0.94 C9.25 -1.33, 8.55 -0.49, 8.62 -0.2"
			stroke="none" stroke-width="0" fill="#2f9e44"></path>
		<path
			d="M11.59 -0.1 C13.11 0.54, 13.97 3.47, 14.72 5.16 C15.47 6.86, 16.6 8.43, 16.08 10.05 C15.57 11.67, 13.05 13.92, 11.63 14.88 C10.2 15.83, 9.15 16.14, 7.54 15.78 C5.93 15.43, 3.33 14.07, 1.96 12.76 C0.6 11.44, -0.62 9.36, -0.64 7.9 C-0.66 6.43, 0.7 5.4, 1.85 3.96 C3 2.52, 4.54 -0.48, 6.27 -0.74 C8 -1, 10.84 1.68, 12.24 2.41 C13.64 3.13, 14.64 3.69, 14.67 3.61 M12.48 2.42 C14.28 3.17, 15.59 4.33, 16.25 5.92 C16.92 7.5, 17.3 10.31, 16.45 11.92 C15.59 13.53, 12.67 14.94, 11.11 15.56 C9.54 16.19, 8.71 16.03, 7.06 15.68 C5.41 15.33, 2.57 14.59, 1.21 13.45 C-0.14 12.31, -1.04 10.47, -1.06 8.86 C-1.08 7.26, 0.06 5.25, 1.07 3.82 C2.09 2.39, 3.34 0.95, 5.03 0.27 C6.71 -0.4, 9.89 -0.38, 11.19 -0.24 C12.5 -0.11, 12.77 0.53, 12.84 1.06"
			stroke="transparent" stroke-width="1" fill="none"></path>
	</g>
	<g stroke-linecap="round">
		<g stroke-opacity="0.7" fill-opacity="0.7"
			transform="translate(798.5876939462629 263.38453564828967) rotate(349.4922426828221 -30.9578163773607 -15.716796136821387)">
			<path
				d="M-0.76 0.11 C-4.97 -3.39, -15.26 -14.99, -25.51 -20.27 C-35.75 -25.54, -56.15 -29.99, -62.22 -31.54 M1.05 -0.88 C-3.27 -4.33, -15.64 -14.3, -26.31 -19.27 C-36.98 -24.23, -57.1 -28.64, -62.96 -30.69"
				stroke="#1e1e1e" stroke-width="2" fill="none"></path>
		</g>
		<g stroke-opacity="0.7" fill-opacity="0.7"
			transform="translate(798.5876939462629 263.38453564828967) rotate(349.4922426828221 -30.9578163773607 -15.716796136821387)">
			<path
				d="M-43.9 -32.02 C-49.05 -31.32, -56.18 -31.33, -62.96 -30.69 M-43.9 -32.02 C-47.78 -31.56, -51.7 -31.87, -62.96 -30.69"
				stroke="#1e1e1e" stroke-width="2" fill="none"></path>
		</g>
		<g stroke-opacity="0.7" fill-opacity="0.7"
			transform="translate(798.5876939462629 263.38453564828967) rotate(349.4922426828221 -30.9578163773607 -15.716796136821387)">
			<path
				d="M-47.5 -19.46 C-51.72 -22.25, -57.85 -25.77, -62.96 -30.69 M-47.5 -19.46 C-50.6 -21.87, -53.71 -25.02, -62.96 -30.69"
				stroke="#1e1e1e" stroke-width="2" fill="none"></path>
		</g>
	</g>

	<g transform="translate(800.0871862135826 264.2589133135975) rotate(0 84.940185546875 17.5)">
		<text x="0" y="24.528" font-family="Virgil, Segoe UI Emoji" font-size="28px" fill="#1e1e1e"
			text-anchor="start" style="white-space: pre;" direction="ltr"
			dominant-baseline="alphabetic">Lower ceiling</text>
	</g>
	<g transform="translate(802.3039830885826 300.5443137042225) rotate(0 78.247802734375 10)">
		<text x="0" y="14.016" font-family="Virgil, Segoe UI Emoji" font-size="16px" fill="#1e1e1e"
			text-anchor="start" style="white-space: pre;" direction="ltr"
			dominant-baseline="alphabetic">(you can do less)</text>
	</g>
	<g stroke-linecap="round">
		<g stroke-opacity="0.4" fill-opacity="0.4"
			transform="translate(112.16859468027167 554.2129538409413) rotate(0 0.3483472142368669 -79.80349033381788)">
			<path d="M-0.95 2.44 C-0.24 -24.29, 1.34 -135.11, 1.65 -162.04" stroke="#1e1e1e"
				stroke-width="2.5" fill="none" stroke-dasharray="8 10"></path>
		</g>
	</g>

	<g transform="translate(269.83938347920764 462.9312155596912) rotate(0 84.940185546875 17.5)">
		<text x="0" y="24.528" font-family="Virgil, Segoe UI Emoji" font-size="28px" fill="#1e1e1e"
			text-anchor="start" style="white-space: pre;" direction="ltr"
			dominant-baseline="alphabetic">Lower floor</text>
	</g>
	<g transform="translate(271.93276726827014 499.2100241534412) rotate(0 100.40045166015625 10)">
		<text x="0" y="14.016" font-family="Virgil, Segoe UI Emoji" font-size="16px" fill="#1e1e1e"
			text-anchor="start" style="white-space: pre;" direction="ltr"
			dominant-baseline="alphabetic">(easier to get started)</text>
	</g>
	<g stroke-linecap="round">
		<g stroke-opacity="0.7" fill-opacity="0.7"
			transform="translate(259.9189437043466 509.24069617233823) rotate(349.4922426828221 -64.25772648659813 4.6533228637457)">
			<path
				d="M-1.16 -1.13 C-11.78 0.47, -43.24 10.26, -64.51 10.44 C-85.78 10.61, -117.75 1.84, -128.77 -0.09 M0.43 0.89 C-10.22 2.04, -43.52 8.41, -65.08 8.5 C-86.65 8.58, -117.99 2.88, -128.94 1.39"
				stroke="#1e1e1e" stroke-width="2" fill="none"></path>
		</g>
		<g stroke-opacity="0.7" fill-opacity="0.7"
			transform="translate(259.9189437043466 509.24069617233823) rotate(349.4922426828221 -64.25772648659813 4.6533228637457)">
			<path
				d="M-104.43 -3.54 C-111.99 -1.45, -115.22 0.4, -128.94 1.39 M-104.43 -3.54 C-112.42 -2.48, -121.11 0.04, -128.94 1.39"
				stroke="#1e1e1e" stroke-width="2" fill="none"></path>
		</g>
		<g stroke-opacity="0.7" fill-opacity="0.7"
			transform="translate(259.9189437043466 509.24069617233823) rotate(349.4922426828221 -64.25772648659813 4.6533228637457)">
			<path
				d="M-107 13.37 C-114.07 11.55, -116.71 9.46, -128.94 1.39 M-107 13.37 C-114.04 8.93, -121.9 5.95, -128.94 1.39"
				stroke="#1e1e1e" stroke-width="2" fill="none"></path>
		</g>
	</g>

	<g stroke-linecap="round"
		transform="translate(101.93301140889503 506.9121115557851) rotate(0 9.2408447265625 9.2408447265625)">
		<path
			d="M7.59 0.72 C9.47 0.46, 12.4 1.05, 14.13 2.16 C15.85 3.27, 17.43 5.7, 17.94 7.37 C18.45 9.04, 17.87 10.6, 17.19 12.2 C16.51 13.81, 15.45 15.96, 13.86 17 C12.28 18.03, 9.64 18.93, 7.68 18.4 C5.73 17.87, 3.57 15.56, 2.15 13.83 C0.74 12.11, -0.96 10.05, -0.8 8.05 C-0.64 6.04, 1.24 3.3, 3.1 1.81 C4.97 0.33, 8.83 -0.6, 10.4 -0.87 C11.96 -1.14, 12.45 0.02, 12.49 0.21 M11.96 0.32 C13.36 0.93, 14.95 2.61, 16.24 4.46 C17.53 6.31, 19.86 9.38, 19.71 11.41 C19.56 13.43, 17.17 15.54, 15.34 16.63 C13.51 17.71, 10.52 17.91, 8.72 17.89 C6.93 17.88, 6 17.78, 4.57 16.56 C3.13 15.33, 0.7 12.31, 0.11 10.53 C-0.47 8.76, -0.02 7.79, 1.04 5.91 C2.1 4.04, 4.74 0.2, 6.46 -0.71 C8.18 -1.62, 10.36 -0.02, 11.36 0.46 C12.36 0.94, 12.34 1.88, 12.47 2.17"
			stroke="none" stroke-width="0" fill="#2f9e44"></path>
		<path
			d="M12.69 0.39 C14.72 0.88, 17.72 3.14, 18.57 4.95 C19.42 6.76, 18.52 9.19, 17.79 11.27 C17.07 13.34, 15.74 16.31, 14.22 17.41 C12.69 18.51, 10.67 18.25, 8.63 17.87 C6.59 17.49, 3.57 16.53, 1.98 15.13 C0.38 13.73, -0.82 11.52, -0.93 9.49 C-1.04 7.45, -0.04 4.29, 1.34 2.92 C2.72 1.55, 5.23 1.45, 7.33 1.27 C9.43 1.09, 12.56 1.66, 13.93 1.86 C15.29 2.05, 15.56 2.44, 15.52 2.46 M8.14 -1.13 C9.96 -1.14, 11.71 1.53, 13.37 2.73 C15.03 3.93, 17.44 4.23, 18.09 6.06 C18.74 7.9, 18 11.62, 17.29 13.74 C16.59 15.86, 15.81 17.94, 13.88 18.79 C11.94 19.65, 7.96 19.38, 5.68 18.86 C3.4 18.34, 1.08 17.28, 0.21 15.67 C-0.67 14.06, 0.23 11.58, 0.42 9.2 C0.61 6.82, -0.24 2.78, 1.36 1.39 C2.95 0, 8.97 0.98, 9.99 0.84 C11.01 0.71, 7.57 0.67, 7.47 0.57"
			stroke="transparent" stroke-width="1" fill="none"></path>
	</g>
	<g transform="translate(422.60171258077014 164.5699789874256) rotate(0 16.934844970703125 22.5)">
		<text x="0" y="31.536" font-family="Virgil, Segoe UI Emoji" font-size="36px" fill="#15aabf"
			text-anchor="start" style="white-space: pre;" direction="ltr"
			dominant-baseline="alphabetic">A</text>
	</g>
	<g transform="translate(353.1672338210045 321.1409933917225) rotate(0 16.934844970703125 22.5)">
		<text x="0" y="31.536" font-family="Virgil, Segoe UI Emoji" font-size="36px" fill="#2f9e44"
			text-anchor="start" style="white-space: pre;" direction="ltr"
			dominant-baseline="alphabetic">B</text>
	</g>
</svg>