<svg xmlns="http://www.w3.org/2000/svg" xmlns:xlink="http://www.w3.org/1999/xlink" viewBox="0 0 165 210" fill="red" id="root">
<title>Pixelated Masochist Teapot</title>

<defs>
	<rect id="pixel" width="10" height="10"/>
</defs>

<path d="M162.4,134
	c-0.6-8.5-2.1-17-9.2-23.3		c-8.6-7.7-19.7-8.6-32,0.5
	c-2.4,1.8-9.5,8.7-11.6,10.4		c-1.7-1-4.9-5.9-5.5-7.3
	c9.8-6.3,17.4-16.9,18.4-27		c0.6-6-0.3-11.8-1.3-17.6
	c-0.6-3.6-1.9-11.6-1.7-16.6		c0.2-4.5,3.9-13.4,5.1-15.4
	h-14.2				 			c-1.9,3.3-4.6,9.2-4.5,15.1
	c0.4,21.2-6.9,27.5-14,29.8		c-0.9-6.4-4.5-41.6-3.3-42
	c3.7-1.1,5.8-4.2,3.5-8.8		C83.4,14.3,75,14.3,67.6,11.5
	c-2.3-0.9,2-7.9-0.1-9.4			C65.4,0.7,62.7,0,60,0
	v10 h-10 v90 h-10 v30 h-10 v10 h-10 v40 h10 v10 h20 v10 h10 v10
	c12.6-0.1,25.1-3.1,36.4-8.9		c15.5-8,31.2-16.1,44.5-27.5
	C151.8,164.2,163.5,149.4,162.4,134 z
	M153,135
	c0.1,7.9-3.5,13.6-8.3,20		c-3.9,5.2-15.7,14.7-19.1,15.6
	c1.5-15.3-2.9-30.6-8.8-38.9		c3.8-8.6,15.3-17.7,24-16.8
	C147.3,115.7,153.5,125.3,153,135z"/>

<g fill="#a00">
	<path d="M40,20 v10 h-10 v70 h-10 v30 h-10 v10 h-10 v40 h10 v10 h10 v10 h10 v10 h30
		v-10 h-10 v-10 h-20 v-10 h-10 v-40 h10 v-10 h10 v-30 h10 v-80 z" />
	<rect x="50" width="10" height="20"/>

	<g opacity=".6">
		<use xlink:href="#pixel" x="40" y="10"/>
		<use xlink:href="#pixel" x="30" y="20"/>
		<use xlink:href="#pixel" x="20" y="90"/>
		<use xlink:href="#pixel" x="10" y="120"/>
		<use xlink:href="#pixel" y="130"/>
		<use xlink:href="#pixel" y="180"/>
		<use xlink:href="#pixel" x="10" y="190"/>
		<use xlink:href="#pixel" x="20" y="200"/>
	</g>
</g>

<g fill="white" opacity=".6">
	<rect x="70" y="50" width="10" height="70"/>
	<rect x="80" y="120" width="10" height="20"/>
	<rect x="90" y="140" width="10" height="30"/>

	<g opacity=".7">
		<rect x="70" y="40" width="10" height="90"/>
		<rect x="80" y="110" width="10" height="40"/>
		<rect x="90" y="130" width="10" height="50"/>
	</g>
</g>

</svg>
