<?xml version="1.0" encoding="utf-8"?>
<!-- Generator: Adobe Illustrator 16.0.0, SVG Export Plug-In . SVG Version: 6.00 Build 0)  -->
<!DOCTYPE svg PUBLIC "-//W3C//DTD SVG 1.1//EN" "http://www.w3.org/Graphics/SVG/1.1/DTD/svg11.dtd">
<svg version="1.1" id="Layer_1" xmlns="http://www.w3.org/2000/svg" xmlns:xlink="http://www.w3.org/1999/xlink" x="0px" y="0px"
	 width="516.532px" height="289.114px" viewBox="0 0 516.532 289.114" enable-background="new 0 0 516.532 289.114"
	 xml:space="preserve">
<g>
	
		<rect x="22.287" y="60.922" transform="matrix(0.7071 -0.7071 0.7071 0.7071 -46.6866 58.0729)" fill="#BBBDBF" width="48.943" height="48.943"/>
	
		<rect x="430.351" y="60.922" transform="matrix(0.7071 -0.7071 0.7071 0.7071 72.8285 346.6136)" fill="#BBBDBF" width="48.943" height="48.943"/>
	
		<rect x="103.803" y="60.922" transform="matrix(0.7071 -0.7071 0.7071 0.7071 -22.8119 115.7127)" fill="#BBBDBF" width="48.943" height="48.943"/>
	
		<rect x="185.303" y="60.922" transform="matrix(0.7071 -0.7071 0.7071 0.7071 1.0581 173.3411)" fill="#BBBDBF" width="48.943" height="48.943"/>
	
		<rect x="266.803" y="60.922" transform="matrix(0.7071 -0.7071 0.7071 0.7071 24.928 230.9695)" fill="#BBBDBF" width="48.943" height="48.943"/>
	
		<rect x="348.303" y="60.922" transform="matrix(0.7071 -0.7071 0.7071 0.7071 48.798 288.5979)" fill="#BBBDBF" width="48.943" height="48.943"/>
	
		<rect x="144.844" y="101.833" transform="matrix(0.7071 -0.7071 0.7071 0.7071 -39.7198 156.7149)" fill="#BBBDBF" width="48.943" height="48.943"/>
	
		<rect x="226.344" y="101.833" transform="matrix(0.7071 -0.7071 0.7071 0.7071 -15.8499 214.3432)" fill="#BBBDBF" width="48.943" height="48.943"/>
	
		<rect x="307.844" y="101.833" transform="matrix(0.7071 -0.7071 0.7071 0.7071 8.0201 271.9716)" fill="#BBBDBF" width="48.943" height="48.943"/>
	
		<rect x="144.844" y="20.422" transform="matrix(0.7071 -0.7071 0.7071 0.7071 17.8457 132.8709)" fill="#BBBDBF" width="48.943" height="48.943"/>
	
		<rect x="226.344" y="20.422" transform="matrix(0.7071 -0.7071 0.7071 0.7071 41.7157 190.4993)" fill="#BBBDBF" width="48.943" height="48.943"/>
	
		<rect x="307.844" y="20.422" transform="matrix(0.7071 -0.7071 0.7071 0.7071 65.5857 248.1277)" fill="#BBBDBF" width="48.943" height="48.943"/>
</g>
<polygon fill="#FFD13F" stroke="#000000" stroke-width="1.5" points="18.119,81.359 89.354,81.359 128.562,120.567 169.056,80.074 
	209.774,120.793 291.609,38.958 332.527,79.875 373.021,39.382 415.422,81.783 484.961,81.783 484.961,89.839 412.03,89.839 
	372.809,50.617 332.104,91.323 291.398,50.617 209.987,132.029 169.281,91.323 128.787,131.817 86.173,89.203 17.695,89.203 "/>
<rect x="3.631" y="78.071" fill="#231F20" width="16.537" height="15.265"/>
<rect x="480.12" y="78.071" fill="#231F20" width="16.536" height="15.265"/>
<g>
	<path fill="#231F20" d="M18.148,222.708h20.211v57.673H18.148V222.708z"/>
	<path fill="#231F20" d="M143.555,222.708h43.212v12.178h-23.001v10.147h21.057v12.177h-21.057v10.993h23.34v12.178h-43.551V222.708
		z"/>
	<path fill="#231F20" d="M286.382,237.169v-14.461h56.235v14.461h-18.013v43.212h-20.211v-43.212H286.382z"/>
	<path fill="#231F20" d="M443.838,222.708h42.113v12.178h-21.902v10.485h20.549v12.178h-20.549v22.832h-20.211V222.708z"/>
</g>
<g>
	<path fill="#231F20" d="M503.623,222.131c5.168,0,9.357,4.188,9.357,9.356c0,5.142-4.189,9.331-9.357,9.331
		c-5.166,0-9.355-4.189-9.355-9.331C494.268,226.319,498.457,222.131,503.623,222.131z M503.623,239.013
		c4.164,0,7.551-3.361,7.551-7.525c0-4.189-3.387-7.551-7.551-7.551s-7.551,3.361-7.551,7.551
		C496.072,235.651,499.459,239.013,503.623,239.013z M505.555,236.454l-0.828-1.605c-0.902-1.756-1.605-2.483-2.633-2.483h-0.678
		v4.089h-2.031v-9.959h5.016c2.033,0,3.061,1.279,3.061,2.784c0,1.53-1.027,2.584-2.684,2.785v0.05
		c0.854,0.301,1.053,0.552,2.107,2.333l1.178,2.007H505.555z M503.373,230.785c1.305,0,1.955-0.527,1.955-1.38
		c0-0.878-0.676-1.354-2.08-1.354h-1.832v2.734H503.373z"/>
</g>
</svg>
