<?xml version="1.0" encoding="utf-8"?>
<!-- Generator: Adobe Illustrator 16.0.0, SVG Export Plug-In . SVG Version: 6.00 Build 0)  -->
<!DOCTYPE svg PUBLIC "-//W3C//DTD SVG 1.1//EN" "http://www.w3.org/Graphics/SVG/1.1/DTD/svg11.dtd">
<svg version="1.1" id="Layer_1" xmlns="http://www.w3.org/2000/svg" xmlns:xlink="http://www.w3.org/1999/xlink" x="0px" y="0px"
	 width="300.457px" height="304px" viewBox="0 0 300.457 304" enable-background="new 0 0 300.457 304" xml:space="preserve">
<g>
	<g>
		<path fill="#FFFFFF" d="M232.497,302.207c-2.162-0.511-4.291-1.201-6.383-1.972l-0.304-0.093l-1.155-0.497l-0.139-0.051
			l-0.558-0.246l-1.414-0.571c0,0-9.363-5.103-13.335-8.499l-1.322-0.877l-1.108-1.324l-1.619-1.563l-0.135-0.176l-54.7-54.698
			l-56.433,56.418l-0.491,0.588l-1.162,0.94c-4.119,3.657-8.719,6.664-13.699,8.951l-0.435,0.291l-1.936,0.78
			c-1.148,0.465-2.306,0.889-3.468,1.274L62.3,303.576l-2.575,0.185c-1.022,0.158-2.06,0.239-3.105,0.239
			c-0.207,0-1.667-0.002-1.872-0.008C54.55,303.998,52.457,304,51.625,304h-5.054l-11.506-4.104c-0.122-0.048-2.05-0.956-2.05-0.956
			c-4.58-2.007-8.842-4.613-12.713-7.759l-0.127-0.065l-2.817-2.489l-2.258-2.238l-1.961-2.114l-0.178-0.277
			c-3.542-4.16-6.438-8.799-8.623-13.814l-0.225-0.449l-0.178-0.492l-0.382-0.896l-0.061-0.232l-0.227-0.544l-0.073-0.34
			l-2.995-13.282C0.065,252.52,0,251.097,0,249.68V56.481C0,25.337,24.569,0,55.057,0S111,25.866,111,56.481v57.064
			c11-10.444,24.606-16.175,39.294-16.175c14.767,0,29.538,5.935,39.894,16.282l0.812,0.445V56.481
			c0-31.188,23.815-55.619,54.5-55.619c30.686,0,54.5,24.431,54.5,55.619v180.013c0,0.291,0.121,0.584,0.177,0.877L300,237.405V239
			h-2.205c0.004,0,0.006,0,0.011,0H300v5.35c0,1.738,0.529,3.547,0.449,5.388c-0.064,1.463-0.293,2.888-0.649,4.257
			c-0.069,0.94-0.169,1.87-0.285,2.789l-2.735,12.342l-0.259,0.604c-2.312,5.431-5.447,10.423-9.324,14.852l-0.13,0.171
			l-1.247,1.346l-0.36,0.415l-0.501,0.481c-0.124,0.127-0.847,0.847-0.847,0.847l-0.519,0.501l-0.891,0.821
			c-4.473,4.06-9.535,7.343-15.054,9.764l-2.836,1.203c0,0-5.16,1.662-7.651,2.205L245.755,304L232.497,302.207z"/>
	</g>
	<g>
		<g>
			<path fill="#F89C20" d="M19.981,56.481v191.477c0.004-9.041,3.454-18.078,10.353-24.978l60.349-60.349V56.481
				c0-19.513-15.808-35.332-35.314-35.352H55.29C35.785,21.149,19.981,36.969,19.981,56.481z M69.793,56.481
				c0,7.988-6.474,14.46-14.464,14.46c-7.986,0-14.462-6.472-14.462-14.46s6.476-14.464,14.462-14.464
				C63.319,42.018,69.793,48.494,69.793,56.481z"/>
			<path fill="#E54E26" d="M125.331,127.988c6.903-6.898,15.948-10.351,24.994-10.351c-9.046,0-18.095,3.447-25,10.351
				l-34.642,34.644v85.346c0,9.762-3.958,18.601-10.355,24.997l69.997-69.995l-24.994-24.993
				C111.526,164.18,111.526,141.795,125.331,127.988z"/>
			<path fill="#D02E27" d="M19.981,247.958c0,0.004-0.002,0.012-0.002,0.02c0,0.146,0.002,0.293,0.002,0.436
				c0.002,0.075,0.002,0.146,0.006,0.222c0,0.071,0,0.143,0.002,0.21c0.004,0.103,0.008,0.206,0.012,0.305
				c0,0.04,0.002,0.079,0.002,0.119c0.006,0.122,0.01,0.249,0.016,0.372c0.002,0.016,0.002,0.027,0.002,0.039
				c0.188,3.938,1.031,7.846,2.529,11.555c0.008,0.02,0.016,0.039,0.023,0.06c0.03,0.075,0.062,0.146,0.091,0.218
				c0.028,0.07,0.059,0.142,0.085,0.213c0.01,0.021,0.02,0.044,0.03,0.067c1.562,3.674,3.729,7.03,6.377,9.943
				c0.012,0.017,0.023,0.028,0.034,0.044c0.081,0.087,0.164,0.174,0.245,0.265c0.032,0.032,0.062,0.063,0.089,0.096
				c0.069,0.071,0.134,0.143,0.2,0.214c0.056,0.055,0.111,0.11,0.164,0.17c0.044,0.043,0.091,0.091,0.135,0.139
				c0.101,0.103,0.208,0.21,0.311,0.312c0.103,0.103,0.208,0.206,0.313,0.309c0.045,0.044,0.095,0.091,0.141,0.135
				c0.057,0.056,0.113,0.11,0.168,0.162c0.069,0.067,0.141,0.135,0.212,0.202c0.032,0.027,0.065,0.06,0.097,0.091
				c0.089,0.079,0.178,0.162,0.265,0.245c0.014,0.013,0.025,0.024,0.042,0.032c2.911,2.648,6.268,4.813,9.941,6.377
				c0.025,0.008,0.049,0.02,0.073,0.031c0.067,0.028,0.138,0.056,0.206,0.083c0.075,0.032,0.148,0.063,0.224,0.091
				c0.018,0.009,0.04,0.017,0.058,0.024c3.707,1.5,7.618,2.343,11.554,2.529c0.012,0.004,0.024,0.004,0.036,0.004
				c0.126,0.004,0.253,0.012,0.38,0.016c0.036,0,0.073,0,0.109,0c0.105,0.008,0.208,0.008,0.313,0.012
				c0.065,0.004,0.13,0.004,0.2,0.004c0.075,0.004,0.154,0.004,0.229,0.004c0.135,0,0.271,0.005,0.408,0.005h0.06
				c0.137,0,0.273-0.005,0.408-0.005c0.075,0,0.152,0,0.229-0.004c0.067,0,0.133,0,0.198-0.004c0.105-0.004,0.21-0.004,0.313-0.012
				c0.038,0,0.073,0,0.111,0c0.128-0.004,0.253-0.012,0.38-0.016l0.036-0.004c3.937-0.187,7.843-1.029,11.552-2.525
				c0.018-0.012,0.04-0.02,0.06-0.028c0.073-0.027,0.145-0.059,0.218-0.087c0.071-0.027,0.143-0.059,0.213-0.091
				c0.02-0.008,0.042-0.016,0.067-0.023c3.675-1.563,7.034-3.732,9.948-6.381c0.01-0.008,0.021-0.016,0.031-0.028
				c0.091-0.083,0.185-0.166,0.275-0.253c0.025-0.027,0.058-0.052,0.085-0.079c0.073-0.071,0.148-0.139,0.224-0.21
				c0.05-0.047,0.099-0.099,0.148-0.146c0.056-0.052,0.108-0.099,0.16-0.15c0.105-0.103,0.21-0.206,0.311-0.309
				c6.399-6.4,10.355-15.235,10.355-24.997v-85.346L30.334,222.98C23.436,229.88,19.986,238.917,19.981,247.958z M55.332,262.465
				c-7.988,0-14.464-6.476-14.464-14.463c0-7.988,6.476-14.464,14.464-14.464c7.99,0,14.462,6.476,14.462,14.464
				C69.793,255.989,63.321,262.465,55.332,262.465z"/>
			<path fill="#694D9F" d="M209.968,247.978v-85.346l-34.642-34.644c-6.905-6.903-15.954-10.351-25.001-10.351
				c9.047,0,18.09,3.452,24.995,10.351c2.589,2.589,4.692,5.48,6.31,8.559c7.011,13.344,4.908,30.222-6.31,41.439l-24.995,24.993
				l69.976,69.972c-3.386-3.393-6.062-7.485-7.852-12.025C210.866,256.912,209.968,252.554,209.968,247.978z"/>
			<path fill="#7F1333" d="M181.63,136.547c-1.617-3.078-3.721-5.97-6.31-8.559c-6.905-6.898-15.948-10.351-24.995-10.351
				c-9.046,0-18.091,3.452-24.994,10.351c-13.803,13.807-13.803,36.191,0,49.998l24.994,24.993l24.995-24.993
				C186.538,166.769,188.641,149.891,181.63,136.547z M140.096,163.214c-5.648-5.648-5.648-14.804,0-20.452
				c2.824-2.822,6.527-4.24,10.229-4.236c3.701-0.004,7.404,1.414,10.23,4.236c5.648,5.648,5.648,14.804,0,20.452
				c-2.826,2.826-6.529,4.235-10.23,4.235C146.623,167.449,142.924,166.04,140.096,163.214z"/>
			<path fill="#263C81" d="M212.449,260.926c1.79,4.54,4.466,8.633,7.852,12.025c0.008,0.008,0.014,0.016,0.021,0.023
				c0.106,0.103,0.209,0.206,0.312,0.309c0.053,0.052,0.104,0.104,0.16,0.15c0.048,0.048,0.101,0.1,0.152,0.146
				c0.073,0.071,0.146,0.143,0.22,0.21c0.029,0.027,0.058,0.052,0.085,0.079c0.093,0.083,0.183,0.17,0.277,0.253
				c0.01,0.013,0.018,0.021,0.029,0.028c2.913,2.648,6.272,4.817,9.949,6.377c0.022,0.008,0.044,0.02,0.069,0.027
				c0.067,0.032,0.139,0.06,0.21,0.091c0.073,0.028,0.146,0.06,0.222,0.092c0.018,0.004,0.037,0.012,0.056,0.023
				c3.709,1.496,7.619,2.339,11.552,2.525l0.04,0.004c0.123,0.004,0.249,0.012,0.376,0.016c0.035,0,0.073,0,0.108,0.004
				c0.107,0,0.21,0.004,0.313,0.008c0.067,0,0.135,0.004,0.199,0.004c0.077,0,0.154,0.004,0.232,0.004c0.134,0,0.269,0,0.405,0
				h0.063c0.133,0,0.267,0,0.401,0c0.077,0,0.156-0.004,0.233-0.004c0.067,0,0.133-0.004,0.2-0.004
				c0.103-0.004,0.208-0.008,0.311-0.008c0.038-0.004,0.073-0.004,0.111-0.004c0.124-0.004,0.255-0.012,0.378-0.016
				c0.012,0,0.023,0,0.033-0.004c3.938-0.187,7.848-1.029,11.559-2.529c0.02-0.008,0.038-0.016,0.056-0.02
				c0.075-0.032,0.148-0.063,0.224-0.096c0.067-0.027,0.139-0.055,0.206-0.083c0.023-0.012,0.049-0.023,0.071-0.031
				c3.675-1.563,7.031-3.729,9.945-6.373c0.012-0.012,0.025-0.023,0.039-0.04c0.089-0.079,0.176-0.162,0.266-0.241
				c0.033-0.031,0.064-0.063,0.095-0.091c0.071-0.067,0.143-0.135,0.214-0.202c0.058-0.052,0.11-0.106,0.168-0.162
				c0.048-0.044,0.095-0.091,0.143-0.135c0.103-0.103,0.208-0.206,0.311-0.309c0.107-0.103,0.208-0.21,0.311-0.312
				c0.046-0.048,0.092-0.096,0.137-0.139c0.052-0.06,0.109-0.115,0.162-0.174c0.063-0.067,0.133-0.139,0.198-0.21
				c0.029-0.032,0.062-0.063,0.091-0.096c0.081-0.087,0.164-0.178,0.244-0.265c0.012-0.016,0.025-0.027,0.037-0.044
				c2.646-2.909,4.812-6.27,6.375-9.943c0.008-0.023,0.02-0.047,0.027-0.067c0.03-0.071,0.06-0.143,0.088-0.213
				c0.031-0.071,0.061-0.146,0.093-0.218c0.006-0.021,0.014-0.04,0.023-0.06c1.496-3.705,2.338-7.616,2.527-11.551
				c0-0.016,0.002-0.027,0.002-0.043c0.008-0.123,0.012-0.25,0.018-0.372c0-0.04,0.002-0.079,0.002-0.119
				c0.005-0.099,0.007-0.202,0.011-0.305c0.002-0.071,0.004-0.143,0.004-0.21c0.002-0.075,0.002-0.146,0.004-0.222
				c0.002-0.146,0.002-0.289,0.002-0.436c0-9.049-3.452-18.094-10.355-24.997l-60.347-60.349v85.346
				C209.97,252.554,210.868,256.912,212.449,260.926z M245.321,233.538c7.988,0,14.464,6.476,14.464,14.464
				c0,7.987-6.476,14.463-14.464,14.463c-7.987,0-14.466-6.476-14.466-14.463C230.855,240.014,237.334,233.538,245.321,233.538z"/>
			<path fill="#2EB3C4" d="M209.97,56.481v106.15l60.349,60.349c6.901,6.903,10.354,15.948,10.354,24.997V56.481
				c0-19.526-15.828-35.352-35.351-35.352C225.797,21.129,209.97,36.955,209.97,56.481z M245.321,42.018
				c7.986,0,14.464,6.476,14.464,14.464s-6.478,14.464-14.464,14.464c-7.989,0-14.466-6.476-14.466-14.464
				S237.332,42.018,245.321,42.018z"/>
		</g>
	</g>
</g>
</svg>
