<?xml version="1.0" encoding="utf-8"?>
<svg version="1.0" xmlns="http://www.w3.org/2000/svg" width="300px" height="300px" viewBox="0 0 143.4 152.3">
<g fill="#CDD452">
	<path d="M142.7,122.7c-4-6.9-12.2-1.6-16.5,2.5c-5.7-1.1-18.5-3.9-33.4-7.4c13.8-4.3,25.2-7.6,29-8.1
		c9,3.8,17.5,6.4,20.7,1.6c2.4-3.7-1.8-8.5-7.9-13c0.9-5.5,4-11.9-2.4-14.4c-6.8-2.7-12.2,6.8-14.9,13.3
		c-2.5,1.3-23.9,8.3-46.3,15.4c-23-5.7-44.9-11.6-49.3-14.3c-1-4.4-4.6-13.7-11.6-11.4c-7.3,2.3-3.5,11.8-1.8,15.1
		c-3.1,1.5-9.9,6.5-7.8,11.5c2,4.8,8.3,2.2,10.4,1.6c4.2-1.3,4.5-2,7.4-3c5.8,0.5,18.6,3.2,33.3,6.7c-18.8,5.9-34.3,10.7-34.3,10.7
		c-1.4-2.1-3.9-4.6-6.1-6.2c-1.6-1.1-3.2-1.6-5-1.5c-1.7,0.1-3.1,0.9-4.2,2.4c-0.9,1.2-1.1,2.6-0.9,4.1c0.2,1.5,2.4,4.5,6.4,9
		c-1.5,4.1-2.2,7.2-2.3,9.3c0,2.1,0.9,3.8,2.7,5.1c3.4,2.4,8.5-2.1,14.7-10.9c0,0,25.5-8.6,50.8-16.8c21.1,5.4,40.9,10.9,46.1,12.9
		c3.5,6.8,7.2,14.9,13.8,13.5c5.1-1.1,3.2-11,1.4-15.1C138.8,132,145.6,127.7,142.7,122.7z"/>
	<path d="M58.8,87c-6.5,0-11.3-1.6-14.5-4.7c-3.2-3.1-4.8-8-4.8-14.8V55.6c0-3.2-0.7-5.6-2.2-7.3
		c-1.4-1.6-3.8-2.4-7.2-2.4h-3V37h3c1.7,0,3.1-0.2,4.3-0.5c1.2-0.4,2.2-0.9,2.9-1.7s1.3-1.7,1.6-2.9s0.5-2.6,0.5-4.2v-8.2
		c0-3.2,0.4-6,1.1-8.5c0.7-2.4,1.9-4.5,3.4-6.1c1.6-1.6,3.6-2.9,6-3.7C52.5,0.4,55.4,0,58.8,0h3.9v8.8h-3c-1.5,0-2.9,0.2-4.1,0.5
		c-1.2,0.4-2.2,0.9-3.1,1.8c-0.9,0.8-1.5,1.9-2,3.2c-0.5,1.3-0.7,3-0.7,4.9v8.2c0,2.3-0.2,4.3-0.6,6c-0.4,1.7-1,3-1.8,4.1
		c-0.8,1.1-1.8,2-3.1,2.6c-1.2,0.6-2.7,1-4.4,1.3c3.3,0.4,5.8,1.7,7.5,3.9c1.6,2.2,2.4,5.7,2.4,10.3v11.9c0,2,0.2,3.7,0.7,5.1
		c0.5,1.3,1.1,2.4,2,3.2c0.9,0.8,1.9,1.4,3.1,1.7c1.2,0.3,2.6,0.5,4.1,0.5h3V87H58.8z"/>
	<path d="M87,0c6.5,0,11.3,1.6,14.5,4.7c3.2,3.1,4.8,8.1,4.8,14.8v7.9c0,3.2,0.7,5.6,2.1,7.2
		c1.4,1.6,3.8,2.4,7.1,2.4h3v8.9h-3c-1.7,0-3.1,0.2-4.3,0.5c-1.2,0.4-2.1,0.9-2.9,1.7c-0.7,0.8-1.3,1.7-1.6,2.9s-0.5,2.6-0.5,4.2
		v12.3c0,3.2-0.4,6-1.1,8.5c-0.7,2.4-1.9,4.4-3.4,6.1c-1.6,1.6-3.6,2.9-6,3.7C93.4,86.5,90.4,87,87,87h-3.9v-8.8h3
		c1.5,0,2.9-0.2,4.1-0.5c1.2-0.3,2.2-0.9,3.1-1.8c0.9-0.8,1.5-1.9,2-3.2c0.5-1.3,0.7-3,0.7-4.9V55.5c0-2.3,0.2-4.4,0.6-6
		c0.4-1.7,1-3.1,1.8-4.2c0.8-1.1,1.8-2,3.1-2.6c1.2-0.6,2.7-1,4.4-1.3c-3.3-0.4-5.8-1.7-7.4-4c-1.6-2.2-2.4-5.7-2.4-10.3v-7.8
		c0-2-0.2-3.7-0.7-5.1s-1.1-2.4-2-3.3c-0.9-0.8-1.9-1.4-3.1-1.7c-1.2-0.3-2.6-0.5-4.1-0.5h-3V0H87z"/>
</g>
</svg>
