<?xml version="1.0" encoding="UTF-8" standalone="no"?><svg xmlns="http://www.w3.org/2000/svg" viewBox="0 0 398 432" version="1.1"><path fill="#3177bc" d="m0 191.42c12.67-99.73 80.66-190.2 202.6-191.4 73.62 1.406 134.2 34.76 170.2 98.37 18.11 33.2 23.76 68.06 24.96 106.5v45.19h-270.6c1.239 111.6 164.2 107.8 234.4 58.6v90.84c-41.1 24.7-134.3 46.7-206.5 18.4-61.5-23.1-105.3-87.4-105-149.3-2-80.3 39.9-133.4 105-163.6-13.8 17.13-24.3 36-29.8 68.6l152.8 0.00041s8.937-91.31-86.47-91.31c-90 3.18-154.9 55.51-191.6 109.1z"/></svg>
