<?xml version="1.0" encoding="utf-8"?>
<!-- Generator: Adobe Illustrator 16.0.0, SVG Export Plug-In . SVG Version: 6.00 Build 0)  -->
<!DOCTYPE svg PUBLIC "-//W3C//DTD SVG 1.1//EN" "http://www.w3.org/Graphics/SVG/1.1/DTD/svg11.dtd">
<svg version="1.1" id="Layer_1" xmlns="http://www.w3.org/2000/svg" xmlns:xlink="http://www.w3.org/1999/xlink" x="0px" y="0px"
	 width="1050px" height="480px" viewBox="0 0 1050 480" enable-background="new 0 0 1050 480" xml:space="preserve">
<g>
	<path fill="#EB008B" d="M208.565,323.931c0-10.144,1.013-20.051,2.933-29.63c-52.257-15.925-92.41-59.605-103.283-113.871
		C46.733,199.167,2,256.321,2,323.931c0,82.852,67.157,150.01,150,150.01c40.024,0,76.386-15.679,103.283-41.227
		C226.508,405.385,208.565,366.749,208.565,323.931z"/>
	<path fill="#FFF100" d="M402.351,180.431c-10.873,54.266-51.025,97.946-103.283,113.871c1.919,9.579,2.933,19.485,2.933,29.629
		c0,42.818-17.943,81.454-46.717,108.784c26.896,25.548,63.258,41.227,103.282,41.227c82.844,0,150-67.158,150-150.01
		C508.565,256.321,463.833,199.167,402.351,180.431z"/>
	<path fill="#EC1C24" d="M302,323.931c0-10.144-1.014-20.05-2.933-29.629c-13.853,4.221-28.552,6.5-43.784,6.5
		c-15.233,0-29.934-2.278-43.785-6.5c-1.92,9.579-2.933,19.486-2.933,29.63c0,42.818,17.942,81.454,46.718,108.784
		C284.057,405.385,302,366.749,302,323.931z"/>
	<path fill="#00ADEE" d="M255.283,215.157c26.896-25.548,63.258-41.226,103.282-41.226c15.233,0,29.933,2.278,43.785,6.5
		c1.92-9.579,2.933-19.485,2.933-29.629c0-82.843-67.156-150-150-150c-82.842,0-150,67.157-150,150
		c0,10.144,1.013,20.05,2.932,29.629c13.853-4.221,28.553-6.5,43.785-6.5C192.024,173.931,228.386,189.609,255.283,215.157z"/>
	<path fill="#2E3191" d="M211.498,294.301c6.182-30.854,21.827-58.289,43.785-79.144c-26.897-25.548-63.259-41.226-103.283-41.226
		c-15.232,0-29.933,2.278-43.785,6.5C119.088,234.696,159.241,278.376,211.498,294.301z"/>
	<path fill="#00A551" d="M255.283,215.157c21.957,20.855,37.602,48.29,43.784,79.145c52.258-15.925,92.41-59.605,103.283-113.871
		c-13.853-4.221-28.552-6.5-43.785-6.5C318.541,173.931,282.18,189.609,255.283,215.157z"/>
	<path fill="#363639" d="M255.283,215.157c-21.958,20.855-37.604,48.29-43.785,79.144c13.852,4.222,28.552,6.5,43.785,6.5
		c15.232,0,29.932-2.278,43.784-6.5C292.885,263.447,277.24,236.013,255.283,215.157z"/>
</g>
<g>
	<circle fill="#231F20" cx="791.562" cy="265.368" r="98.245"/>
	<path fill="#EB008B" d="M747.729,353.31c-32.256-16.108-54.412-49.435-54.412-87.941c0-0.413,0.011-0.823,0.016-1.235
		c-24.6-21.338-42.197-50.536-48.843-83.703c-61.481,18.736-106.215,75.891-106.215,143.5c0,82.852,67.157,150.01,150,150.01
		c40.024,0,76.386-15.679,103.283-41.227C769.54,411.803,753.877,384.268,747.729,353.31z"/>
	<path fill="#FFF100" d="M938.625,180.431c-6.645,33.164-24.238,62.358-48.834,83.696c0.005,0.414,0.016,0.827,0.016,1.242
		c0,38.51-22.16,71.838-54.422,87.946c-6.148,30.957-21.812,58.49-43.827,79.401c26.896,25.548,63.258,41.227,103.282,41.227
		c82.844,0,150-67.158,150-150.01C1044.84,256.321,1000.107,199.167,938.625,180.431z"/>
	<path fill="#EC1C24" d="M835.385,353.314c-13.194,6.587-28.074,10.299-43.824,10.299c-15.753,0-30.637-3.713-43.832-10.304
		c6.148,30.958,21.812,58.493,43.829,79.405C813.572,411.804,829.236,384.271,835.385,353.314z"/>
	<path fill="#00ADEE" d="M738.618,182.594c15.278-9.793,33.447-15.471,52.942-15.471c19.494,0,37.662,5.678,52.94,15.47
		c15.735-5.605,32.68-8.662,50.339-8.662c15.233,0,29.933,2.278,43.785,6.5c1.92-9.579,2.933-19.485,2.933-29.629
		c0-82.843-67.156-150-150-150c-82.842,0-150,67.157-150,150c0,10.144,1.013,20.05,2.932,29.629c13.853-4.221,28.553-6.5,43.785-6.5
		C705.936,173.931,722.882,176.988,738.618,182.594z"/>
	<path fill="#2E3191" d="M693.332,264.133c0.423-34.25,18.363-64.283,45.286-81.539c-15.736-5.606-32.683-8.663-50.344-8.663
		c-15.232,0-29.933,2.278-43.785,6.5C651.135,213.598,668.732,242.795,693.332,264.133z"/>
	<path fill="#00A551" d="M844.501,182.593c26.923,17.254,44.865,47.285,45.29,81.534c24.596-21.337,42.189-50.532,48.834-83.696
		c-13.853-4.221-28.552-6.5-43.785-6.5C877.181,173.931,860.236,176.987,844.501,182.593z"/>
	<path fill="#230000" d="M747.772,294.301c-20.317-6.191-38.792-16.594-54.44-30.168c-0.005,0.412-0.016,0.822-0.016,1.235
		c0,38.507,22.156,71.833,54.412,87.941c-1.887-9.502-2.889-19.323-2.889-29.378C744.84,313.787,745.853,303.88,747.772,294.301z"/>
	<path fill="#1B1A00" d="M838.274,323.931c0,10.057-1.002,19.879-2.89,29.383c32.262-16.107,54.422-49.436,54.422-87.946
		c0-0.415-0.011-0.828-0.016-1.242c-15.65,13.578-34.128,23.982-54.449,30.175C837.261,303.881,838.274,313.787,838.274,323.931z"/>
	<path fill="#220000" d="M835.342,294.302c-13.853,4.221-28.552,6.5-43.784,6.5c-15.233,0-29.934-2.278-43.785-6.5
		c-1.92,9.579-2.933,19.486-2.933,29.63c0,10.056,1.002,19.876,2.889,29.378c13.195,6.59,28.079,10.304,43.832,10.304
		c15.75,0,30.63-3.712,43.824-10.299c1.888-9.503,2.89-19.326,2.89-29.383C838.274,313.787,837.261,303.881,835.342,294.302z"/>
	<path fill="#000E23" d="M844.501,182.593c-15.278-9.792-33.446-15.47-52.94-15.47c-19.495,0-37.664,5.678-52.942,15.471
		c19.926,7.099,37.911,18.289,52.939,32.563C806.587,200.881,824.573,189.691,844.501,182.593z"/>
	<path fill="#000001" d="M791.558,215.157c-15.028-14.274-33.014-25.464-52.939-32.563c-26.923,17.256-44.863,47.289-45.286,81.539
		c15.648,13.574,34.123,23.977,54.44,30.168C753.954,263.447,769.6,236.013,791.558,215.157z"/>
	<path fill="#001200" d="M844.501,182.593c-19.928,7.099-37.914,18.289-52.943,32.564c21.957,20.855,37.602,48.29,43.784,79.145
		c20.321-6.193,38.799-16.598,54.449-30.175C889.366,229.877,871.424,199.847,844.501,182.593z"/>
	<path d="M747.772,294.301c13.852,4.222,28.552,6.5,43.785,6.5c15.232,0,29.932-2.278,43.784-6.5
		c-6.183-30.854-21.827-58.289-43.784-79.145C769.6,236.013,753.954,263.447,747.772,294.301z"/>
</g>
</svg>
